solid OpenSCAD_Model
  facet normal 0.706647 0.0360656 -0.706647
    outer loop
      vertex -0.46137 -10.2 3.925
      vertex -1.54067 -7.62 2.97738
      vertex -0.593048 -7.62 3.925
    endloop
  endfacet
  facet normal 0.706647 0.0360656 -0.706647
    outer loop
      vertex -1.54067 -7.62 2.97738
      vertex -0.46137 -10.2 3.925
      vertex -1.44756 -10.2 2.93881
    endloop
  endfacet
  facet normal 0.999349 0.0360657 0
    outer loop
      vertex -1.44756 -10.2 2.93881
      vertex -1.54067 -7.62 0.872621
      vertex -1.54067 -7.62 2.97738
    endloop
  endfacet
  facet normal 0.999349 0.0360657 0
    outer loop
      vertex -1.54067 -7.62 0.872621
      vertex -1.44756 -10.2 2.93881
      vertex -1.44756 -10.2 0.911189
    endloop
  endfacet
  facet normal -0.706647 0.0360656 -0.706647
    outer loop
      vertex 2.46137 -10.2 3.925
      vertex 3 -7.62 3.51805
      vertex 3 -10.2 3.38637
    endloop
  endfacet
  facet normal -0.706647 0.0360656 -0.706647
    outer loop
      vertex 3 -7.62 3.51805
      vertex 2.46137 -10.2 3.925
      vertex 2.59305 -7.62 3.925
    endloop
  endfacet
  facet normal 0 -1 0
    outer loop
      vertex -0.593048 -7.62 7.925
      vertex 2.66805 -7.62 11.85
      vertex -0.668048 -7.62 11.85
    endloop
  endfacet
  facet normal 0 -1 0
    outer loop
      vertex -1.54067 -7.62 8.87262
      vertex -0.668048 -7.62 11.85
      vertex -1.54067 -7.62 10.9774
    endloop
  endfacet
  facet normal 0 -1 -0
    outer loop
      vertex -0.668048 -7.62 11.85
      vertex -1.54067 -7.62 8.87262
      vertex -0.593048 -7.62 7.925
    endloop
  endfacet
  facet normal -0 -1 0
    outer loop
      vertex 3 -7.62 8.33195
      vertex 2.66805 -7.62 11.85
      vertex -0.593048 -7.62 7.925
    endloop
  endfacet
  facet normal 0 -1 0
    outer loop
      vertex 2.66805 -7.62 11.85
      vertex 3 -7.62 8.33195
      vertex 3 -7.62 11.518
    endloop
  endfacet
  facet normal 0 -1 0
    outer loop
      vertex -0.593048 -7.62 7.925
      vertex 2.59305 -7.62 7.925
      vertex 3 -7.62 8.33195
    endloop
  endfacet
  facet normal 0 -1 0
    outer loop
      vertex -0.593048 -7.62 7.925
      vertex 3 -7.62 7.51805
      vertex 2.59305 -7.62 7.925
    endloop
  endfacet
  facet normal 0 -1 0
    outer loop
      vertex -0.593048 -7.62 3.925
      vertex -0.593048 -7.62 7.925
      vertex -1.54067 -7.62 6.97738
    endloop
  endfacet
  facet normal 0 -1 0
    outer loop
      vertex -0.593048 -7.62 3.925
      vertex -1.54067 -7.62 6.97738
      vertex -1.54067 -7.62 4.87262
    endloop
  endfacet
  facet normal 0 -1 0
    outer loop
      vertex -0.593048 -7.62 7.925
      vertex -0.593048 -7.62 3.925
      vertex 3 -7.62 7.51805
    endloop
  endfacet
  facet normal 0 -1 -0
    outer loop
      vertex 3 -7.62 7.51805
      vertex -0.593048 -7.62 3.925
      vertex 3 -7.62 4.33195
    endloop
  endfacet
  facet normal 0 -1 0
    outer loop
      vertex -0.593048 -7.62 3.925
      vertex 2.59305 -7.62 3.925
      vertex 3 -7.62 4.33195
    endloop
  endfacet
  facet normal 0 -1 0
    outer loop
      vertex -0.593048 -7.62 3.925
      vertex 3 -7.62 3.51805
      vertex 2.59305 -7.62 3.925
    endloop
  endfacet
  facet normal 0 -1 0
    outer loop
      vertex -0.668048 -7.62 7.62939e-07
      vertex -0.593048 -7.62 3.925
      vertex -1.54067 -7.62 2.97738
    endloop
  endfacet
  facet normal 0 -1 0
    outer loop
      vertex -0.668048 -7.62 7.62939e-07
      vertex -1.54067 -7.62 2.97738
      vertex -1.54067 -7.62 0.872621
    endloop
  endfacet
  facet normal 0 -1 -0
    outer loop
      vertex -0.593048 -7.62 3.925
      vertex -0.668048 -7.62 7.62939e-07
      vertex 3 -7.62 3.51805
    endloop
  endfacet
  facet normal 0 -1 0
    outer loop
      vertex 2.66805 -7.62 7.62939e-07
      vertex 3 -7.62 3.51805
      vertex -0.668048 -7.62 7.62939e-07
    endloop
  endfacet
  facet normal 0 -1 -0
    outer loop
      vertex 3 -7.62 3.51805
      vertex 2.66805 -7.62 7.62939e-07
      vertex 3 -7.62 0.331953
    endloop
  endfacet
  facet normal -0.706647 0.0360656 0.706647
    outer loop
      vertex 2.53637 -10.2 7.62939e-07
      vertex 3 -7.62 0.331953
      vertex 2.66805 -7.62 7.62939e-07
    endloop
  endfacet
  facet normal -0.706647 0.0360656 0.706647
    outer loop
      vertex 3 -7.62 0.331953
      vertex 2.53637 -10.2 7.62939e-07
      vertex 3 -10.2 0.46363
    endloop
  endfacet
  facet normal 0.706647 0.0360656 0.706647
    outer loop
      vertex -0.536371 -10.2 7.62939e-07
      vertex -1.54067 -7.62 0.872621
      vertex -1.44756 -10.2 0.911189
    endloop
  endfacet
  facet normal 0.706647 0.0360656 0.706647
    outer loop
      vertex -1.54067 -7.62 0.872621
      vertex -0.536371 -10.2 7.62939e-07
      vertex -0.668048 -7.62 7.62939e-07
    endloop
  endfacet
  facet normal 0.706647 0.0360656 0.706647
    outer loop
      vertex -0.46137 -10.2 3.925
      vertex -1.54067 -7.62 4.87262
      vertex -1.44756 -10.2 4.91119
    endloop
  endfacet
  facet normal 0.706647 0.0360656 0.706647
    outer loop
      vertex -1.54067 -7.62 4.87262
      vertex -0.46137 -10.2 3.925
      vertex -0.593048 -7.62 3.925
    endloop
  endfacet
  facet normal -0.706647 0.0360656 -0.706647
    outer loop
      vertex 2.46137 -10.2 7.925
      vertex 3 -7.62 7.51805
      vertex 3 -10.2 7.38637
    endloop
  endfacet
  facet normal -0.706647 0.0360656 -0.706647
    outer loop
      vertex 3 -7.62 7.51805
      vertex 2.46137 -10.2 7.925
      vertex 2.59305 -7.62 7.925
    endloop
  endfacet
  facet normal 0.706647 0.0360656 -0.706647
    outer loop
      vertex -0.46137 -10.2 7.925
      vertex -1.54067 -7.62 6.97738
      vertex -0.593048 -7.62 7.925
    endloop
  endfacet
  facet normal 0.706647 0.0360657 -0.706647
    outer loop
      vertex -1.54067 -7.62 6.97738
      vertex -0.46137 -10.2 7.925
      vertex -1.44756 -10.2 6.93881
    endloop
  endfacet
  facet normal 0.999349 0.0360657 0
    outer loop
      vertex -1.44756 -10.2 6.93881
      vertex -1.54067 -7.62 4.87262
      vertex -1.54067 -7.62 6.97738
    endloop
  endfacet
  facet normal 0.999349 0.0360657 0
    outer loop
      vertex -1.54067 -7.62 4.87262
      vertex -1.44756 -10.2 6.93881
      vertex -1.44756 -10.2 4.91119
    endloop
  endfacet
  facet normal -0.706647 0.0360656 0.706647
    outer loop
      vertex 2.46137 -10.2 3.925
      vertex 3 -7.62 4.33195
      vertex 2.59305 -7.62 3.925
    endloop
  endfacet
  facet normal -0.706647 0.0360656 0.706647
    outer loop
      vertex 3 -7.62 4.33195
      vertex 2.46137 -10.2 3.925
      vertex 3 -10.2 4.46363
    endloop
  endfacet
  facet normal 0.706647 0.0360656 0.706647
    outer loop
      vertex -0.593048 -7.62 7.925
      vertex -1.44756 -10.2 8.91119
      vertex -0.46137 -10.2 7.925
    endloop
  endfacet
  facet normal 0.706647 0.0360654 0.706647
    outer loop
      vertex -1.44756 -10.2 8.91119
      vertex -0.593048 -7.62 7.925
      vertex -1.54067 -7.62 8.87262
    endloop
  endfacet
  facet normal 0.706647 0.0360656 -0.706647
    outer loop
      vertex -0.536371 -10.2 11.85
      vertex -1.54067 -7.62 10.9774
      vertex -0.668048 -7.62 11.85
    endloop
  endfacet
  facet normal 0.706647 0.0360657 -0.706647
    outer loop
      vertex -1.54067 -7.62 10.9774
      vertex -0.536371 -10.2 11.85
      vertex -1.44756 -10.2 10.9388
    endloop
  endfacet
  facet normal 0.999349 0.0360657 0
    outer loop
      vertex -1.44756 -10.2 10.9388
      vertex -1.54067 -7.62 8.87262
      vertex -1.54067 -7.62 10.9774
    endloop
  endfacet
  facet normal 0.999349 0.0360657 0
    outer loop
      vertex -1.54067 -7.62 8.87262
      vertex -1.44756 -10.2 10.9388
      vertex -1.44756 -10.2 8.91119
    endloop
  endfacet
  facet normal -0.706647 0.0360657 -0.706646
    outer loop
      vertex 2.53637 -10.2 11.85
      vertex 3 -7.62 11.518
      vertex 3 -10.2 11.3864
    endloop
  endfacet
  facet normal -0.706647 0.0360656 -0.706647
    outer loop
      vertex 3 -7.62 11.518
      vertex 2.53637 -10.2 11.85
      vertex 2.66805 -7.62 11.85
    endloop
  endfacet
  facet normal -0.706647 0.0360655 0.706647
    outer loop
      vertex 2.59305 -7.62 7.925
      vertex 3 -10.2 8.46363
      vertex 3 -7.62 8.33195
    endloop
  endfacet
  facet normal -0.706646 0.0360656 0.706647
    outer loop
      vertex 3 -10.2 8.46363
      vertex 2.59305 -7.62 7.925
      vertex 2.46137 -10.2 7.925
    endloop
  endfacet
  facet normal -1 0 0
    outer loop
      vertex -2.4 -10.2 7.62939e-07
      vertex -2.4 -7.62 11.85
      vertex -2.4 -7.62 7.62939e-07
    endloop
  endfacet
  facet normal -1 -0 0
    outer loop
      vertex -2.4 -7.62 11.85
      vertex -2.4 -10.2 7.62939e-07
      vertex -2.4 -10.2 11.85
    endloop
  endfacet
  facet normal 0 -1 0
    outer loop
      vertex -2.85 -7.62 7.62939e-07
      vertex -2.4 -7.62 11.85
      vertex -2.85 -7.62 11.85
    endloop
  endfacet
  facet normal 0 -1 -0
    outer loop
      vertex -2.4 -7.62 11.85
      vertex -2.85 -7.62 7.62939e-07
      vertex -2.4 -7.62 7.62939e-07
    endloop
  endfacet
  facet normal 0.258819 0.965926 -0
    outer loop
      vertex 3 9.96913 7.62939e-07
      vertex 2.13837 10.2 0.0902103
      vertex 3 9.96913 0.321085
    endloop
  endfacet
  facet normal 0.258819 0.965926 0
    outer loop
      vertex 2.13837 10.2 0.0902103
      vertex 3 9.96913 7.62939e-07
      vertex 2.13837 10.2 7.62939e-07
    endloop
  endfacet
  facet normal -0.258819 0.965926 0
    outer loop
      vertex -2.85 9.96913 7.62939e-07
      vertex -1.98837 10.2 0.0902104
      vertex -1.98837 10.2 7.62939e-07
    endloop
  endfacet
  facet normal -0.258819 0.965926 0
    outer loop
      vertex -1.98837 10.2 0.0902104
      vertex -2.85 9.96913 7.62939e-07
      vertex -2.85 9.96913 0.321084
    endloop
  endfacet
  facet normal -0.258819 0 0.965926
    outer loop
      vertex 2.13837 10.2 0.0902103
      vertex 3 9.96031 0.321085
      vertex 3 9.96913 0.321085
    endloop
  endfacet
  facet normal -0.258819 1.31892e-06 0.965926
    outer loop
      vertex 3 9.96031 0.321085
      vertex 2.13837 10.2 0.0902103
      vertex 2.10545 10.2 0.0813911
    endloop
  endfacet
  facet normal 0.258819 0 -0.965926
    outer loop
      vertex 3 10.2 0.838723
      vertex 3 9.96031 0.838723
      vertex 2.10545 10.2 0.59903
    endloop
  endfacet
  facet normal 0.258819 0.965926 -0
    outer loop
      vertex 3 9.96031 0.321085
      vertex 2.10545 10.2 0.59903
      vertex 3 9.96031 0.838723
    endloop
  endfacet
  facet normal 0.258819 0.965926 0
    outer loop
      vertex 2.10545 10.2 0.59903
      vertex 3 9.96031 0.321085
      vertex 2.10545 10.2 0.0813911
    endloop
  endfacet
  facet normal 0.258819 -0 0.965926
    outer loop
      vertex -2.85 9.96031 0.321084
      vertex -1.98837 10.2 0.0902104
      vertex -2.85 9.96913 0.321084
    endloop
  endfacet
  facet normal 0.258819 5.61742e-07 0.965926
    outer loop
      vertex -1.98837 10.2 0.0902104
      vertex -2.85 9.96031 0.321084
      vertex -1.95545 10.2 0.0813911
    endloop
  endfacet
  facet normal -0.258819 -0 -0.965926
    outer loop
      vertex -2.85 10.2 0.838723
      vertex -1.95545 10.2 0.59903
      vertex -2.85 9.96031 0.838723
    endloop
  endfacet
  facet normal -0.258819 0.965926 0
    outer loop
      vertex -1.95545 10.2 0.59903
      vertex -2.85 9.96031 0.321084
      vertex -2.85 9.96031 0.838723
    endloop
  endfacet
  facet normal -0.258819 0.965926 0
    outer loop
      vertex -2.85 9.96031 0.321084
      vertex -1.95545 10.2 0.59903
      vertex -1.95545 10.2 0.0813911
    endloop
  endfacet
  facet normal 0.258819 0.965926 0
    outer loop
      vertex 3 9.96913 6.79
      vertex 2.13837 10.2 4.80979
      vertex 2.13837 10.2 6.79
    endloop
  endfacet
  facet normal 0.258819 0.965926 0
    outer loop
      vertex 2.13837 10.2 4.80979
      vertex 3 9.96913 6.79
      vertex 3 9.96913 4.57892
    endloop
  endfacet
  facet normal -0.258819 0.965926 0
    outer loop
      vertex -1.98837 10.2 4.80979
      vertex -2.85 9.96913 6.79
      vertex -1.98837 10.2 6.79
    endloop
  endfacet
  facet normal -0.258819 0.965926 0
    outer loop
      vertex -2.85 9.96913 6.79
      vertex -1.98837 10.2 4.80979
      vertex -2.85 9.96913 4.57892
    endloop
  endfacet
  facet normal 0.258819 -0 0.965926
    outer loop
      vertex 3 9.96031 4.06128
      vertex 3 10.2 4.06128
      vertex 2.10545 10.2 4.30097
    endloop
  endfacet
  facet normal -0.258819 0 -0.965926
    outer loop
      vertex 3 9.96031 4.57892
      vertex 2.13837 10.2 4.80979
      vertex 3 9.96913 4.57892
    endloop
  endfacet
  facet normal -0.258817 8.36829e-06 -0.965927
    outer loop
      vertex 2.13837 10.2 4.80979
      vertex 3 9.96031 4.57892
      vertex 2.10545 10.2 4.81861
    endloop
  endfacet
  facet normal 0.258819 0.965926 0
    outer loop
      vertex 3 9.96031 4.57892
      vertex 2.10545 10.2 4.30097
      vertex 2.10545 10.2 4.81861
    endloop
  endfacet
  facet normal 0.258819 0.965926 0
    outer loop
      vertex 2.10545 10.2 4.30097
      vertex 3 9.96031 4.57892
      vertex 3 9.96031 4.06128
    endloop
  endfacet
  facet normal -0.258819 0 0.965926
    outer loop
      vertex -1.95545 10.2 4.30097
      vertex -2.85 10.2 4.06128
      vertex -2.85 9.96031 4.06128
    endloop
  endfacet
  facet normal 0.258814 1.96358e-05 -0.965927
    outer loop
      vertex -2.85 9.96031 4.57892
      vertex -1.98837 10.2 4.80979
      vertex -1.95545 10.2 4.81861
    endloop
  endfacet
  facet normal 0.258819 0 -0.965926
    outer loop
      vertex -1.98837 10.2 4.80979
      vertex -2.85 9.96031 4.57892
      vertex -2.85 9.96913 4.57892
    endloop
  endfacet
  facet normal -0.258819 0.965926 0
    outer loop
      vertex -1.95545 10.2 4.30097
      vertex -2.85 9.96031 4.57892
      vertex -1.95545 10.2 4.81861
    endloop
  endfacet
  facet normal -0.258819 0.965926 0
    outer loop
      vertex -2.85 9.96031 4.57892
      vertex -1.95545 10.2 4.30097
      vertex -2.85 9.96031 4.06128
    endloop
  endfacet
  facet normal -1 0 0
    outer loop
      vertex -2.85 9.96913 7.62939e-07
      vertex -2.85 9.96031 0.321084
      vertex -2.85 9.96913 0.321084
    endloop
  endfacet
  facet normal -1 0 0
    outer loop
      vertex -2.85 -7.62 7.62939e-07
      vertex -2.85 9.96031 0.838723
      vertex -2.85 9.96031 0.321084
    endloop
  endfacet
  facet normal -1 0 0
    outer loop
      vertex -2.85 9.96031 0.838723
      vertex -2.85 -5.78 6.79
      vertex -2.85 9.96031 4.06128
    endloop
  endfacet
  facet normal -1 0 0
    outer loop
      vertex -2.85 9.96031 4.06128
      vertex -2.85 -5.78 6.79
      vertex -2.85 9.96031 4.57892
    endloop
  endfacet
  facet normal -1 0 0
    outer loop
      vertex -2.85 -7.62 7.62939e-07
      vertex -2.85 9.96031 0.321084
      vertex -2.85 9.96913 7.62939e-07
    endloop
  endfacet
  facet normal -1 -0 0
    outer loop
      vertex -2.85 9.96031 0.838723
      vertex -2.85 -7.62 7.62939e-07
      vertex -2.85 -5.78 6.79
    endloop
  endfacet
  facet normal -1 0 0
    outer loop
      vertex -2.85 -7.62 11.85
      vertex -2.85 -5.78 6.79
      vertex -2.85 -7.62 7.62939e-07
    endloop
  endfacet
  facet normal -1 0 0
    outer loop
      vertex -2.85 -5.78 6.79
      vertex -2.85 -7.62 11.85
      vertex -2.85 -5.78 11.85
    endloop
  endfacet
  facet normal -1 0 0
    outer loop
      vertex -2.85 9.96031 0.838723
      vertex -2.85 10.2 4.06128
      vertex -2.85 10.2 0.838723
    endloop
  endfacet
  facet normal -1 -0 0
    outer loop
      vertex -2.85 10.2 4.06128
      vertex -2.85 9.96031 0.838723
      vertex -2.85 9.96031 4.06128
    endloop
  endfacet
  facet normal -1 0 0
    outer loop
      vertex -2.85 9.96031 4.57892
      vertex -2.85 9.96913 6.79
      vertex -2.85 9.96913 4.57892
    endloop
  endfacet
  facet normal -1 -0 0
    outer loop
      vertex -2.85 9.96913 6.79
      vertex -2.85 9.96031 4.57892
      vertex -2.85 -5.78 6.79
    endloop
  endfacet
  facet normal 0 0 1
    outer loop
      vertex 3 -5.78 11.85
      vertex 2.66805 -7.62 11.85
      vertex 3 -10.2 11.85
    endloop
  endfacet
  facet normal 0 0 1
    outer loop
      vertex 3 -5.78 11.85
      vertex -0.668048 -7.62 11.85
      vertex 2.66805 -7.62 11.85
    endloop
  endfacet
  facet normal -0 0 1
    outer loop
      vertex -2.85 -5.78 11.85
      vertex -0.668048 -7.62 11.85
      vertex 3 -5.78 11.85
    endloop
  endfacet
  facet normal 0 0 1
    outer loop
      vertex -0.668048 -7.62 11.85
      vertex -2.85 -5.78 11.85
      vertex -2.4 -7.62 11.85
    endloop
  endfacet
  facet normal 0 0 1
    outer loop
      vertex -2.4 -7.62 11.85
      vertex -2.85 -5.78 11.85
      vertex -2.85 -7.62 11.85
    endloop
  endfacet
  facet normal 0 0 1
    outer loop
      vertex 3 -10.2 11.85
      vertex 2.66805 -7.62 11.85
      vertex 2.53637 -10.2 11.85
    endloop
  endfacet
  facet normal 0 0 1
    outer loop
      vertex -2.4 -10.2 11.85
      vertex -0.668048 -7.62 11.85
      vertex -2.4 -7.62 11.85
    endloop
  endfacet
  facet normal 0 0 1
    outer loop
      vertex -0.668048 -7.62 11.85
      vertex -2.4 -10.2 11.85
      vertex -0.536371 -10.2 11.85
    endloop
  endfacet
  facet normal 1 0 0
    outer loop
      vertex 3 -10.2 4.46363
      vertex 3 -7.62 3.51805
      vertex 3 -7.62 4.33195
    endloop
  endfacet
  facet normal 1 0 0
    outer loop
      vertex 3 -7.62 3.51805
      vertex 3 -10.2 4.46363
      vertex 3 -10.2 3.38637
    endloop
  endfacet
  facet normal 1 0 0
    outer loop
      vertex 3 -10.2 8.46363
      vertex 3 -7.62 7.51805
      vertex 3 -7.62 8.33195
    endloop
  endfacet
  facet normal 1 0 0
    outer loop
      vertex 3 -7.62 7.51805
      vertex 3 -10.2 8.46363
      vertex 3 -10.2 7.38637
    endloop
  endfacet
  facet normal 1 0 0
    outer loop
      vertex 3 -7.62 8.33195
      vertex 3 -5.78 11.85
      vertex 3 -7.62 11.518
    endloop
  endfacet
  facet normal 1 -0 0
    outer loop
      vertex 3 -10.2 11.85
      vertex 3 -7.62 11.518
      vertex 3 -5.78 11.85
    endloop
  endfacet
  facet normal 1 0 0
    outer loop
      vertex 3 -7.62 11.518
      vertex 3 -10.2 11.85
      vertex 3 -10.2 11.3864
    endloop
  endfacet
  facet normal 1 0 0
    outer loop
      vertex 3 -7.62 7.51805
      vertex 3 -5.78 11.85
      vertex 3 -7.62 8.33195
    endloop
  endfacet
  facet normal 1 0 0
    outer loop
      vertex 3 -5.78 11.85
      vertex 3 -7.62 7.51805
      vertex 3 -5.78 7.62939e-07
    endloop
  endfacet
  facet normal 1 -0 0
    outer loop
      vertex 3 -7.62 4.33195
      vertex 3 -5.78 7.62939e-07
      vertex 3 -7.62 7.51805
    endloop
  endfacet
  facet normal 1 -0 0
    outer loop
      vertex 3 -7.62 3.51805
      vertex 3 -5.78 7.62939e-07
      vertex 3 -7.62 4.33195
    endloop
  endfacet
  facet normal 1 -0 0
    outer loop
      vertex 3 -7.62 0.331953
      vertex 3 -5.78 7.62939e-07
      vertex 3 -7.62 3.51805
    endloop
  endfacet
  facet normal 1 0 0
    outer loop
      vertex 3 -10.2 7.62939e-07
      vertex 3 -7.62 0.331953
      vertex 3 -10.2 0.46363
    endloop
  endfacet
  facet normal 1 0 0
    outer loop
      vertex 3 -7.62 0.331953
      vertex 3 -10.2 7.62939e-07
      vertex 3 -5.78 7.62939e-07
    endloop
  endfacet
  facet normal 1 0 0
    outer loop
      vertex 3 9.96913 6.79
      vertex 3 9.96031 4.57892
      vertex 3 9.96913 4.57892
    endloop
  endfacet
  facet normal 1 0 0
    outer loop
      vertex 3 9.02 6.79
      vertex 3 9.96031 4.06128
      vertex 3 9.96031 4.57892
    endloop
  endfacet
  facet normal 1 0 0
    outer loop
      vertex 3 9.96031 4.06128
      vertex 3 9.02 7.62939e-07
      vertex 3 9.96031 0.838723
    endloop
  endfacet
  facet normal 1 0 0
    outer loop
      vertex 3 9.96031 4.06128
      vertex 3 9.02 6.79
      vertex 3 9.02 7.62939e-07
    endloop
  endfacet
  facet normal 1 -0 0
    outer loop
      vertex 3 9.02 6.79
      vertex 3 9.96031 4.57892
      vertex 3 9.96913 6.79
    endloop
  endfacet
  facet normal 1 -0 0
    outer loop
      vertex 3 9.96031 4.06128
      vertex 3 10.2 0.838723
      vertex 3 10.2 4.06128
    endloop
  endfacet
  facet normal 1 0 0
    outer loop
      vertex 3 10.2 0.838723
      vertex 3 9.96031 4.06128
      vertex 3 9.96031 0.838723
    endloop
  endfacet
  facet normal 1 -0 0
    outer loop
      vertex 3 9.96031 0.321085
      vertex 3 9.96913 7.62939e-07
      vertex 3 9.96913 0.321085
    endloop
  endfacet
  facet normal 1 0 0
    outer loop
      vertex 3 9.96031 0.838723
      vertex 3 9.02 7.62939e-07
      vertex 3 9.96031 0.321085
    endloop
  endfacet
  facet normal 1 0 0
    outer loop
      vertex 3 9.96031 0.321085
      vertex 3 9.02 7.62939e-07
      vertex 3 9.96913 7.62939e-07
    endloop
  endfacet
  facet normal 0 1 0
    outer loop
      vertex 2.10545 10.2 0.0813911
      vertex 2.13837 10.2 7.62939e-07
      vertex -1.95545 10.2 0.0813911
    endloop
  endfacet
  facet normal 0 1 -0
    outer loop
      vertex 2.13837 10.2 7.62939e-07
      vertex 2.10545 10.2 0.0813911
      vertex 2.13837 10.2 0.0902103
    endloop
  endfacet
  facet normal 0 1 0
    outer loop
      vertex -1.95545 10.2 0.0813911
      vertex -1.98837 10.2 7.62939e-07
      vertex -1.98837 10.2 0.0902104
    endloop
  endfacet
  facet normal 0 1 0
    outer loop
      vertex -1.98837 10.2 7.62939e-07
      vertex -1.95545 10.2 0.0813911
      vertex 2.13837 10.2 7.62939e-07
    endloop
  endfacet
  facet normal 0 1 0
    outer loop
      vertex -1.98837 10.2 6.79
      vertex 1 10.2 4.32172
      vertex -1.95545 10.2 4.81861
    endloop
  endfacet
  facet normal 0 1 -0
    outer loop
      vertex 2.10545 10.2 4.30097
      vertex 1 10.2 4.32172
      vertex 2.10545 10.2 4.81861
    endloop
  endfacet
  facet normal 0 1 -0
    outer loop
      vertex 2.46715 10.2 2.85456
      vertex 2.10545 10.2 4.30097
      vertex 3 10.2 4.06128
    endloop
  endfacet
  facet normal 0 1 0
    outer loop
      vertex 2.10545 10.2 4.30097
      vertex 2.46715 10.2 2.85456
      vertex 1 10.2 4.32172
    endloop
  endfacet
  facet normal 0 1 0
    outer loop
      vertex 3 10.2 4.06128
      vertex 2.49672 10.2 2.825
      vertex 2.46715 10.2 2.85456
    endloop
  endfacet
  facet normal 0 1 0
    outer loop
      vertex 2.10545 10.2 0.59903
      vertex 2.46715 10.2 2.79544
      vertex 3 10.2 0.838723
    endloop
  endfacet
  facet normal 0 1 0
    outer loop
      vertex 2.49672 10.2 2.825
      vertex 3 10.2 0.838723
      vertex 2.46715 10.2 2.79544
    endloop
  endfacet
  facet normal 0 1 -0
    outer loop
      vertex 3 10.2 0.838723
      vertex 2.49672 10.2 2.825
      vertex 3 10.2 4.06128
    endloop
  endfacet
  facet normal 0 1 0
    outer loop
      vertex 1 10.2 4.32172
      vertex 2.13837 10.2 6.79
      vertex 2.10545 10.2 4.81861
    endloop
  endfacet
  facet normal -0 1 0
    outer loop
      vertex 2.10545 10.2 4.81861
      vertex 2.13837 10.2 6.79
      vertex 2.13837 10.2 4.80979
    endloop
  endfacet
  facet normal 0 1 0
    outer loop
      vertex 2.13837 10.2 6.79
      vertex 1 10.2 4.32172
      vertex -1.98837 10.2 6.79
    endloop
  endfacet
  facet normal 0 1 0
    outer loop
      vertex -1.98837 10.2 6.79
      vertex -1.95545 10.2 4.81861
      vertex -1.98837 10.2 4.80979
    endloop
  endfacet
  facet normal 0 1 0
    outer loop
      vertex 1 10.2 4.32172
      vertex -1.95545 10.2 4.30097
      vertex -1.95545 10.2 4.81861
    endloop
  endfacet
  facet normal 0 1 -0
    outer loop
      vertex -0.467154 10.2 2.85456
      vertex -1.95545 10.2 4.30097
      vertex 1 10.2 4.32172
    endloop
  endfacet
  facet normal 0 1 -0
    outer loop
      vertex -0.496715 10.2 2.825
      vertex -1.95545 10.2 4.30097
      vertex -0.467154 10.2 2.85456
    endloop
  endfacet
  facet normal 0 1 0
    outer loop
      vertex -1.95545 10.2 4.30097
      vertex -0.496715 10.2 2.825
      vertex -2.85 10.2 4.06128
    endloop
  endfacet
  facet normal 0 1 0
    outer loop
      vertex -1.95545 10.2 0.59903
      vertex -0.496715 10.2 2.825
      vertex -0.467154 10.2 2.79544
    endloop
  endfacet
  facet normal 0 1 0
    outer loop
      vertex -1.95545 10.2 0.59903
      vertex -0.467154 10.2 2.79544
      vertex 0.999999 10.2 1.32829
    endloop
  endfacet
  facet normal 0 1 0
    outer loop
      vertex -0.496715 10.2 2.825
      vertex -1.95545 10.2 0.59903
      vertex -2.85 10.2 0.838723
    endloop
  endfacet
  facet normal 0 1 0
    outer loop
      vertex 2.46715 10.2 2.79544
      vertex 2.10545 10.2 0.59903
      vertex 0.999999 10.2 1.32829
    endloop
  endfacet
  facet normal 0 1 -0
    outer loop
      vertex 2.10545 10.2 0.0813911
      vertex 0.999999 10.2 1.32829
      vertex 2.10545 10.2 0.59903
    endloop
  endfacet
  facet normal 0 1 0
    outer loop
      vertex -0.496715 10.2 2.825
      vertex -2.85 10.2 0.838723
      vertex -2.85 10.2 4.06128
    endloop
  endfacet
  facet normal 0 1 0
    outer loop
      vertex -1.95545 10.2 0.0813911
      vertex 0.999999 10.2 1.32829
      vertex 2.10545 10.2 0.0813911
    endloop
  endfacet
  facet normal 0 1 0
    outer loop
      vertex 0.999999 10.2 1.32829
      vertex -1.95545 10.2 0.0813911
      vertex -1.95545 10.2 0.59903
    endloop
  endfacet
  facet normal 0 0 -1
    outer loop
      vertex -2.4 -10.2 7.62939e-07
      vertex -0.668048 -7.62 7.62939e-07
      vertex -0.536371 -10.2 7.62939e-07
    endloop
  endfacet
  facet normal 0 0 -1
    outer loop
      vertex -0.668048 -7.62 7.62939e-07
      vertex -2.4 -7.62 7.62939e-07
      vertex -2.25 -5.78 7.62939e-07
    endloop
  endfacet
  facet normal -0 0 -1
    outer loop
      vertex -0.668048 -7.62 7.62939e-07
      vertex -2.4 -10.2 7.62939e-07
      vertex -2.4 -7.62 7.62939e-07
    endloop
  endfacet
  facet normal 0 0 -1
    outer loop
      vertex 3 -10.2 7.62939e-07
      vertex 2.66805 -7.62 7.62939e-07
      vertex 3 -5.78 7.62939e-07
    endloop
  endfacet
  facet normal 0 -0 -1
    outer loop
      vertex 2.66805 -7.62 7.62939e-07
      vertex 3 -10.2 7.62939e-07
      vertex 2.53637 -10.2 7.62939e-07
    endloop
  endfacet
  facet normal 0 0 -1
    outer loop
      vertex -0.668048 -7.62 7.62939e-07
      vertex 3 -5.78 7.62939e-07
      vertex 2.66805 -7.62 7.62939e-07
    endloop
  endfacet
  facet normal -0 0 -1
    outer loop
      vertex 3 -5.78 7.62939e-07
      vertex -0.668048 -7.62 7.62939e-07
      vertex -2.25 -5.78 7.62939e-07
    endloop
  endfacet
  facet normal 0 0 -1
    outer loop
      vertex 3 9.02 7.62939e-07
      vertex 2.13837 10.2 7.62939e-07
      vertex 3 9.96913 7.62939e-07
    endloop
  endfacet
  facet normal 0 0 -1
    outer loop
      vertex -2.25 9.02 7.62939e-07
      vertex 2.13837 10.2 7.62939e-07
      vertex 3 9.02 7.62939e-07
    endloop
  endfacet
  facet normal -0 0 -1
    outer loop
      vertex 2.13837 10.2 7.62939e-07
      vertex -2.25 9.02 7.62939e-07
      vertex -1.98837 10.2 7.62939e-07
    endloop
  endfacet
  facet normal 0 0 -1
    outer loop
      vertex -2.85 -7.62 7.62939e-07
      vertex -2.25 -5.78 7.62939e-07
      vertex -2.4 -7.62 7.62939e-07
    endloop
  endfacet
  facet normal 0 0 -1
    outer loop
      vertex -2.85 9.96913 7.62939e-07
      vertex -2.25 -5.78 7.62939e-07
      vertex -2.85 -7.62 7.62939e-07
    endloop
  endfacet
  facet normal 0 0 -1
    outer loop
      vertex -2.25 9.02 7.62939e-07
      vertex -2.85 9.96913 7.62939e-07
      vertex -1.98837 10.2 7.62939e-07
    endloop
  endfacet
  facet normal 0 0 -1
    outer loop
      vertex -2.25 -5.78 7.62939e-07
      vertex -2.85 9.96913 7.62939e-07
      vertex -2.25 9.02 7.62939e-07
    endloop
  endfacet
  facet normal -0 -1 -0
    outer loop
      vertex 3 -10.2 11.85
      vertex 2.53637 -10.2 11.85
      vertex 3 -10.2 11.3864
    endloop
  endfacet
  facet normal 0 -1 -0
    outer loop
      vertex 3 -10.2 0.46363
      vertex 2.53637 -10.2 7.62939e-07
      vertex 3 -10.2 7.62939e-07
    endloop
  endfacet
  facet normal 0 -1 0
    outer loop
      vertex -2.4 -10.2 11.85
      vertex -1.44756 -10.2 10.9388
      vertex -0.536371 -10.2 11.85
    endloop
  endfacet
  facet normal 0 -1 0
    outer loop
      vertex -2.4 -10.2 11.85
      vertex -1.44756 -10.2 8.91119
      vertex -1.44756 -10.2 10.9388
    endloop
  endfacet
  facet normal 0 -1 0
    outer loop
      vertex -1.44756 -10.2 8.91119
      vertex -1.44756 -10.2 6.93881
      vertex -0.46137 -10.2 7.925
    endloop
  endfacet
  facet normal 0 -1 0
    outer loop
      vertex -2.4 -10.2 11.85
      vertex -1.44756 -10.2 6.93881
      vertex -1.44756 -10.2 8.91119
    endloop
  endfacet
  facet normal 0 -1 0
    outer loop
      vertex -2.4 -10.2 11.85
      vertex -1.44756 -10.2 4.91119
      vertex -1.44756 -10.2 6.93881
    endloop
  endfacet
  facet normal 0 -1 0
    outer loop
      vertex -1.44756 -10.2 4.91119
      vertex -1.44756 -10.2 2.93881
      vertex -0.46137 -10.2 3.925
    endloop
  endfacet
  facet normal 0 -1 0
    outer loop
      vertex -2.4 -10.2 7.62939e-07
      vertex -1.44756 -10.2 4.91119
      vertex -2.4 -10.2 11.85
    endloop
  endfacet
  facet normal 0 -1 -0
    outer loop
      vertex -1.44756 -10.2 4.91119
      vertex -2.4 -10.2 7.62939e-07
      vertex -1.44756 -10.2 2.93881
    endloop
  endfacet
  facet normal 0 -1 -0
    outer loop
      vertex -1.44756 -10.2 2.93881
      vertex -2.4 -10.2 7.62939e-07
      vertex -1.44756 -10.2 0.911189
    endloop
  endfacet
  facet normal 0 -1 -0
    outer loop
      vertex -1.44756 -10.2 0.911189
      vertex -2.4 -10.2 7.62939e-07
      vertex -0.536371 -10.2 7.62939e-07
    endloop
  endfacet
  facet normal 0 -1 -0
    outer loop
      vertex 3 -10.2 4.46363
      vertex 2.46137 -10.2 3.925
      vertex 3 -10.2 3.38637
    endloop
  endfacet
  facet normal 0 -1 -0
    outer loop
      vertex 3 -10.2 8.46363
      vertex 2.46137 -10.2 7.925
      vertex 3 -10.2 7.38637
    endloop
  endfacet
  facet normal 0 0 1
    outer loop
      vertex 2.13837 10.2 6.79
      vertex 3 9.02 6.79
      vertex 3 9.96913 6.79
    endloop
  endfacet
  facet normal 0 0 1
    outer loop
      vertex -2.25 9.02 6.79
      vertex 2.13837 10.2 6.79
      vertex -1.98837 10.2 6.79
    endloop
  endfacet
  facet normal 0 0 1
    outer loop
      vertex 2.13837 10.2 6.79
      vertex -2.25 9.02 6.79
      vertex 3 9.02 6.79
    endloop
  endfacet
  facet normal -0 0 1
    outer loop
      vertex -2.85 9.96913 6.79
      vertex -2.25 9.02 6.79
      vertex -1.98837 10.2 6.79
    endloop
  endfacet
  facet normal 0 0 1
    outer loop
      vertex -2.85 -5.78 6.79
      vertex -2.25 9.02 6.79
      vertex -2.85 9.96913 6.79
    endloop
  endfacet
  facet normal 0 0 1
    outer loop
      vertex -2.25 9.02 6.79
      vertex -2.85 -5.78 6.79
      vertex -2.25 -5.78 6.79
    endloop
  endfacet
  facet normal 0 1 0
    outer loop
      vertex 3 -5.78 11.85
      vertex -2.25 -5.78 6.79
      vertex -2.85 -5.78 11.85
    endloop
  endfacet
  facet normal 0 1 -0
    outer loop
      vertex 3 -5.78 7.62939e-07
      vertex -2.25 -5.78 6.79
      vertex 3 -5.78 11.85
    endloop
  endfacet
  facet normal 0 1 0
    outer loop
      vertex -2.25 -5.78 6.79
      vertex 3 -5.78 7.62939e-07
      vertex -2.25 -5.78 7.62939e-07
    endloop
  endfacet
  facet normal 0 1 0
    outer loop
      vertex -2.85 -5.78 11.85
      vertex -2.25 -5.78 6.79
      vertex -2.85 -5.78 6.79
    endloop
  endfacet
  facet normal 0.704997 0.0771892 0.704997
    outer loop
      vertex 0.824817 9.02 1.63266
      vertex 0.999999 10.2 1.32829
      vertex -0.467154 10.2 2.79544
    endloop
  endfacet
  facet normal 0.704997 0.0771892 0.704997
    outer loop
      vertex 0.999999 10.2 1.32829
      vertex 0.824817 9.02 1.63266
      vertex 0.999999 9.02 1.45748
    endloop
  endfacet
  facet normal -0.704997 0.0771897 -0.704997
    outer loop
      vertex 2.36752 9.02 2.825
      vertex 2.46715 10.2 2.85456
      vertex 2.49672 10.2 2.825
    endloop
  endfacet
  facet normal -0.704997 0.0771898 -0.704997
    outer loop
      vertex 2.46715 10.2 2.85456
      vertex 2.36752 9.02 2.825
      vertex 1.17518 9.02 4.01734
    endloop
  endfacet
  facet normal -0.704997 0.0771892 -0.704997
    outer loop
      vertex 1.17518 9.02 4.01734
      vertex 1 10.2 4.32172
      vertex 2.46715 10.2 2.85456
    endloop
  endfacet
  facet normal -0.704997 0.0771892 -0.704997
    outer loop
      vertex 1 10.2 4.32172
      vertex 1.17518 9.02 4.01734
      vertex 1 9.02 4.19252
    endloop
  endfacet
  facet normal 0.704997 0.0771898 -0.704997
    outer loop
      vertex -0.367518 9.02 2.825
      vertex -0.467154 10.2 2.85456
      vertex 0.824818 9.02 4.01734
    endloop
  endfacet
  facet normal 0.704997 0.0771897 -0.704997
    outer loop
      vertex -0.467154 10.2 2.85456
      vertex -0.367518 9.02 2.825
      vertex -0.496715 10.2 2.825
    endloop
  endfacet
  facet normal 0.704997 0.0771892 -0.704997
    outer loop
      vertex 0.824818 9.02 4.01734
      vertex 1 10.2 4.32172
      vertex 1 9.02 4.19252
    endloop
  endfacet
  facet normal 0.704997 0.0771892 -0.704997
    outer loop
      vertex 1 10.2 4.32172
      vertex 0.824818 9.02 4.01734
      vertex -0.467154 10.2 2.85456
    endloop
  endfacet
  facet normal -0.704997 0.0771893 0.704997
    outer loop
      vertex 0.999999 10.2 1.32829
      vertex 1.17518 9.02 1.63266
      vertex 2.46715 10.2 2.79544
    endloop
  endfacet
  facet normal -0.704997 0.0771893 0.704997
    outer loop
      vertex 1.17518 9.02 1.63266
      vertex 0.999999 10.2 1.32829
      vertex 0.999999 9.02 1.45748
    endloop
  endfacet
  facet normal -0.704997 0.0771897 0.704997
    outer loop
      vertex 2.46715 10.2 2.79544
      vertex 2.36752 9.02 2.825
      vertex 2.49672 10.2 2.825
    endloop
  endfacet
  facet normal -0.704997 0.0771897 0.704997
    outer loop
      vertex 2.36752 9.02 2.825
      vertex 2.46715 10.2 2.79544
      vertex 1.17518 9.02 1.63266
    endloop
  endfacet
  facet normal 0.704997 0.0771898 0.704997
    outer loop
      vertex -0.367518 9.02 2.825
      vertex -0.467154 10.2 2.79544
      vertex -0.496715 10.2 2.825
    endloop
  endfacet
  facet normal 0.704998 0.0771898 0.704997
    outer loop
      vertex -0.467154 10.2 2.79544
      vertex -0.367518 9.02 2.825
      vertex 0.824817 9.02 1.63266
    endloop
  endfacet
  facet normal 1 -0 0
    outer loop
      vertex -2.25 -5.78 6.79
      vertex -2.25 9.02 7.62939e-07
      vertex -2.25 9.02 6.79
    endloop
  endfacet
  facet normal 1 0 0
    outer loop
      vertex -2.25 9.02 7.62939e-07
      vertex -2.25 -5.78 6.79
      vertex -2.25 -5.78 7.62939e-07
    endloop
  endfacet
  facet normal 0 -1 0
    outer loop
      vertex -2.25 9.02 6.79
      vertex 1 9.02 4.19252
      vertex 3 9.02 6.79
    endloop
  endfacet
  facet normal 0 -1 0
    outer loop
      vertex -2.25 9.02 6.79
      vertex 0.824818 9.02 4.01734
      vertex 1 9.02 4.19252
    endloop
  endfacet
  facet normal 0 -1 0
    outer loop
      vertex -2.25 9.02 6.79
      vertex -0.367518 9.02 2.825
      vertex 0.824818 9.02 4.01734
    endloop
  endfacet
  facet normal 0 -1 -0
    outer loop
      vertex 0.824817 9.02 1.63266
      vertex -2.25 9.02 7.62939e-07
      vertex 0.999999 9.02 1.45748
    endloop
  endfacet
  facet normal 0 -1 -0
    outer loop
      vertex -0.367518 9.02 2.825
      vertex -2.25 9.02 7.62939e-07
      vertex 0.824817 9.02 1.63266
    endloop
  endfacet
  facet normal 0 -1 0
    outer loop
      vertex -2.25 9.02 7.62939e-07
      vertex -0.367518 9.02 2.825
      vertex -2.25 9.02 6.79
    endloop
  endfacet
  facet normal 0 -1 0
    outer loop
      vertex 1.17518 9.02 4.01734
      vertex 3 9.02 6.79
      vertex 1 9.02 4.19252
    endloop
  endfacet
  facet normal 0 -1 0
    outer loop
      vertex 2.36752 9.02 2.825
      vertex 3 9.02 6.79
      vertex 1.17518 9.02 4.01734
    endloop
  endfacet
  facet normal 0 -1 0
    outer loop
      vertex 2.36752 9.02 2.825
      vertex 3 9.02 7.62939e-07
      vertex 3 9.02 6.79
    endloop
  endfacet
  facet normal 0 -1 0
    outer loop
      vertex 1.17518 9.02 1.63266
      vertex 3 9.02 7.62939e-07
      vertex 2.36752 9.02 2.825
    endloop
  endfacet
  facet normal 0 -1 0
    outer loop
      vertex 0.999999 9.02 1.45748
      vertex 3 9.02 7.62939e-07
      vertex 1.17518 9.02 1.63266
    endloop
  endfacet
  facet normal 0 -1 0
    outer loop
      vertex 3 9.02 7.62939e-07
      vertex 0.999999 9.02 1.45748
      vertex -2.25 9.02 7.62939e-07
    endloop
  endfacet
endsolid OpenSCAD_Model
