solid OpenSCAD_Model
  facet normal 0.707108 0.707106 0
    outer loop
      vertex -90.8 -3.1 3.41
      vertex -92 -1.9 2.2
      vertex -92 -1.9 3.41
    endloop
  endfacet
  facet normal 0.707108 0.707106 0
    outer loop
      vertex -92 -1.9 2.2
      vertex -90.8 -3.1 3.41
      vertex -90.8 -3.1 2.2
    endloop
  endfacet
  facet normal -0.707108 0.707106 0
    outer loop
      vertex -93.2 -3.1 2.2
      vertex -92 -1.9 3.41
      vertex -92 -1.9 2.2
    endloop
  endfacet
  facet normal -0.707108 0.707106 0
    outer loop
      vertex -92 -1.9 3.41
      vertex -93.2 -3.1 2.2
      vertex -93.2 -3.1 3.41
    endloop
  endfacet
  facet normal 0.707108 -0.707106 0
    outer loop
      vertex -92 -4.3 3.41
      vertex -90.8 -3.1 2.2
      vertex -90.8 -3.1 3.41
    endloop
  endfacet
  facet normal 0.707108 -0.707106 0
    outer loop
      vertex -90.8 -3.1 2.2
      vertex -92 -4.3 3.41
      vertex -92 -4.3 2.2
    endloop
  endfacet
  facet normal -0.707108 -0.707106 0
    outer loop
      vertex -92 -4.3 2.2
      vertex -93.2 -3.1 3.41
      vertex -93.2 -3.1 2.2
    endloop
  endfacet
  facet normal -0.707108 -0.707106 0
    outer loop
      vertex -93.2 -3.1 3.41
      vertex -92 -4.3 2.2
      vertex -92 -4.3 3.41
    endloop
  endfacet
  facet normal 0 0 1
    outer loop
      vertex -92 -1.9 3.41
      vertex -92 -4.3 3.41
      vertex -90.8 -3.1 3.41
    endloop
  endfacet
  facet normal 0 -0 1
    outer loop
      vertex -92 -4.3 3.41
      vertex -92 -1.9 3.41
      vertex -93.2 -3.1 3.41
    endloop
  endfacet
  facet normal 0.707108 0.707106 0
    outer loop
      vertex -82.8 -3.1 3.41
      vertex -84 -1.9 2.2
      vertex -84 -1.9 3.41
    endloop
  endfacet
  facet normal 0.707108 0.707106 0
    outer loop
      vertex -84 -1.9 2.2
      vertex -82.8 -3.1 3.41
      vertex -82.8 -3.1 2.2
    endloop
  endfacet
  facet normal -0.707108 0.707106 0
    outer loop
      vertex -85.2 -3.1 2.2
      vertex -84 -1.9 3.41
      vertex -84 -1.9 2.2
    endloop
  endfacet
  facet normal -0.707108 0.707106 0
    outer loop
      vertex -84 -1.9 3.41
      vertex -85.2 -3.1 2.2
      vertex -85.2 -3.1 3.41
    endloop
  endfacet
  facet normal 0.707108 -0.707106 0
    outer loop
      vertex -84 -4.3 3.41
      vertex -82.8 -3.1 2.2
      vertex -82.8 -3.1 3.41
    endloop
  endfacet
  facet normal 0.707108 -0.707106 0
    outer loop
      vertex -82.8 -3.1 2.2
      vertex -84 -4.3 3.41
      vertex -84 -4.3 2.2
    endloop
  endfacet
  facet normal -0.707108 -0.707106 0
    outer loop
      vertex -84 -4.3 2.2
      vertex -85.2 -3.1 3.41
      vertex -85.2 -3.1 2.2
    endloop
  endfacet
  facet normal -0.707108 -0.707106 0
    outer loop
      vertex -85.2 -3.1 3.41
      vertex -84 -4.3 2.2
      vertex -84 -4.3 3.41
    endloop
  endfacet
  facet normal 0 0 1
    outer loop
      vertex -84 -1.9 3.41
      vertex -84 -4.3 3.41
      vertex -82.8 -3.1 3.41
    endloop
  endfacet
  facet normal 0 -0 1
    outer loop
      vertex -84 -4.3 3.41
      vertex -84 -1.9 3.41
      vertex -85.2 -3.1 3.41
    endloop
  endfacet
  facet normal 0.707108 0.707106 0
    outer loop
      vertex -74.8 -3.1 3.41
      vertex -76 -1.9 2.2
      vertex -76 -1.9 3.41
    endloop
  endfacet
  facet normal 0.707108 0.707106 0
    outer loop
      vertex -76 -1.9 2.2
      vertex -74.8 -3.1 3.41
      vertex -74.8 -3.1 2.2
    endloop
  endfacet
  facet normal -0.707108 0.707106 0
    outer loop
      vertex -77.2 -3.1 2.2
      vertex -76 -1.9 3.41
      vertex -76 -1.9 2.2
    endloop
  endfacet
  facet normal -0.707108 0.707106 0
    outer loop
      vertex -76 -1.9 3.41
      vertex -77.2 -3.1 2.2
      vertex -77.2 -3.1 3.41
    endloop
  endfacet
  facet normal 0.707108 -0.707106 0
    outer loop
      vertex -76 -4.3 3.41
      vertex -74.8 -3.1 2.2
      vertex -74.8 -3.1 3.41
    endloop
  endfacet
  facet normal 0.707108 -0.707106 0
    outer loop
      vertex -74.8 -3.1 2.2
      vertex -76 -4.3 3.41
      vertex -76 -4.3 2.2
    endloop
  endfacet
  facet normal -0.707108 -0.707106 0
    outer loop
      vertex -76 -4.3 2.2
      vertex -77.2 -3.1 3.41
      vertex -77.2 -3.1 2.2
    endloop
  endfacet
  facet normal -0.707108 -0.707106 0
    outer loop
      vertex -77.2 -3.1 3.41
      vertex -76 -4.3 2.2
      vertex -76 -4.3 3.41
    endloop
  endfacet
  facet normal 0 0 1
    outer loop
      vertex -76 -1.9 3.41
      vertex -76 -4.3 3.41
      vertex -74.8 -3.1 3.41
    endloop
  endfacet
  facet normal 0 -0 1
    outer loop
      vertex -76 -4.3 3.41
      vertex -76 -1.9 3.41
      vertex -77.2 -3.1 3.41
    endloop
  endfacet
  facet normal 0.707108 0.707106 0
    outer loop
      vertex -66.8 -3.1 3.41
      vertex -68 -1.9 2.2
      vertex -68 -1.9 3.41
    endloop
  endfacet
  facet normal 0.707108 0.707106 0
    outer loop
      vertex -68 -1.9 2.2
      vertex -66.8 -3.1 3.41
      vertex -66.8 -3.1 2.2
    endloop
  endfacet
  facet normal -0.707108 0.707106 0
    outer loop
      vertex -69.2 -3.1 2.2
      vertex -68 -1.9 3.41
      vertex -68 -1.9 2.2
    endloop
  endfacet
  facet normal -0.707108 0.707106 0
    outer loop
      vertex -68 -1.9 3.41
      vertex -69.2 -3.1 2.2
      vertex -69.2 -3.1 3.41
    endloop
  endfacet
  facet normal 0.707108 -0.707106 0
    outer loop
      vertex -68 -4.3 3.41
      vertex -66.8 -3.1 2.2
      vertex -66.8 -3.1 3.41
    endloop
  endfacet
  facet normal 0.707108 -0.707106 0
    outer loop
      vertex -66.8 -3.1 2.2
      vertex -68 -4.3 3.41
      vertex -68 -4.3 2.2
    endloop
  endfacet
  facet normal -0.707108 -0.707106 0
    outer loop
      vertex -68 -4.3 2.2
      vertex -69.2 -3.1 3.41
      vertex -69.2 -3.1 2.2
    endloop
  endfacet
  facet normal -0.707108 -0.707106 0
    outer loop
      vertex -69.2 -3.1 3.41
      vertex -68 -4.3 2.2
      vertex -68 -4.3 3.41
    endloop
  endfacet
  facet normal 0 0 1
    outer loop
      vertex -68 -1.9 3.41
      vertex -68 -4.3 3.41
      vertex -66.8 -3.1 3.41
    endloop
  endfacet
  facet normal 0 -0 1
    outer loop
      vertex -68 -4.3 3.41
      vertex -68 -1.9 3.41
      vertex -69.2 -3.1 3.41
    endloop
  endfacet
  facet normal 0.707107 0.707107 -0
    outer loop
      vertex -58.8 -3.1 2.2
      vertex -60 -1.9 3.41
      vertex -58.8 -3.1 3.41
    endloop
  endfacet
  facet normal 0.707107 0.707107 0
    outer loop
      vertex -60 -1.9 3.41
      vertex -58.8 -3.1 2.2
      vertex -60 -1.9 2.2
    endloop
  endfacet
  facet normal -0.707107 0.707107 0
    outer loop
      vertex -60 -1.9 2.2
      vertex -61.2 -3.1 3.41
      vertex -60 -1.9 3.41
    endloop
  endfacet
  facet normal -0.707107 0.707107 0
    outer loop
      vertex -61.2 -3.1 3.41
      vertex -60 -1.9 2.2
      vertex -61.2 -3.1 2.2
    endloop
  endfacet
  facet normal 0.707107 -0.707107 0
    outer loop
      vertex -60 -4.3 2.2
      vertex -58.8 -3.1 3.41
      vertex -60 -4.3 3.41
    endloop
  endfacet
  facet normal 0.707107 -0.707107 0
    outer loop
      vertex -58.8 -3.1 3.41
      vertex -60 -4.3 2.2
      vertex -58.8 -3.1 2.2
    endloop
  endfacet
  facet normal -0.707107 -0.707107 0
    outer loop
      vertex -61.2 -3.1 2.2
      vertex -60 -4.3 3.41
      vertex -61.2 -3.1 3.41
    endloop
  endfacet
  facet normal -0.707107 -0.707107 -0
    outer loop
      vertex -60 -4.3 3.41
      vertex -61.2 -3.1 2.2
      vertex -60 -4.3 2.2
    endloop
  endfacet
  facet normal 0 0 1
    outer loop
      vertex -60 -1.9 3.41
      vertex -60 -4.3 3.41
      vertex -58.8 -3.1 3.41
    endloop
  endfacet
  facet normal 0 -0 1
    outer loop
      vertex -60 -4.3 3.41
      vertex -60 -1.9 3.41
      vertex -61.2 -3.1 3.41
    endloop
  endfacet
  facet normal 0.707107 0.707107 -0
    outer loop
      vertex -50.8 -3.1 2.2
      vertex -52 -1.9 3.41
      vertex -50.8 -3.1 3.41
    endloop
  endfacet
  facet normal 0.707107 0.707107 0
    outer loop
      vertex -52 -1.9 3.41
      vertex -50.8 -3.1 2.2
      vertex -52 -1.9 2.2
    endloop
  endfacet
  facet normal -0.707107 0.707107 0
    outer loop
      vertex -52 -1.9 2.2
      vertex -53.2 -3.1 3.41
      vertex -52 -1.9 3.41
    endloop
  endfacet
  facet normal -0.707107 0.707107 0
    outer loop
      vertex -53.2 -3.1 3.41
      vertex -52 -1.9 2.2
      vertex -53.2 -3.1 2.2
    endloop
  endfacet
  facet normal 0.707107 -0.707107 0
    outer loop
      vertex -52 -4.3 2.2
      vertex -50.8 -3.1 3.41
      vertex -52 -4.3 3.41
    endloop
  endfacet
  facet normal 0.707107 -0.707107 0
    outer loop
      vertex -50.8 -3.1 3.41
      vertex -52 -4.3 2.2
      vertex -50.8 -3.1 2.2
    endloop
  endfacet
  facet normal -0.707107 -0.707107 0
    outer loop
      vertex -53.2 -3.1 2.2
      vertex -52 -4.3 3.41
      vertex -53.2 -3.1 3.41
    endloop
  endfacet
  facet normal -0.707107 -0.707107 -0
    outer loop
      vertex -52 -4.3 3.41
      vertex -53.2 -3.1 2.2
      vertex -52 -4.3 2.2
    endloop
  endfacet
  facet normal 0 0 1
    outer loop
      vertex -52 -1.9 3.41
      vertex -52 -4.3 3.41
      vertex -50.8 -3.1 3.41
    endloop
  endfacet
  facet normal 0 -0 1
    outer loop
      vertex -52 -4.3 3.41
      vertex -52 -1.9 3.41
      vertex -53.2 -3.1 3.41
    endloop
  endfacet
  facet normal 0.707107 0.707107 -0
    outer loop
      vertex -42.8 -3.1 2.2
      vertex -44 -1.9 3.41
      vertex -42.8 -3.1 3.41
    endloop
  endfacet
  facet normal 0.707107 0.707107 0
    outer loop
      vertex -44 -1.9 3.41
      vertex -42.8 -3.1 2.2
      vertex -44 -1.9 2.2
    endloop
  endfacet
  facet normal -0.707107 0.707107 0
    outer loop
      vertex -44 -1.9 2.2
      vertex -45.2 -3.1 3.41
      vertex -44 -1.9 3.41
    endloop
  endfacet
  facet normal -0.707107 0.707107 0
    outer loop
      vertex -45.2 -3.1 3.41
      vertex -44 -1.9 2.2
      vertex -45.2 -3.1 2.2
    endloop
  endfacet
  facet normal 0.707107 -0.707107 0
    outer loop
      vertex -44 -4.3 2.2
      vertex -42.8 -3.1 3.41
      vertex -44 -4.3 3.41
    endloop
  endfacet
  facet normal 0.707107 -0.707107 0
    outer loop
      vertex -42.8 -3.1 3.41
      vertex -44 -4.3 2.2
      vertex -42.8 -3.1 2.2
    endloop
  endfacet
  facet normal -0.707107 -0.707107 0
    outer loop
      vertex -45.2 -3.1 2.2
      vertex -44 -4.3 3.41
      vertex -45.2 -3.1 3.41
    endloop
  endfacet
  facet normal -0.707107 -0.707107 -0
    outer loop
      vertex -44 -4.3 3.41
      vertex -45.2 -3.1 2.2
      vertex -44 -4.3 2.2
    endloop
  endfacet
  facet normal 0 0 1
    outer loop
      vertex -44 -1.9 3.41
      vertex -44 -4.3 3.41
      vertex -42.8 -3.1 3.41
    endloop
  endfacet
  facet normal 0 -0 1
    outer loop
      vertex -44 -4.3 3.41
      vertex -44 -1.9 3.41
      vertex -45.2 -3.1 3.41
    endloop
  endfacet
  facet normal 0.707107 0.707107 -0
    outer loop
      vertex -34.8 -3.1 2.2
      vertex -36 -1.9 3.41
      vertex -34.8 -3.1 3.41
    endloop
  endfacet
  facet normal 0.707107 0.707107 0
    outer loop
      vertex -36 -1.9 3.41
      vertex -34.8 -3.1 2.2
      vertex -36 -1.9 2.2
    endloop
  endfacet
  facet normal -0.707107 0.707107 0
    outer loop
      vertex -36 -1.9 2.2
      vertex -37.2 -3.1 3.41
      vertex -36 -1.9 3.41
    endloop
  endfacet
  facet normal -0.707107 0.707107 0
    outer loop
      vertex -37.2 -3.1 3.41
      vertex -36 -1.9 2.2
      vertex -37.2 -3.1 2.2
    endloop
  endfacet
  facet normal 0.707107 -0.707107 0
    outer loop
      vertex -36 -4.3 2.2
      vertex -34.8 -3.1 3.41
      vertex -36 -4.3 3.41
    endloop
  endfacet
  facet normal 0.707107 -0.707107 0
    outer loop
      vertex -34.8 -3.1 3.41
      vertex -36 -4.3 2.2
      vertex -34.8 -3.1 2.2
    endloop
  endfacet
  facet normal -0.707107 -0.707107 0
    outer loop
      vertex -37.2 -3.1 2.2
      vertex -36 -4.3 3.41
      vertex -37.2 -3.1 3.41
    endloop
  endfacet
  facet normal -0.707107 -0.707107 -0
    outer loop
      vertex -36 -4.3 3.41
      vertex -37.2 -3.1 2.2
      vertex -36 -4.3 2.2
    endloop
  endfacet
  facet normal 0 0 1
    outer loop
      vertex -36 -1.9 3.41
      vertex -36 -4.3 3.41
      vertex -34.8 -3.1 3.41
    endloop
  endfacet
  facet normal 0 -0 1
    outer loop
      vertex -36 -4.3 3.41
      vertex -36 -1.9 3.41
      vertex -37.2 -3.1 3.41
    endloop
  endfacet
  facet normal 0.707107 0.707107 -0
    outer loop
      vertex -26.8 -3.1 2.2
      vertex -28 -1.9 3.41
      vertex -26.8 -3.1 3.41
    endloop
  endfacet
  facet normal 0.707107 0.707107 0
    outer loop
      vertex -28 -1.9 3.41
      vertex -26.8 -3.1 2.2
      vertex -28 -1.9 2.2
    endloop
  endfacet
  facet normal -0.707107 0.707107 0
    outer loop
      vertex -28 -1.9 2.2
      vertex -29.2 -3.1 3.41
      vertex -28 -1.9 3.41
    endloop
  endfacet
  facet normal -0.707107 0.707107 0
    outer loop
      vertex -29.2 -3.1 3.41
      vertex -28 -1.9 2.2
      vertex -29.2 -3.1 2.2
    endloop
  endfacet
  facet normal 0.707107 -0.707107 0
    outer loop
      vertex -28 -4.3 2.2
      vertex -26.8 -3.1 3.41
      vertex -28 -4.3 3.41
    endloop
  endfacet
  facet normal 0.707107 -0.707107 0
    outer loop
      vertex -26.8 -3.1 3.41
      vertex -28 -4.3 2.2
      vertex -26.8 -3.1 2.2
    endloop
  endfacet
  facet normal -0.707107 -0.707107 0
    outer loop
      vertex -29.2 -3.1 2.2
      vertex -28 -4.3 3.41
      vertex -29.2 -3.1 3.41
    endloop
  endfacet
  facet normal -0.707107 -0.707107 -0
    outer loop
      vertex -28 -4.3 3.41
      vertex -29.2 -3.1 2.2
      vertex -28 -4.3 2.2
    endloop
  endfacet
  facet normal 0 0 1
    outer loop
      vertex -28 -1.9 3.41
      vertex -28 -4.3 3.41
      vertex -26.8 -3.1 3.41
    endloop
  endfacet
  facet normal 0 -0 1
    outer loop
      vertex -28 -4.3 3.41
      vertex -28 -1.9 3.41
      vertex -29.2 -3.1 3.41
    endloop
  endfacet
  facet normal 0.707107 0.707107 -0
    outer loop
      vertex -18.8 -3.1 2.2
      vertex -20 -1.9 3.41
      vertex -18.8 -3.1 3.41
    endloop
  endfacet
  facet normal 0.707107 0.707107 0
    outer loop
      vertex -20 -1.9 3.41
      vertex -18.8 -3.1 2.2
      vertex -20 -1.9 2.2
    endloop
  endfacet
  facet normal -0.707107 0.707107 0
    outer loop
      vertex -20 -1.9 2.2
      vertex -21.2 -3.1 3.41
      vertex -20 -1.9 3.41
    endloop
  endfacet
  facet normal -0.707107 0.707107 0
    outer loop
      vertex -21.2 -3.1 3.41
      vertex -20 -1.9 2.2
      vertex -21.2 -3.1 2.2
    endloop
  endfacet
  facet normal 0.707107 -0.707107 0
    outer loop
      vertex -20 -4.3 2.2
      vertex -18.8 -3.1 3.41
      vertex -20 -4.3 3.41
    endloop
  endfacet
  facet normal 0.707107 -0.707107 0
    outer loop
      vertex -18.8 -3.1 3.41
      vertex -20 -4.3 2.2
      vertex -18.8 -3.1 2.2
    endloop
  endfacet
  facet normal -0.707107 -0.707107 0
    outer loop
      vertex -21.2 -3.1 2.2
      vertex -20 -4.3 3.41
      vertex -21.2 -3.1 3.41
    endloop
  endfacet
  facet normal -0.707107 -0.707107 -0
    outer loop
      vertex -20 -4.3 3.41
      vertex -21.2 -3.1 2.2
      vertex -20 -4.3 2.2
    endloop
  endfacet
  facet normal 0 0 1
    outer loop
      vertex -20 -1.9 3.41
      vertex -20 -4.3 3.41
      vertex -18.8 -3.1 3.41
    endloop
  endfacet
  facet normal 0 -0 1
    outer loop
      vertex -20 -4.3 3.41
      vertex -20 -1.9 3.41
      vertex -21.2 -3.1 3.41
    endloop
  endfacet
  facet normal 0.707107 0.707107 -0
    outer loop
      vertex -10.8 -3.1 2.2
      vertex -12 -1.9 3.41
      vertex -10.8 -3.1 3.41
    endloop
  endfacet
  facet normal 0.707107 0.707107 0
    outer loop
      vertex -12 -1.9 3.41
      vertex -10.8 -3.1 2.2
      vertex -12 -1.9 2.2
    endloop
  endfacet
  facet normal -0.707107 0.707107 0
    outer loop
      vertex -13.2 -3.1 2.2
      vertex -12 -1.9 3.41
      vertex -12 -1.9 2.2
    endloop
  endfacet
  facet normal -0.707107 0.707107 0
    outer loop
      vertex -12 -1.9 3.41
      vertex -13.2 -3.1 2.2
      vertex -13.2 -3.1 3.41
    endloop
  endfacet
  facet normal 0.707107 -0.707107 0
    outer loop
      vertex -12 -4.3 2.2
      vertex -10.8 -3.1 3.41
      vertex -12 -4.3 3.41
    endloop
  endfacet
  facet normal 0.707107 -0.707107 0
    outer loop
      vertex -10.8 -3.1 3.41
      vertex -12 -4.3 2.2
      vertex -10.8 -3.1 2.2
    endloop
  endfacet
  facet normal -0.707107 -0.707107 0
    outer loop
      vertex -12 -4.3 2.2
      vertex -13.2 -3.1 3.41
      vertex -13.2 -3.1 2.2
    endloop
  endfacet
  facet normal -0.707107 -0.707107 0
    outer loop
      vertex -13.2 -3.1 3.41
      vertex -12 -4.3 2.2
      vertex -12 -4.3 3.41
    endloop
  endfacet
  facet normal 0 0 1
    outer loop
      vertex -12 -1.9 3.41
      vertex -12 -4.3 3.41
      vertex -10.8 -3.1 3.41
    endloop
  endfacet
  facet normal 0 -0 1
    outer loop
      vertex -12 -4.3 3.41
      vertex -12 -1.9 3.41
      vertex -13.2 -3.1 3.41
    endloop
  endfacet
  facet normal 0.707107 0.707107 -0
    outer loop
      vertex -2.8 -3.1 2.2
      vertex -4 -1.9 3.41
      vertex -2.8 -3.1 3.41
    endloop
  endfacet
  facet normal 0.707107 0.707107 0
    outer loop
      vertex -4 -1.9 3.41
      vertex -2.8 -3.1 2.2
      vertex -4 -1.9 2.2
    endloop
  endfacet
  facet normal -0.707107 0.707107 0
    outer loop
      vertex -5.2 -3.1 2.2
      vertex -4 -1.9 3.41
      vertex -4 -1.9 2.2
    endloop
  endfacet
  facet normal -0.707107 0.707107 0
    outer loop
      vertex -4 -1.9 3.41
      vertex -5.2 -3.1 2.2
      vertex -5.2 -3.1 3.41
    endloop
  endfacet
  facet normal 0.707107 -0.707107 0
    outer loop
      vertex -4 -4.3 2.2
      vertex -2.8 -3.1 3.41
      vertex -4 -4.3 3.41
    endloop
  endfacet
  facet normal 0.707107 -0.707107 0
    outer loop
      vertex -2.8 -3.1 3.41
      vertex -4 -4.3 2.2
      vertex -2.8 -3.1 2.2
    endloop
  endfacet
  facet normal -0.707107 -0.707107 0
    outer loop
      vertex -4 -4.3 2.2
      vertex -5.2 -3.1 3.41
      vertex -5.2 -3.1 2.2
    endloop
  endfacet
  facet normal -0.707107 -0.707107 0
    outer loop
      vertex -5.2 -3.1 3.41
      vertex -4 -4.3 2.2
      vertex -4 -4.3 3.41
    endloop
  endfacet
  facet normal 0 0 1
    outer loop
      vertex -4 -1.9 3.41
      vertex -4 -4.3 3.41
      vertex -2.8 -3.1 3.41
    endloop
  endfacet
  facet normal 0 -0 1
    outer loop
      vertex -4 -4.3 3.41
      vertex -4 -1.9 3.41
      vertex -5.2 -3.1 3.41
    endloop
  endfacet
  facet normal -0.707107 0.707107 0
    outer loop
      vertex 4 -1.9 2.2
      vertex 2.8 -3.1 3.41
      vertex 4 -1.9 3.41
    endloop
  endfacet
  facet normal -0.707107 0.707107 0
    outer loop
      vertex 2.8 -3.1 3.41
      vertex 4 -1.9 2.2
      vertex 2.8 -3.1 2.2
    endloop
  endfacet
  facet normal 0.707107 0.707107 0
    outer loop
      vertex 5.2 -3.1 3.41
      vertex 4 -1.9 2.2
      vertex 4 -1.9 3.41
    endloop
  endfacet
  facet normal 0.707107 0.707107 0
    outer loop
      vertex 4 -1.9 2.2
      vertex 5.2 -3.1 3.41
      vertex 5.2 -3.1 2.2
    endloop
  endfacet
  facet normal 0 0 1
    outer loop
      vertex 4 -1.9 3.41
      vertex 4 -4.3 3.41
      vertex 5.2 -3.1 3.41
    endloop
  endfacet
  facet normal 0 -0 1
    outer loop
      vertex 4 -4.3 3.41
      vertex 4 -1.9 3.41
      vertex 2.8 -3.1 3.41
    endloop
  endfacet
  facet normal -0.707107 -0.707107 0
    outer loop
      vertex 2.8 -3.1 2.2
      vertex 4 -4.3 3.41
      vertex 2.8 -3.1 3.41
    endloop
  endfacet
  facet normal -0.707107 -0.707107 -0
    outer loop
      vertex 4 -4.3 3.41
      vertex 2.8 -3.1 2.2
      vertex 4 -4.3 2.2
    endloop
  endfacet
  facet normal 0.707107 -0.707107 0
    outer loop
      vertex 4 -4.3 3.41
      vertex 5.2 -3.1 2.2
      vertex 5.2 -3.1 3.41
    endloop
  endfacet
  facet normal 0.707107 -0.707107 0
    outer loop
      vertex 5.2 -3.1 2.2
      vertex 4 -4.3 3.41
      vertex 4 -4.3 2.2
    endloop
  endfacet
  facet normal -0.707107 0.707107 0
    outer loop
      vertex 12 -1.9 2.2
      vertex 10.8 -3.1 3.41
      vertex 12 -1.9 3.41
    endloop
  endfacet
  facet normal -0.707107 0.707107 0
    outer loop
      vertex 10.8 -3.1 3.41
      vertex 12 -1.9 2.2
      vertex 10.8 -3.1 2.2
    endloop
  endfacet
  facet normal 0.707107 0.707107 0
    outer loop
      vertex 13.2 -3.1 3.41
      vertex 12 -1.9 2.2
      vertex 12 -1.9 3.41
    endloop
  endfacet
  facet normal 0.707107 0.707107 0
    outer loop
      vertex 12 -1.9 2.2
      vertex 13.2 -3.1 3.41
      vertex 13.2 -3.1 2.2
    endloop
  endfacet
  facet normal 0 0 1
    outer loop
      vertex 12 -1.9 3.41
      vertex 12 -4.3 3.41
      vertex 13.2 -3.1 3.41
    endloop
  endfacet
  facet normal 0 -0 1
    outer loop
      vertex 12 -4.3 3.41
      vertex 12 -1.9 3.41
      vertex 10.8 -3.1 3.41
    endloop
  endfacet
  facet normal -0.707107 -0.707107 0
    outer loop
      vertex 10.8 -3.1 2.2
      vertex 12 -4.3 3.41
      vertex 10.8 -3.1 3.41
    endloop
  endfacet
  facet normal -0.707107 -0.707107 -0
    outer loop
      vertex 12 -4.3 3.41
      vertex 10.8 -3.1 2.2
      vertex 12 -4.3 2.2
    endloop
  endfacet
  facet normal 0.707107 -0.707107 0
    outer loop
      vertex 12 -4.3 3.41
      vertex 13.2 -3.1 2.2
      vertex 13.2 -3.1 3.41
    endloop
  endfacet
  facet normal 0.707107 -0.707107 0
    outer loop
      vertex 13.2 -3.1 2.2
      vertex 12 -4.3 3.41
      vertex 12 -4.3 2.2
    endloop
  endfacet
  facet normal -0.707107 0.707107 0
    outer loop
      vertex 20 -1.9 2.2
      vertex 18.8 -3.1 3.41
      vertex 20 -1.9 3.41
    endloop
  endfacet
  facet normal -0.707107 0.707107 0
    outer loop
      vertex 18.8 -3.1 3.41
      vertex 20 -1.9 2.2
      vertex 18.8 -3.1 2.2
    endloop
  endfacet
  facet normal 0.707107 0.707107 -0
    outer loop
      vertex 21.2 -3.1 2.2
      vertex 20 -1.9 3.41
      vertex 21.2 -3.1 3.41
    endloop
  endfacet
  facet normal 0.707107 0.707107 0
    outer loop
      vertex 20 -1.9 3.41
      vertex 21.2 -3.1 2.2
      vertex 20 -1.9 2.2
    endloop
  endfacet
  facet normal 0 0 1
    outer loop
      vertex 20 -1.9 3.41
      vertex 20 -4.3 3.41
      vertex 21.2 -3.1 3.41
    endloop
  endfacet
  facet normal 0 -0 1
    outer loop
      vertex 20 -4.3 3.41
      vertex 20 -1.9 3.41
      vertex 18.8 -3.1 3.41
    endloop
  endfacet
  facet normal -0.707107 -0.707107 0
    outer loop
      vertex 18.8 -3.1 2.2
      vertex 20 -4.3 3.41
      vertex 18.8 -3.1 3.41
    endloop
  endfacet
  facet normal -0.707107 -0.707107 -0
    outer loop
      vertex 20 -4.3 3.41
      vertex 18.8 -3.1 2.2
      vertex 20 -4.3 2.2
    endloop
  endfacet
  facet normal 0.707107 -0.707107 0
    outer loop
      vertex 20 -4.3 2.2
      vertex 21.2 -3.1 3.41
      vertex 20 -4.3 3.41
    endloop
  endfacet
  facet normal 0.707107 -0.707107 0
    outer loop
      vertex 21.2 -3.1 3.41
      vertex 20 -4.3 2.2
      vertex 21.2 -3.1 2.2
    endloop
  endfacet
  facet normal -0.707107 0.707107 0
    outer loop
      vertex 28 -1.9 2.2
      vertex 26.8 -3.1 3.41
      vertex 28 -1.9 3.41
    endloop
  endfacet
  facet normal -0.707107 0.707107 0
    outer loop
      vertex 26.8 -3.1 3.41
      vertex 28 -1.9 2.2
      vertex 26.8 -3.1 2.2
    endloop
  endfacet
  facet normal 0.707107 0.707107 -0
    outer loop
      vertex 29.2 -3.1 2.2
      vertex 28 -1.9 3.41
      vertex 29.2 -3.1 3.41
    endloop
  endfacet
  facet normal 0.707107 0.707107 0
    outer loop
      vertex 28 -1.9 3.41
      vertex 29.2 -3.1 2.2
      vertex 28 -1.9 2.2
    endloop
  endfacet
  facet normal 0 0 1
    outer loop
      vertex 28 -1.9 3.41
      vertex 28 -4.3 3.41
      vertex 29.2 -3.1 3.41
    endloop
  endfacet
  facet normal 0 -0 1
    outer loop
      vertex 28 -4.3 3.41
      vertex 28 -1.9 3.41
      vertex 26.8 -3.1 3.41
    endloop
  endfacet
  facet normal -0.707107 -0.707107 0
    outer loop
      vertex 26.8 -3.1 2.2
      vertex 28 -4.3 3.41
      vertex 26.8 -3.1 3.41
    endloop
  endfacet
  facet normal -0.707107 -0.707107 -0
    outer loop
      vertex 28 -4.3 3.41
      vertex 26.8 -3.1 2.2
      vertex 28 -4.3 2.2
    endloop
  endfacet
  facet normal 0.707107 -0.707107 0
    outer loop
      vertex 28 -4.3 2.2
      vertex 29.2 -3.1 3.41
      vertex 28 -4.3 3.41
    endloop
  endfacet
  facet normal 0.707107 -0.707107 0
    outer loop
      vertex 29.2 -3.1 3.41
      vertex 28 -4.3 2.2
      vertex 29.2 -3.1 2.2
    endloop
  endfacet
  facet normal -0.707107 0.707107 0
    outer loop
      vertex 36 -1.9 2.2
      vertex 34.8 -3.1 3.41
      vertex 36 -1.9 3.41
    endloop
  endfacet
  facet normal -0.707107 0.707107 0
    outer loop
      vertex 34.8 -3.1 3.41
      vertex 36 -1.9 2.2
      vertex 34.8 -3.1 2.2
    endloop
  endfacet
  facet normal 0.707107 0.707107 -0
    outer loop
      vertex 37.2 -3.1 2.2
      vertex 36 -1.9 3.41
      vertex 37.2 -3.1 3.41
    endloop
  endfacet
  facet normal 0.707107 0.707107 0
    outer loop
      vertex 36 -1.9 3.41
      vertex 37.2 -3.1 2.2
      vertex 36 -1.9 2.2
    endloop
  endfacet
  facet normal 0 0 1
    outer loop
      vertex 36 -1.9 3.41
      vertex 36 -4.3 3.41
      vertex 37.2 -3.1 3.41
    endloop
  endfacet
  facet normal 0 -0 1
    outer loop
      vertex 36 -4.3 3.41
      vertex 36 -1.9 3.41
      vertex 34.8 -3.1 3.41
    endloop
  endfacet
  facet normal -0.707107 -0.707107 0
    outer loop
      vertex 34.8 -3.1 2.2
      vertex 36 -4.3 3.41
      vertex 34.8 -3.1 3.41
    endloop
  endfacet
  facet normal -0.707107 -0.707107 -0
    outer loop
      vertex 36 -4.3 3.41
      vertex 34.8 -3.1 2.2
      vertex 36 -4.3 2.2
    endloop
  endfacet
  facet normal 0.707107 -0.707107 0
    outer loop
      vertex 36 -4.3 2.2
      vertex 37.2 -3.1 3.41
      vertex 36 -4.3 3.41
    endloop
  endfacet
  facet normal 0.707107 -0.707107 0
    outer loop
      vertex 37.2 -3.1 3.41
      vertex 36 -4.3 2.2
      vertex 37.2 -3.1 2.2
    endloop
  endfacet
  facet normal -0.707107 0.707107 0
    outer loop
      vertex 44 -1.9 2.2
      vertex 42.8 -3.1 3.41
      vertex 44 -1.9 3.41
    endloop
  endfacet
  facet normal -0.707107 0.707107 0
    outer loop
      vertex 42.8 -3.1 3.41
      vertex 44 -1.9 2.2
      vertex 42.8 -3.1 2.2
    endloop
  endfacet
  facet normal 0.707107 0.707107 -0
    outer loop
      vertex 45.2 -3.1 2.2
      vertex 44 -1.9 3.41
      vertex 45.2 -3.1 3.41
    endloop
  endfacet
  facet normal 0.707107 0.707107 0
    outer loop
      vertex 44 -1.9 3.41
      vertex 45.2 -3.1 2.2
      vertex 44 -1.9 2.2
    endloop
  endfacet
  facet normal 0 0 1
    outer loop
      vertex 44 -1.9 3.41
      vertex 44 -4.3 3.41
      vertex 45.2 -3.1 3.41
    endloop
  endfacet
  facet normal 0 -0 1
    outer loop
      vertex 44 -4.3 3.41
      vertex 44 -1.9 3.41
      vertex 42.8 -3.1 3.41
    endloop
  endfacet
  facet normal -0.707107 -0.707107 0
    outer loop
      vertex 42.8 -3.1 2.2
      vertex 44 -4.3 3.41
      vertex 42.8 -3.1 3.41
    endloop
  endfacet
  facet normal -0.707107 -0.707107 -0
    outer loop
      vertex 44 -4.3 3.41
      vertex 42.8 -3.1 2.2
      vertex 44 -4.3 2.2
    endloop
  endfacet
  facet normal 0.707107 -0.707107 0
    outer loop
      vertex 44 -4.3 2.2
      vertex 45.2 -3.1 3.41
      vertex 44 -4.3 3.41
    endloop
  endfacet
  facet normal 0.707107 -0.707107 0
    outer loop
      vertex 45.2 -3.1 3.41
      vertex 44 -4.3 2.2
      vertex 45.2 -3.1 2.2
    endloop
  endfacet
  facet normal -0.707107 0.707107 0
    outer loop
      vertex 52 -1.9 2.2
      vertex 50.8 -3.1 3.41
      vertex 52 -1.9 3.41
    endloop
  endfacet
  facet normal -0.707107 0.707107 0
    outer loop
      vertex 50.8 -3.1 3.41
      vertex 52 -1.9 2.2
      vertex 50.8 -3.1 2.2
    endloop
  endfacet
  facet normal 0.707107 0.707107 -0
    outer loop
      vertex 53.2 -3.1 2.2
      vertex 52 -1.9 3.41
      vertex 53.2 -3.1 3.41
    endloop
  endfacet
  facet normal 0.707107 0.707107 0
    outer loop
      vertex 52 -1.9 3.41
      vertex 53.2 -3.1 2.2
      vertex 52 -1.9 2.2
    endloop
  endfacet
  facet normal 0 0 1
    outer loop
      vertex 52 -1.9 3.41
      vertex 52 -4.3 3.41
      vertex 53.2 -3.1 3.41
    endloop
  endfacet
  facet normal 0 -0 1
    outer loop
      vertex 52 -4.3 3.41
      vertex 52 -1.9 3.41
      vertex 50.8 -3.1 3.41
    endloop
  endfacet
  facet normal -0.707107 -0.707107 0
    outer loop
      vertex 50.8 -3.1 2.2
      vertex 52 -4.3 3.41
      vertex 50.8 -3.1 3.41
    endloop
  endfacet
  facet normal -0.707107 -0.707107 -0
    outer loop
      vertex 52 -4.3 3.41
      vertex 50.8 -3.1 2.2
      vertex 52 -4.3 2.2
    endloop
  endfacet
  facet normal 0.707107 -0.707107 0
    outer loop
      vertex 52 -4.3 2.2
      vertex 53.2 -3.1 3.41
      vertex 52 -4.3 3.41
    endloop
  endfacet
  facet normal 0.707107 -0.707107 0
    outer loop
      vertex 53.2 -3.1 3.41
      vertex 52 -4.3 2.2
      vertex 53.2 -3.1 2.2
    endloop
  endfacet
  facet normal -0.707107 0.707107 0
    outer loop
      vertex 60 -1.9 2.2
      vertex 58.8 -3.1 3.41
      vertex 60 -1.9 3.41
    endloop
  endfacet
  facet normal -0.707107 0.707107 0
    outer loop
      vertex 58.8 -3.1 3.41
      vertex 60 -1.9 2.2
      vertex 58.8 -3.1 2.2
    endloop
  endfacet
  facet normal 0.707107 0.707107 -0
    outer loop
      vertex 61.2 -3.1 2.2
      vertex 60 -1.9 3.41
      vertex 61.2 -3.1 3.41
    endloop
  endfacet
  facet normal 0.707107 0.707107 0
    outer loop
      vertex 60 -1.9 3.41
      vertex 61.2 -3.1 2.2
      vertex 60 -1.9 2.2
    endloop
  endfacet
  facet normal 0 0 1
    outer loop
      vertex 60 -1.9 3.41
      vertex 60 -4.3 3.41
      vertex 61.2 -3.1 3.41
    endloop
  endfacet
  facet normal 0 -0 1
    outer loop
      vertex 60 -4.3 3.41
      vertex 60 -1.9 3.41
      vertex 58.8 -3.1 3.41
    endloop
  endfacet
  facet normal -0.707107 -0.707107 0
    outer loop
      vertex 58.8 -3.1 2.2
      vertex 60 -4.3 3.41
      vertex 58.8 -3.1 3.41
    endloop
  endfacet
  facet normal -0.707107 -0.707107 -0
    outer loop
      vertex 60 -4.3 3.41
      vertex 58.8 -3.1 2.2
      vertex 60 -4.3 2.2
    endloop
  endfacet
  facet normal 0.707107 -0.707107 0
    outer loop
      vertex 60 -4.3 2.2
      vertex 61.2 -3.1 3.41
      vertex 60 -4.3 3.41
    endloop
  endfacet
  facet normal 0.707107 -0.707107 0
    outer loop
      vertex 61.2 -3.1 3.41
      vertex 60 -4.3 2.2
      vertex 61.2 -3.1 2.2
    endloop
  endfacet
  facet normal -0.707108 0.707106 0
    outer loop
      vertex 66.8 -3.1 2.2
      vertex 68 -1.9 3.41
      vertex 68 -1.9 2.2
    endloop
  endfacet
  facet normal -0.707108 0.707106 0
    outer loop
      vertex 68 -1.9 3.41
      vertex 66.8 -3.1 2.2
      vertex 66.8 -3.1 3.41
    endloop
  endfacet
  facet normal 0.707108 0.707106 0
    outer loop
      vertex 69.2 -3.1 3.41
      vertex 68 -1.9 2.2
      vertex 68 -1.9 3.41
    endloop
  endfacet
  facet normal 0.707108 0.707106 0
    outer loop
      vertex 68 -1.9 2.2
      vertex 69.2 -3.1 3.41
      vertex 69.2 -3.1 2.2
    endloop
  endfacet
  facet normal 0 0 1
    outer loop
      vertex 68 -1.9 3.41
      vertex 68 -4.3 3.41
      vertex 69.2 -3.1 3.41
    endloop
  endfacet
  facet normal 0 -0 1
    outer loop
      vertex 68 -4.3 3.41
      vertex 68 -1.9 3.41
      vertex 66.8 -3.1 3.41
    endloop
  endfacet
  facet normal -0.707108 -0.707106 0
    outer loop
      vertex 68 -4.3 2.2
      vertex 66.8 -3.1 3.41
      vertex 66.8 -3.1 2.2
    endloop
  endfacet
  facet normal -0.707108 -0.707106 0
    outer loop
      vertex 66.8 -3.1 3.41
      vertex 68 -4.3 2.2
      vertex 68 -4.3 3.41
    endloop
  endfacet
  facet normal 0.707108 -0.707106 0
    outer loop
      vertex 68 -4.3 3.41
      vertex 69.2 -3.1 2.2
      vertex 69.2 -3.1 3.41
    endloop
  endfacet
  facet normal 0.707108 -0.707106 0
    outer loop
      vertex 69.2 -3.1 2.2
      vertex 68 -4.3 3.41
      vertex 68 -4.3 2.2
    endloop
  endfacet
  facet normal -0.707108 0.707106 0
    outer loop
      vertex 74.8 -3.1 2.2
      vertex 76 -1.9 3.41
      vertex 76 -1.9 2.2
    endloop
  endfacet
  facet normal -0.707108 0.707106 0
    outer loop
      vertex 76 -1.9 3.41
      vertex 74.8 -3.1 2.2
      vertex 74.8 -3.1 3.41
    endloop
  endfacet
  facet normal 0.707108 0.707106 0
    outer loop
      vertex 77.2 -3.1 3.41
      vertex 76 -1.9 2.2
      vertex 76 -1.9 3.41
    endloop
  endfacet
  facet normal 0.707108 0.707106 0
    outer loop
      vertex 76 -1.9 2.2
      vertex 77.2 -3.1 3.41
      vertex 77.2 -3.1 2.2
    endloop
  endfacet
  facet normal 0 0 1
    outer loop
      vertex 76 -1.9 3.41
      vertex 76 -4.3 3.41
      vertex 77.2 -3.1 3.41
    endloop
  endfacet
  facet normal 0 -0 1
    outer loop
      vertex 76 -4.3 3.41
      vertex 76 -1.9 3.41
      vertex 74.8 -3.1 3.41
    endloop
  endfacet
  facet normal -0.707108 -0.707106 0
    outer loop
      vertex 76 -4.3 2.2
      vertex 74.8 -3.1 3.41
      vertex 74.8 -3.1 2.2
    endloop
  endfacet
  facet normal -0.707108 -0.707106 0
    outer loop
      vertex 74.8 -3.1 3.41
      vertex 76 -4.3 2.2
      vertex 76 -4.3 3.41
    endloop
  endfacet
  facet normal 0.707108 -0.707106 0
    outer loop
      vertex 76 -4.3 3.41
      vertex 77.2 -3.1 2.2
      vertex 77.2 -3.1 3.41
    endloop
  endfacet
  facet normal 0.707108 -0.707106 0
    outer loop
      vertex 77.2 -3.1 2.2
      vertex 76 -4.3 3.41
      vertex 76 -4.3 2.2
    endloop
  endfacet
  facet normal -0.707108 0.707106 0
    outer loop
      vertex 82.8 -3.1 2.2
      vertex 84 -1.9 3.41
      vertex 84 -1.9 2.2
    endloop
  endfacet
  facet normal -0.707108 0.707106 0
    outer loop
      vertex 84 -1.9 3.41
      vertex 82.8 -3.1 2.2
      vertex 82.8 -3.1 3.41
    endloop
  endfacet
  facet normal 0.707108 0.707106 0
    outer loop
      vertex 85.2 -3.1 3.41
      vertex 84 -1.9 2.2
      vertex 84 -1.9 3.41
    endloop
  endfacet
  facet normal 0.707108 0.707106 0
    outer loop
      vertex 84 -1.9 2.2
      vertex 85.2 -3.1 3.41
      vertex 85.2 -3.1 2.2
    endloop
  endfacet
  facet normal 0 0 1
    outer loop
      vertex 84 -1.9 3.41
      vertex 84 -4.3 3.41
      vertex 85.2 -3.1 3.41
    endloop
  endfacet
  facet normal 0 -0 1
    outer loop
      vertex 84 -4.3 3.41
      vertex 84 -1.9 3.41
      vertex 82.8 -3.1 3.41
    endloop
  endfacet
  facet normal -0.707108 -0.707106 0
    outer loop
      vertex 84 -4.3 2.2
      vertex 82.8 -3.1 3.41
      vertex 82.8 -3.1 2.2
    endloop
  endfacet
  facet normal -0.707108 -0.707106 0
    outer loop
      vertex 82.8 -3.1 3.41
      vertex 84 -4.3 2.2
      vertex 84 -4.3 3.41
    endloop
  endfacet
  facet normal 0.707108 -0.707106 0
    outer loop
      vertex 84 -4.3 3.41
      vertex 85.2 -3.1 2.2
      vertex 85.2 -3.1 3.41
    endloop
  endfacet
  facet normal 0.707108 -0.707106 0
    outer loop
      vertex 85.2 -3.1 2.2
      vertex 84 -4.3 3.41
      vertex 84 -4.3 2.2
    endloop
  endfacet
  facet normal -0.707108 0.707106 0
    outer loop
      vertex 90.8 -3.1 2.2
      vertex 92 -1.9 3.41
      vertex 92 -1.9 2.2
    endloop
  endfacet
  facet normal -0.707108 0.707106 0
    outer loop
      vertex 92 -1.9 3.41
      vertex 90.8 -3.1 2.2
      vertex 90.8 -3.1 3.41
    endloop
  endfacet
  facet normal 0.707108 0.707106 0
    outer loop
      vertex 93.2 -3.1 3.41
      vertex 92 -1.9 2.2
      vertex 92 -1.9 3.41
    endloop
  endfacet
  facet normal 0.707108 0.707106 0
    outer loop
      vertex 92 -1.9 2.2
      vertex 93.2 -3.1 3.41
      vertex 93.2 -3.1 2.2
    endloop
  endfacet
  facet normal 0 0 1
    outer loop
      vertex 92 -1.9 3.41
      vertex 92 -4.3 3.41
      vertex 93.2 -3.1 3.41
    endloop
  endfacet
  facet normal 0 -0 1
    outer loop
      vertex 92 -4.3 3.41
      vertex 92 -1.9 3.41
      vertex 90.8 -3.1 3.41
    endloop
  endfacet
  facet normal -0.707108 -0.707106 0
    outer loop
      vertex 92 -4.3 2.2
      vertex 90.8 -3.1 3.41
      vertex 90.8 -3.1 2.2
    endloop
  endfacet
  facet normal -0.707108 -0.707106 0
    outer loop
      vertex 90.8 -3.1 3.41
      vertex 92 -4.3 2.2
      vertex 92 -4.3 3.41
    endloop
  endfacet
  facet normal 0.707108 -0.707106 0
    outer loop
      vertex 92 -4.3 3.41
      vertex 93.2 -3.1 2.2
      vertex 93.2 -3.1 3.41
    endloop
  endfacet
  facet normal 0.707108 -0.707106 0
    outer loop
      vertex 93.2 -3.1 2.2
      vertex 92 -4.3 3.41
      vertex 92 -4.3 2.2
    endloop
  endfacet
  facet normal -1 0 0
    outer loop
      vertex -95.85 5.925 0
      vertex -95.85 -1.34608 0.94364
      vertex -95.85 5.925 0.952459
    endloop
  endfacet
  facet normal -1 0 0
    outer loop
      vertex -95.85 -5.925 0
      vertex -95.85 -1.34608 0.94364
      vertex -95.85 5.925 0
    endloop
  endfacet
  facet normal -1 0 0
    outer loop
      vertex -95.85 -1.86372 0.94364
      vertex -95.85 -5.08628 0.94364
      vertex -95.85 -1.86372 2.2
    endloop
  endfacet
  facet normal -1 -0 0
    outer loop
      vertex -95.85 -1.34608 0.94364
      vertex -95.85 -5.925 0
      vertex -95.85 -1.86372 0.94364
    endloop
  endfacet
  facet normal -1 -0 0
    outer loop
      vertex -95.85 -1.86372 0.94364
      vertex -95.85 -5.925 0
      vertex -95.85 -5.08628 0.94364
    endloop
  endfacet
  facet normal -1 -0 0
    outer loop
      vertex -95.85 -5.08628 0.94364
      vertex -95.85 -5.925 0
      vertex -95.85 -5.60392 0.94364
    endloop
  endfacet
  facet normal -1 0 0
    outer loop
      vertex -95.85 -5.925 0.952459
      vertex -95.85 -5.60392 0.94364
      vertex -95.85 -5.925 0
    endloop
  endfacet
  facet normal -1 0 0
    outer loop
      vertex -95.85 -5.60392 0.94364
      vertex -95.85 -5.925 0.952459
      vertex -95.85 -5.60392 0.952459
    endloop
  endfacet
  facet normal -1 -0 0
    outer loop
      vertex -95.85 5.925 0.952459
      vertex -95.85 -1.34608 0.94364
      vertex -95.85 -1.34608 0.952459
    endloop
  endfacet
  facet normal -1 -0 0
    outer loop
      vertex -95.85 -1.86372 2.2
      vertex -95.85 -5.08628 0.94364
      vertex -95.85 -5.08628 2.2
    endloop
  endfacet
  facet normal 0 0 1
    outer loop
      vertex 95.1091 -1.625 2.2
      vertex 96 -5.08628 2.2
      vertex 96 -1.86372 2.2
    endloop
  endfacet
  facet normal 0 0 1
    outer loop
      vertex 95.1091 -1.625 2.2
      vertex 95.1091 -5.325 2.2
      vertex 96 -5.08628 2.2
    endloop
  endfacet
  facet normal 0 0 1
    outer loop
      vertex 95.1091 -1.625 2.2
      vertex 93.2 -3.1 2.2
      vertex 95.1091 -5.325 2.2
    endloop
  endfacet
  facet normal 0 0 1
    outer loop
      vertex 95.1091 -1.625 2.2
      vertex 92 -1.9 2.2
      vertex 93.2 -3.1 2.2
    endloop
  endfacet
  facet normal 0 0 1
    outer loop
      vertex 92 -1.9 2.2
      vertex 85.2 -3.1 2.2
      vertex 90.8 -3.1 2.2
    endloop
  endfacet
  facet normal 0 0 1
    outer loop
      vertex 92 -1.9 2.2
      vertex 84 -1.9 2.2
      vertex 85.2 -3.1 2.2
    endloop
  endfacet
  facet normal 0 0 1
    outer loop
      vertex 95.1091 -1.625 2.2
      vertex 84 -1.9 2.2
      vertex 92 -1.9 2.2
    endloop
  endfacet
  facet normal 0 0 1
    outer loop
      vertex 84 -1.9 2.2
      vertex 77.2 -3.1 2.2
      vertex 82.8 -3.1 2.2
    endloop
  endfacet
  facet normal 0 0 1
    outer loop
      vertex 84 -1.9 2.2
      vertex 76 -1.9 2.2
      vertex 77.2 -3.1 2.2
    endloop
  endfacet
  facet normal 0 0 1
    outer loop
      vertex 95.1091 -1.625 2.2
      vertex 76 -1.9 2.2
      vertex 84 -1.9 2.2
    endloop
  endfacet
  facet normal 0 0 1
    outer loop
      vertex 76 -1.9 2.2
      vertex 69.2 -3.1 2.2
      vertex 74.8 -3.1 2.2
    endloop
  endfacet
  facet normal 0 0 1
    outer loop
      vertex 76 -1.9 2.2
      vertex 68 -1.9 2.2
      vertex 69.2 -3.1 2.2
    endloop
  endfacet
  facet normal 0 0 1
    outer loop
      vertex 95.1091 -1.625 2.2
      vertex 68 -1.9 2.2
      vertex 76 -1.9 2.2
    endloop
  endfacet
  facet normal 0 0 1
    outer loop
      vertex 68 -1.9 2.2
      vertex 61.2 -3.1 2.2
      vertex 66.8 -3.1 2.2
    endloop
  endfacet
  facet normal 0 0 1
    outer loop
      vertex 68 -1.9 2.2
      vertex 60 -1.9 2.2
      vertex 61.2 -3.1 2.2
    endloop
  endfacet
  facet normal 0 0 1
    outer loop
      vertex 95.1091 -1.625 2.2
      vertex 60 -1.9 2.2
      vertex 68 -1.9 2.2
    endloop
  endfacet
  facet normal 0 0 1
    outer loop
      vertex 60 -1.9 2.2
      vertex 53.2 -3.1 2.2
      vertex 58.8 -3.1 2.2
    endloop
  endfacet
  facet normal 0 0 1
    outer loop
      vertex 60 -1.9 2.2
      vertex 52 -1.9 2.2
      vertex 53.2 -3.1 2.2
    endloop
  endfacet
  facet normal 0 0 1
    outer loop
      vertex 95.1091 -1.625 2.2
      vertex 52 -1.9 2.2
      vertex 60 -1.9 2.2
    endloop
  endfacet
  facet normal 0 0 1
    outer loop
      vertex 52 -1.9 2.2
      vertex 45.2 -3.1 2.2
      vertex 50.8 -3.1 2.2
    endloop
  endfacet
  facet normal 0 0 1
    outer loop
      vertex 52 -1.9 2.2
      vertex 44 -1.9 2.2
      vertex 45.2 -3.1 2.2
    endloop
  endfacet
  facet normal 0 0 1
    outer loop
      vertex 95.1091 -1.625 2.2
      vertex 44 -1.9 2.2
      vertex 52 -1.9 2.2
    endloop
  endfacet
  facet normal 0 0 1
    outer loop
      vertex 44 -1.9 2.2
      vertex 37.2 -3.1 2.2
      vertex 42.8 -3.1 2.2
    endloop
  endfacet
  facet normal 0 0 1
    outer loop
      vertex 44 -1.9 2.2
      vertex 36 -1.9 2.2
      vertex 37.2 -3.1 2.2
    endloop
  endfacet
  facet normal 0 0 1
    outer loop
      vertex 95.1091 -1.625 2.2
      vertex 36 -1.9 2.2
      vertex 44 -1.9 2.2
    endloop
  endfacet
  facet normal 0 0 1
    outer loop
      vertex 36 -1.9 2.2
      vertex 29.2 -3.1 2.2
      vertex 34.8 -3.1 2.2
    endloop
  endfacet
  facet normal 0 0 1
    outer loop
      vertex 36 -1.9 2.2
      vertex 28 -1.9 2.2
      vertex 29.2 -3.1 2.2
    endloop
  endfacet
  facet normal 0 0 1
    outer loop
      vertex 95.1091 -1.625 2.2
      vertex 28 -1.9 2.2
      vertex 36 -1.9 2.2
    endloop
  endfacet
  facet normal 0 0 1
    outer loop
      vertex 28 -1.9 2.2
      vertex 21.2 -3.1 2.2
      vertex 26.8 -3.1 2.2
    endloop
  endfacet
  facet normal 0 0 1
    outer loop
      vertex 28 -1.9 2.2
      vertex 20 -1.9 2.2
      vertex 21.2 -3.1 2.2
    endloop
  endfacet
  facet normal 0 0 1
    outer loop
      vertex 95.1091 -1.625 2.2
      vertex 20 -1.9 2.2
      vertex 28 -1.9 2.2
    endloop
  endfacet
  facet normal 0 0 1
    outer loop
      vertex 20 -1.9 2.2
      vertex 13.2 -3.1 2.2
      vertex 18.8 -3.1 2.2
    endloop
  endfacet
  facet normal 0 0 1
    outer loop
      vertex 20 -1.9 2.2
      vertex 12 -1.9 2.2
      vertex 13.2 -3.1 2.2
    endloop
  endfacet
  facet normal 0 0 1
    outer loop
      vertex 95.1091 -1.625 2.2
      vertex 12 -1.9 2.2
      vertex 20 -1.9 2.2
    endloop
  endfacet
  facet normal 0 0 1
    outer loop
      vertex 12 -1.9 2.2
      vertex 5.2 -3.1 2.2
      vertex 10.8 -3.1 2.2
    endloop
  endfacet
  facet normal 0 0 1
    outer loop
      vertex 12 -1.9 2.2
      vertex 4 -1.9 2.2
      vertex 5.2 -3.1 2.2
    endloop
  endfacet
  facet normal 0 0 1
    outer loop
      vertex 95.1091 -1.625 2.2
      vertex 4 -1.9 2.2
      vertex 12 -1.9 2.2
    endloop
  endfacet
  facet normal 0 0 1
    outer loop
      vertex 4 -1.9 2.2
      vertex -2.8 -3.1 2.2
      vertex 2.8 -3.1 2.2
    endloop
  endfacet
  facet normal 0 0 1
    outer loop
      vertex 4 -1.9 2.2
      vertex -4 -1.9 2.2
      vertex -2.8 -3.1 2.2
    endloop
  endfacet
  facet normal 0 0 1
    outer loop
      vertex 95.1091 -1.625 2.2
      vertex -4 -1.9 2.2
      vertex 4 -1.9 2.2
    endloop
  endfacet
  facet normal 0 0 1
    outer loop
      vertex -4 -1.9 2.2
      vertex -10.8 -3.1 2.2
      vertex -5.2 -3.1 2.2
    endloop
  endfacet
  facet normal 0 0 1
    outer loop
      vertex -4 -1.9 2.2
      vertex -12 -1.9 2.2
      vertex -10.8 -3.1 2.2
    endloop
  endfacet
  facet normal 0 0 1
    outer loop
      vertex 95.1091 -1.625 2.2
      vertex -12 -1.9 2.2
      vertex -4 -1.9 2.2
    endloop
  endfacet
  facet normal 0 0 1
    outer loop
      vertex -12 -1.9 2.2
      vertex -18.8 -3.1 2.2
      vertex -13.2 -3.1 2.2
    endloop
  endfacet
  facet normal 0 0 1
    outer loop
      vertex -12 -1.9 2.2
      vertex -20 -1.9 2.2
      vertex -18.8 -3.1 2.2
    endloop
  endfacet
  facet normal 0 0 1
    outer loop
      vertex 95.1091 -1.625 2.2
      vertex -20 -1.9 2.2
      vertex -12 -1.9 2.2
    endloop
  endfacet
  facet normal 0 0 1
    outer loop
      vertex -20 -1.9 2.2
      vertex -26.8 -3.1 2.2
      vertex -21.2 -3.1 2.2
    endloop
  endfacet
  facet normal 0 0 1
    outer loop
      vertex -20 -1.9 2.2
      vertex -28 -1.9 2.2
      vertex -26.8 -3.1 2.2
    endloop
  endfacet
  facet normal 0 0 1
    outer loop
      vertex 95.1091 -1.625 2.2
      vertex -28 -1.9 2.2
      vertex -20 -1.9 2.2
    endloop
  endfacet
  facet normal 0 0 1
    outer loop
      vertex -28 -1.9 2.2
      vertex -34.8 -3.1 2.2
      vertex -29.2 -3.1 2.2
    endloop
  endfacet
  facet normal 0 0 1
    outer loop
      vertex -28 -1.9 2.2
      vertex -36 -1.9 2.2
      vertex -34.8 -3.1 2.2
    endloop
  endfacet
  facet normal 0 0 1
    outer loop
      vertex 95.1091 -1.625 2.2
      vertex -36 -1.9 2.2
      vertex -28 -1.9 2.2
    endloop
  endfacet
  facet normal 0 0 1
    outer loop
      vertex -36 -1.9 2.2
      vertex -42.8 -3.1 2.2
      vertex -37.2 -3.1 2.2
    endloop
  endfacet
  facet normal 0 0 1
    outer loop
      vertex -36 -1.9 2.2
      vertex -44 -1.9 2.2
      vertex -42.8 -3.1 2.2
    endloop
  endfacet
  facet normal 0 0 1
    outer loop
      vertex 95.1091 -1.625 2.2
      vertex -44 -1.9 2.2
      vertex -36 -1.9 2.2
    endloop
  endfacet
  facet normal 0 0 1
    outer loop
      vertex -44 -1.9 2.2
      vertex -50.8 -3.1 2.2
      vertex -45.2 -3.1 2.2
    endloop
  endfacet
  facet normal 0 0 1
    outer loop
      vertex -44 -1.9 2.2
      vertex -52 -1.9 2.2
      vertex -50.8 -3.1 2.2
    endloop
  endfacet
  facet normal 0 0 1
    outer loop
      vertex 95.1091 -1.625 2.2
      vertex -52 -1.9 2.2
      vertex -44 -1.9 2.2
    endloop
  endfacet
  facet normal 0 0 1
    outer loop
      vertex -52 -1.9 2.2
      vertex -58.8 -3.1 2.2
      vertex -53.2 -3.1 2.2
    endloop
  endfacet
  facet normal 0 0 1
    outer loop
      vertex -52 -1.9 2.2
      vertex -60 -1.9 2.2
      vertex -58.8 -3.1 2.2
    endloop
  endfacet
  facet normal 0 0 1
    outer loop
      vertex 95.1091 -1.625 2.2
      vertex -60 -1.9 2.2
      vertex -52 -1.9 2.2
    endloop
  endfacet
  facet normal 0 0 1
    outer loop
      vertex -60 -1.9 2.2
      vertex -66.8 -3.1 2.2
      vertex -61.2 -3.1 2.2
    endloop
  endfacet
  facet normal 0 0 1
    outer loop
      vertex -60 -1.9 2.2
      vertex -68 -1.9 2.2
      vertex -66.8 -3.1 2.2
    endloop
  endfacet
  facet normal 0 0 1
    outer loop
      vertex 95.1091 -1.625 2.2
      vertex -68 -1.9 2.2
      vertex -60 -1.9 2.2
    endloop
  endfacet
  facet normal 0 0 1
    outer loop
      vertex -68 -1.9 2.2
      vertex -74.8 -3.1 2.2
      vertex -69.2 -3.1 2.2
    endloop
  endfacet
  facet normal 0 0 1
    outer loop
      vertex -68 -1.9 2.2
      vertex -76 -1.9 2.2
      vertex -74.8 -3.1 2.2
    endloop
  endfacet
  facet normal -0 0 1
    outer loop
      vertex -94.9591 -1.625 2.2
      vertex -68 -1.9 2.2
      vertex 95.1091 -1.625 2.2
    endloop
  endfacet
  facet normal 0 0 1
    outer loop
      vertex -76 -1.9 2.2
      vertex -82.8 -3.1 2.2
      vertex -77.2 -3.1 2.2
    endloop
  endfacet
  facet normal 0 0 1
    outer loop
      vertex -76 -1.9 2.2
      vertex -84 -1.9 2.2
      vertex -82.8 -3.1 2.2
    endloop
  endfacet
  facet normal 0 0 1
    outer loop
      vertex -68 -1.9 2.2
      vertex -94.9591 -1.625 2.2
      vertex -76 -1.9 2.2
    endloop
  endfacet
  facet normal 0 0 1
    outer loop
      vertex -84 -1.9 2.2
      vertex -90.8 -3.1 2.2
      vertex -85.2 -3.1 2.2
    endloop
  endfacet
  facet normal 0 0 1
    outer loop
      vertex -84 -1.9 2.2
      vertex -92 -1.9 2.2
      vertex -90.8 -3.1 2.2
    endloop
  endfacet
  facet normal 0 0 1
    outer loop
      vertex -76 -1.9 2.2
      vertex -94.9591 -1.625 2.2
      vertex -84 -1.9 2.2
    endloop
  endfacet
  facet normal 0 0 1
    outer loop
      vertex -92 -1.9 2.2
      vertex -94.9591 -1.625 2.2
      vertex -93.2 -3.1 2.2
    endloop
  endfacet
  facet normal 0 0 1
    outer loop
      vertex -84 -1.9 2.2
      vertex -94.9591 -1.625 2.2
      vertex -92 -1.9 2.2
    endloop
  endfacet
  facet normal -0 0 1
    outer loop
      vertex 92 -4.3 2.2
      vertex 95.1091 -5.325 2.2
      vertex 93.2 -3.1 2.2
    endloop
  endfacet
  facet normal -0 0 1
    outer loop
      vertex 85.2 -3.1 2.2
      vertex 92 -4.3 2.2
      vertex 90.8 -3.1 2.2
    endloop
  endfacet
  facet normal 0 0 1
    outer loop
      vertex 84 -4.3 2.2
      vertex 92 -4.3 2.2
      vertex 85.2 -3.1 2.2
    endloop
  endfacet
  facet normal 0 0 1
    outer loop
      vertex 92 -4.3 2.2
      vertex 84 -4.3 2.2
      vertex 95.1091 -5.325 2.2
    endloop
  endfacet
  facet normal -0 0 1
    outer loop
      vertex 77.2 -3.1 2.2
      vertex 84 -4.3 2.2
      vertex 82.8 -3.1 2.2
    endloop
  endfacet
  facet normal 0 0 1
    outer loop
      vertex 76 -4.3 2.2
      vertex 84 -4.3 2.2
      vertex 77.2 -3.1 2.2
    endloop
  endfacet
  facet normal -0 0 1
    outer loop
      vertex 76 -4.3 2.2
      vertex 95.1091 -5.325 2.2
      vertex 84 -4.3 2.2
    endloop
  endfacet
  facet normal -0 0 1
    outer loop
      vertex 69.2 -3.1 2.2
      vertex 76 -4.3 2.2
      vertex 74.8 -3.1 2.2
    endloop
  endfacet
  facet normal 0 0 1
    outer loop
      vertex 68 -4.3 2.2
      vertex 76 -4.3 2.2
      vertex 69.2 -3.1 2.2
    endloop
  endfacet
  facet normal -0 0 1
    outer loop
      vertex 68 -4.3 2.2
      vertex 95.1091 -5.325 2.2
      vertex 76 -4.3 2.2
    endloop
  endfacet
  facet normal -0 0 1
    outer loop
      vertex 61.2 -3.1 2.2
      vertex 68 -4.3 2.2
      vertex 66.8 -3.1 2.2
    endloop
  endfacet
  facet normal 0 0 1
    outer loop
      vertex 60 -4.3 2.2
      vertex 68 -4.3 2.2
      vertex 61.2 -3.1 2.2
    endloop
  endfacet
  facet normal -0 0 1
    outer loop
      vertex 60 -4.3 2.2
      vertex 95.1091 -5.325 2.2
      vertex 68 -4.3 2.2
    endloop
  endfacet
  facet normal -0 0 1
    outer loop
      vertex 53.2 -3.1 2.2
      vertex 60 -4.3 2.2
      vertex 58.8 -3.1 2.2
    endloop
  endfacet
  facet normal 0 0 1
    outer loop
      vertex 52 -4.3 2.2
      vertex 60 -4.3 2.2
      vertex 53.2 -3.1 2.2
    endloop
  endfacet
  facet normal -0 0 1
    outer loop
      vertex 52 -4.3 2.2
      vertex 95.1091 -5.325 2.2
      vertex 60 -4.3 2.2
    endloop
  endfacet
  facet normal -0 0 1
    outer loop
      vertex 45.2 -3.1 2.2
      vertex 52 -4.3 2.2
      vertex 50.8 -3.1 2.2
    endloop
  endfacet
  facet normal 0 0 1
    outer loop
      vertex 44 -4.3 2.2
      vertex 52 -4.3 2.2
      vertex 45.2 -3.1 2.2
    endloop
  endfacet
  facet normal -0 0 1
    outer loop
      vertex 44 -4.3 2.2
      vertex 95.1091 -5.325 2.2
      vertex 52 -4.3 2.2
    endloop
  endfacet
  facet normal -0 0 1
    outer loop
      vertex 37.2 -3.1 2.2
      vertex 44 -4.3 2.2
      vertex 42.8 -3.1 2.2
    endloop
  endfacet
  facet normal 0 0 1
    outer loop
      vertex 36 -4.3 2.2
      vertex 44 -4.3 2.2
      vertex 37.2 -3.1 2.2
    endloop
  endfacet
  facet normal -0 0 1
    outer loop
      vertex 36 -4.3 2.2
      vertex 95.1091 -5.325 2.2
      vertex 44 -4.3 2.2
    endloop
  endfacet
  facet normal -0 0 1
    outer loop
      vertex 29.2 -3.1 2.2
      vertex 36 -4.3 2.2
      vertex 34.8 -3.1 2.2
    endloop
  endfacet
  facet normal 0 0 1
    outer loop
      vertex 28 -4.3 2.2
      vertex 36 -4.3 2.2
      vertex 29.2 -3.1 2.2
    endloop
  endfacet
  facet normal -0 0 1
    outer loop
      vertex 28 -4.3 2.2
      vertex 95.1091 -5.325 2.2
      vertex 36 -4.3 2.2
    endloop
  endfacet
  facet normal -0 0 1
    outer loop
      vertex 21.2 -3.1 2.2
      vertex 28 -4.3 2.2
      vertex 26.8 -3.1 2.2
    endloop
  endfacet
  facet normal 0 0 1
    outer loop
      vertex 20 -4.3 2.2
      vertex 28 -4.3 2.2
      vertex 21.2 -3.1 2.2
    endloop
  endfacet
  facet normal -0 0 1
    outer loop
      vertex 20 -4.3 2.2
      vertex 95.1091 -5.325 2.2
      vertex 28 -4.3 2.2
    endloop
  endfacet
  facet normal -0 0 1
    outer loop
      vertex 13.2 -3.1 2.2
      vertex 20 -4.3 2.2
      vertex 18.8 -3.1 2.2
    endloop
  endfacet
  facet normal 0 0 1
    outer loop
      vertex 12 -4.3 2.2
      vertex 20 -4.3 2.2
      vertex 13.2 -3.1 2.2
    endloop
  endfacet
  facet normal -0 0 1
    outer loop
      vertex 12 -4.3 2.2
      vertex 95.1091 -5.325 2.2
      vertex 20 -4.3 2.2
    endloop
  endfacet
  facet normal -0 0 1
    outer loop
      vertex 5.2 -3.1 2.2
      vertex 12 -4.3 2.2
      vertex 10.8 -3.1 2.2
    endloop
  endfacet
  facet normal 0 0 1
    outer loop
      vertex 4 -4.3 2.2
      vertex 12 -4.3 2.2
      vertex 5.2 -3.1 2.2
    endloop
  endfacet
  facet normal -0 0 1
    outer loop
      vertex 4 -4.3 2.2
      vertex 95.1091 -5.325 2.2
      vertex 12 -4.3 2.2
    endloop
  endfacet
  facet normal -0 0 1
    outer loop
      vertex -2.8 -3.1 2.2
      vertex 4 -4.3 2.2
      vertex 2.8 -3.1 2.2
    endloop
  endfacet
  facet normal 0 0 1
    outer loop
      vertex -4 -4.3 2.2
      vertex 4 -4.3 2.2
      vertex -2.8 -3.1 2.2
    endloop
  endfacet
  facet normal -0 0 1
    outer loop
      vertex -4 -4.3 2.2
      vertex 95.1091 -5.325 2.2
      vertex 4 -4.3 2.2
    endloop
  endfacet
  facet normal -0 0 1
    outer loop
      vertex -10.8 -3.1 2.2
      vertex -4 -4.3 2.2
      vertex -5.2 -3.1 2.2
    endloop
  endfacet
  facet normal 0 0 1
    outer loop
      vertex -12 -4.3 2.2
      vertex -4 -4.3 2.2
      vertex -10.8 -3.1 2.2
    endloop
  endfacet
  facet normal -0 0 1
    outer loop
      vertex -12 -4.3 2.2
      vertex 95.1091 -5.325 2.2
      vertex -4 -4.3 2.2
    endloop
  endfacet
  facet normal -0 0 1
    outer loop
      vertex -18.8 -3.1 2.2
      vertex -12 -4.3 2.2
      vertex -13.2 -3.1 2.2
    endloop
  endfacet
  facet normal 0 0 1
    outer loop
      vertex -20 -4.3 2.2
      vertex -12 -4.3 2.2
      vertex -18.8 -3.1 2.2
    endloop
  endfacet
  facet normal -0 0 1
    outer loop
      vertex -20 -4.3 2.2
      vertex 95.1091 -5.325 2.2
      vertex -12 -4.3 2.2
    endloop
  endfacet
  facet normal -0 0 1
    outer loop
      vertex -26.8 -3.1 2.2
      vertex -20 -4.3 2.2
      vertex -21.2 -3.1 2.2
    endloop
  endfacet
  facet normal 0 0 1
    outer loop
      vertex -28 -4.3 2.2
      vertex -20 -4.3 2.2
      vertex -26.8 -3.1 2.2
    endloop
  endfacet
  facet normal -0 0 1
    outer loop
      vertex -28 -4.3 2.2
      vertex 95.1091 -5.325 2.2
      vertex -20 -4.3 2.2
    endloop
  endfacet
  facet normal -0 0 1
    outer loop
      vertex -34.8 -3.1 2.2
      vertex -28 -4.3 2.2
      vertex -29.2 -3.1 2.2
    endloop
  endfacet
  facet normal 0 0 1
    outer loop
      vertex -36 -4.3 2.2
      vertex -28 -4.3 2.2
      vertex -34.8 -3.1 2.2
    endloop
  endfacet
  facet normal -0 0 1
    outer loop
      vertex -36 -4.3 2.2
      vertex 95.1091 -5.325 2.2
      vertex -28 -4.3 2.2
    endloop
  endfacet
  facet normal -0 0 1
    outer loop
      vertex -42.8 -3.1 2.2
      vertex -36 -4.3 2.2
      vertex -37.2 -3.1 2.2
    endloop
  endfacet
  facet normal 0 0 1
    outer loop
      vertex -44 -4.3 2.2
      vertex -36 -4.3 2.2
      vertex -42.8 -3.1 2.2
    endloop
  endfacet
  facet normal 0 0 1
    outer loop
      vertex -94.9591 -5.325 2.2
      vertex -36 -4.3 2.2
      vertex -44 -4.3 2.2
    endloop
  endfacet
  facet normal -0 0 1
    outer loop
      vertex -50.8 -3.1 2.2
      vertex -44 -4.3 2.2
      vertex -45.2 -3.1 2.2
    endloop
  endfacet
  facet normal 0 0 1
    outer loop
      vertex -52 -4.3 2.2
      vertex -44 -4.3 2.2
      vertex -50.8 -3.1 2.2
    endloop
  endfacet
  facet normal 0 0 1
    outer loop
      vertex -94.9591 -5.325 2.2
      vertex -44 -4.3 2.2
      vertex -52 -4.3 2.2
    endloop
  endfacet
  facet normal -0 0 1
    outer loop
      vertex -58.8 -3.1 2.2
      vertex -52 -4.3 2.2
      vertex -53.2 -3.1 2.2
    endloop
  endfacet
  facet normal 0 0 1
    outer loop
      vertex -60 -4.3 2.2
      vertex -52 -4.3 2.2
      vertex -58.8 -3.1 2.2
    endloop
  endfacet
  facet normal 0 0 1
    outer loop
      vertex -94.9591 -5.325 2.2
      vertex -52 -4.3 2.2
      vertex -60 -4.3 2.2
    endloop
  endfacet
  facet normal -0 0 1
    outer loop
      vertex -66.8 -3.1 2.2
      vertex -60 -4.3 2.2
      vertex -61.2 -3.1 2.2
    endloop
  endfacet
  facet normal 0 0 1
    outer loop
      vertex -68 -4.3 2.2
      vertex -60 -4.3 2.2
      vertex -66.8 -3.1 2.2
    endloop
  endfacet
  facet normal 0 0 1
    outer loop
      vertex -94.9591 -5.325 2.2
      vertex -60 -4.3 2.2
      vertex -68 -4.3 2.2
    endloop
  endfacet
  facet normal -0 0 1
    outer loop
      vertex -74.8 -3.1 2.2
      vertex -68 -4.3 2.2
      vertex -69.2 -3.1 2.2
    endloop
  endfacet
  facet normal 0 0 1
    outer loop
      vertex -76 -4.3 2.2
      vertex -68 -4.3 2.2
      vertex -74.8 -3.1 2.2
    endloop
  endfacet
  facet normal 0 0 1
    outer loop
      vertex -94.9591 -5.325 2.2
      vertex -68 -4.3 2.2
      vertex -76 -4.3 2.2
    endloop
  endfacet
  facet normal -0 0 1
    outer loop
      vertex -82.8 -3.1 2.2
      vertex -76 -4.3 2.2
      vertex -77.2 -3.1 2.2
    endloop
  endfacet
  facet normal 0 0 1
    outer loop
      vertex -84 -4.3 2.2
      vertex -76 -4.3 2.2
      vertex -82.8 -3.1 2.2
    endloop
  endfacet
  facet normal 0 0 1
    outer loop
      vertex -94.9591 -5.325 2.2
      vertex -76 -4.3 2.2
      vertex -84 -4.3 2.2
    endloop
  endfacet
  facet normal -0 0 1
    outer loop
      vertex -90.8 -3.1 2.2
      vertex -84 -4.3 2.2
      vertex -85.2 -3.1 2.2
    endloop
  endfacet
  facet normal 0 0 1
    outer loop
      vertex -92 -4.3 2.2
      vertex -84 -4.3 2.2
      vertex -90.8 -3.1 2.2
    endloop
  endfacet
  facet normal 0 0 1
    outer loop
      vertex -94.9591 -5.325 2.2
      vertex -84 -4.3 2.2
      vertex -92 -4.3 2.2
    endloop
  endfacet
  facet normal -0 0 1
    outer loop
      vertex -95.85 -1.86372 2.2
      vertex -93.2 -3.1 2.2
      vertex -94.9591 -1.625 2.2
    endloop
  endfacet
  facet normal 0 0 1
    outer loop
      vertex -36 -4.3 2.2
      vertex -94.9591 -5.325 2.2
      vertex 95.1091 -5.325 2.2
    endloop
  endfacet
  facet normal 0 0 1
    outer loop
      vertex -93.2 -3.1 2.2
      vertex -94.9591 -5.325 2.2
      vertex -92 -4.3 2.2
    endloop
  endfacet
  facet normal 0 0 1
    outer loop
      vertex -95.85 -5.08628 2.2
      vertex -93.2 -3.1 2.2
      vertex -95.85 -1.86372 2.2
    endloop
  endfacet
  facet normal 0 0 1
    outer loop
      vertex -93.2 -3.1 2.2
      vertex -95.85 -5.08628 2.2
      vertex -94.9591 -5.325 2.2
    endloop
  endfacet
  facet normal 1 0 0
    outer loop
      vertex 96 -5.60392 0.952459
      vertex 96 -5.925 0.952459
      vertex 96 -5.60392 0.94364
    endloop
  endfacet
  facet normal 1 0 0
    outer loop
      vertex 96 -1.86372 2.2
      vertex 96 -5.08628 2.2
      vertex 96 -1.86372 0.94364
    endloop
  endfacet
  facet normal 1 0 0
    outer loop
      vertex 96 -1.34608 0.94364
      vertex 96 5.925 0.952459
      vertex 96 -1.34608 0.952459
    endloop
  endfacet
  facet normal 1 0 0
    outer loop
      vertex 96 5.925 0.952459
      vertex 96 -1.34608 0.94364
      vertex 96 5.925 0
    endloop
  endfacet
  facet normal 1 0 0
    outer loop
      vertex 96 -5.925 0
      vertex 96 -1.34608 0.94364
      vertex 96 -1.86372 0.94364
    endloop
  endfacet
  facet normal 1 0 0
    outer loop
      vertex 96 -5.08628 0.94364
      vertex 96 -1.86372 0.94364
      vertex 96 -5.08628 2.2
    endloop
  endfacet
  facet normal 1 0 0
    outer loop
      vertex 96 -5.925 0
      vertex 96 -1.86372 0.94364
      vertex 96 -5.08628 0.94364
    endloop
  endfacet
  facet normal 1 0 0
    outer loop
      vertex 96 -5.925 0
      vertex 96 -5.08628 0.94364
      vertex 96 -5.60392 0.94364
    endloop
  endfacet
  facet normal 1 0 0
    outer loop
      vertex 96 -5.925 0
      vertex 96 -5.60392 0.94364
      vertex 96 -5.925 0.952459
    endloop
  endfacet
  facet normal 1 0 0
    outer loop
      vertex 96 -1.34608 0.94364
      vertex 96 -5.925 0
      vertex 96 5.925 0
    endloop
  endfacet
  facet normal 0 0 -1
    outer loop
      vertex -95.85 -5.925 0
      vertex 96 5.925 0
      vertex 96 -5.925 0
    endloop
  endfacet
  facet normal -0 0 -1
    outer loop
      vertex 96 5.925 0
      vertex -95.85 -5.925 0
      vertex -95.85 5.925 0
    endloop
  endfacet
  facet normal 0 -1 0
    outer loop
      vertex -95.85 -5.925 0
      vertex -94.9635 -5.925 1.19
      vertex -95.85 -5.925 0.952459
    endloop
  endfacet
  facet normal 0 -1 -0
    outer loop
      vertex -94.9635 -5.925 1.19
      vertex -95.85 -5.925 0
      vertex 95.1135 -5.925 1.19
    endloop
  endfacet
  facet normal 0 -1 0
    outer loop
      vertex 96 -5.925 0
      vertex 95.1135 -5.925 1.19
      vertex -95.85 -5.925 0
    endloop
  endfacet
  facet normal 0 -1 0
    outer loop
      vertex 95.1135 -5.925 1.19
      vertex 96 -5.925 0
      vertex 96 -5.925 0.952459
    endloop
  endfacet
  facet normal 0 1 0
    outer loop
      vertex -95.85 5.925 0
      vertex -94.9635 5.925 1.19
      vertex 95.1135 5.925 1.19
    endloop
  endfacet
  facet normal 0 1 -0
    outer loop
      vertex 96 5.925 0
      vertex 95.1135 5.925 1.19
      vertex 96 5.925 0.952459
    endloop
  endfacet
  facet normal 0 1 0
    outer loop
      vertex -95.85 5.925 0
      vertex 95.1135 5.925 1.19
      vertex 96 5.925 0
    endloop
  endfacet
  facet normal 0 1 0
    outer loop
      vertex -94.9635 5.925 1.19
      vertex -95.85 5.925 0
      vertex -95.85 5.925 0.952459
    endloop
  endfacet
  facet normal 0.258819 -0 0.965926
    outer loop
      vertex 95.1135 -1.10854 1.19
      vertex 96 5.925 0.952459
      vertex 95.1135 5.925 1.19
    endloop
  endfacet
  facet normal 0.258819 0 0.965926
    outer loop
      vertex 96 5.925 0.952459
      vertex 95.1135 -1.10854 1.19
      vertex 96 -1.34608 0.952459
    endloop
  endfacet
  facet normal 0 1 -0
    outer loop
      vertex 95.1091 -1.625 1.19
      vertex -94.9591 -1.625 2.2
      vertex 95.1091 -1.625 2.2
    endloop
  endfacet
  facet normal 0 1 0
    outer loop
      vertex -94.9591 -1.625 2.2
      vertex 95.1091 -1.625 1.19
      vertex -94.9591 -1.625 1.19
    endloop
  endfacet
  facet normal -0.258818 0 0.965926
    outer loop
      vertex -95.85 5.925 0.952459
      vertex -94.9635 -1.10854 1.19
      vertex -94.9635 5.925 1.19
    endloop
  endfacet
  facet normal -0.258818 0 0.965926
    outer loop
      vertex -94.9635 -1.10854 1.19
      vertex -95.85 5.925 0.952459
      vertex -95.85 -1.34608 0.952459
    endloop
  endfacet
  facet normal -0.25882 -0.965926 -5.76342e-06
    outer loop
      vertex 96 -1.34608 0.94364
      vertex 95.1135 -1.10854 1.19
      vertex 95.0806 -1.09972 1.19
    endloop
  endfacet
  facet normal -0.258819 -0.965926 0
    outer loop
      vertex 95.1135 -1.10854 1.19
      vertex 96 -1.34608 0.94364
      vertex 96 -1.34608 0.952459
    endloop
  endfacet
  facet normal 0.258818 0.965926 0
    outer loop
      vertex 96 -1.86372 2.2
      vertex 95.1091 -1.625 1.19
      vertex 95.1091 -1.625 2.2
    endloop
  endfacet
  facet normal 0.258828 0.965924 3.61683e-05
    outer loop
      vertex 95.1091 -1.625 1.19
      vertex 96 -1.86372 0.94364
      vertex 95.0806 -1.61736 1.19
    endloop
  endfacet
  facet normal 0.258818 0.965926 -0
    outer loop
      vertex 96 -1.86372 0.94364
      vertex 95.1091 -1.625 1.19
      vertex 96 -1.86372 2.2
    endloop
  endfacet
  facet normal 0.258819 -0 0.965926
    outer loop
      vertex 95.0806 -1.61736 1.19
      vertex 96 -1.34608 0.94364
      vertex 95.0806 -1.09972 1.19
    endloop
  endfacet
  facet normal 0.258819 0 0.965926
    outer loop
      vertex 96 -1.34608 0.94364
      vertex 95.0806 -1.61736 1.19
      vertex 96 -1.86372 0.94364
    endloop
  endfacet
  facet normal 0.258818 -0.965926 0
    outer loop
      vertex -95.85 -1.34608 0.94364
      vertex -94.9635 -1.10854 1.19
      vertex -95.85 -1.34608 0.952459
    endloop
  endfacet
  facet normal 0.258823 -0.965925 -1.97548e-05
    outer loop
      vertex -94.9635 -1.10854 1.19
      vertex -95.85 -1.34608 0.94364
      vertex -94.9306 -1.09972 1.19
    endloop
  endfacet
  facet normal -0.258763 0.965941 -0.000221854
    outer loop
      vertex -94.9306 -1.61736 1.19
      vertex -95.85 -1.86372 0.94364
      vertex -94.9591 -1.625 1.19
    endloop
  endfacet
  facet normal -0.25882 0.965926 0
    outer loop
      vertex -94.9591 -1.625 1.19
      vertex -95.85 -1.86372 2.2
      vertex -94.9591 -1.625 2.2
    endloop
  endfacet
  facet normal -0.25882 0.965926 0
    outer loop
      vertex -95.85 -1.86372 2.2
      vertex -94.9591 -1.625 1.19
      vertex -95.85 -1.86372 0.94364
    endloop
  endfacet
  facet normal -0.258819 0 0.965926
    outer loop
      vertex -95.85 -1.34608 0.94364
      vertex -94.9306 -1.61736 1.19
      vertex -94.9306 -1.09972 1.19
    endloop
  endfacet
  facet normal -0.258819 0 0.965926
    outer loop
      vertex -94.9306 -1.61736 1.19
      vertex -95.85 -1.34608 0.94364
      vertex -95.85 -1.86372 0.94364
    endloop
  endfacet
  facet normal 0 0 1
    outer loop
      vertex 95.1135 5.925 1.19
      vertex 95.0806 -1.09972 1.19
      vertex 95.1135 -1.10854 1.19
    endloop
  endfacet
  facet normal 0 0 1
    outer loop
      vertex 95.0806 -1.09972 1.19
      vertex -94.9306 -1.09972 1.19
      vertex 95.0806 -1.61736 1.19
    endloop
  endfacet
  facet normal 0 0 1
    outer loop
      vertex 95.1135 5.925 1.19
      vertex -94.9306 -1.09972 1.19
      vertex 95.0806 -1.09972 1.19
    endloop
  endfacet
  facet normal -0 0 1
    outer loop
      vertex -94.9635 5.925 1.19
      vertex -94.9306 -1.09972 1.19
      vertex 95.1135 5.925 1.19
    endloop
  endfacet
  facet normal 0 0 1
    outer loop
      vertex -94.9306 -1.09972 1.19
      vertex -94.9635 5.925 1.19
      vertex -94.9635 -1.10854 1.19
    endloop
  endfacet
  facet normal 0 0 1
    outer loop
      vertex -94.9306 -1.61736 1.19
      vertex 95.0806 -1.61736 1.19
      vertex -94.9306 -1.09972 1.19
    endloop
  endfacet
  facet normal 0 0 1
    outer loop
      vertex 95.0806 -1.61736 1.19
      vertex -94.9306 -1.61736 1.19
      vertex 95.1091 -1.625 1.19
    endloop
  endfacet
  facet normal 0 0 1
    outer loop
      vertex 95.1091 -1.625 1.19
      vertex -94.9306 -1.61736 1.19
      vertex -94.9591 -1.625 1.19
    endloop
  endfacet
  facet normal 0 -1 0
    outer loop
      vertex -94.9591 -5.325 1.19
      vertex 95.1091 -5.325 2.2
      vertex -94.9591 -5.325 2.2
    endloop
  endfacet
  facet normal 0 -1 -0
    outer loop
      vertex 95.1091 -5.325 2.2
      vertex -94.9591 -5.325 1.19
      vertex 95.1091 -5.325 1.19
    endloop
  endfacet
  facet normal 0.258819 0 0.965926
    outer loop
      vertex 95.1135 -5.84146 1.19
      vertex 96 -5.925 0.952459
      vertex 96 -5.60392 0.952459
    endloop
  endfacet
  facet normal 0.258819 0 0.965926
    outer loop
      vertex 96 -5.925 0.952459
      vertex 95.1135 -5.84146 1.19
      vertex 95.1135 -5.925 1.19
    endloop
  endfacet
  facet normal -0.258818 0 0.965926
    outer loop
      vertex -95.85 -5.925 0.952459
      vertex -94.9635 -5.84146 1.19
      vertex -95.85 -5.60392 0.952459
    endloop
  endfacet
  facet normal -0.258818 0 0.965926
    outer loop
      vertex -94.9635 -5.84146 1.19
      vertex -95.85 -5.925 0.952459
      vertex -94.9635 -5.925 1.19
    endloop
  endfacet
  facet normal 0.25882 -0.965926 6.94983e-06
    outer loop
      vertex 95.0806 -5.33264 1.19
      vertex 96 -5.08628 0.94364
      vertex 95.1091 -5.325 1.19
    endloop
  endfacet
  facet normal 0.258818 -0.965926 0
    outer loop
      vertex 95.1091 -5.325 1.19
      vertex 96 -5.08628 2.2
      vertex 95.1091 -5.325 2.2
    endloop
  endfacet
  facet normal 0.258818 -0.965926 0
    outer loop
      vertex 96 -5.08628 2.2
      vertex 95.1091 -5.325 1.19
      vertex 96 -5.08628 0.94364
    endloop
  endfacet
  facet normal -0.258819 0.965926 0
    outer loop
      vertex 96 -5.60392 0.94364
      vertex 95.1135 -5.84146 1.19
      vertex 96 -5.60392 0.952459
    endloop
  endfacet
  facet normal -0.25882 0.965926 -4.82863e-06
    outer loop
      vertex 95.1135 -5.84146 1.19
      vertex 96 -5.60392 0.94364
      vertex 95.0806 -5.85028 1.19
    endloop
  endfacet
  facet normal 0.258819 0 0.965926
    outer loop
      vertex 95.0806 -5.33264 1.19
      vertex 96 -5.60392 0.94364
      vertex 96 -5.08628 0.94364
    endloop
  endfacet
  facet normal 0.258819 0 0.965926
    outer loop
      vertex 96 -5.60392 0.94364
      vertex 95.0806 -5.33264 1.19
      vertex 95.0806 -5.85028 1.19
    endloop
  endfacet
  facet normal -0.25882 -0.965925 0
    outer loop
      vertex -95.85 -5.08628 2.2
      vertex -94.9591 -5.325 1.19
      vertex -94.9591 -5.325 2.2
    endloop
  endfacet
  facet normal -0.258755 -0.965943 -0.000251532
    outer loop
      vertex -94.9591 -5.325 1.19
      vertex -95.85 -5.08628 0.94364
      vertex -94.9306 -5.33264 1.19
    endloop
  endfacet
  facet normal -0.25882 -0.965925 0
    outer loop
      vertex -95.85 -5.08628 0.94364
      vertex -94.9591 -5.325 1.19
      vertex -95.85 -5.08628 2.2
    endloop
  endfacet
  facet normal 0.25882 0.965926 -6.69821e-06
    outer loop
      vertex -95.85 -5.60392 0.94364
      vertex -94.9635 -5.84146 1.19
      vertex -94.9306 -5.85028 1.19
    endloop
  endfacet
  facet normal 0.258818 0.965926 0
    outer loop
      vertex -94.9635 -5.84146 1.19
      vertex -95.85 -5.60392 0.94364
      vertex -95.85 -5.60392 0.952459
    endloop
  endfacet
  facet normal -0.258819 0 0.965926
    outer loop
      vertex -95.85 -5.60392 0.94364
      vertex -94.9306 -5.33264 1.19
      vertex -95.85 -5.08628 0.94364
    endloop
  endfacet
  facet normal -0.258819 0 0.965926
    outer loop
      vertex -94.9306 -5.33264 1.19
      vertex -95.85 -5.60392 0.94364
      vertex -94.9306 -5.85028 1.19
    endloop
  endfacet
  facet normal 0 0 1
    outer loop
      vertex 95.0806 -5.33264 1.19
      vertex -94.9306 -5.33264 1.19
      vertex 95.0806 -5.85028 1.19
    endloop
  endfacet
  facet normal 0 0 1
    outer loop
      vertex 95.1091 -5.325 1.19
      vertex -94.9306 -5.33264 1.19
      vertex 95.0806 -5.33264 1.19
    endloop
  endfacet
  facet normal 0 -0 1
    outer loop
      vertex -94.9306 -5.33264 1.19
      vertex 95.1091 -5.325 1.19
      vertex -94.9591 -5.325 1.19
    endloop
  endfacet
  facet normal -0 0 1
    outer loop
      vertex 95.0806 -5.85028 1.19
      vertex 95.1135 -5.925 1.19
      vertex 95.1135 -5.84146 1.19
    endloop
  endfacet
  facet normal 0 0 1
    outer loop
      vertex -94.9306 -5.85028 1.19
      vertex 95.0806 -5.85028 1.19
      vertex -94.9306 -5.33264 1.19
    endloop
  endfacet
  facet normal 0 0 1
    outer loop
      vertex 95.0806 -5.85028 1.19
      vertex -94.9306 -5.85028 1.19
      vertex 95.1135 -5.925 1.19
    endloop
  endfacet
  facet normal 0 0 1
    outer loop
      vertex -94.9306 -5.85028 1.19
      vertex -94.9635 -5.925 1.19
      vertex 95.1135 -5.925 1.19
    endloop
  endfacet
  facet normal 0 0 1
    outer loop
      vertex -94.9635 -5.925 1.19
      vertex -94.9306 -5.85028 1.19
      vertex -94.9635 -5.84146 1.19
    endloop
  endfacet
endsolid OpenSCAD_Model
