solid OpenSCAD_Model
  facet normal 0.707107 0.707107 0
    outer loop
      vertex -18.2 -3.325 3.41
      vertex -20 -1.525 2.2
      vertex -20 -1.525 3.41
    endloop
  endfacet
  facet normal 0.707107 0.707107 0
    outer loop
      vertex -20 -1.525 2.2
      vertex -18.2 -3.325 3.41
      vertex -18.2 -3.325 2.2
    endloop
  endfacet
  facet normal -0.707107 0.707107 0
    outer loop
      vertex -21.8 -3.325 2.2
      vertex -20 -1.525 3.41
      vertex -20 -1.525 2.2
    endloop
  endfacet
  facet normal -0.707107 0.707107 0
    outer loop
      vertex -20 -1.525 3.41
      vertex -21.8 -3.325 2.2
      vertex -21.8 -3.325 3.41
    endloop
  endfacet
  facet normal 0.707107 -0.707107 0
    outer loop
      vertex -20 -5.125 3.41
      vertex -18.2 -3.325 2.2
      vertex -18.2 -3.325 3.41
    endloop
  endfacet
  facet normal 0.707107 -0.707107 0
    outer loop
      vertex -18.2 -3.325 2.2
      vertex -20 -5.125 3.41
      vertex -20 -5.125 2.2
    endloop
  endfacet
  facet normal -0.707107 -0.707107 0
    outer loop
      vertex -20 -5.125 2.2
      vertex -21.8 -3.325 3.41
      vertex -21.8 -3.325 2.2
    endloop
  endfacet
  facet normal -0.707107 -0.707107 0
    outer loop
      vertex -21.8 -3.325 3.41
      vertex -20 -5.125 2.2
      vertex -20 -5.125 3.41
    endloop
  endfacet
  facet normal 0 0 1
    outer loop
      vertex -20 -1.525 3.41
      vertex -20 -5.125 3.41
      vertex -18.2 -3.325 3.41
    endloop
  endfacet
  facet normal 0 -0 1
    outer loop
      vertex -20 -5.125 3.41
      vertex -20 -1.525 3.41
      vertex -21.8 -3.325 3.41
    endloop
  endfacet
  facet normal 0.707107 0.707107 0
    outer loop
      vertex -10.2 -3.325 3.41
      vertex -12 -1.525 2.2
      vertex -12 -1.525 3.41
    endloop
  endfacet
  facet normal 0.707107 0.707107 0
    outer loop
      vertex -12 -1.525 2.2
      vertex -10.2 -3.325 3.41
      vertex -10.2 -3.325 2.2
    endloop
  endfacet
  facet normal -0.707107 0.707107 0
    outer loop
      vertex -13.8 -3.325 2.2
      vertex -12 -1.525 3.41
      vertex -12 -1.525 2.2
    endloop
  endfacet
  facet normal -0.707107 0.707107 0
    outer loop
      vertex -12 -1.525 3.41
      vertex -13.8 -3.325 2.2
      vertex -13.8 -3.325 3.41
    endloop
  endfacet
  facet normal 0.707107 -0.707107 0
    outer loop
      vertex -12 -5.125 3.41
      vertex -10.2 -3.325 2.2
      vertex -10.2 -3.325 3.41
    endloop
  endfacet
  facet normal 0.707107 -0.707107 0
    outer loop
      vertex -10.2 -3.325 2.2
      vertex -12 -5.125 3.41
      vertex -12 -5.125 2.2
    endloop
  endfacet
  facet normal -0.707107 -0.707107 0
    outer loop
      vertex -12 -5.125 2.2
      vertex -13.8 -3.325 3.41
      vertex -13.8 -3.325 2.2
    endloop
  endfacet
  facet normal -0.707107 -0.707107 0
    outer loop
      vertex -13.8 -3.325 3.41
      vertex -12 -5.125 2.2
      vertex -12 -5.125 3.41
    endloop
  endfacet
  facet normal 0 0 1
    outer loop
      vertex -12 -1.525 3.41
      vertex -12 -5.125 3.41
      vertex -10.2 -3.325 3.41
    endloop
  endfacet
  facet normal 0 -0 1
    outer loop
      vertex -12 -5.125 3.41
      vertex -12 -1.525 3.41
      vertex -13.8 -3.325 3.41
    endloop
  endfacet
  facet normal 0.707107 0.707107 0
    outer loop
      vertex -2.2 -3.325 3.41
      vertex -4 -1.525 2.2
      vertex -4 -1.525 3.41
    endloop
  endfacet
  facet normal 0.707107 0.707107 0
    outer loop
      vertex -4 -1.525 2.2
      vertex -2.2 -3.325 3.41
      vertex -2.2 -3.325 2.2
    endloop
  endfacet
  facet normal -0.707107 0.707107 0
    outer loop
      vertex -5.8 -3.325 2.2
      vertex -4 -1.525 3.41
      vertex -4 -1.525 2.2
    endloop
  endfacet
  facet normal -0.707107 0.707107 0
    outer loop
      vertex -4 -1.525 3.41
      vertex -5.8 -3.325 2.2
      vertex -5.8 -3.325 3.41
    endloop
  endfacet
  facet normal 0.707107 -0.707107 0
    outer loop
      vertex -4 -5.125 3.41
      vertex -2.2 -3.325 2.2
      vertex -2.2 -3.325 3.41
    endloop
  endfacet
  facet normal 0.707107 -0.707107 0
    outer loop
      vertex -2.2 -3.325 2.2
      vertex -4 -5.125 3.41
      vertex -4 -5.125 2.2
    endloop
  endfacet
  facet normal -0.707107 -0.707107 0
    outer loop
      vertex -4 -5.125 2.2
      vertex -5.8 -3.325 3.41
      vertex -5.8 -3.325 2.2
    endloop
  endfacet
  facet normal -0.707107 -0.707107 0
    outer loop
      vertex -5.8 -3.325 3.41
      vertex -4 -5.125 2.2
      vertex -4 -5.125 3.41
    endloop
  endfacet
  facet normal 0 0 1
    outer loop
      vertex -4 -1.525 3.41
      vertex -4 -5.125 3.41
      vertex -2.2 -3.325 3.41
    endloop
  endfacet
  facet normal 0 -0 1
    outer loop
      vertex -4 -5.125 3.41
      vertex -4 -1.525 3.41
      vertex -5.8 -3.325 3.41
    endloop
  endfacet
  facet normal -0.707107 0.707107 0
    outer loop
      vertex 2.2 -3.325 2.2
      vertex 4 -1.525 3.41
      vertex 4 -1.525 2.2
    endloop
  endfacet
  facet normal -0.707107 0.707107 0
    outer loop
      vertex 4 -1.525 3.41
      vertex 2.2 -3.325 2.2
      vertex 2.2 -3.325 3.41
    endloop
  endfacet
  facet normal 0.707107 0.707107 0
    outer loop
      vertex 5.8 -3.325 3.41
      vertex 4 -1.525 2.2
      vertex 4 -1.525 3.41
    endloop
  endfacet
  facet normal 0.707107 0.707107 0
    outer loop
      vertex 4 -1.525 2.2
      vertex 5.8 -3.325 3.41
      vertex 5.8 -3.325 2.2
    endloop
  endfacet
  facet normal 0 0 1
    outer loop
      vertex 4 -1.525 3.41
      vertex 4 -5.125 3.41
      vertex 5.8 -3.325 3.41
    endloop
  endfacet
  facet normal 0 -0 1
    outer loop
      vertex 4 -5.125 3.41
      vertex 4 -1.525 3.41
      vertex 2.2 -3.325 3.41
    endloop
  endfacet
  facet normal -0.707107 -0.707107 0
    outer loop
      vertex 4 -5.125 2.2
      vertex 2.2 -3.325 3.41
      vertex 2.2 -3.325 2.2
    endloop
  endfacet
  facet normal -0.707107 -0.707107 0
    outer loop
      vertex 2.2 -3.325 3.41
      vertex 4 -5.125 2.2
      vertex 4 -5.125 3.41
    endloop
  endfacet
  facet normal 0.707107 -0.707107 0
    outer loop
      vertex 4 -5.125 3.41
      vertex 5.8 -3.325 2.2
      vertex 5.8 -3.325 3.41
    endloop
  endfacet
  facet normal 0.707107 -0.707107 0
    outer loop
      vertex 5.8 -3.325 2.2
      vertex 4 -5.125 3.41
      vertex 4 -5.125 2.2
    endloop
  endfacet
  facet normal -0.707107 0.707107 0
    outer loop
      vertex 10.2 -3.325 2.2
      vertex 12 -1.525 3.41
      vertex 12 -1.525 2.2
    endloop
  endfacet
  facet normal -0.707107 0.707107 0
    outer loop
      vertex 12 -1.525 3.41
      vertex 10.2 -3.325 2.2
      vertex 10.2 -3.325 3.41
    endloop
  endfacet
  facet normal 0.707107 0.707107 0
    outer loop
      vertex 13.8 -3.325 3.41
      vertex 12 -1.525 2.2
      vertex 12 -1.525 3.41
    endloop
  endfacet
  facet normal 0.707107 0.707107 0
    outer loop
      vertex 12 -1.525 2.2
      vertex 13.8 -3.325 3.41
      vertex 13.8 -3.325 2.2
    endloop
  endfacet
  facet normal 0 0 1
    outer loop
      vertex 12 -1.525 3.41
      vertex 12 -5.125 3.41
      vertex 13.8 -3.325 3.41
    endloop
  endfacet
  facet normal 0 -0 1
    outer loop
      vertex 12 -5.125 3.41
      vertex 12 -1.525 3.41
      vertex 10.2 -3.325 3.41
    endloop
  endfacet
  facet normal -0.707107 -0.707107 0
    outer loop
      vertex 12 -5.125 2.2
      vertex 10.2 -3.325 3.41
      vertex 10.2 -3.325 2.2
    endloop
  endfacet
  facet normal -0.707107 -0.707107 0
    outer loop
      vertex 10.2 -3.325 3.41
      vertex 12 -5.125 2.2
      vertex 12 -5.125 3.41
    endloop
  endfacet
  facet normal 0.707107 -0.707107 0
    outer loop
      vertex 12 -5.125 3.41
      vertex 13.8 -3.325 2.2
      vertex 13.8 -3.325 3.41
    endloop
  endfacet
  facet normal 0.707107 -0.707107 0
    outer loop
      vertex 13.8 -3.325 2.2
      vertex 12 -5.125 3.41
      vertex 12 -5.125 2.2
    endloop
  endfacet
  facet normal -0.707107 0.707107 0
    outer loop
      vertex 18.2 -3.325 2.2
      vertex 20 -1.525 3.41
      vertex 20 -1.525 2.2
    endloop
  endfacet
  facet normal -0.707107 0.707107 0
    outer loop
      vertex 20 -1.525 3.41
      vertex 18.2 -3.325 2.2
      vertex 18.2 -3.325 3.41
    endloop
  endfacet
  facet normal 0.707107 0.707107 0
    outer loop
      vertex 21.8 -3.325 3.41
      vertex 20 -1.525 2.2
      vertex 20 -1.525 3.41
    endloop
  endfacet
  facet normal 0.707107 0.707107 0
    outer loop
      vertex 20 -1.525 2.2
      vertex 21.8 -3.325 3.41
      vertex 21.8 -3.325 2.2
    endloop
  endfacet
  facet normal 0 0 1
    outer loop
      vertex 20 -1.525 3.41
      vertex 20 -5.125 3.41
      vertex 21.8 -3.325 3.41
    endloop
  endfacet
  facet normal 0 -0 1
    outer loop
      vertex 20 -5.125 3.41
      vertex 20 -1.525 3.41
      vertex 18.2 -3.325 3.41
    endloop
  endfacet
  facet normal -0.707107 -0.707107 0
    outer loop
      vertex 20 -5.125 2.2
      vertex 18.2 -3.325 3.41
      vertex 18.2 -3.325 2.2
    endloop
  endfacet
  facet normal -0.707107 -0.707107 0
    outer loop
      vertex 18.2 -3.325 3.41
      vertex 20 -5.125 2.2
      vertex 20 -5.125 3.41
    endloop
  endfacet
  facet normal 0.707107 -0.707107 0
    outer loop
      vertex 20 -5.125 3.41
      vertex 21.8 -3.325 2.2
      vertex 21.8 -3.325 3.41
    endloop
  endfacet
  facet normal 0.707107 -0.707107 0
    outer loop
      vertex 21.8 -3.325 2.2
      vertex 20 -5.125 3.41
      vertex 20 -5.125 2.2
    endloop
  endfacet
  facet normal -1 0 0
    outer loop
      vertex -23.85 -1.71372 0.94364
      vertex -23.85 -0.762499 0.0100004
      vertex -23.85 -0.762499 0
    endloop
  endfacet
  facet normal -1 0 0
    outer loop
      vertex -23.85 -0.762499 0.0100004
      vertex -23.85 -1.71372 0.94364
      vertex -23.85 -1.19608 0.94364
    endloop
  endfacet
  facet normal -1 0 0
    outer loop
      vertex -23.85 -1.71372 0.94364
      vertex -23.85 -4.93628 0.94364
      vertex -23.85 -1.71372 2.2
    endloop
  endfacet
  facet normal -1 0 0
    outer loop
      vertex -23.85 -5.0125 0
      vertex -23.85 -1.71372 0.94364
      vertex -23.85 -0.762499 0
    endloop
  endfacet
  facet normal -1 0 0
    outer loop
      vertex -23.85 -1.71372 0.94364
      vertex -23.85 -5.0125 0
      vertex -23.85 -5.0125 0.0100004
    endloop
  endfacet
  facet normal -1 -0 0
    outer loop
      vertex -23.85 -1.71372 0.94364
      vertex -23.85 -5.0125 0.0100004
      vertex -23.85 -4.93628 0.94364
    endloop
  endfacet
  facet normal -1 0 0
    outer loop
      vertex -23.85 -5.0125 0.0100004
      vertex -23.85 -5.45392 0.94364
      vertex -23.85 -4.93628 0.94364
    endloop
  endfacet
  facet normal -1 0 0
    outer loop
      vertex -23.85 -5.45392 0.94364
      vertex -23.85 -5.476 0.952459
      vertex -23.85 -5.45392 0.952459
    endloop
  endfacet
  facet normal -1 0 0
    outer loop
      vertex -23.85 -5.476 0.952459
      vertex -23.85 -5.45392 0.94364
      vertex -23.85 -5.0125 0.0100004
    endloop
  endfacet
  facet normal -1 0 0
    outer loop
      vertex -23.85 -1.19608 0.94364
      vertex -23.85 -0.298996 0.952459
      vertex -23.85 -0.762499 0.0100004
    endloop
  endfacet
  facet normal -1 -0 0
    outer loop
      vertex -23.85 -0.298996 0.952459
      vertex -23.85 -1.19608 0.94364
      vertex -23.85 -1.19608 0.952459
    endloop
  endfacet
  facet normal -1 -0 0
    outer loop
      vertex -23.85 -1.71372 2.2
      vertex -23.85 -4.93628 0.94364
      vertex -23.85 -4.93628 2.2
    endloop
  endfacet
  facet normal 0 0 1
    outer loop
      vertex 21.8 -3.325 2.2
      vertex 24 -1.71372 2.2
      vertex 23.1091 -1.475 2.2
    endloop
  endfacet
  facet normal 0 0 1
    outer loop
      vertex 24 -1.71372 2.2
      vertex 21.8 -3.325 2.2
      vertex 24 -4.93628 2.2
    endloop
  endfacet
  facet normal 0 0 1
    outer loop
      vertex 24 -4.93628 2.2
      vertex 21.8 -3.325 2.2
      vertex 23.1091 -5.175 2.2
    endloop
  endfacet
  facet normal 0 0 1
    outer loop
      vertex 23.1091 -1.475 2.2
      vertex 20 -1.525 2.2
      vertex 21.8 -3.325 2.2
    endloop
  endfacet
  facet normal 0 0 1
    outer loop
      vertex 20 -1.525 2.2
      vertex 13.8 -3.325 2.2
      vertex 18.2 -3.325 2.2
    endloop
  endfacet
  facet normal 0 0 1
    outer loop
      vertex 20 -1.525 2.2
      vertex 12 -1.525 2.2
      vertex 13.8 -3.325 2.2
    endloop
  endfacet
  facet normal 0 0 1
    outer loop
      vertex 23.1091 -1.475 2.2
      vertex 12 -1.525 2.2
      vertex 20 -1.525 2.2
    endloop
  endfacet
  facet normal 0 0 1
    outer loop
      vertex 12 -1.525 2.2
      vertex 5.8 -3.325 2.2
      vertex 10.2 -3.325 2.2
    endloop
  endfacet
  facet normal 0 0 1
    outer loop
      vertex 12 -1.525 2.2
      vertex 4 -1.525 2.2
      vertex 5.8 -3.325 2.2
    endloop
  endfacet
  facet normal 0 0 1
    outer loop
      vertex 23.1091 -1.475 2.2
      vertex 4 -1.525 2.2
      vertex 12 -1.525 2.2
    endloop
  endfacet
  facet normal 0 0 1
    outer loop
      vertex 4 -1.525 2.2
      vertex -2.2 -3.325 2.2
      vertex 2.2 -3.325 2.2
    endloop
  endfacet
  facet normal 0 0 1
    outer loop
      vertex 4 -1.525 2.2
      vertex -4 -1.525 2.2
      vertex -2.2 -3.325 2.2
    endloop
  endfacet
  facet normal 0 0 1
    outer loop
      vertex 23.1091 -1.475 2.2
      vertex -4 -1.525 2.2
      vertex 4 -1.525 2.2
    endloop
  endfacet
  facet normal 0 0 1
    outer loop
      vertex -4 -1.525 2.2
      vertex -10.2 -3.325 2.2
      vertex -5.8 -3.325 2.2
    endloop
  endfacet
  facet normal 0 0 1
    outer loop
      vertex -4 -1.525 2.2
      vertex -12 -1.525 2.2
      vertex -10.2 -3.325 2.2
    endloop
  endfacet
  facet normal 0 0 1
    outer loop
      vertex 23.1091 -1.475 2.2
      vertex -12 -1.525 2.2
      vertex -4 -1.525 2.2
    endloop
  endfacet
  facet normal 0 0 1
    outer loop
      vertex -12 -1.525 2.2
      vertex -18.2 -3.325 2.2
      vertex -13.8 -3.325 2.2
    endloop
  endfacet
  facet normal 0 0 1
    outer loop
      vertex -12 -1.525 2.2
      vertex -20 -1.525 2.2
      vertex -18.2 -3.325 2.2
    endloop
  endfacet
  facet normal -0 0 1
    outer loop
      vertex -22.9591 -1.475 2.2
      vertex -12 -1.525 2.2
      vertex 23.1091 -1.475 2.2
    endloop
  endfacet
  facet normal 0 0 1
    outer loop
      vertex -20 -1.525 2.2
      vertex -22.9591 -1.475 2.2
      vertex -21.8 -3.325 2.2
    endloop
  endfacet
  facet normal 0 0 1
    outer loop
      vertex -12 -1.525 2.2
      vertex -22.9591 -1.475 2.2
      vertex -20 -1.525 2.2
    endloop
  endfacet
  facet normal -0 0 1
    outer loop
      vertex 20 -5.125 2.2
      vertex 23.1091 -5.175 2.2
      vertex 21.8 -3.325 2.2
    endloop
  endfacet
  facet normal -0 0 1
    outer loop
      vertex 13.8 -3.325 2.2
      vertex 20 -5.125 2.2
      vertex 18.2 -3.325 2.2
    endloop
  endfacet
  facet normal 0 0 1
    outer loop
      vertex 12 -5.125 2.2
      vertex 20 -5.125 2.2
      vertex 13.8 -3.325 2.2
    endloop
  endfacet
  facet normal -0 0 1
    outer loop
      vertex 12 -5.125 2.2
      vertex 23.1091 -5.175 2.2
      vertex 20 -5.125 2.2
    endloop
  endfacet
  facet normal -0 0 1
    outer loop
      vertex 5.8 -3.325 2.2
      vertex 12 -5.125 2.2
      vertex 10.2 -3.325 2.2
    endloop
  endfacet
  facet normal 0 0 1
    outer loop
      vertex 4 -5.125 2.2
      vertex 12 -5.125 2.2
      vertex 5.8 -3.325 2.2
    endloop
  endfacet
  facet normal -0 0 1
    outer loop
      vertex 4 -5.125 2.2
      vertex 23.1091 -5.175 2.2
      vertex 12 -5.125 2.2
    endloop
  endfacet
  facet normal -0 0 1
    outer loop
      vertex -2.2 -3.325 2.2
      vertex 4 -5.125 2.2
      vertex 2.2 -3.325 2.2
    endloop
  endfacet
  facet normal 0 0 1
    outer loop
      vertex -4 -5.125 2.2
      vertex 4 -5.125 2.2
      vertex -2.2 -3.325 2.2
    endloop
  endfacet
  facet normal -0 0 1
    outer loop
      vertex -4 -5.125 2.2
      vertex 23.1091 -5.175 2.2
      vertex 4 -5.125 2.2
    endloop
  endfacet
  facet normal -0 0 1
    outer loop
      vertex -10.2 -3.325 2.2
      vertex -4 -5.125 2.2
      vertex -5.8 -3.325 2.2
    endloop
  endfacet
  facet normal 0 0 1
    outer loop
      vertex -12 -5.125 2.2
      vertex -4 -5.125 2.2
      vertex -10.2 -3.325 2.2
    endloop
  endfacet
  facet normal -0 0 1
    outer loop
      vertex -12 -5.125 2.2
      vertex 23.1091 -5.175 2.2
      vertex -4 -5.125 2.2
    endloop
  endfacet
  facet normal -0 0 1
    outer loop
      vertex -18.2 -3.325 2.2
      vertex -12 -5.125 2.2
      vertex -13.8 -3.325 2.2
    endloop
  endfacet
  facet normal 0 0 1
    outer loop
      vertex -20 -5.125 2.2
      vertex -12 -5.125 2.2
      vertex -18.2 -3.325 2.2
    endloop
  endfacet
  facet normal 0 0 1
    outer loop
      vertex -22.9591 -5.175 2.2
      vertex -12 -5.125 2.2
      vertex -20 -5.125 2.2
    endloop
  endfacet
  facet normal 0 0 1
    outer loop
      vertex -12 -5.125 2.2
      vertex -22.9591 -5.175 2.2
      vertex 23.1091 -5.175 2.2
    endloop
  endfacet
  facet normal 0 0 1
    outer loop
      vertex -21.8 -3.325 2.2
      vertex -22.9591 -5.175 2.2
      vertex -20 -5.125 2.2
    endloop
  endfacet
  facet normal -0 0 1
    outer loop
      vertex -23.85 -1.71372 2.2
      vertex -21.8 -3.325 2.2
      vertex -22.9591 -1.475 2.2
    endloop
  endfacet
  facet normal 0 0 1
    outer loop
      vertex -23.85 -4.93628 2.2
      vertex -21.8 -3.325 2.2
      vertex -23.85 -1.71372 2.2
    endloop
  endfacet
  facet normal 0 0 1
    outer loop
      vertex -21.8 -3.325 2.2
      vertex -23.85 -4.93628 2.2
      vertex -22.9591 -5.175 2.2
    endloop
  endfacet
  facet normal 1 0 0
    outer loop
      vertex 24 -5.45392 0.952459
      vertex 24 -5.476 0.952459
      vertex 24 -5.45392 0.94364
    endloop
  endfacet
  facet normal 1 0 0
    outer loop
      vertex 24 -1.71372 2.2
      vertex 24 -4.93628 2.2
      vertex 24 -1.71372 0.94364
    endloop
  endfacet
  facet normal 1 0 0
    outer loop
      vertex 24 -1.19608 0.94364
      vertex 24 -0.298996 0.952459
      vertex 24 -1.19608 0.952459
    endloop
  endfacet
  facet normal 1 0 0
    outer loop
      vertex 24 -0.298996 0.952459
      vertex 24 -1.19608 0.94364
      vertex 24 -0.762499 0.0100004
    endloop
  endfacet
  facet normal 1 -0 0
    outer loop
      vertex 24 -1.71372 0.94364
      vertex 24 -0.762499 0.0100004
      vertex 24 -1.19608 0.94364
    endloop
  endfacet
  facet normal 1 0 0
    outer loop
      vertex 24 -0.762499 0.0100004
      vertex 24 -1.71372 0.94364
      vertex 24 -0.762499 0
    endloop
  endfacet
  facet normal 1 0 0
    outer loop
      vertex 24 -4.93628 0.94364
      vertex 24 -1.71372 0.94364
      vertex 24 -4.93628 2.2
    endloop
  endfacet
  facet normal 1 0 0
    outer loop
      vertex 24 -5.0125 0.0100004
      vertex 24 -1.71372 0.94364
      vertex 24 -4.93628 0.94364
    endloop
  endfacet
  facet normal 1 0 0
    outer loop
      vertex 24 -5.0125 0
      vertex 24 -1.71372 0.94364
      vertex 24 -5.0125 0.0100004
    endloop
  endfacet
  facet normal 1 0 0
    outer loop
      vertex 24 -1.71372 0.94364
      vertex 24 -5.0125 0
      vertex 24 -0.762499 0
    endloop
  endfacet
  facet normal 1 -0 0
    outer loop
      vertex 24 -5.45392 0.94364
      vertex 24 -5.0125 0.0100004
      vertex 24 -4.93628 0.94364
    endloop
  endfacet
  facet normal 1 0 0
    outer loop
      vertex 24 -5.0125 0.0100004
      vertex 24 -5.45392 0.94364
      vertex 24 -5.476 0.952459
    endloop
  endfacet
  facet normal 0 0 -1
    outer loop
      vertex -23.85 -5.0125 0
      vertex 24 -0.762499 0
      vertex 24 -5.0125 0
    endloop
  endfacet
  facet normal -0 0 -1
    outer loop
      vertex 24 -0.762499 0
      vertex -23.85 -5.0125 0
      vertex -23.85 -0.762499 0
    endloop
  endfacet
  facet normal 0.258819 -0 0.965926
    outer loop
      vertex 23.1135 -0.958543 1.19
      vertex 24 -0.298996 0.952459
      vertex 23.1135 -0.182172 1.19
    endloop
  endfacet
  facet normal 0.258819 0 0.965926
    outer loop
      vertex 24 -0.298996 0.952459
      vertex 23.1135 -0.958543 1.19
      vertex 24 -1.19608 0.952459
    endloop
  endfacet
  facet normal 0 1 -0
    outer loop
      vertex 23.1091 -1.475 1.19
      vertex -22.9591 -1.475 2.2
      vertex 23.1091 -1.475 2.2
    endloop
  endfacet
  facet normal 0 1 0
    outer loop
      vertex -22.9591 -1.475 2.2
      vertex 23.1091 -1.475 1.19
      vertex -22.9591 -1.475 1.19
    endloop
  endfacet
  facet normal -0.258819 0 0.965926
    outer loop
      vertex -23.85 -0.298996 0.952459
      vertex -22.9635 -0.958543 1.19
      vertex -22.9635 -0.182172 1.19
    endloop
  endfacet
  facet normal -0.258819 0 0.965926
    outer loop
      vertex -22.9635 -0.958543 1.19
      vertex -23.85 -0.298996 0.952459
      vertex -23.85 -1.19608 0.952459
    endloop
  endfacet
  facet normal -0.258822 -0.965925 -1.05216e-05
    outer loop
      vertex 24 -1.19608 0.94364
      vertex 23.1135 -0.958543 1.19
      vertex 23.0806 -0.949724 1.19
    endloop
  endfacet
  facet normal -0.258819 -0.965926 0
    outer loop
      vertex 23.1135 -0.958543 1.19
      vertex 24 -1.19608 0.94364
      vertex 24 -1.19608 0.952459
    endloop
  endfacet
  facet normal 0.258819 0.965926 0
    outer loop
      vertex 24 -1.71372 2.2
      vertex 23.1091 -1.475 1.19
      vertex 23.1091 -1.475 2.2
    endloop
  endfacet
  facet normal 0.258828 0.965924 3.41644e-05
    outer loop
      vertex 23.1091 -1.475 1.19
      vertex 24 -1.71372 0.94364
      vertex 23.0806 -1.46736 1.19
    endloop
  endfacet
  facet normal 0.258819 0.965926 -0
    outer loop
      vertex 24 -1.71372 0.94364
      vertex 23.1091 -1.475 1.19
      vertex 24 -1.71372 2.2
    endloop
  endfacet
  facet normal 0.258819 -0 0.965926
    outer loop
      vertex 23.0806 -1.46736 1.19
      vertex 24 -1.19608 0.94364
      vertex 23.0806 -0.949724 1.19
    endloop
  endfacet
  facet normal 0.258819 0 0.965926
    outer loop
      vertex 24 -1.19608 0.94364
      vertex 23.0806 -1.46736 1.19
      vertex 24 -1.71372 0.94364
    endloop
  endfacet
  facet normal 0.258819 -0.965926 0
    outer loop
      vertex -23.85 -1.19608 0.94364
      vertex -22.9635 -0.958543 1.19
      vertex -23.85 -1.19608 0.952459
    endloop
  endfacet
  facet normal 0.258811 -0.965928 3.19287e-05
    outer loop
      vertex -22.9635 -0.958543 1.19
      vertex -23.85 -1.19608 0.94364
      vertex -22.9306 -0.949724 1.19
    endloop
  endfacet
  facet normal -0.258811 0.965928 -3.00025e-05
    outer loop
      vertex -22.9306 -1.46736 1.19
      vertex -23.85 -1.71372 0.94364
      vertex -22.9591 -1.475 1.19
    endloop
  endfacet
  facet normal -0.258819 0.965926 0
    outer loop
      vertex -22.9591 -1.475 1.19
      vertex -23.85 -1.71372 2.2
      vertex -22.9591 -1.475 2.2
    endloop
  endfacet
  facet normal -0.258819 0.965926 0
    outer loop
      vertex -23.85 -1.71372 2.2
      vertex -22.9591 -1.475 1.19
      vertex -23.85 -1.71372 0.94364
    endloop
  endfacet
  facet normal -0.258819 0 0.965926
    outer loop
      vertex -23.85 -1.19608 0.94364
      vertex -22.9306 -1.46736 1.19
      vertex -22.9306 -0.949724 1.19
    endloop
  endfacet
  facet normal -0.258819 0 0.965926
    outer loop
      vertex -22.9306 -1.46736 1.19
      vertex -23.85 -1.19608 0.94364
      vertex -23.85 -1.71372 0.94364
    endloop
  endfacet
  facet normal 0 0 1
    outer loop
      vertex 23.1135 -0.182172 1.19
      vertex 23.0806 -0.949724 1.19
      vertex 23.1135 -0.958543 1.19
    endloop
  endfacet
  facet normal 0 0 1
    outer loop
      vertex 23.0806 -0.949724 1.19
      vertex -22.9306 -0.949724 1.19
      vertex 23.0806 -1.46736 1.19
    endloop
  endfacet
  facet normal 0 0 1
    outer loop
      vertex 23.1135 -0.182172 1.19
      vertex -22.9306 -0.949724 1.19
      vertex 23.0806 -0.949724 1.19
    endloop
  endfacet
  facet normal -0 0 1
    outer loop
      vertex -22.9635 -0.182172 1.19
      vertex -22.9306 -0.949724 1.19
      vertex 23.1135 -0.182172 1.19
    endloop
  endfacet
  facet normal 0 0 1
    outer loop
      vertex -22.9306 -0.949724 1.19
      vertex -22.9635 -0.182172 1.19
      vertex -22.9635 -0.958543 1.19
    endloop
  endfacet
  facet normal 0 0 1
    outer loop
      vertex -22.9306 -1.46736 1.19
      vertex 23.0806 -1.46736 1.19
      vertex -22.9306 -0.949724 1.19
    endloop
  endfacet
  facet normal 0 0 1
    outer loop
      vertex 23.0806 -1.46736 1.19
      vertex -22.9306 -1.46736 1.19
      vertex 23.1091 -1.475 1.19
    endloop
  endfacet
  facet normal 0 0 1
    outer loop
      vertex 23.1091 -1.475 1.19
      vertex -22.9306 -1.46736 1.19
      vertex -22.9591 -1.475 1.19
    endloop
  endfacet
  facet normal 0 -1 0
    outer loop
      vertex -22.9591 -5.175 1.19
      vertex 23.1091 -5.175 2.2
      vertex -22.9591 -5.175 2.2
    endloop
  endfacet
  facet normal 0 -1 -0
    outer loop
      vertex 23.1091 -5.175 2.2
      vertex -22.9591 -5.175 1.19
      vertex 23.1091 -5.175 1.19
    endloop
  endfacet
  facet normal 0.258819 -0 0.965926
    outer loop
      vertex 24 -5.476 0.952459
      vertex 24 -5.45392 0.952459
      vertex 23.8378 -5.49738 0.995922
    endloop
  endfacet
  facet normal -0.258819 0 0.965926
    outer loop
      vertex -23.6878 -5.49738 0.995923
      vertex -23.85 -5.45392 0.952459
      vertex -23.85 -5.476 0.952459
    endloop
  endfacet
  facet normal 0.25882 -0.965926 4.94602e-06
    outer loop
      vertex 23.0806 -5.18264 1.19
      vertex 24 -4.93628 0.94364
      vertex 23.1091 -5.175 1.19
    endloop
  endfacet
  facet normal 0.258819 -0.965926 0
    outer loop
      vertex 23.1091 -5.175 1.19
      vertex 24 -4.93628 2.2
      vertex 23.1091 -5.175 2.2
    endloop
  endfacet
  facet normal 0.258819 -0.965926 0
    outer loop
      vertex 24 -4.93628 2.2
      vertex 23.1091 -5.175 1.19
      vertex 24 -4.93628 0.94364
    endloop
  endfacet
  facet normal -0.25882 0.965926 -1.5009e-06
    outer loop
      vertex 24 -5.45392 0.952459
      vertex 23.8696 -5.48884 0.978568
      vertex 23.8378 -5.49738 0.995922
    endloop
  endfacet
  facet normal -0.258819 0.965926 0
    outer loop
      vertex 23.8696 -5.48884 0.978568
      vertex 24 -5.45392 0.952459
      vertex 24 -5.45392 0.94364
    endloop
  endfacet
  facet normal 0.258821 0 0.965925
    outer loop
      vertex 24 -4.93628 0.94364
      vertex 23.8696 -5.48884 0.978568
      vertex 24 -5.45392 0.94364
    endloop
  endfacet
  facet normal 0.258819 3.68353e-07 0.965926
    outer loop
      vertex 23.0806 -5.18264 1.19
      vertex 23.8696 -5.48884 0.978568
      vertex 24 -4.93628 0.94364
    endloop
  endfacet
  facet normal 0.258819 0 0.965926
    outer loop
      vertex 23.8696 -5.48884 0.978568
      vertex 23.0806 -5.18264 1.19
      vertex 23.0806 -5.59283 1.19
    endloop
  endfacet
  facet normal -0.258819 -0.965926 0
    outer loop
      vertex -23.85 -4.93628 2.2
      vertex -22.9591 -5.175 1.19
      vertex -22.9591 -5.175 2.2
    endloop
  endfacet
  facet normal -0.258804 -0.96593 -5.96865e-05
    outer loop
      vertex -22.9591 -5.175 1.19
      vertex -23.85 -4.93628 0.94364
      vertex -22.9306 -5.18264 1.19
    endloop
  endfacet
  facet normal -0.258819 -0.965926 0
    outer loop
      vertex -23.85 -4.93628 0.94364
      vertex -22.9591 -5.175 1.19
      vertex -23.85 -4.93628 2.2
    endloop
  endfacet
  facet normal 0.25882 0.965926 -1.50085e-06
    outer loop
      vertex -23.7196 -5.48884 0.978568
      vertex -23.85 -5.45392 0.952459
      vertex -23.6878 -5.49738 0.995923
    endloop
  endfacet
  facet normal 0.258819 0.965926 0
    outer loop
      vertex -23.85 -5.45392 0.952459
      vertex -23.7196 -5.48884 0.978568
      vertex -23.85 -5.45392 0.94364
    endloop
  endfacet
  facet normal -0.258819 0 0.965926
    outer loop
      vertex -22.9306 -5.18264 1.19
      vertex -23.7196 -5.48884 0.978568
      vertex -22.9306 -5.59283 1.19
    endloop
  endfacet
  facet normal -0.258819 8.19892e-08 0.965926
    outer loop
      vertex -23.85 -4.93628 0.94364
      vertex -23.7196 -5.48884 0.978568
      vertex -22.9306 -5.18264 1.19
    endloop
  endfacet
  facet normal -0.258819 0 0.965926
    outer loop
      vertex -23.7196 -5.48884 0.978568
      vertex -23.85 -4.93628 0.94364
      vertex -23.85 -5.45392 0.94364
    endloop
  endfacet
  facet normal 0 0 1
    outer loop
      vertex 23.0806 -5.18264 1.19
      vertex -22.9306 -5.18264 1.19
      vertex 23.0806 -5.59283 1.19
    endloop
  endfacet
  facet normal 0 0 1
    outer loop
      vertex 23.1091 -5.175 1.19
      vertex -22.9306 -5.18264 1.19
      vertex 23.0806 -5.18264 1.19
    endloop
  endfacet
  facet normal 0 -0 1
    outer loop
      vertex -22.9306 -5.18264 1.19
      vertex 23.1091 -5.175 1.19
      vertex -22.9591 -5.175 1.19
    endloop
  endfacet
  facet normal 0 0 1
    outer loop
      vertex 23.0806 -5.59283 1.19
      vertex -22.9306 -5.18264 1.19
      vertex -22.9306 -5.59283 1.19
    endloop
  endfacet
  facet normal 0 1 -0
    outer loop
      vertex 24 -0.762499 0
      vertex -23.85 -0.762499 0.0100004
      vertex 24 -0.762499 0.0100004
    endloop
  endfacet
  facet normal 0 1 0
    outer loop
      vertex -23.85 -0.762499 0.0100004
      vertex 24 -0.762499 0
      vertex -23.85 -0.762499 0
    endloop
  endfacet
  facet normal 0 0.89735 -0.441319
    outer loop
      vertex -23.85 -0.762499 0.0100004
      vertex -22.9635 -0.182172 1.19
      vertex 23.1135 -0.182172 1.19
    endloop
  endfacet
  facet normal -3.44868e-08 0.89735 -0.441319
    outer loop
      vertex 24 -0.762499 0.0100004
      vertex 23.1135 -0.182172 1.19
      vertex 24 -0.298996 0.952459
    endloop
  endfacet
  facet normal 0 0.89735 -0.441319
    outer loop
      vertex -23.85 -0.762499 0.0100004
      vertex 23.1135 -0.182172 1.19
      vertex 24 -0.762499 0.0100004
    endloop
  endfacet
  facet normal -1.86835e-10 0.89735 -0.441319
    outer loop
      vertex -22.9635 -0.182172 1.19
      vertex -23.85 -0.762499 0.0100004
      vertex -23.85 -0.298996 0.952459
    endloop
  endfacet
  facet normal -2.00692e-07 -0.89735 -0.44132
    outer loop
      vertex -23.85 -5.0125 0.0100004
      vertex -23.7196 -5.48884 0.978568
      vertex -23.85 -5.476 0.952459
    endloop
  endfacet
  facet normal 6.51812e-07 -0.897348 -0.441323
    outer loop
      vertex -23.85 -5.476 0.952459
      vertex -23.7196 -5.48884 0.978568
      vertex -23.6878 -5.49738 0.995923
    endloop
  endfacet
  facet normal 0 -0.89735 -0.441319
    outer loop
      vertex -23.7196 -5.48884 0.978568
      vertex 23.0806 -5.59283 1.19
      vertex -22.9306 -5.59283 1.19
    endloop
  endfacet
  facet normal 0 -0.89735 -0.441319
    outer loop
      vertex 23.0806 -5.59283 1.19
      vertex -23.7196 -5.48884 0.978568
      vertex 23.8696 -5.48884 0.978568
    endloop
  endfacet
  facet normal -4.1678e-06 -0.897343 -0.441333
    outer loop
      vertex 23.8696 -5.48884 0.978568
      vertex 24 -5.476 0.952459
      vertex 23.8378 -5.49738 0.995922
    endloop
  endfacet
  facet normal 0 -0.89735 -0.44132
    outer loop
      vertex -23.7196 -5.48884 0.978568
      vertex -23.85 -5.0125 0.0100004
      vertex 23.8696 -5.48884 0.978568
    endloop
  endfacet
  facet normal -0 -0.89735 -0.44132
    outer loop
      vertex 24 -5.0125 0.0100004
      vertex 23.8696 -5.48884 0.978568
      vertex -23.85 -5.0125 0.0100004
    endloop
  endfacet
  facet normal -8.36218e-07 -0.89735 -0.44132
    outer loop
      vertex 23.8696 -5.48884 0.978568
      vertex 24 -5.0125 0.0100004
      vertex 24 -5.476 0.952459
    endloop
  endfacet
  facet normal 0 -1 0
    outer loop
      vertex -23.85 -5.0125 0
      vertex 24 -5.0125 0.0100004
      vertex -23.85 -5.0125 0.0100004
    endloop
  endfacet
  facet normal 0 -1 -0
    outer loop
      vertex 24 -5.0125 0.0100004
      vertex -23.85 -5.0125 0
      vertex 24 -5.0125 0
    endloop
  endfacet
endsolid OpenSCAD_Model
