solid OpenSCAD_Model
  facet normal 0.707107 0.707107 -0
    outer loop
      vertex -42.8 -3.1 2.2
      vertex -44 -1.9 3.41
      vertex -42.8 -3.1 3.41
    endloop
  endfacet
  facet normal 0.707107 0.707107 0
    outer loop
      vertex -44 -1.9 3.41
      vertex -42.8 -3.1 2.2
      vertex -44 -1.9 2.2
    endloop
  endfacet
  facet normal -0.707107 0.707107 0
    outer loop
      vertex -44 -1.9 2.2
      vertex -45.2 -3.1 3.41
      vertex -44 -1.9 3.41
    endloop
  endfacet
  facet normal -0.707107 0.707107 0
    outer loop
      vertex -45.2 -3.1 3.41
      vertex -44 -1.9 2.2
      vertex -45.2 -3.1 2.2
    endloop
  endfacet
  facet normal 0.707107 -0.707107 0
    outer loop
      vertex -44 -4.3 2.2
      vertex -42.8 -3.1 3.41
      vertex -44 -4.3 3.41
    endloop
  endfacet
  facet normal 0.707107 -0.707107 0
    outer loop
      vertex -42.8 -3.1 3.41
      vertex -44 -4.3 2.2
      vertex -42.8 -3.1 2.2
    endloop
  endfacet
  facet normal -0.707107 -0.707107 0
    outer loop
      vertex -45.2 -3.1 2.2
      vertex -44 -4.3 3.41
      vertex -45.2 -3.1 3.41
    endloop
  endfacet
  facet normal -0.707107 -0.707107 -0
    outer loop
      vertex -44 -4.3 3.41
      vertex -45.2 -3.1 2.2
      vertex -44 -4.3 2.2
    endloop
  endfacet
  facet normal 0 0 1
    outer loop
      vertex -44 -1.9 3.41
      vertex -44 -4.3 3.41
      vertex -42.8 -3.1 3.41
    endloop
  endfacet
  facet normal 0 -0 1
    outer loop
      vertex -44 -4.3 3.41
      vertex -44 -1.9 3.41
      vertex -45.2 -3.1 3.41
    endloop
  endfacet
  facet normal 0.707107 0.707107 -0
    outer loop
      vertex -34.8 -3.1 2.2
      vertex -36 -1.9 3.41
      vertex -34.8 -3.1 3.41
    endloop
  endfacet
  facet normal 0.707107 0.707107 0
    outer loop
      vertex -36 -1.9 3.41
      vertex -34.8 -3.1 2.2
      vertex -36 -1.9 2.2
    endloop
  endfacet
  facet normal -0.707107 0.707107 0
    outer loop
      vertex -36 -1.9 2.2
      vertex -37.2 -3.1 3.41
      vertex -36 -1.9 3.41
    endloop
  endfacet
  facet normal -0.707107 0.707107 0
    outer loop
      vertex -37.2 -3.1 3.41
      vertex -36 -1.9 2.2
      vertex -37.2 -3.1 2.2
    endloop
  endfacet
  facet normal 0.707107 -0.707107 0
    outer loop
      vertex -36 -4.3 2.2
      vertex -34.8 -3.1 3.41
      vertex -36 -4.3 3.41
    endloop
  endfacet
  facet normal 0.707107 -0.707107 0
    outer loop
      vertex -34.8 -3.1 3.41
      vertex -36 -4.3 2.2
      vertex -34.8 -3.1 2.2
    endloop
  endfacet
  facet normal -0.707107 -0.707107 0
    outer loop
      vertex -37.2 -3.1 2.2
      vertex -36 -4.3 3.41
      vertex -37.2 -3.1 3.41
    endloop
  endfacet
  facet normal -0.707107 -0.707107 -0
    outer loop
      vertex -36 -4.3 3.41
      vertex -37.2 -3.1 2.2
      vertex -36 -4.3 2.2
    endloop
  endfacet
  facet normal 0 0 1
    outer loop
      vertex -36 -1.9 3.41
      vertex -36 -4.3 3.41
      vertex -34.8 -3.1 3.41
    endloop
  endfacet
  facet normal 0 -0 1
    outer loop
      vertex -36 -4.3 3.41
      vertex -36 -1.9 3.41
      vertex -37.2 -3.1 3.41
    endloop
  endfacet
  facet normal 0.707107 0.707107 -0
    outer loop
      vertex -26.8 -3.1 2.2
      vertex -28 -1.9 3.41
      vertex -26.8 -3.1 3.41
    endloop
  endfacet
  facet normal 0.707107 0.707107 0
    outer loop
      vertex -28 -1.9 3.41
      vertex -26.8 -3.1 2.2
      vertex -28 -1.9 2.2
    endloop
  endfacet
  facet normal -0.707107 0.707107 0
    outer loop
      vertex -28 -1.9 2.2
      vertex -29.2 -3.1 3.41
      vertex -28 -1.9 3.41
    endloop
  endfacet
  facet normal -0.707107 0.707107 0
    outer loop
      vertex -29.2 -3.1 3.41
      vertex -28 -1.9 2.2
      vertex -29.2 -3.1 2.2
    endloop
  endfacet
  facet normal 0.707107 -0.707107 0
    outer loop
      vertex -28 -4.3 2.2
      vertex -26.8 -3.1 3.41
      vertex -28 -4.3 3.41
    endloop
  endfacet
  facet normal 0.707107 -0.707107 0
    outer loop
      vertex -26.8 -3.1 3.41
      vertex -28 -4.3 2.2
      vertex -26.8 -3.1 2.2
    endloop
  endfacet
  facet normal -0.707107 -0.707107 0
    outer loop
      vertex -29.2 -3.1 2.2
      vertex -28 -4.3 3.41
      vertex -29.2 -3.1 3.41
    endloop
  endfacet
  facet normal -0.707107 -0.707107 -0
    outer loop
      vertex -28 -4.3 3.41
      vertex -29.2 -3.1 2.2
      vertex -28 -4.3 2.2
    endloop
  endfacet
  facet normal 0 0 1
    outer loop
      vertex -28 -1.9 3.41
      vertex -28 -4.3 3.41
      vertex -26.8 -3.1 3.41
    endloop
  endfacet
  facet normal 0 -0 1
    outer loop
      vertex -28 -4.3 3.41
      vertex -28 -1.9 3.41
      vertex -29.2 -3.1 3.41
    endloop
  endfacet
  facet normal 0.707107 0.707107 -0
    outer loop
      vertex -18.8 -3.1 2.2
      vertex -20 -1.9 3.41
      vertex -18.8 -3.1 3.41
    endloop
  endfacet
  facet normal 0.707107 0.707107 0
    outer loop
      vertex -20 -1.9 3.41
      vertex -18.8 -3.1 2.2
      vertex -20 -1.9 2.2
    endloop
  endfacet
  facet normal -0.707107 0.707107 0
    outer loop
      vertex -20 -1.9 2.2
      vertex -21.2 -3.1 3.41
      vertex -20 -1.9 3.41
    endloop
  endfacet
  facet normal -0.707107 0.707107 0
    outer loop
      vertex -21.2 -3.1 3.41
      vertex -20 -1.9 2.2
      vertex -21.2 -3.1 2.2
    endloop
  endfacet
  facet normal 0.707107 -0.707107 0
    outer loop
      vertex -20 -4.3 2.2
      vertex -18.8 -3.1 3.41
      vertex -20 -4.3 3.41
    endloop
  endfacet
  facet normal 0.707107 -0.707107 0
    outer loop
      vertex -18.8 -3.1 3.41
      vertex -20 -4.3 2.2
      vertex -18.8 -3.1 2.2
    endloop
  endfacet
  facet normal -0.707107 -0.707107 0
    outer loop
      vertex -21.2 -3.1 2.2
      vertex -20 -4.3 3.41
      vertex -21.2 -3.1 3.41
    endloop
  endfacet
  facet normal -0.707107 -0.707107 -0
    outer loop
      vertex -20 -4.3 3.41
      vertex -21.2 -3.1 2.2
      vertex -20 -4.3 2.2
    endloop
  endfacet
  facet normal 0 0 1
    outer loop
      vertex -20 -1.9 3.41
      vertex -20 -4.3 3.41
      vertex -18.8 -3.1 3.41
    endloop
  endfacet
  facet normal 0 -0 1
    outer loop
      vertex -20 -4.3 3.41
      vertex -20 -1.9 3.41
      vertex -21.2 -3.1 3.41
    endloop
  endfacet
  facet normal 0.707107 0.707107 -0
    outer loop
      vertex -10.8 -3.1 2.2
      vertex -12 -1.9 3.41
      vertex -10.8 -3.1 3.41
    endloop
  endfacet
  facet normal 0.707107 0.707107 0
    outer loop
      vertex -12 -1.9 3.41
      vertex -10.8 -3.1 2.2
      vertex -12 -1.9 2.2
    endloop
  endfacet
  facet normal -0.707107 0.707107 0
    outer loop
      vertex -13.2 -3.1 2.2
      vertex -12 -1.9 3.41
      vertex -12 -1.9 2.2
    endloop
  endfacet
  facet normal -0.707107 0.707107 0
    outer loop
      vertex -12 -1.9 3.41
      vertex -13.2 -3.1 2.2
      vertex -13.2 -3.1 3.41
    endloop
  endfacet
  facet normal 0.707107 -0.707107 0
    outer loop
      vertex -12 -4.3 2.2
      vertex -10.8 -3.1 3.41
      vertex -12 -4.3 3.41
    endloop
  endfacet
  facet normal 0.707107 -0.707107 0
    outer loop
      vertex -10.8 -3.1 3.41
      vertex -12 -4.3 2.2
      vertex -10.8 -3.1 2.2
    endloop
  endfacet
  facet normal -0.707107 -0.707107 0
    outer loop
      vertex -12 -4.3 2.2
      vertex -13.2 -3.1 3.41
      vertex -13.2 -3.1 2.2
    endloop
  endfacet
  facet normal -0.707107 -0.707107 0
    outer loop
      vertex -13.2 -3.1 3.41
      vertex -12 -4.3 2.2
      vertex -12 -4.3 3.41
    endloop
  endfacet
  facet normal 0 0 1
    outer loop
      vertex -12 -1.9 3.41
      vertex -12 -4.3 3.41
      vertex -10.8 -3.1 3.41
    endloop
  endfacet
  facet normal 0 -0 1
    outer loop
      vertex -12 -4.3 3.41
      vertex -12 -1.9 3.41
      vertex -13.2 -3.1 3.41
    endloop
  endfacet
  facet normal 0.707107 0.707107 -0
    outer loop
      vertex -2.8 -3.1 2.2
      vertex -4 -1.9 3.41
      vertex -2.8 -3.1 3.41
    endloop
  endfacet
  facet normal 0.707107 0.707107 0
    outer loop
      vertex -4 -1.9 3.41
      vertex -2.8 -3.1 2.2
      vertex -4 -1.9 2.2
    endloop
  endfacet
  facet normal -0.707107 0.707107 0
    outer loop
      vertex -5.2 -3.1 2.2
      vertex -4 -1.9 3.41
      vertex -4 -1.9 2.2
    endloop
  endfacet
  facet normal -0.707107 0.707107 0
    outer loop
      vertex -4 -1.9 3.41
      vertex -5.2 -3.1 2.2
      vertex -5.2 -3.1 3.41
    endloop
  endfacet
  facet normal 0.707107 -0.707107 0
    outer loop
      vertex -4 -4.3 2.2
      vertex -2.8 -3.1 3.41
      vertex -4 -4.3 3.41
    endloop
  endfacet
  facet normal 0.707107 -0.707107 0
    outer loop
      vertex -2.8 -3.1 3.41
      vertex -4 -4.3 2.2
      vertex -2.8 -3.1 2.2
    endloop
  endfacet
  facet normal -0.707107 -0.707107 0
    outer loop
      vertex -4 -4.3 2.2
      vertex -5.2 -3.1 3.41
      vertex -5.2 -3.1 2.2
    endloop
  endfacet
  facet normal -0.707107 -0.707107 0
    outer loop
      vertex -5.2 -3.1 3.41
      vertex -4 -4.3 2.2
      vertex -4 -4.3 3.41
    endloop
  endfacet
  facet normal 0 0 1
    outer loop
      vertex -4 -1.9 3.41
      vertex -4 -4.3 3.41
      vertex -2.8 -3.1 3.41
    endloop
  endfacet
  facet normal 0 -0 1
    outer loop
      vertex -4 -4.3 3.41
      vertex -4 -1.9 3.41
      vertex -5.2 -3.1 3.41
    endloop
  endfacet
  facet normal -0.707107 0.707107 0
    outer loop
      vertex 4 -1.9 2.2
      vertex 2.8 -3.1 3.41
      vertex 4 -1.9 3.41
    endloop
  endfacet
  facet normal -0.707107 0.707107 0
    outer loop
      vertex 2.8 -3.1 3.41
      vertex 4 -1.9 2.2
      vertex 2.8 -3.1 2.2
    endloop
  endfacet
  facet normal 0.707107 0.707107 0
    outer loop
      vertex 5.2 -3.1 3.41
      vertex 4 -1.9 2.2
      vertex 4 -1.9 3.41
    endloop
  endfacet
  facet normal 0.707107 0.707107 0
    outer loop
      vertex 4 -1.9 2.2
      vertex 5.2 -3.1 3.41
      vertex 5.2 -3.1 2.2
    endloop
  endfacet
  facet normal 0 0 1
    outer loop
      vertex 4 -1.9 3.41
      vertex 4 -4.3 3.41
      vertex 5.2 -3.1 3.41
    endloop
  endfacet
  facet normal 0 -0 1
    outer loop
      vertex 4 -4.3 3.41
      vertex 4 -1.9 3.41
      vertex 2.8 -3.1 3.41
    endloop
  endfacet
  facet normal -0.707107 -0.707107 0
    outer loop
      vertex 2.8 -3.1 2.2
      vertex 4 -4.3 3.41
      vertex 2.8 -3.1 3.41
    endloop
  endfacet
  facet normal -0.707107 -0.707107 -0
    outer loop
      vertex 4 -4.3 3.41
      vertex 2.8 -3.1 2.2
      vertex 4 -4.3 2.2
    endloop
  endfacet
  facet normal 0.707107 -0.707107 0
    outer loop
      vertex 4 -4.3 3.41
      vertex 5.2 -3.1 2.2
      vertex 5.2 -3.1 3.41
    endloop
  endfacet
  facet normal 0.707107 -0.707107 0
    outer loop
      vertex 5.2 -3.1 2.2
      vertex 4 -4.3 3.41
      vertex 4 -4.3 2.2
    endloop
  endfacet
  facet normal -0.707107 0.707107 0
    outer loop
      vertex 12 -1.9 2.2
      vertex 10.8 -3.1 3.41
      vertex 12 -1.9 3.41
    endloop
  endfacet
  facet normal -0.707107 0.707107 0
    outer loop
      vertex 10.8 -3.1 3.41
      vertex 12 -1.9 2.2
      vertex 10.8 -3.1 2.2
    endloop
  endfacet
  facet normal 0.707107 0.707107 0
    outer loop
      vertex 13.2 -3.1 3.41
      vertex 12 -1.9 2.2
      vertex 12 -1.9 3.41
    endloop
  endfacet
  facet normal 0.707107 0.707107 0
    outer loop
      vertex 12 -1.9 2.2
      vertex 13.2 -3.1 3.41
      vertex 13.2 -3.1 2.2
    endloop
  endfacet
  facet normal 0 0 1
    outer loop
      vertex 12 -1.9 3.41
      vertex 12 -4.3 3.41
      vertex 13.2 -3.1 3.41
    endloop
  endfacet
  facet normal 0 -0 1
    outer loop
      vertex 12 -4.3 3.41
      vertex 12 -1.9 3.41
      vertex 10.8 -3.1 3.41
    endloop
  endfacet
  facet normal -0.707107 -0.707107 0
    outer loop
      vertex 10.8 -3.1 2.2
      vertex 12 -4.3 3.41
      vertex 10.8 -3.1 3.41
    endloop
  endfacet
  facet normal -0.707107 -0.707107 -0
    outer loop
      vertex 12 -4.3 3.41
      vertex 10.8 -3.1 2.2
      vertex 12 -4.3 2.2
    endloop
  endfacet
  facet normal 0.707107 -0.707107 0
    outer loop
      vertex 12 -4.3 3.41
      vertex 13.2 -3.1 2.2
      vertex 13.2 -3.1 3.41
    endloop
  endfacet
  facet normal 0.707107 -0.707107 0
    outer loop
      vertex 13.2 -3.1 2.2
      vertex 12 -4.3 3.41
      vertex 12 -4.3 2.2
    endloop
  endfacet
  facet normal -0.707107 0.707107 0
    outer loop
      vertex 20 -1.9 2.2
      vertex 18.8 -3.1 3.41
      vertex 20 -1.9 3.41
    endloop
  endfacet
  facet normal -0.707107 0.707107 0
    outer loop
      vertex 18.8 -3.1 3.41
      vertex 20 -1.9 2.2
      vertex 18.8 -3.1 2.2
    endloop
  endfacet
  facet normal 0.707107 0.707107 -0
    outer loop
      vertex 21.2 -3.1 2.2
      vertex 20 -1.9 3.41
      vertex 21.2 -3.1 3.41
    endloop
  endfacet
  facet normal 0.707107 0.707107 0
    outer loop
      vertex 20 -1.9 3.41
      vertex 21.2 -3.1 2.2
      vertex 20 -1.9 2.2
    endloop
  endfacet
  facet normal 0 0 1
    outer loop
      vertex 20 -1.9 3.41
      vertex 20 -4.3 3.41
      vertex 21.2 -3.1 3.41
    endloop
  endfacet
  facet normal 0 -0 1
    outer loop
      vertex 20 -4.3 3.41
      vertex 20 -1.9 3.41
      vertex 18.8 -3.1 3.41
    endloop
  endfacet
  facet normal -0.707107 -0.707107 0
    outer loop
      vertex 18.8 -3.1 2.2
      vertex 20 -4.3 3.41
      vertex 18.8 -3.1 3.41
    endloop
  endfacet
  facet normal -0.707107 -0.707107 -0
    outer loop
      vertex 20 -4.3 3.41
      vertex 18.8 -3.1 2.2
      vertex 20 -4.3 2.2
    endloop
  endfacet
  facet normal 0.707107 -0.707107 0
    outer loop
      vertex 20 -4.3 2.2
      vertex 21.2 -3.1 3.41
      vertex 20 -4.3 3.41
    endloop
  endfacet
  facet normal 0.707107 -0.707107 0
    outer loop
      vertex 21.2 -3.1 3.41
      vertex 20 -4.3 2.2
      vertex 21.2 -3.1 2.2
    endloop
  endfacet
  facet normal -0.707107 0.707107 0
    outer loop
      vertex 28 -1.9 2.2
      vertex 26.8 -3.1 3.41
      vertex 28 -1.9 3.41
    endloop
  endfacet
  facet normal -0.707107 0.707107 0
    outer loop
      vertex 26.8 -3.1 3.41
      vertex 28 -1.9 2.2
      vertex 26.8 -3.1 2.2
    endloop
  endfacet
  facet normal 0.707107 0.707107 -0
    outer loop
      vertex 29.2 -3.1 2.2
      vertex 28 -1.9 3.41
      vertex 29.2 -3.1 3.41
    endloop
  endfacet
  facet normal 0.707107 0.707107 0
    outer loop
      vertex 28 -1.9 3.41
      vertex 29.2 -3.1 2.2
      vertex 28 -1.9 2.2
    endloop
  endfacet
  facet normal 0 0 1
    outer loop
      vertex 28 -1.9 3.41
      vertex 28 -4.3 3.41
      vertex 29.2 -3.1 3.41
    endloop
  endfacet
  facet normal 0 -0 1
    outer loop
      vertex 28 -4.3 3.41
      vertex 28 -1.9 3.41
      vertex 26.8 -3.1 3.41
    endloop
  endfacet
  facet normal -0.707107 -0.707107 0
    outer loop
      vertex 26.8 -3.1 2.2
      vertex 28 -4.3 3.41
      vertex 26.8 -3.1 3.41
    endloop
  endfacet
  facet normal -0.707107 -0.707107 -0
    outer loop
      vertex 28 -4.3 3.41
      vertex 26.8 -3.1 2.2
      vertex 28 -4.3 2.2
    endloop
  endfacet
  facet normal 0.707107 -0.707107 0
    outer loop
      vertex 28 -4.3 2.2
      vertex 29.2 -3.1 3.41
      vertex 28 -4.3 3.41
    endloop
  endfacet
  facet normal 0.707107 -0.707107 0
    outer loop
      vertex 29.2 -3.1 3.41
      vertex 28 -4.3 2.2
      vertex 29.2 -3.1 2.2
    endloop
  endfacet
  facet normal -0.707107 0.707107 0
    outer loop
      vertex 36 -1.9 2.2
      vertex 34.8 -3.1 3.41
      vertex 36 -1.9 3.41
    endloop
  endfacet
  facet normal -0.707107 0.707107 0
    outer loop
      vertex 34.8 -3.1 3.41
      vertex 36 -1.9 2.2
      vertex 34.8 -3.1 2.2
    endloop
  endfacet
  facet normal 0.707107 0.707107 -0
    outer loop
      vertex 37.2 -3.1 2.2
      vertex 36 -1.9 3.41
      vertex 37.2 -3.1 3.41
    endloop
  endfacet
  facet normal 0.707107 0.707107 0
    outer loop
      vertex 36 -1.9 3.41
      vertex 37.2 -3.1 2.2
      vertex 36 -1.9 2.2
    endloop
  endfacet
  facet normal 0 0 1
    outer loop
      vertex 36 -1.9 3.41
      vertex 36 -4.3 3.41
      vertex 37.2 -3.1 3.41
    endloop
  endfacet
  facet normal 0 -0 1
    outer loop
      vertex 36 -4.3 3.41
      vertex 36 -1.9 3.41
      vertex 34.8 -3.1 3.41
    endloop
  endfacet
  facet normal -0.707107 -0.707107 0
    outer loop
      vertex 34.8 -3.1 2.2
      vertex 36 -4.3 3.41
      vertex 34.8 -3.1 3.41
    endloop
  endfacet
  facet normal -0.707107 -0.707107 -0
    outer loop
      vertex 36 -4.3 3.41
      vertex 34.8 -3.1 2.2
      vertex 36 -4.3 2.2
    endloop
  endfacet
  facet normal 0.707107 -0.707107 0
    outer loop
      vertex 36 -4.3 2.2
      vertex 37.2 -3.1 3.41
      vertex 36 -4.3 3.41
    endloop
  endfacet
  facet normal 0.707107 -0.707107 0
    outer loop
      vertex 37.2 -3.1 3.41
      vertex 36 -4.3 2.2
      vertex 37.2 -3.1 2.2
    endloop
  endfacet
  facet normal -0.707107 0.707107 0
    outer loop
      vertex 44 -1.9 2.2
      vertex 42.8 -3.1 3.41
      vertex 44 -1.9 3.41
    endloop
  endfacet
  facet normal -0.707107 0.707107 0
    outer loop
      vertex 42.8 -3.1 3.41
      vertex 44 -1.9 2.2
      vertex 42.8 -3.1 2.2
    endloop
  endfacet
  facet normal 0.707107 0.707107 -0
    outer loop
      vertex 45.2 -3.1 2.2
      vertex 44 -1.9 3.41
      vertex 45.2 -3.1 3.41
    endloop
  endfacet
  facet normal 0.707107 0.707107 0
    outer loop
      vertex 44 -1.9 3.41
      vertex 45.2 -3.1 2.2
      vertex 44 -1.9 2.2
    endloop
  endfacet
  facet normal 0 0 1
    outer loop
      vertex 44 -1.9 3.41
      vertex 44 -4.3 3.41
      vertex 45.2 -3.1 3.41
    endloop
  endfacet
  facet normal 0 -0 1
    outer loop
      vertex 44 -4.3 3.41
      vertex 44 -1.9 3.41
      vertex 42.8 -3.1 3.41
    endloop
  endfacet
  facet normal -0.707107 -0.707107 0
    outer loop
      vertex 42.8 -3.1 2.2
      vertex 44 -4.3 3.41
      vertex 42.8 -3.1 3.41
    endloop
  endfacet
  facet normal -0.707107 -0.707107 -0
    outer loop
      vertex 44 -4.3 3.41
      vertex 42.8 -3.1 2.2
      vertex 44 -4.3 2.2
    endloop
  endfacet
  facet normal 0.707107 -0.707107 0
    outer loop
      vertex 44 -4.3 2.2
      vertex 45.2 -3.1 3.41
      vertex 44 -4.3 3.41
    endloop
  endfacet
  facet normal 0.707107 -0.707107 0
    outer loop
      vertex 45.2 -3.1 3.41
      vertex 44 -4.3 2.2
      vertex 45.2 -3.1 2.2
    endloop
  endfacet
  facet normal -1 0 0
    outer loop
      vertex -47.85 -0.349999 0
      vertex -47.85 -1.34608 0.94364
      vertex -47.85 -0.349999 0.0100004
    endloop
  endfacet
  facet normal -1 0 0
    outer loop
      vertex -47.85 -0.349999 0
      vertex -47.85 -1.86372 0.94364
      vertex -47.85 -1.34608 0.94364
    endloop
  endfacet
  facet normal -1 0 0
    outer loop
      vertex -47.85 -1.86372 0.94364
      vertex -47.85 -5.08628 0.94364
      vertex -47.85 -1.86372 2.2
    endloop
  endfacet
  facet normal -1 0 0
    outer loop
      vertex -47.85 -5.35 0
      vertex -47.85 -1.86372 0.94364
      vertex -47.85 -0.349999 0
    endloop
  endfacet
  facet normal -1 -0 0
    outer loop
      vertex -47.85 -1.86372 0.94364
      vertex -47.85 -5.35 0
      vertex -47.85 -5.08628 0.94364
    endloop
  endfacet
  facet normal -1 0 0
    outer loop
      vertex -47.85 -5.35 0.0100004
      vertex -47.85 -5.08628 0.94364
      vertex -47.85 -5.35 0
    endloop
  endfacet
  facet normal -1 0 0
    outer loop
      vertex -47.85 -5.35 0.0100004
      vertex -47.85 -5.60392 0.94364
      vertex -47.85 -5.08628 0.94364
    endloop
  endfacet
  facet normal -1 0 0
    outer loop
      vertex -47.85 -5.60392 0.94364
      vertex -47.85 -5.8135 0.952459
      vertex -47.85 -5.60392 0.952459
    endloop
  endfacet
  facet normal -1 0 0
    outer loop
      vertex -47.85 -5.8135 0.952459
      vertex -47.85 -5.60392 0.94364
      vertex -47.85 -5.35 0.0100004
    endloop
  endfacet
  facet normal -1 0 0
    outer loop
      vertex -47.85 -1.34608 0.94364
      vertex -47.85 0.113504 0.952459
      vertex -47.85 -0.349999 0.0100004
    endloop
  endfacet
  facet normal -1 -0 0
    outer loop
      vertex -47.85 0.113504 0.952459
      vertex -47.85 -1.34608 0.94364
      vertex -47.85 -1.34608 0.952459
    endloop
  endfacet
  facet normal -1 -0 0
    outer loop
      vertex -47.85 -1.86372 2.2
      vertex -47.85 -5.08628 0.94364
      vertex -47.85 -5.08628 2.2
    endloop
  endfacet
  facet normal 0 0 1
    outer loop
      vertex 47.1091 -1.625 2.2
      vertex 48 -5.08628 2.2
      vertex 48 -1.86372 2.2
    endloop
  endfacet
  facet normal 0 0 1
    outer loop
      vertex 47.1091 -1.625 2.2
      vertex 47.1091 -5.325 2.2
      vertex 48 -5.08628 2.2
    endloop
  endfacet
  facet normal 0 0 1
    outer loop
      vertex 47.1091 -1.625 2.2
      vertex 45.2 -3.1 2.2
      vertex 47.1091 -5.325 2.2
    endloop
  endfacet
  facet normal 0 0 1
    outer loop
      vertex 47.1091 -1.625 2.2
      vertex 44 -1.9 2.2
      vertex 45.2 -3.1 2.2
    endloop
  endfacet
  facet normal 0 0 1
    outer loop
      vertex 44 -1.9 2.2
      vertex 37.2 -3.1 2.2
      vertex 42.8 -3.1 2.2
    endloop
  endfacet
  facet normal 0 0 1
    outer loop
      vertex 44 -1.9 2.2
      vertex 36 -1.9 2.2
      vertex 37.2 -3.1 2.2
    endloop
  endfacet
  facet normal 0 0 1
    outer loop
      vertex 47.1091 -1.625 2.2
      vertex 36 -1.9 2.2
      vertex 44 -1.9 2.2
    endloop
  endfacet
  facet normal 0 0 1
    outer loop
      vertex 36 -1.9 2.2
      vertex 29.2 -3.1 2.2
      vertex 34.8 -3.1 2.2
    endloop
  endfacet
  facet normal 0 0 1
    outer loop
      vertex 36 -1.9 2.2
      vertex 28 -1.9 2.2
      vertex 29.2 -3.1 2.2
    endloop
  endfacet
  facet normal 0 0 1
    outer loop
      vertex 47.1091 -1.625 2.2
      vertex 28 -1.9 2.2
      vertex 36 -1.9 2.2
    endloop
  endfacet
  facet normal 0 0 1
    outer loop
      vertex 28 -1.9 2.2
      vertex 21.2 -3.1 2.2
      vertex 26.8 -3.1 2.2
    endloop
  endfacet
  facet normal 0 0 1
    outer loop
      vertex 28 -1.9 2.2
      vertex 20 -1.9 2.2
      vertex 21.2 -3.1 2.2
    endloop
  endfacet
  facet normal 0 0 1
    outer loop
      vertex 47.1091 -1.625 2.2
      vertex 20 -1.9 2.2
      vertex 28 -1.9 2.2
    endloop
  endfacet
  facet normal 0 0 1
    outer loop
      vertex 20 -1.9 2.2
      vertex 13.2 -3.1 2.2
      vertex 18.8 -3.1 2.2
    endloop
  endfacet
  facet normal 0 0 1
    outer loop
      vertex 20 -1.9 2.2
      vertex 12 -1.9 2.2
      vertex 13.2 -3.1 2.2
    endloop
  endfacet
  facet normal 0 0 1
    outer loop
      vertex 47.1091 -1.625 2.2
      vertex 12 -1.9 2.2
      vertex 20 -1.9 2.2
    endloop
  endfacet
  facet normal 0 0 1
    outer loop
      vertex 12 -1.9 2.2
      vertex 5.2 -3.1 2.2
      vertex 10.8 -3.1 2.2
    endloop
  endfacet
  facet normal 0 0 1
    outer loop
      vertex 12 -1.9 2.2
      vertex 4 -1.9 2.2
      vertex 5.2 -3.1 2.2
    endloop
  endfacet
  facet normal 0 0 1
    outer loop
      vertex 47.1091 -1.625 2.2
      vertex 4 -1.9 2.2
      vertex 12 -1.9 2.2
    endloop
  endfacet
  facet normal 0 0 1
    outer loop
      vertex 4 -1.9 2.2
      vertex -2.8 -3.1 2.2
      vertex 2.8 -3.1 2.2
    endloop
  endfacet
  facet normal 0 0 1
    outer loop
      vertex 4 -1.9 2.2
      vertex -4 -1.9 2.2
      vertex -2.8 -3.1 2.2
    endloop
  endfacet
  facet normal 0 0 1
    outer loop
      vertex 47.1091 -1.625 2.2
      vertex -4 -1.9 2.2
      vertex 4 -1.9 2.2
    endloop
  endfacet
  facet normal 0 0 1
    outer loop
      vertex -4 -1.9 2.2
      vertex -10.8 -3.1 2.2
      vertex -5.2 -3.1 2.2
    endloop
  endfacet
  facet normal 0 0 1
    outer loop
      vertex -4 -1.9 2.2
      vertex -12 -1.9 2.2
      vertex -10.8 -3.1 2.2
    endloop
  endfacet
  facet normal 0 0 1
    outer loop
      vertex 47.1091 -1.625 2.2
      vertex -12 -1.9 2.2
      vertex -4 -1.9 2.2
    endloop
  endfacet
  facet normal 0 0 1
    outer loop
      vertex -12 -1.9 2.2
      vertex -18.8 -3.1 2.2
      vertex -13.2 -3.1 2.2
    endloop
  endfacet
  facet normal 0 0 1
    outer loop
      vertex -12 -1.9 2.2
      vertex -20 -1.9 2.2
      vertex -18.8 -3.1 2.2
    endloop
  endfacet
  facet normal 0 0 1
    outer loop
      vertex 47.1091 -1.625 2.2
      vertex -20 -1.9 2.2
      vertex -12 -1.9 2.2
    endloop
  endfacet
  facet normal 0 0 1
    outer loop
      vertex -20 -1.9 2.2
      vertex -26.8 -3.1 2.2
      vertex -21.2 -3.1 2.2
    endloop
  endfacet
  facet normal 0 0 1
    outer loop
      vertex -20 -1.9 2.2
      vertex -28 -1.9 2.2
      vertex -26.8 -3.1 2.2
    endloop
  endfacet
  facet normal -0 0 1
    outer loop
      vertex -46.9591 -1.625 2.2
      vertex -20 -1.9 2.2
      vertex 47.1091 -1.625 2.2
    endloop
  endfacet
  facet normal 0 0 1
    outer loop
      vertex -28 -1.9 2.2
      vertex -34.8 -3.1 2.2
      vertex -29.2 -3.1 2.2
    endloop
  endfacet
  facet normal 0 0 1
    outer loop
      vertex -28 -1.9 2.2
      vertex -36 -1.9 2.2
      vertex -34.8 -3.1 2.2
    endloop
  endfacet
  facet normal 0 0 1
    outer loop
      vertex -20 -1.9 2.2
      vertex -46.9591 -1.625 2.2
      vertex -28 -1.9 2.2
    endloop
  endfacet
  facet normal 0 0 1
    outer loop
      vertex -36 -1.9 2.2
      vertex -42.8 -3.1 2.2
      vertex -37.2 -3.1 2.2
    endloop
  endfacet
  facet normal 0 0 1
    outer loop
      vertex -36 -1.9 2.2
      vertex -44 -1.9 2.2
      vertex -42.8 -3.1 2.2
    endloop
  endfacet
  facet normal 0 0 1
    outer loop
      vertex -28 -1.9 2.2
      vertex -46.9591 -1.625 2.2
      vertex -36 -1.9 2.2
    endloop
  endfacet
  facet normal 0 0 1
    outer loop
      vertex -44 -1.9 2.2
      vertex -46.9591 -1.625 2.2
      vertex -45.2 -3.1 2.2
    endloop
  endfacet
  facet normal 0 0 1
    outer loop
      vertex -36 -1.9 2.2
      vertex -46.9591 -1.625 2.2
      vertex -44 -1.9 2.2
    endloop
  endfacet
  facet normal -0 0 1
    outer loop
      vertex 44 -4.3 2.2
      vertex 47.1091 -5.325 2.2
      vertex 45.2 -3.1 2.2
    endloop
  endfacet
  facet normal -0 0 1
    outer loop
      vertex 37.2 -3.1 2.2
      vertex 44 -4.3 2.2
      vertex 42.8 -3.1 2.2
    endloop
  endfacet
  facet normal 0 0 1
    outer loop
      vertex 36 -4.3 2.2
      vertex 44 -4.3 2.2
      vertex 37.2 -3.1 2.2
    endloop
  endfacet
  facet normal 0 0 1
    outer loop
      vertex 44 -4.3 2.2
      vertex 36 -4.3 2.2
      vertex 47.1091 -5.325 2.2
    endloop
  endfacet
  facet normal -0 0 1
    outer loop
      vertex 29.2 -3.1 2.2
      vertex 36 -4.3 2.2
      vertex 34.8 -3.1 2.2
    endloop
  endfacet
  facet normal 0 0 1
    outer loop
      vertex 28 -4.3 2.2
      vertex 36 -4.3 2.2
      vertex 29.2 -3.1 2.2
    endloop
  endfacet
  facet normal -0 0 1
    outer loop
      vertex 28 -4.3 2.2
      vertex 47.1091 -5.325 2.2
      vertex 36 -4.3 2.2
    endloop
  endfacet
  facet normal -0 0 1
    outer loop
      vertex 21.2 -3.1 2.2
      vertex 28 -4.3 2.2
      vertex 26.8 -3.1 2.2
    endloop
  endfacet
  facet normal 0 0 1
    outer loop
      vertex 20 -4.3 2.2
      vertex 28 -4.3 2.2
      vertex 21.2 -3.1 2.2
    endloop
  endfacet
  facet normal -0 0 1
    outer loop
      vertex 20 -4.3 2.2
      vertex 47.1091 -5.325 2.2
      vertex 28 -4.3 2.2
    endloop
  endfacet
  facet normal -0 0 1
    outer loop
      vertex 13.2 -3.1 2.2
      vertex 20 -4.3 2.2
      vertex 18.8 -3.1 2.2
    endloop
  endfacet
  facet normal 0 0 1
    outer loop
      vertex 12 -4.3 2.2
      vertex 20 -4.3 2.2
      vertex 13.2 -3.1 2.2
    endloop
  endfacet
  facet normal -0 0 1
    outer loop
      vertex 12 -4.3 2.2
      vertex 47.1091 -5.325 2.2
      vertex 20 -4.3 2.2
    endloop
  endfacet
  facet normal -0 0 1
    outer loop
      vertex 5.2 -3.1 2.2
      vertex 12 -4.3 2.2
      vertex 10.8 -3.1 2.2
    endloop
  endfacet
  facet normal 0 0 1
    outer loop
      vertex 4 -4.3 2.2
      vertex 12 -4.3 2.2
      vertex 5.2 -3.1 2.2
    endloop
  endfacet
  facet normal -0 0 1
    outer loop
      vertex 4 -4.3 2.2
      vertex 47.1091 -5.325 2.2
      vertex 12 -4.3 2.2
    endloop
  endfacet
  facet normal -0 0 1
    outer loop
      vertex -2.8 -3.1 2.2
      vertex 4 -4.3 2.2
      vertex 2.8 -3.1 2.2
    endloop
  endfacet
  facet normal 0 0 1
    outer loop
      vertex -4 -4.3 2.2
      vertex 4 -4.3 2.2
      vertex -2.8 -3.1 2.2
    endloop
  endfacet
  facet normal -0 0 1
    outer loop
      vertex -4 -4.3 2.2
      vertex 47.1091 -5.325 2.2
      vertex 4 -4.3 2.2
    endloop
  endfacet
  facet normal -0 0 1
    outer loop
      vertex -10.8 -3.1 2.2
      vertex -4 -4.3 2.2
      vertex -5.2 -3.1 2.2
    endloop
  endfacet
  facet normal 0 0 1
    outer loop
      vertex -12 -4.3 2.2
      vertex -4 -4.3 2.2
      vertex -10.8 -3.1 2.2
    endloop
  endfacet
  facet normal -0 0 1
    outer loop
      vertex -12 -4.3 2.2
      vertex 47.1091 -5.325 2.2
      vertex -4 -4.3 2.2
    endloop
  endfacet
  facet normal -0 0 1
    outer loop
      vertex -18.8 -3.1 2.2
      vertex -12 -4.3 2.2
      vertex -13.2 -3.1 2.2
    endloop
  endfacet
  facet normal 0 0 1
    outer loop
      vertex -20 -4.3 2.2
      vertex -12 -4.3 2.2
      vertex -18.8 -3.1 2.2
    endloop
  endfacet
  facet normal 0 0 1
    outer loop
      vertex -46.9591 -5.325 2.2
      vertex -12 -4.3 2.2
      vertex -20 -4.3 2.2
    endloop
  endfacet
  facet normal -0 0 1
    outer loop
      vertex -26.8 -3.1 2.2
      vertex -20 -4.3 2.2
      vertex -21.2 -3.1 2.2
    endloop
  endfacet
  facet normal 0 0 1
    outer loop
      vertex -28 -4.3 2.2
      vertex -20 -4.3 2.2
      vertex -26.8 -3.1 2.2
    endloop
  endfacet
  facet normal 0 0 1
    outer loop
      vertex -46.9591 -5.325 2.2
      vertex -20 -4.3 2.2
      vertex -28 -4.3 2.2
    endloop
  endfacet
  facet normal -0 0 1
    outer loop
      vertex -34.8 -3.1 2.2
      vertex -28 -4.3 2.2
      vertex -29.2 -3.1 2.2
    endloop
  endfacet
  facet normal 0 0 1
    outer loop
      vertex -36 -4.3 2.2
      vertex -28 -4.3 2.2
      vertex -34.8 -3.1 2.2
    endloop
  endfacet
  facet normal 0 0 1
    outer loop
      vertex -46.9591 -5.325 2.2
      vertex -28 -4.3 2.2
      vertex -36 -4.3 2.2
    endloop
  endfacet
  facet normal -0 0 1
    outer loop
      vertex -42.8 -3.1 2.2
      vertex -36 -4.3 2.2
      vertex -37.2 -3.1 2.2
    endloop
  endfacet
  facet normal 0 0 1
    outer loop
      vertex -44 -4.3 2.2
      vertex -36 -4.3 2.2
      vertex -42.8 -3.1 2.2
    endloop
  endfacet
  facet normal 0 0 1
    outer loop
      vertex -46.9591 -5.325 2.2
      vertex -36 -4.3 2.2
      vertex -44 -4.3 2.2
    endloop
  endfacet
  facet normal -0 0 1
    outer loop
      vertex -47.85 -1.86372 2.2
      vertex -45.2 -3.1 2.2
      vertex -46.9591 -1.625 2.2
    endloop
  endfacet
  facet normal 0 0 1
    outer loop
      vertex -12 -4.3 2.2
      vertex -46.9591 -5.325 2.2
      vertex 47.1091 -5.325 2.2
    endloop
  endfacet
  facet normal 0 0 1
    outer loop
      vertex -45.2 -3.1 2.2
      vertex -46.9591 -5.325 2.2
      vertex -44 -4.3 2.2
    endloop
  endfacet
  facet normal 0 0 1
    outer loop
      vertex -47.85 -5.08628 2.2
      vertex -45.2 -3.1 2.2
      vertex -47.85 -1.86372 2.2
    endloop
  endfacet
  facet normal 0 0 1
    outer loop
      vertex -45.2 -3.1 2.2
      vertex -47.85 -5.08628 2.2
      vertex -46.9591 -5.325 2.2
    endloop
  endfacet
  facet normal 1 0 0
    outer loop
      vertex 48 -5.60392 0.952459
      vertex 48 -5.8135 0.952459
      vertex 48 -5.60392 0.94364
    endloop
  endfacet
  facet normal 1 0 0
    outer loop
      vertex 48 -1.86372 2.2
      vertex 48 -5.08628 2.2
      vertex 48 -1.86372 0.94364
    endloop
  endfacet
  facet normal 1 0 0
    outer loop
      vertex 48 -1.34608 0.94364
      vertex 48 0.113504 0.952459
      vertex 48 -1.34608 0.952459
    endloop
  endfacet
  facet normal 1 0 0
    outer loop
      vertex 48 0.113504 0.952459
      vertex 48 -1.34608 0.94364
      vertex 48 -0.349999 0.0100004
    endloop
  endfacet
  facet normal 1 0 0
    outer loop
      vertex 48 -0.349999 0.0100004
      vertex 48 -1.34608 0.94364
      vertex 48 -0.349999 0
    endloop
  endfacet
  facet normal 1 -0 0
    outer loop
      vertex 48 -1.86372 0.94364
      vertex 48 -0.349999 0
      vertex 48 -1.34608 0.94364
    endloop
  endfacet
  facet normal 1 0 0
    outer loop
      vertex 48 -5.08628 0.94364
      vertex 48 -1.86372 0.94364
      vertex 48 -5.08628 2.2
    endloop
  endfacet
  facet normal 1 0 0
    outer loop
      vertex 48 -5.35 0
      vertex 48 -1.86372 0.94364
      vertex 48 -5.08628 0.94364
    endloop
  endfacet
  facet normal 1 0 0
    outer loop
      vertex 48 -5.35 0
      vertex 48 -5.08628 0.94364
      vertex 48 -5.35 0.0100004
    endloop
  endfacet
  facet normal 1 0 0
    outer loop
      vertex 48 -1.86372 0.94364
      vertex 48 -5.35 0
      vertex 48 -0.349999 0
    endloop
  endfacet
  facet normal 1 -0 0
    outer loop
      vertex 48 -5.60392 0.94364
      vertex 48 -5.35 0.0100004
      vertex 48 -5.08628 0.94364
    endloop
  endfacet
  facet normal 1 0 0
    outer loop
      vertex 48 -5.35 0.0100004
      vertex 48 -5.60392 0.94364
      vertex 48 -5.8135 0.952459
    endloop
  endfacet
  facet normal 0 0 -1
    outer loop
      vertex -47.85 -5.35 0
      vertex 48 -0.349999 0
      vertex 48 -5.35 0
    endloop
  endfacet
  facet normal -0 0 -1
    outer loop
      vertex 48 -0.349999 0
      vertex -47.85 -5.35 0
      vertex -47.85 -0.349999 0
    endloop
  endfacet
  facet normal 0 -1 0
    outer loop
      vertex -47.0039 -5.925 1.17917
      vertex 47.1135 -5.925 1.19
      vertex -46.9635 -5.925 1.19
    endloop
  endfacet
  facet normal 0 -1 -0
    outer loop
      vertex 47.1135 -5.925 1.19
      vertex -47.0039 -5.925 1.17917
      vertex 47.1539 -5.925 1.17917
    endloop
  endfacet
  facet normal 0 1 0
    outer loop
      vertex 47.1539 5.925 1.17917
      vertex -46.9635 5.925 1.19
      vertex 47.1135 5.925 1.19
    endloop
  endfacet
  facet normal 0 1 0
    outer loop
      vertex -46.9635 5.925 1.19
      vertex 47.1539 5.925 1.17917
      vertex -47.0039 5.925 1.17917
    endloop
  endfacet
  facet normal 0.258819 -0 0.965926
    outer loop
      vertex 47.1135 -1.10854 1.19
      vertex 48 0.113504 0.952459
      vertex 47.1135 0.230328 1.19
    endloop
  endfacet
  facet normal 0.258819 0 0.965926
    outer loop
      vertex 48 0.113504 0.952459
      vertex 47.1135 -1.10854 1.19
      vertex 48 -1.34608 0.952459
    endloop
  endfacet
  facet normal 0.25881 0 0.965928
    outer loop
      vertex 47.1539 5.925 1.17917
      vertex 47.1135 5.925 1.19
      vertex 47.1135 5.91967 1.19
    endloop
  endfacet
  facet normal 0 1 -0
    outer loop
      vertex 47.1091 -1.625 1.19
      vertex -46.9591 -1.625 2.2
      vertex 47.1091 -1.625 2.2
    endloop
  endfacet
  facet normal 0 1 0
    outer loop
      vertex -46.9591 -1.625 2.2
      vertex 47.1091 -1.625 1.19
      vertex -46.9591 -1.625 1.19
    endloop
  endfacet
  facet normal -0.258819 0 0.965926
    outer loop
      vertex -47.85 0.113504 0.952459
      vertex -46.9635 -1.10854 1.19
      vertex -46.9635 0.230328 1.19
    endloop
  endfacet
  facet normal -0.258819 0 0.965926
    outer loop
      vertex -46.9635 -1.10854 1.19
      vertex -47.85 0.113504 0.952459
      vertex -47.85 -1.34608 0.952459
    endloop
  endfacet
  facet normal -0.25881 0 0.965928
    outer loop
      vertex -46.9635 5.91967 1.19
      vertex -46.9635 5.925 1.19
      vertex -47.0039 5.925 1.17917
    endloop
  endfacet
  facet normal -0.25882 -0.965926 -5.76342e-06
    outer loop
      vertex 48 -1.34608 0.94364
      vertex 47.1135 -1.10854 1.19
      vertex 47.0806 -1.09972 1.19
    endloop
  endfacet
  facet normal -0.258819 -0.965926 0
    outer loop
      vertex 47.1135 -1.10854 1.19
      vertex 48 -1.34608 0.94364
      vertex 48 -1.34608 0.952459
    endloop
  endfacet
  facet normal 0.258819 0.965926 0
    outer loop
      vertex 48 -1.86372 2.2
      vertex 47.1091 -1.625 1.19
      vertex 47.1091 -1.625 2.2
    endloop
  endfacet
  facet normal 0.258795 0.965932 -9.30924e-05
    outer loop
      vertex 47.1091 -1.625 1.19
      vertex 48 -1.86372 0.94364
      vertex 47.0806 -1.61736 1.19
    endloop
  endfacet
  facet normal 0.258819 0.965926 -0
    outer loop
      vertex 48 -1.86372 0.94364
      vertex 47.1091 -1.625 1.19
      vertex 48 -1.86372 2.2
    endloop
  endfacet
  facet normal 0.258819 -0 0.965926
    outer loop
      vertex 47.0806 -1.61736 1.19
      vertex 48 -1.34608 0.94364
      vertex 47.0806 -1.09972 1.19
    endloop
  endfacet
  facet normal 0.258819 0 0.965926
    outer loop
      vertex 48 -1.34608 0.94364
      vertex 47.0806 -1.61736 1.19
      vertex 48 -1.86372 0.94364
    endloop
  endfacet
  facet normal 0.258819 -0.965926 0
    outer loop
      vertex -47.85 -1.34608 0.94364
      vertex -46.9635 -1.10854 1.19
      vertex -47.85 -1.34608 0.952459
    endloop
  endfacet
  facet normal 0.258823 -0.965925 -1.57472e-05
    outer loop
      vertex -46.9635 -1.10854 1.19
      vertex -47.85 -1.34608 0.94364
      vertex -46.9306 -1.09972 1.19
    endloop
  endfacet
  facet normal -0.258828 0.965924 3.2628e-05
    outer loop
      vertex -46.9306 -1.61736 1.19
      vertex -47.85 -1.86372 0.94364
      vertex -46.9591 -1.625 1.19
    endloop
  endfacet
  facet normal -0.258819 0.965926 0
    outer loop
      vertex -46.9591 -1.625 1.19
      vertex -47.85 -1.86372 2.2
      vertex -46.9591 -1.625 2.2
    endloop
  endfacet
  facet normal -0.258819 0.965926 0
    outer loop
      vertex -47.85 -1.86372 2.2
      vertex -46.9591 -1.625 1.19
      vertex -47.85 -1.86372 0.94364
    endloop
  endfacet
  facet normal -0.25882 0 0.965926
    outer loop
      vertex -47.85 -1.34608 0.94364
      vertex -46.9306 -1.61736 1.19
      vertex -46.9306 -1.09972 1.19
    endloop
  endfacet
  facet normal -0.25882 0 0.965926
    outer loop
      vertex -46.9306 -1.61736 1.19
      vertex -47.85 -1.34608 0.94364
      vertex -47.85 -1.86372 0.94364
    endloop
  endfacet
  facet normal -0 0 1
    outer loop
      vertex -46.9635 5.925 1.19
      vertex 47.1135 5.91967 1.19
      vertex 47.1135 5.925 1.19
    endloop
  endfacet
  facet normal 0 0 1
    outer loop
      vertex 47.1135 5.91967 1.19
      vertex -46.9635 5.925 1.19
      vertex -46.9635 5.91967 1.19
    endloop
  endfacet
  facet normal 0 0 1
    outer loop
      vertex 47.1135 0.230328 1.19
      vertex 47.0806 -1.09972 1.19
      vertex 47.1135 -1.10854 1.19
    endloop
  endfacet
  facet normal 0 0 1
    outer loop
      vertex 47.0806 -1.09972 1.19
      vertex -46.9306 -1.09972 1.19
      vertex 47.0806 -1.61736 1.19
    endloop
  endfacet
  facet normal 0 0 1
    outer loop
      vertex 47.1135 0.230328 1.19
      vertex -46.9306 -1.09972 1.19
      vertex 47.0806 -1.09972 1.19
    endloop
  endfacet
  facet normal -0 0 1
    outer loop
      vertex -46.9635 0.230328 1.19
      vertex -46.9306 -1.09972 1.19
      vertex 47.1135 0.230328 1.19
    endloop
  endfacet
  facet normal 0 0 1
    outer loop
      vertex -46.9306 -1.09972 1.19
      vertex -46.9635 0.230328 1.19
      vertex -46.9635 -1.10854 1.19
    endloop
  endfacet
  facet normal 0 0 1
    outer loop
      vertex -46.9306 -1.61736 1.19
      vertex 47.0806 -1.61736 1.19
      vertex -46.9306 -1.09972 1.19
    endloop
  endfacet
  facet normal 0 0 1
    outer loop
      vertex 47.0806 -1.61736 1.19
      vertex -46.9306 -1.61736 1.19
      vertex 47.1091 -1.625 1.19
    endloop
  endfacet
  facet normal 0 0 1
    outer loop
      vertex 47.1091 -1.625 1.19
      vertex -46.9306 -1.61736 1.19
      vertex -46.9591 -1.625 1.19
    endloop
  endfacet
  facet normal 0 -1 0
    outer loop
      vertex -46.9591 -5.325 1.19
      vertex 47.1091 -5.325 2.2
      vertex -46.9591 -5.325 2.2
    endloop
  endfacet
  facet normal 0 -1 -0
    outer loop
      vertex 47.1091 -5.325 2.2
      vertex -46.9591 -5.325 1.19
      vertex 47.1091 -5.325 1.19
    endloop
  endfacet
  facet normal 0.258819 0 0.965926
    outer loop
      vertex 48 -5.60392 0.952459
      vertex 47.1539 -5.925 1.17917
      vertex 48 -5.8135 0.952459
    endloop
  endfacet
  facet normal 0.258817 5.14574e-06 0.965926
    outer loop
      vertex 47.1135 -5.84146 1.19
      vertex 47.1539 -5.925 1.17917
      vertex 48 -5.60392 0.952459
    endloop
  endfacet
  facet normal 0.258807 0 0.965929
    outer loop
      vertex 47.1539 -5.925 1.17917
      vertex 47.1135 -5.84146 1.19
      vertex 47.1135 -5.925 1.19
    endloop
  endfacet
  facet normal -0.25883 0 0.965923
    outer loop
      vertex -46.9635 -5.84146 1.19
      vertex -47.0039 -5.925 1.17917
      vertex -46.9635 -5.925 1.19
    endloop
  endfacet
  facet normal -0.258821 -4.97774e-06 0.965925
    outer loop
      vertex -47.85 -5.60392 0.952459
      vertex -47.0039 -5.925 1.17917
      vertex -46.9635 -5.84146 1.19
    endloop
  endfacet
  facet normal -0.258819 0 0.965926
    outer loop
      vertex -47.0039 -5.925 1.17917
      vertex -47.85 -5.60392 0.952459
      vertex -47.85 -5.8135 0.952459
    endloop
  endfacet
  facet normal 0.258788 -0.965934 -0.000122307
    outer loop
      vertex 47.0806 -5.33264 1.19
      vertex 48 -5.08628 0.94364
      vertex 47.1091 -5.325 1.19
    endloop
  endfacet
  facet normal 0.258819 -0.965926 0
    outer loop
      vertex 47.1091 -5.325 1.19
      vertex 48 -5.08628 2.2
      vertex 47.1091 -5.325 2.2
    endloop
  endfacet
  facet normal 0.258819 -0.965926 0
    outer loop
      vertex 48 -5.08628 2.2
      vertex 47.1091 -5.325 1.19
      vertex 48 -5.08628 0.94364
    endloop
  endfacet
  facet normal -0.258819 0.965926 0
    outer loop
      vertex 48 -5.60392 0.94364
      vertex 47.1135 -5.84146 1.19
      vertex 48 -5.60392 0.952459
    endloop
  endfacet
  facet normal -0.25882 0.965926 -4.82863e-06
    outer loop
      vertex 47.1135 -5.84146 1.19
      vertex 48 -5.60392 0.94364
      vertex 47.0806 -5.85028 1.19
    endloop
  endfacet
  facet normal 0.258819 0 0.965926
    outer loop
      vertex 47.0806 -5.33264 1.19
      vertex 48 -5.60392 0.94364
      vertex 48 -5.08628 0.94364
    endloop
  endfacet
  facet normal 0.258819 0 0.965926
    outer loop
      vertex 48 -5.60392 0.94364
      vertex 47.0806 -5.33264 1.19
      vertex 47.0806 -5.85028 1.19
    endloop
  endfacet
  facet normal -0.258819 -0.965926 0
    outer loop
      vertex -47.85 -5.08628 2.2
      vertex -46.9591 -5.325 1.19
      vertex -46.9591 -5.325 2.2
    endloop
  endfacet
  facet normal -0.25882 -0.965926 2.94222e-06
    outer loop
      vertex -46.9591 -5.325 1.19
      vertex -47.85 -5.08628 0.94364
      vertex -46.9306 -5.33264 1.19
    endloop
  endfacet
  facet normal -0.258819 -0.965926 0
    outer loop
      vertex -47.85 -5.08628 0.94364
      vertex -46.9591 -5.325 1.19
      vertex -47.85 -5.08628 2.2
    endloop
  endfacet
  facet normal 0.25882 0.965926 -2.69059e-06
    outer loop
      vertex -47.85 -5.60392 0.94364
      vertex -46.9635 -5.84146 1.19
      vertex -46.9306 -5.85028 1.19
    endloop
  endfacet
  facet normal 0.258819 0.965926 0
    outer loop
      vertex -46.9635 -5.84146 1.19
      vertex -47.85 -5.60392 0.94364
      vertex -47.85 -5.60392 0.952459
    endloop
  endfacet
  facet normal -0.25882 0 0.965926
    outer loop
      vertex -47.85 -5.60392 0.94364
      vertex -46.9306 -5.33264 1.19
      vertex -47.85 -5.08628 0.94364
    endloop
  endfacet
  facet normal -0.25882 0 0.965926
    outer loop
      vertex -46.9306 -5.33264 1.19
      vertex -47.85 -5.60392 0.94364
      vertex -46.9306 -5.85028 1.19
    endloop
  endfacet
  facet normal 0 0 1
    outer loop
      vertex 47.0806 -5.33264 1.19
      vertex -46.9306 -5.33264 1.19
      vertex 47.0806 -5.85028 1.19
    endloop
  endfacet
  facet normal 0 0 1
    outer loop
      vertex 47.1091 -5.325 1.19
      vertex -46.9306 -5.33264 1.19
      vertex 47.0806 -5.33264 1.19
    endloop
  endfacet
  facet normal 0 -0 1
    outer loop
      vertex -46.9306 -5.33264 1.19
      vertex 47.1091 -5.325 1.19
      vertex -46.9591 -5.325 1.19
    endloop
  endfacet
  facet normal -0 0 1
    outer loop
      vertex 47.0806 -5.85028 1.19
      vertex 47.1135 -5.925 1.19
      vertex 47.1135 -5.84146 1.19
    endloop
  endfacet
  facet normal 0 0 1
    outer loop
      vertex -46.9306 -5.85028 1.19
      vertex 47.0806 -5.85028 1.19
      vertex -46.9306 -5.33264 1.19
    endloop
  endfacet
  facet normal 0 0 1
    outer loop
      vertex 47.0806 -5.85028 1.19
      vertex -46.9306 -5.85028 1.19
      vertex 47.1135 -5.925 1.19
    endloop
  endfacet
  facet normal 0 0 1
    outer loop
      vertex -46.9306 -5.85028 1.19
      vertex -46.9635 -5.925 1.19
      vertex 47.1135 -5.925 1.19
    endloop
  endfacet
  facet normal 0 0 1
    outer loop
      vertex -46.9635 -5.925 1.19
      vertex -46.9306 -5.85028 1.19
      vertex -46.9635 -5.84146 1.19
    endloop
  endfacet
  facet normal 0 -0.897355 -0.44131
    outer loop
      vertex -47.0039 5.925 1.17917
      vertex 47.1135 5.91967 1.19
      vertex -46.9635 5.91967 1.19
    endloop
  endfacet
  facet normal 0 -0.897355 -0.44131
    outer loop
      vertex 47.1135 5.91967 1.19
      vertex -47.0039 5.925 1.17917
      vertex 47.1539 5.925 1.17917
    endloop
  endfacet
  facet normal 0 1 -0
    outer loop
      vertex 48 -0.349999 0
      vertex -47.85 -0.349999 0.0100004
      vertex 48 -0.349999 0.0100004
    endloop
  endfacet
  facet normal 0 1 0
    outer loop
      vertex -47.85 -0.349999 0.0100004
      vertex 48 -0.349999 0
      vertex -47.85 -0.349999 0
    endloop
  endfacet
  facet normal 0 0.89735 -0.441319
    outer loop
      vertex -47.85 -0.349999 0.0100004
      vertex -46.9635 0.230328 1.19
      vertex 47.1135 0.230328 1.19
    endloop
  endfacet
  facet normal -4.209e-08 0.89735 -0.441319
    outer loop
      vertex 48 -0.349999 0.0100004
      vertex 47.1135 0.230328 1.19
      vertex 48 0.113504 0.952459
    endloop
  endfacet
  facet normal 0 0.89735 -0.441319
    outer loop
      vertex -47.85 -0.349999 0.0100004
      vertex 47.1135 0.230328 1.19
      vertex 48 -0.349999 0.0100004
    endloop
  endfacet
  facet normal 1.68589e-08 0.89735 -0.441319
    outer loop
      vertex -46.9635 0.230328 1.19
      vertex -47.85 -0.349999 0.0100004
      vertex -47.85 0.113504 0.952459
    endloop
  endfacet
  facet normal 2.56858e-08 -0.89735 -0.44132
    outer loop
      vertex -47.85 -5.35 0.0100004
      vertex -47.0039 -5.925 1.17917
      vertex -47.85 -5.8135 0.952459
    endloop
  endfacet
  facet normal 0 -0.89735 -0.44132
    outer loop
      vertex -47.0039 -5.925 1.17917
      vertex -47.85 -5.35 0.0100004
      vertex 47.1539 -5.925 1.17917
    endloop
  endfacet
  facet normal -0 -0.89735 -0.44132
    outer loop
      vertex 48 -5.35 0.0100004
      vertex 47.1539 -5.925 1.17917
      vertex -47.85 -5.35 0.0100004
    endloop
  endfacet
  facet normal -2.18529e-07 -0.89735 -0.44132
    outer loop
      vertex 47.1539 -5.925 1.17917
      vertex 48 -5.35 0.0100004
      vertex 48 -5.8135 0.952459
    endloop
  endfacet
  facet normal 0 -1 0
    outer loop
      vertex -47.85 -5.35 0
      vertex 48 -5.35 0.0100004
      vertex -47.85 -5.35 0.0100004
    endloop
  endfacet
  facet normal 0 -1 -0
    outer loop
      vertex 48 -5.35 0.0100004
      vertex -47.85 -5.35 0
      vertex 48 -5.35 0
    endloop
  endfacet
endsolid OpenSCAD_Model
