solid OpenSCAD_Model
  facet normal -0.707107 0.707107 0
    outer loop
      vertex -21.2 -3.125 2.2
      vertex -20 -1.925 3.41
      vertex -20 -1.925 2.2
    endloop
  endfacet
  facet normal -0.707107 0.707107 0
    outer loop
      vertex -20 -1.925 3.41
      vertex -21.2 -3.125 2.2
      vertex -21.2 -3.125 3.41
    endloop
  endfacet
  facet normal 0.707107 0.707107 0
    outer loop
      vertex -18.8 -3.125 3.41
      vertex -20 -1.925 2.2
      vertex -20 -1.925 3.41
    endloop
  endfacet
  facet normal 0.707107 0.707107 0
    outer loop
      vertex -20 -1.925 2.2
      vertex -18.8 -3.125 3.41
      vertex -18.8 -3.125 2.2
    endloop
  endfacet
  facet normal 0 0 1
    outer loop
      vertex -20 -1.925 3.41
      vertex -20 -4.325 3.41
      vertex -18.8 -3.125 3.41
    endloop
  endfacet
  facet normal 0 -0 1
    outer loop
      vertex -20 -4.325 3.41
      vertex -20 -1.925 3.41
      vertex -21.2 -3.125 3.41
    endloop
  endfacet
  facet normal 0.707107 -0.707107 0
    outer loop
      vertex -20 -4.325 2.2
      vertex -18.8 -3.125 3.41
      vertex -20 -4.325 3.41
    endloop
  endfacet
  facet normal 0.707107 -0.707107 0
    outer loop
      vertex -18.8 -3.125 3.41
      vertex -20 -4.325 2.2
      vertex -18.8 -3.125 2.2
    endloop
  endfacet
  facet normal -0.707107 -0.707107 0
    outer loop
      vertex -21.2 -3.125 2.2
      vertex -20 -4.325 3.41
      vertex -21.2 -3.125 3.41
    endloop
  endfacet
  facet normal -0.707107 -0.707107 -0
    outer loop
      vertex -20 -4.325 3.41
      vertex -21.2 -3.125 2.2
      vertex -20 -4.325 2.2
    endloop
  endfacet
  facet normal -0.707107 0.707107 0
    outer loop
      vertex -13.2 -3.125 2.2
      vertex -12 -1.925 3.41
      vertex -12 -1.925 2.2
    endloop
  endfacet
  facet normal -0.707107 0.707107 0
    outer loop
      vertex -12 -1.925 3.41
      vertex -13.2 -3.125 2.2
      vertex -13.2 -3.125 3.41
    endloop
  endfacet
  facet normal 0.707107 0.707107 0
    outer loop
      vertex -10.8 -3.125 3.41
      vertex -12 -1.925 2.2
      vertex -12 -1.925 3.41
    endloop
  endfacet
  facet normal 0.707107 0.707107 0
    outer loop
      vertex -12 -1.925 2.2
      vertex -10.8 -3.125 3.41
      vertex -10.8 -3.125 2.2
    endloop
  endfacet
  facet normal 0 0 1
    outer loop
      vertex -12 -1.925 3.41
      vertex -12 -4.325 3.41
      vertex -10.8 -3.125 3.41
    endloop
  endfacet
  facet normal 0 -0 1
    outer loop
      vertex -12 -4.325 3.41
      vertex -12 -1.925 3.41
      vertex -13.2 -3.125 3.41
    endloop
  endfacet
  facet normal 0.707107 -0.707107 0
    outer loop
      vertex -12 -4.325 2.2
      vertex -10.8 -3.125 3.41
      vertex -12 -4.325 3.41
    endloop
  endfacet
  facet normal 0.707107 -0.707107 0
    outer loop
      vertex -10.8 -3.125 3.41
      vertex -12 -4.325 2.2
      vertex -10.8 -3.125 2.2
    endloop
  endfacet
  facet normal -0.707107 -0.707107 0
    outer loop
      vertex -12 -4.325 2.2
      vertex -13.2 -3.125 3.41
      vertex -13.2 -3.125 2.2
    endloop
  endfacet
  facet normal -0.707107 -0.707107 0
    outer loop
      vertex -13.2 -3.125 3.41
      vertex -12 -4.325 2.2
      vertex -12 -4.325 3.41
    endloop
  endfacet
  facet normal -0.707107 0.707107 0
    outer loop
      vertex -5.2 -3.125 2.2
      vertex -4 -1.925 3.41
      vertex -4 -1.925 2.2
    endloop
  endfacet
  facet normal -0.707107 0.707107 0
    outer loop
      vertex -4 -1.925 3.41
      vertex -5.2 -3.125 2.2
      vertex -5.2 -3.125 3.41
    endloop
  endfacet
  facet normal 0.707107 0.707107 0
    outer loop
      vertex -2.8 -3.125 3.41
      vertex -4 -1.925 2.2
      vertex -4 -1.925 3.41
    endloop
  endfacet
  facet normal 0.707107 0.707107 0
    outer loop
      vertex -4 -1.925 2.2
      vertex -2.8 -3.125 3.41
      vertex -2.8 -3.125 2.2
    endloop
  endfacet
  facet normal 0 0 1
    outer loop
      vertex -4 -1.925 3.41
      vertex -4 -4.325 3.41
      vertex -2.8 -3.125 3.41
    endloop
  endfacet
  facet normal 0 -0 1
    outer loop
      vertex -4 -4.325 3.41
      vertex -4 -1.925 3.41
      vertex -5.2 -3.125 3.41
    endloop
  endfacet
  facet normal 0.707107 -0.707107 0
    outer loop
      vertex -4 -4.325 2.2
      vertex -2.8 -3.125 3.41
      vertex -4 -4.325 3.41
    endloop
  endfacet
  facet normal 0.707107 -0.707107 0
    outer loop
      vertex -2.8 -3.125 3.41
      vertex -4 -4.325 2.2
      vertex -2.8 -3.125 2.2
    endloop
  endfacet
  facet normal -0.707107 -0.707107 0
    outer loop
      vertex -4 -4.325 2.2
      vertex -5.2 -3.125 3.41
      vertex -5.2 -3.125 2.2
    endloop
  endfacet
  facet normal -0.707107 -0.707107 0
    outer loop
      vertex -5.2 -3.125 3.41
      vertex -4 -4.325 2.2
      vertex -4 -4.325 3.41
    endloop
  endfacet
  facet normal -0.707107 0.707107 0
    outer loop
      vertex 2.8 -3.125 2.2
      vertex 4 -1.925 3.41
      vertex 4 -1.925 2.2
    endloop
  endfacet
  facet normal -0.707107 0.707107 0
    outer loop
      vertex 4 -1.925 3.41
      vertex 2.8 -3.125 2.2
      vertex 2.8 -3.125 3.41
    endloop
  endfacet
  facet normal 0.707107 0.707107 0
    outer loop
      vertex 5.2 -3.125 3.41
      vertex 4 -1.925 2.2
      vertex 4 -1.925 3.41
    endloop
  endfacet
  facet normal 0.707107 0.707107 0
    outer loop
      vertex 4 -1.925 2.2
      vertex 5.2 -3.125 3.41
      vertex 5.2 -3.125 2.2
    endloop
  endfacet
  facet normal 0 0 1
    outer loop
      vertex 4 -1.925 3.41
      vertex 4 -4.325 3.41
      vertex 5.2 -3.125 3.41
    endloop
  endfacet
  facet normal 0 -0 1
    outer loop
      vertex 4 -4.325 3.41
      vertex 4 -1.925 3.41
      vertex 2.8 -3.125 3.41
    endloop
  endfacet
  facet normal -0.707107 -0.707107 0
    outer loop
      vertex 2.8 -3.125 2.2
      vertex 4 -4.325 3.41
      vertex 2.8 -3.125 3.41
    endloop
  endfacet
  facet normal -0.707107 -0.707107 -0
    outer loop
      vertex 4 -4.325 3.41
      vertex 2.8 -3.125 2.2
      vertex 4 -4.325 2.2
    endloop
  endfacet
  facet normal 0.707107 -0.707107 0
    outer loop
      vertex 4 -4.325 3.41
      vertex 5.2 -3.125 2.2
      vertex 5.2 -3.125 3.41
    endloop
  endfacet
  facet normal 0.707107 -0.707107 0
    outer loop
      vertex 5.2 -3.125 2.2
      vertex 4 -4.325 3.41
      vertex 4 -4.325 2.2
    endloop
  endfacet
  facet normal -0.707107 0.707107 0
    outer loop
      vertex 10.8 -3.125 2.2
      vertex 12 -1.925 3.41
      vertex 12 -1.925 2.2
    endloop
  endfacet
  facet normal -0.707107 0.707107 0
    outer loop
      vertex 12 -1.925 3.41
      vertex 10.8 -3.125 2.2
      vertex 10.8 -3.125 3.41
    endloop
  endfacet
  facet normal 0.707107 0.707107 0
    outer loop
      vertex 13.2 -3.125 3.41
      vertex 12 -1.925 2.2
      vertex 12 -1.925 3.41
    endloop
  endfacet
  facet normal 0.707107 0.707107 0
    outer loop
      vertex 12 -1.925 2.2
      vertex 13.2 -3.125 3.41
      vertex 13.2 -3.125 2.2
    endloop
  endfacet
  facet normal 0 0 1
    outer loop
      vertex 12 -1.925 3.41
      vertex 12 -4.325 3.41
      vertex 13.2 -3.125 3.41
    endloop
  endfacet
  facet normal 0 -0 1
    outer loop
      vertex 12 -4.325 3.41
      vertex 12 -1.925 3.41
      vertex 10.8 -3.125 3.41
    endloop
  endfacet
  facet normal 0.707107 -0.707107 0
    outer loop
      vertex 12 -4.325 3.41
      vertex 13.2 -3.125 2.2
      vertex 13.2 -3.125 3.41
    endloop
  endfacet
  facet normal 0.707107 -0.707107 0
    outer loop
      vertex 13.2 -3.125 2.2
      vertex 12 -4.325 3.41
      vertex 12 -4.325 2.2
    endloop
  endfacet
  facet normal -0.707107 -0.707107 0
    outer loop
      vertex 10.8 -3.125 2.2
      vertex 12 -4.325 3.41
      vertex 10.8 -3.125 3.41
    endloop
  endfacet
  facet normal -0.707107 -0.707107 -0
    outer loop
      vertex 12 -4.325 3.41
      vertex 10.8 -3.125 2.2
      vertex 12 -4.325 2.2
    endloop
  endfacet
  facet normal -0.707107 0.707107 0
    outer loop
      vertex 18.8 -3.125 2.2
      vertex 20 -1.925 3.41
      vertex 20 -1.925 2.2
    endloop
  endfacet
  facet normal -0.707107 0.707107 0
    outer loop
      vertex 20 -1.925 3.41
      vertex 18.8 -3.125 2.2
      vertex 18.8 -3.125 3.41
    endloop
  endfacet
  facet normal 0.707107 0.707107 0
    outer loop
      vertex 21.2 -3.125 3.41
      vertex 20 -1.925 2.2
      vertex 20 -1.925 3.41
    endloop
  endfacet
  facet normal 0.707107 0.707107 0
    outer loop
      vertex 20 -1.925 2.2
      vertex 21.2 -3.125 3.41
      vertex 21.2 -3.125 2.2
    endloop
  endfacet
  facet normal 0 0 1
    outer loop
      vertex 20 -1.925 3.41
      vertex 20 -4.325 3.41
      vertex 21.2 -3.125 3.41
    endloop
  endfacet
  facet normal 0 -0 1
    outer loop
      vertex 20 -4.325 3.41
      vertex 20 -1.925 3.41
      vertex 18.8 -3.125 3.41
    endloop
  endfacet
  facet normal 0.707107 -0.707107 0
    outer loop
      vertex 20 -4.325 2.2
      vertex 21.2 -3.125 3.41
      vertex 20 -4.325 3.41
    endloop
  endfacet
  facet normal 0.707107 -0.707107 0
    outer loop
      vertex 21.2 -3.125 3.41
      vertex 20 -4.325 2.2
      vertex 21.2 -3.125 2.2
    endloop
  endfacet
  facet normal -0.707107 -0.707107 0
    outer loop
      vertex 18.8 -3.125 2.2
      vertex 20 -4.325 3.41
      vertex 18.8 -3.125 3.41
    endloop
  endfacet
  facet normal -0.707107 -0.707107 -0
    outer loop
      vertex 20 -4.325 3.41
      vertex 18.8 -3.125 2.2
      vertex 20 -4.325 2.2
    endloop
  endfacet
  facet normal 0 0 1
    outer loop
      vertex 24 -1.575 2.2
      vertex 21.2 -3.125 2.2
      vertex 24 -5.325 2.2
    endloop
  endfacet
  facet normal 0 0 1
    outer loop
      vertex 24 -1.575 2.2
      vertex 20 -1.925 2.2
      vertex 21.2 -3.125 2.2
    endloop
  endfacet
  facet normal 0 0 1
    outer loop
      vertex 20 -1.925 2.2
      vertex 13.2 -3.125 2.2
      vertex 18.8 -3.125 2.2
    endloop
  endfacet
  facet normal 0 0 1
    outer loop
      vertex 20 -1.925 2.2
      vertex 12 -1.925 2.2
      vertex 13.2 -3.125 2.2
    endloop
  endfacet
  facet normal 0 0 1
    outer loop
      vertex 24 -1.575 2.2
      vertex 12 -1.925 2.2
      vertex 20 -1.925 2.2
    endloop
  endfacet
  facet normal 0 0 1
    outer loop
      vertex 12 -1.925 2.2
      vertex 5.2 -3.125 2.2
      vertex 10.8 -3.125 2.2
    endloop
  endfacet
  facet normal 0 0 1
    outer loop
      vertex 12 -1.925 2.2
      vertex 4 -1.925 2.2
      vertex 5.2 -3.125 2.2
    endloop
  endfacet
  facet normal 0 0 1
    outer loop
      vertex 24 -1.575 2.2
      vertex 4 -1.925 2.2
      vertex 12 -1.925 2.2
    endloop
  endfacet
  facet normal 0 0 1
    outer loop
      vertex 4 -1.925 2.2
      vertex -2.8 -3.125 2.2
      vertex 2.8 -3.125 2.2
    endloop
  endfacet
  facet normal 0 0 1
    outer loop
      vertex 4 -1.925 2.2
      vertex -4 -1.925 2.2
      vertex -2.8 -3.125 2.2
    endloop
  endfacet
  facet normal 0 0 1
    outer loop
      vertex 24 -1.575 2.2
      vertex -4 -1.925 2.2
      vertex 4 -1.925 2.2
    endloop
  endfacet
  facet normal 0 0 1
    outer loop
      vertex -4 -1.925 2.2
      vertex -10.8 -3.125 2.2
      vertex -5.2 -3.125 2.2
    endloop
  endfacet
  facet normal 0 0 1
    outer loop
      vertex -4 -1.925 2.2
      vertex -12 -1.925 2.2
      vertex -10.8 -3.125 2.2
    endloop
  endfacet
  facet normal -0 0 1
    outer loop
      vertex -23.85 -1.575 2.2
      vertex -4 -1.925 2.2
      vertex 24 -1.575 2.2
    endloop
  endfacet
  facet normal 0 0 1
    outer loop
      vertex -12 -1.925 2.2
      vertex -18.8 -3.125 2.2
      vertex -13.2 -3.125 2.2
    endloop
  endfacet
  facet normal 0 0 1
    outer loop
      vertex -12 -1.925 2.2
      vertex -20 -1.925 2.2
      vertex -18.8 -3.125 2.2
    endloop
  endfacet
  facet normal 0 0 1
    outer loop
      vertex -4 -1.925 2.2
      vertex -23.85 -1.575 2.2
      vertex -12 -1.925 2.2
    endloop
  endfacet
  facet normal 0 0 1
    outer loop
      vertex -20 -1.925 2.2
      vertex -23.85 -1.575 2.2
      vertex -21.2 -3.125 2.2
    endloop
  endfacet
  facet normal 0 0 1
    outer loop
      vertex -12 -1.925 2.2
      vertex -23.85 -1.575 2.2
      vertex -20 -1.925 2.2
    endloop
  endfacet
  facet normal -0 0 1
    outer loop
      vertex 20 -4.325 2.2
      vertex 24 -5.325 2.2
      vertex 21.2 -3.125 2.2
    endloop
  endfacet
  facet normal -0 0 1
    outer loop
      vertex 13.2 -3.125 2.2
      vertex 20 -4.325 2.2
      vertex 18.8 -3.125 2.2
    endloop
  endfacet
  facet normal 0 0 1
    outer loop
      vertex 12 -4.325 2.2
      vertex 20 -4.325 2.2
      vertex 13.2 -3.125 2.2
    endloop
  endfacet
  facet normal 0 0 1
    outer loop
      vertex 20 -4.325 2.2
      vertex 12 -4.325 2.2
      vertex 24 -5.325 2.2
    endloop
  endfacet
  facet normal -0 0 1
    outer loop
      vertex 5.2 -3.125 2.2
      vertex 12 -4.325 2.2
      vertex 10.8 -3.125 2.2
    endloop
  endfacet
  facet normal 0 0 1
    outer loop
      vertex 4 -4.325 2.2
      vertex 12 -4.325 2.2
      vertex 5.2 -3.125 2.2
    endloop
  endfacet
  facet normal -0 0 1
    outer loop
      vertex 4 -4.325 2.2
      vertex 24 -5.325 2.2
      vertex 12 -4.325 2.2
    endloop
  endfacet
  facet normal -0 0 1
    outer loop
      vertex -2.8 -3.125 2.2
      vertex 4 -4.325 2.2
      vertex 2.8 -3.125 2.2
    endloop
  endfacet
  facet normal 0 0 1
    outer loop
      vertex -4 -4.325 2.2
      vertex 4 -4.325 2.2
      vertex -2.8 -3.125 2.2
    endloop
  endfacet
  facet normal -0 0 1
    outer loop
      vertex -4 -4.325 2.2
      vertex 24 -5.325 2.2
      vertex 4 -4.325 2.2
    endloop
  endfacet
  facet normal -0 0 1
    outer loop
      vertex -10.8 -3.125 2.2
      vertex -4 -4.325 2.2
      vertex -5.2 -3.125 2.2
    endloop
  endfacet
  facet normal 0 0 1
    outer loop
      vertex -12 -4.325 2.2
      vertex -4 -4.325 2.2
      vertex -10.8 -3.125 2.2
    endloop
  endfacet
  facet normal 0 0 1
    outer loop
      vertex -23.85 -5.325 2.2
      vertex -4 -4.325 2.2
      vertex -12 -4.325 2.2
    endloop
  endfacet
  facet normal -0 0 1
    outer loop
      vertex -18.8 -3.125 2.2
      vertex -12 -4.325 2.2
      vertex -13.2 -3.125 2.2
    endloop
  endfacet
  facet normal 0 0 1
    outer loop
      vertex -20 -4.325 2.2
      vertex -12 -4.325 2.2
      vertex -18.8 -3.125 2.2
    endloop
  endfacet
  facet normal 0 0 1
    outer loop
      vertex -23.85 -5.325 2.2
      vertex -12 -4.325 2.2
      vertex -20 -4.325 2.2
    endloop
  endfacet
  facet normal 0 0 1
    outer loop
      vertex -23.85 -5.325 2.2
      vertex -21.2 -3.125 2.2
      vertex -23.85 -1.575 2.2
    endloop
  endfacet
  facet normal 0 0 1
    outer loop
      vertex -4 -4.325 2.2
      vertex -23.85 -5.325 2.2
      vertex 24 -5.325 2.2
    endloop
  endfacet
  facet normal 0 0 1
    outer loop
      vertex -21.2 -3.125 2.2
      vertex -23.85 -5.325 2.2
      vertex -20 -4.325 2.2
    endloop
  endfacet
  facet normal 1 0 0
    outer loop
      vertex 24 -1.575 2.2
      vertex 24 -5.325 2.2
      vertex 24 -1.575 1.19
    endloop
  endfacet
  facet normal 1 -0 0
    outer loop
      vertex 24 -1.575 1.19
      vertex 24 -0.3 0.0100004
      vertex 24 0.280329 1.19
    endloop
  endfacet
  facet normal 1 0 0
    outer loop
      vertex 24 -1.575 1.19
      vertex 24 -0.3 5.72205e-07
      vertex 24 -0.3 0.0100004
    endloop
  endfacet
  facet normal 1 0 0
    outer loop
      vertex 24 -5.325 1.19
      vertex 24 -1.575 1.19
      vertex 24 -5.325 2.2
    endloop
  endfacet
  facet normal 1 0 0
    outer loop
      vertex 24 -5.35 0.0100004
      vertex 24 -1.575 1.19
      vertex 24 -5.325 1.19
    endloop
  endfacet
  facet normal 1 0 0
    outer loop
      vertex 24 -5.35 5.72205e-07
      vertex 24 -1.575 1.19
      vertex 24 -5.35 0.0100004
    endloop
  endfacet
  facet normal 1 0 0
    outer loop
      vertex 24 -1.575 1.19
      vertex 24 -5.35 5.72205e-07
      vertex 24 -0.3 5.72205e-07
    endloop
  endfacet
  facet normal 1 0 0
    outer loop
      vertex 24 -5.925 1.17916
      vertex 24 -5.325 1.19
      vertex 24 -5.925 1.19
    endloop
  endfacet
  facet normal 1 0 0
    outer loop
      vertex 24 -5.325 1.19
      vertex 24 -5.925 1.17916
      vertex 24 -5.35 0.0100004
    endloop
  endfacet
  facet normal 1 0 0
    outer loop
      vertex 24 5.925 1.19
      vertex 24 5.91967 1.19
      vertex 24 5.925 1.17917
    endloop
  endfacet
  facet normal 0 0 -1
    outer loop
      vertex -23.85 -5.35 5.72205e-07
      vertex 24 -0.3 5.72205e-07
      vertex 24 -5.35 5.72205e-07
    endloop
  endfacet
  facet normal -0 0 -1
    outer loop
      vertex 24 -0.3 5.72205e-07
      vertex -23.85 -5.35 5.72205e-07
      vertex -23.85 -0.3 5.72205e-07
    endloop
  endfacet
  facet normal 0 -1 0
    outer loop
      vertex -23.85 -5.925 1.17916
      vertex 24 -5.925 1.19
      vertex -23.85 -5.925 1.19
    endloop
  endfacet
  facet normal 0 -1 -0
    outer loop
      vertex 24 -5.925 1.19
      vertex -23.85 -5.925 1.17916
      vertex 24 -5.925 1.17916
    endloop
  endfacet
  facet normal 0 1 -0
    outer loop
      vertex 24 5.925 1.17917
      vertex -23.85 5.925 1.19
      vertex 24 5.925 1.19
    endloop
  endfacet
  facet normal 0 1 0
    outer loop
      vertex -23.85 5.925 1.19
      vertex 24 5.925 1.17917
      vertex -23.85 5.925 1.17917
    endloop
  endfacet
  facet normal -0 0 1
    outer loop
      vertex -23.85 5.925 1.19
      vertex 24 5.91967 1.19
      vertex 24 5.925 1.19
    endloop
  endfacet
  facet normal 0 0 1
    outer loop
      vertex 24 5.91967 1.19
      vertex -23.85 5.925 1.19
      vertex -23.85 5.91967 1.19
    endloop
  endfacet
  facet normal -0 0 1
    outer loop
      vertex -23.85 0.280329 1.19
      vertex 24 -1.575 1.19
      vertex 24 0.280329 1.19
    endloop
  endfacet
  facet normal 0 0 1
    outer loop
      vertex 24 -1.575 1.19
      vertex -23.85 0.280329 1.19
      vertex -23.85 -1.575 1.19
    endloop
  endfacet
  facet normal 0 1 -0
    outer loop
      vertex 24 -1.575 1.19
      vertex -23.85 -1.575 2.2
      vertex 24 -1.575 2.2
    endloop
  endfacet
  facet normal 0 1 0
    outer loop
      vertex -23.85 -1.575 2.2
      vertex 24 -1.575 1.19
      vertex -23.85 -1.575 1.19
    endloop
  endfacet
  facet normal 0 -0.897356 -0.441307
    outer loop
      vertex -23.85 5.925 1.17917
      vertex 24 5.91967 1.19
      vertex -23.85 5.91967 1.19
    endloop
  endfacet
  facet normal 0 -0.897356 -0.441307
    outer loop
      vertex 24 5.91967 1.19
      vertex -23.85 5.925 1.17917
      vertex 24 5.925 1.17917
    endloop
  endfacet
  facet normal 0 1 -0
    outer loop
      vertex 24 -0.3 5.72205e-07
      vertex -23.85 -0.3 0.0100004
      vertex 24 -0.3 0.0100004
    endloop
  endfacet
  facet normal 0 1 0
    outer loop
      vertex -23.85 -0.3 0.0100004
      vertex 24 -0.3 5.72205e-07
      vertex -23.85 -0.3 5.72205e-07
    endloop
  endfacet
  facet normal 0 0.89735 -0.44132
    outer loop
      vertex 24 -0.3 0.0100004
      vertex -23.85 0.280329 1.19
      vertex 24 0.280329 1.19
    endloop
  endfacet
  facet normal 0 0.89735 -0.44132
    outer loop
      vertex -23.85 0.280329 1.19
      vertex 24 -0.3 0.0100004
      vertex -23.85 -0.3 0.0100004
    endloop
  endfacet
  facet normal -0 0 1
    outer loop
      vertex -23.85 -5.325 1.19
      vertex 24 -5.925 1.19
      vertex 24 -5.325 1.19
    endloop
  endfacet
  facet normal 0 0 1
    outer loop
      vertex 24 -5.925 1.19
      vertex -23.85 -5.325 1.19
      vertex -23.85 -5.925 1.19
    endloop
  endfacet
  facet normal 0 -1 0
    outer loop
      vertex -23.85 -5.325 1.19
      vertex 24 -5.325 2.2
      vertex -23.85 -5.325 2.2
    endloop
  endfacet
  facet normal 0 -1 -0
    outer loop
      vertex 24 -5.325 2.2
      vertex -23.85 -5.325 1.19
      vertex 24 -5.325 1.19
    endloop
  endfacet
  facet normal 0 -0.89735 -0.44132
    outer loop
      vertex -23.85 -5.35 0.0100004
      vertex 24 -5.925 1.17916
      vertex -23.85 -5.925 1.17916
    endloop
  endfacet
  facet normal 0 -0.89735 -0.44132
    outer loop
      vertex 24 -5.925 1.17916
      vertex -23.85 -5.35 0.0100004
      vertex 24 -5.35 0.0100004
    endloop
  endfacet
  facet normal 0 -1 0
    outer loop
      vertex -23.85 -5.35 5.72205e-07
      vertex 24 -5.35 0.0100004
      vertex -23.85 -5.35 0.0100004
    endloop
  endfacet
  facet normal 0 -1 -0
    outer loop
      vertex 24 -5.35 0.0100004
      vertex -23.85 -5.35 5.72205e-07
      vertex 24 -5.35 5.72205e-07
    endloop
  endfacet
  facet normal -1 0 0
    outer loop
      vertex -23.85 -0.3 5.72205e-07
      vertex -23.85 -1.575 1.19
      vertex -23.85 -0.3 0.0100004
    endloop
  endfacet
  facet normal -1 0 0
    outer loop
      vertex -23.85 -1.575 1.19
      vertex -23.85 -5.325 1.19
      vertex -23.85 -1.575 2.2
    endloop
  endfacet
  facet normal -1 0 0
    outer loop
      vertex -23.85 -5.35 5.72205e-07
      vertex -23.85 -1.575 1.19
      vertex -23.85 -0.3 5.72205e-07
    endloop
  endfacet
  facet normal -1 0 0
    outer loop
      vertex -23.85 -1.575 1.19
      vertex -23.85 -5.35 5.72205e-07
      vertex -23.85 -5.35 0.0100004
    endloop
  endfacet
  facet normal -1 -0 0
    outer loop
      vertex -23.85 -1.575 1.19
      vertex -23.85 -5.35 0.0100004
      vertex -23.85 -5.325 1.19
    endloop
  endfacet
  facet normal -1 0 0
    outer loop
      vertex -23.85 -5.925 1.17916
      vertex -23.85 -5.325 1.19
      vertex -23.85 -5.35 0.0100004
    endloop
  endfacet
  facet normal -1 -0 0
    outer loop
      vertex -23.85 -5.325 1.19
      vertex -23.85 -5.925 1.17916
      vertex -23.85 -5.925 1.19
    endloop
  endfacet
  facet normal -1 -0 0
    outer loop
      vertex -23.85 0.280329 1.19
      vertex -23.85 -0.3 0.0100004
      vertex -23.85 -1.575 1.19
    endloop
  endfacet
  facet normal -1 -0 0
    outer loop
      vertex -23.85 -1.575 2.2
      vertex -23.85 -5.325 1.19
      vertex -23.85 -5.325 2.2
    endloop
  endfacet
  facet normal -1 -0 -0
    outer loop
      vertex -23.85 5.925 1.19
      vertex -23.85 5.925 1.17917
      vertex -23.85 5.91967 1.19
    endloop
  endfacet
endsolid OpenSCAD_Model
