solid OpenSCAD_Model
  facet normal 0.707108 0.707106 0
    outer loop
      vertex -90.8 -3.1 3.41
      vertex -92 -1.9 2.2
      vertex -92 -1.9 3.41
    endloop
  endfacet
  facet normal 0.707108 0.707106 0
    outer loop
      vertex -92 -1.9 2.2
      vertex -90.8 -3.1 3.41
      vertex -90.8 -3.1 2.2
    endloop
  endfacet
  facet normal -0.707108 0.707106 0
    outer loop
      vertex -93.2 -3.1 2.2
      vertex -92 -1.9 3.41
      vertex -92 -1.9 2.2
    endloop
  endfacet
  facet normal -0.707108 0.707106 0
    outer loop
      vertex -92 -1.9 3.41
      vertex -93.2 -3.1 2.2
      vertex -93.2 -3.1 3.41
    endloop
  endfacet
  facet normal 0.707108 -0.707106 0
    outer loop
      vertex -92 -4.3 3.41
      vertex -90.8 -3.1 2.2
      vertex -90.8 -3.1 3.41
    endloop
  endfacet
  facet normal 0.707108 -0.707106 0
    outer loop
      vertex -90.8 -3.1 2.2
      vertex -92 -4.3 3.41
      vertex -92 -4.3 2.2
    endloop
  endfacet
  facet normal -0.707108 -0.707106 0
    outer loop
      vertex -92 -4.3 2.2
      vertex -93.2 -3.1 3.41
      vertex -93.2 -3.1 2.2
    endloop
  endfacet
  facet normal -0.707108 -0.707106 0
    outer loop
      vertex -93.2 -3.1 3.41
      vertex -92 -4.3 2.2
      vertex -92 -4.3 3.41
    endloop
  endfacet
  facet normal 0 0 1
    outer loop
      vertex -92 -1.9 3.41
      vertex -92 -4.3 3.41
      vertex -90.8 -3.1 3.41
    endloop
  endfacet
  facet normal 0 -0 1
    outer loop
      vertex -92 -4.3 3.41
      vertex -92 -1.9 3.41
      vertex -93.2 -3.1 3.41
    endloop
  endfacet
  facet normal 0.707108 0.707106 0
    outer loop
      vertex -82.8 -3.1 3.41
      vertex -84 -1.9 2.2
      vertex -84 -1.9 3.41
    endloop
  endfacet
  facet normal 0.707108 0.707106 0
    outer loop
      vertex -84 -1.9 2.2
      vertex -82.8 -3.1 3.41
      vertex -82.8 -3.1 2.2
    endloop
  endfacet
  facet normal -0.707108 0.707106 0
    outer loop
      vertex -85.2 -3.1 2.2
      vertex -84 -1.9 3.41
      vertex -84 -1.9 2.2
    endloop
  endfacet
  facet normal -0.707108 0.707106 0
    outer loop
      vertex -84 -1.9 3.41
      vertex -85.2 -3.1 2.2
      vertex -85.2 -3.1 3.41
    endloop
  endfacet
  facet normal 0.707108 -0.707106 0
    outer loop
      vertex -84 -4.3 3.41
      vertex -82.8 -3.1 2.2
      vertex -82.8 -3.1 3.41
    endloop
  endfacet
  facet normal 0.707108 -0.707106 0
    outer loop
      vertex -82.8 -3.1 2.2
      vertex -84 -4.3 3.41
      vertex -84 -4.3 2.2
    endloop
  endfacet
  facet normal -0.707108 -0.707106 0
    outer loop
      vertex -84 -4.3 2.2
      vertex -85.2 -3.1 3.41
      vertex -85.2 -3.1 2.2
    endloop
  endfacet
  facet normal -0.707108 -0.707106 0
    outer loop
      vertex -85.2 -3.1 3.41
      vertex -84 -4.3 2.2
      vertex -84 -4.3 3.41
    endloop
  endfacet
  facet normal 0 0 1
    outer loop
      vertex -84 -1.9 3.41
      vertex -84 -4.3 3.41
      vertex -82.8 -3.1 3.41
    endloop
  endfacet
  facet normal 0 -0 1
    outer loop
      vertex -84 -4.3 3.41
      vertex -84 -1.9 3.41
      vertex -85.2 -3.1 3.41
    endloop
  endfacet
  facet normal 0.707108 0.707106 0
    outer loop
      vertex -74.8 -3.1 3.41
      vertex -76 -1.9 2.2
      vertex -76 -1.9 3.41
    endloop
  endfacet
  facet normal 0.707108 0.707106 0
    outer loop
      vertex -76 -1.9 2.2
      vertex -74.8 -3.1 3.41
      vertex -74.8 -3.1 2.2
    endloop
  endfacet
  facet normal -0.707108 0.707106 0
    outer loop
      vertex -77.2 -3.1 2.2
      vertex -76 -1.9 3.41
      vertex -76 -1.9 2.2
    endloop
  endfacet
  facet normal -0.707108 0.707106 0
    outer loop
      vertex -76 -1.9 3.41
      vertex -77.2 -3.1 2.2
      vertex -77.2 -3.1 3.41
    endloop
  endfacet
  facet normal 0.707108 -0.707106 0
    outer loop
      vertex -76 -4.3 3.41
      vertex -74.8 -3.1 2.2
      vertex -74.8 -3.1 3.41
    endloop
  endfacet
  facet normal 0.707108 -0.707106 0
    outer loop
      vertex -74.8 -3.1 2.2
      vertex -76 -4.3 3.41
      vertex -76 -4.3 2.2
    endloop
  endfacet
  facet normal -0.707108 -0.707106 0
    outer loop
      vertex -76 -4.3 2.2
      vertex -77.2 -3.1 3.41
      vertex -77.2 -3.1 2.2
    endloop
  endfacet
  facet normal -0.707108 -0.707106 0
    outer loop
      vertex -77.2 -3.1 3.41
      vertex -76 -4.3 2.2
      vertex -76 -4.3 3.41
    endloop
  endfacet
  facet normal 0 0 1
    outer loop
      vertex -76 -1.9 3.41
      vertex -76 -4.3 3.41
      vertex -74.8 -3.1 3.41
    endloop
  endfacet
  facet normal 0 -0 1
    outer loop
      vertex -76 -4.3 3.41
      vertex -76 -1.9 3.41
      vertex -77.2 -3.1 3.41
    endloop
  endfacet
  facet normal 0.707108 0.707106 0
    outer loop
      vertex -66.8 -3.1 3.41
      vertex -68 -1.9 2.2
      vertex -68 -1.9 3.41
    endloop
  endfacet
  facet normal 0.707108 0.707106 0
    outer loop
      vertex -68 -1.9 2.2
      vertex -66.8 -3.1 3.41
      vertex -66.8 -3.1 2.2
    endloop
  endfacet
  facet normal -0.707108 0.707106 0
    outer loop
      vertex -69.2 -3.1 2.2
      vertex -68 -1.9 3.41
      vertex -68 -1.9 2.2
    endloop
  endfacet
  facet normal -0.707108 0.707106 0
    outer loop
      vertex -68 -1.9 3.41
      vertex -69.2 -3.1 2.2
      vertex -69.2 -3.1 3.41
    endloop
  endfacet
  facet normal 0.707108 -0.707106 0
    outer loop
      vertex -68 -4.3 3.41
      vertex -66.8 -3.1 2.2
      vertex -66.8 -3.1 3.41
    endloop
  endfacet
  facet normal 0.707108 -0.707106 0
    outer loop
      vertex -66.8 -3.1 2.2
      vertex -68 -4.3 3.41
      vertex -68 -4.3 2.2
    endloop
  endfacet
  facet normal -0.707108 -0.707106 0
    outer loop
      vertex -68 -4.3 2.2
      vertex -69.2 -3.1 3.41
      vertex -69.2 -3.1 2.2
    endloop
  endfacet
  facet normal -0.707108 -0.707106 0
    outer loop
      vertex -69.2 -3.1 3.41
      vertex -68 -4.3 2.2
      vertex -68 -4.3 3.41
    endloop
  endfacet
  facet normal 0 0 1
    outer loop
      vertex -68 -1.9 3.41
      vertex -68 -4.3 3.41
      vertex -66.8 -3.1 3.41
    endloop
  endfacet
  facet normal 0 -0 1
    outer loop
      vertex -68 -4.3 3.41
      vertex -68 -1.9 3.41
      vertex -69.2 -3.1 3.41
    endloop
  endfacet
  facet normal 0.707107 0.707107 -0
    outer loop
      vertex -58.8 -3.1 2.2
      vertex -60 -1.9 3.41
      vertex -58.8 -3.1 3.41
    endloop
  endfacet
  facet normal 0.707107 0.707107 0
    outer loop
      vertex -60 -1.9 3.41
      vertex -58.8 -3.1 2.2
      vertex -60 -1.9 2.2
    endloop
  endfacet
  facet normal -0.707107 0.707107 0
    outer loop
      vertex -60 -1.9 2.2
      vertex -61.2 -3.1 3.41
      vertex -60 -1.9 3.41
    endloop
  endfacet
  facet normal -0.707107 0.707107 0
    outer loop
      vertex -61.2 -3.1 3.41
      vertex -60 -1.9 2.2
      vertex -61.2 -3.1 2.2
    endloop
  endfacet
  facet normal 0.707107 -0.707107 0
    outer loop
      vertex -60 -4.3 2.2
      vertex -58.8 -3.1 3.41
      vertex -60 -4.3 3.41
    endloop
  endfacet
  facet normal 0.707107 -0.707107 0
    outer loop
      vertex -58.8 -3.1 3.41
      vertex -60 -4.3 2.2
      vertex -58.8 -3.1 2.2
    endloop
  endfacet
  facet normal -0.707107 -0.707107 0
    outer loop
      vertex -61.2 -3.1 2.2
      vertex -60 -4.3 3.41
      vertex -61.2 -3.1 3.41
    endloop
  endfacet
  facet normal -0.707107 -0.707107 -0
    outer loop
      vertex -60 -4.3 3.41
      vertex -61.2 -3.1 2.2
      vertex -60 -4.3 2.2
    endloop
  endfacet
  facet normal 0 0 1
    outer loop
      vertex -60 -1.9 3.41
      vertex -60 -4.3 3.41
      vertex -58.8 -3.1 3.41
    endloop
  endfacet
  facet normal 0 -0 1
    outer loop
      vertex -60 -4.3 3.41
      vertex -60 -1.9 3.41
      vertex -61.2 -3.1 3.41
    endloop
  endfacet
  facet normal 0.707107 0.707107 -0
    outer loop
      vertex -50.8 -3.1 2.2
      vertex -52 -1.9 3.41
      vertex -50.8 -3.1 3.41
    endloop
  endfacet
  facet normal 0.707107 0.707107 0
    outer loop
      vertex -52 -1.9 3.41
      vertex -50.8 -3.1 2.2
      vertex -52 -1.9 2.2
    endloop
  endfacet
  facet normal -0.707107 0.707107 0
    outer loop
      vertex -52 -1.9 2.2
      vertex -53.2 -3.1 3.41
      vertex -52 -1.9 3.41
    endloop
  endfacet
  facet normal -0.707107 0.707107 0
    outer loop
      vertex -53.2 -3.1 3.41
      vertex -52 -1.9 2.2
      vertex -53.2 -3.1 2.2
    endloop
  endfacet
  facet normal 0.707107 -0.707107 0
    outer loop
      vertex -52 -4.3 2.2
      vertex -50.8 -3.1 3.41
      vertex -52 -4.3 3.41
    endloop
  endfacet
  facet normal 0.707107 -0.707107 0
    outer loop
      vertex -50.8 -3.1 3.41
      vertex -52 -4.3 2.2
      vertex -50.8 -3.1 2.2
    endloop
  endfacet
  facet normal -0.707107 -0.707107 0
    outer loop
      vertex -53.2 -3.1 2.2
      vertex -52 -4.3 3.41
      vertex -53.2 -3.1 3.41
    endloop
  endfacet
  facet normal -0.707107 -0.707107 -0
    outer loop
      vertex -52 -4.3 3.41
      vertex -53.2 -3.1 2.2
      vertex -52 -4.3 2.2
    endloop
  endfacet
  facet normal 0 0 1
    outer loop
      vertex -52 -1.9 3.41
      vertex -52 -4.3 3.41
      vertex -50.8 -3.1 3.41
    endloop
  endfacet
  facet normal 0 -0 1
    outer loop
      vertex -52 -4.3 3.41
      vertex -52 -1.9 3.41
      vertex -53.2 -3.1 3.41
    endloop
  endfacet
  facet normal 0.707107 0.707107 -0
    outer loop
      vertex -42.8 -3.1 2.2
      vertex -44 -1.9 3.41
      vertex -42.8 -3.1 3.41
    endloop
  endfacet
  facet normal 0.707107 0.707107 0
    outer loop
      vertex -44 -1.9 3.41
      vertex -42.8 -3.1 2.2
      vertex -44 -1.9 2.2
    endloop
  endfacet
  facet normal -0.707107 0.707107 0
    outer loop
      vertex -44 -1.9 2.2
      vertex -45.2 -3.1 3.41
      vertex -44 -1.9 3.41
    endloop
  endfacet
  facet normal -0.707107 0.707107 0
    outer loop
      vertex -45.2 -3.1 3.41
      vertex -44 -1.9 2.2
      vertex -45.2 -3.1 2.2
    endloop
  endfacet
  facet normal 0.707107 -0.707107 0
    outer loop
      vertex -44 -4.3 2.2
      vertex -42.8 -3.1 3.41
      vertex -44 -4.3 3.41
    endloop
  endfacet
  facet normal 0.707107 -0.707107 0
    outer loop
      vertex -42.8 -3.1 3.41
      vertex -44 -4.3 2.2
      vertex -42.8 -3.1 2.2
    endloop
  endfacet
  facet normal -0.707107 -0.707107 0
    outer loop
      vertex -45.2 -3.1 2.2
      vertex -44 -4.3 3.41
      vertex -45.2 -3.1 3.41
    endloop
  endfacet
  facet normal -0.707107 -0.707107 -0
    outer loop
      vertex -44 -4.3 3.41
      vertex -45.2 -3.1 2.2
      vertex -44 -4.3 2.2
    endloop
  endfacet
  facet normal 0 0 1
    outer loop
      vertex -44 -1.9 3.41
      vertex -44 -4.3 3.41
      vertex -42.8 -3.1 3.41
    endloop
  endfacet
  facet normal 0 -0 1
    outer loop
      vertex -44 -4.3 3.41
      vertex -44 -1.9 3.41
      vertex -45.2 -3.1 3.41
    endloop
  endfacet
  facet normal 0.707107 0.707107 -0
    outer loop
      vertex -34.8 -3.1 2.2
      vertex -36 -1.9 3.41
      vertex -34.8 -3.1 3.41
    endloop
  endfacet
  facet normal 0.707107 0.707107 0
    outer loop
      vertex -36 -1.9 3.41
      vertex -34.8 -3.1 2.2
      vertex -36 -1.9 2.2
    endloop
  endfacet
  facet normal -0.707107 0.707107 0
    outer loop
      vertex -36 -1.9 2.2
      vertex -37.2 -3.1 3.41
      vertex -36 -1.9 3.41
    endloop
  endfacet
  facet normal -0.707107 0.707107 0
    outer loop
      vertex -37.2 -3.1 3.41
      vertex -36 -1.9 2.2
      vertex -37.2 -3.1 2.2
    endloop
  endfacet
  facet normal 0.707107 -0.707107 0
    outer loop
      vertex -36 -4.3 2.2
      vertex -34.8 -3.1 3.41
      vertex -36 -4.3 3.41
    endloop
  endfacet
  facet normal 0.707107 -0.707107 0
    outer loop
      vertex -34.8 -3.1 3.41
      vertex -36 -4.3 2.2
      vertex -34.8 -3.1 2.2
    endloop
  endfacet
  facet normal -0.707107 -0.707107 0
    outer loop
      vertex -37.2 -3.1 2.2
      vertex -36 -4.3 3.41
      vertex -37.2 -3.1 3.41
    endloop
  endfacet
  facet normal -0.707107 -0.707107 -0
    outer loop
      vertex -36 -4.3 3.41
      vertex -37.2 -3.1 2.2
      vertex -36 -4.3 2.2
    endloop
  endfacet
  facet normal 0 0 1
    outer loop
      vertex -36 -1.9 3.41
      vertex -36 -4.3 3.41
      vertex -34.8 -3.1 3.41
    endloop
  endfacet
  facet normal 0 -0 1
    outer loop
      vertex -36 -4.3 3.41
      vertex -36 -1.9 3.41
      vertex -37.2 -3.1 3.41
    endloop
  endfacet
  facet normal 0.707107 0.707107 -0
    outer loop
      vertex -26.8 -3.1 2.2
      vertex -28 -1.9 3.41
      vertex -26.8 -3.1 3.41
    endloop
  endfacet
  facet normal 0.707107 0.707107 0
    outer loop
      vertex -28 -1.9 3.41
      vertex -26.8 -3.1 2.2
      vertex -28 -1.9 2.2
    endloop
  endfacet
  facet normal -0.707107 0.707107 0
    outer loop
      vertex -28 -1.9 2.2
      vertex -29.2 -3.1 3.41
      vertex -28 -1.9 3.41
    endloop
  endfacet
  facet normal -0.707107 0.707107 0
    outer loop
      vertex -29.2 -3.1 3.41
      vertex -28 -1.9 2.2
      vertex -29.2 -3.1 2.2
    endloop
  endfacet
  facet normal 0.707107 -0.707107 0
    outer loop
      vertex -28 -4.3 2.2
      vertex -26.8 -3.1 3.41
      vertex -28 -4.3 3.41
    endloop
  endfacet
  facet normal 0.707107 -0.707107 0
    outer loop
      vertex -26.8 -3.1 3.41
      vertex -28 -4.3 2.2
      vertex -26.8 -3.1 2.2
    endloop
  endfacet
  facet normal -0.707107 -0.707107 0
    outer loop
      vertex -29.2 -3.1 2.2
      vertex -28 -4.3 3.41
      vertex -29.2 -3.1 3.41
    endloop
  endfacet
  facet normal -0.707107 -0.707107 -0
    outer loop
      vertex -28 -4.3 3.41
      vertex -29.2 -3.1 2.2
      vertex -28 -4.3 2.2
    endloop
  endfacet
  facet normal 0 0 1
    outer loop
      vertex -28 -1.9 3.41
      vertex -28 -4.3 3.41
      vertex -26.8 -3.1 3.41
    endloop
  endfacet
  facet normal 0 -0 1
    outer loop
      vertex -28 -4.3 3.41
      vertex -28 -1.9 3.41
      vertex -29.2 -3.1 3.41
    endloop
  endfacet
  facet normal 0.707107 0.707107 -0
    outer loop
      vertex -18.8 -3.1 2.2
      vertex -20 -1.9 3.41
      vertex -18.8 -3.1 3.41
    endloop
  endfacet
  facet normal 0.707107 0.707107 0
    outer loop
      vertex -20 -1.9 3.41
      vertex -18.8 -3.1 2.2
      vertex -20 -1.9 2.2
    endloop
  endfacet
  facet normal -0.707107 0.707107 0
    outer loop
      vertex -20 -1.9 2.2
      vertex -21.2 -3.1 3.41
      vertex -20 -1.9 3.41
    endloop
  endfacet
  facet normal -0.707107 0.707107 0
    outer loop
      vertex -21.2 -3.1 3.41
      vertex -20 -1.9 2.2
      vertex -21.2 -3.1 2.2
    endloop
  endfacet
  facet normal 0.707107 -0.707107 0
    outer loop
      vertex -20 -4.3 2.2
      vertex -18.8 -3.1 3.41
      vertex -20 -4.3 3.41
    endloop
  endfacet
  facet normal 0.707107 -0.707107 0
    outer loop
      vertex -18.8 -3.1 3.41
      vertex -20 -4.3 2.2
      vertex -18.8 -3.1 2.2
    endloop
  endfacet
  facet normal -0.707107 -0.707107 0
    outer loop
      vertex -21.2 -3.1 2.2
      vertex -20 -4.3 3.41
      vertex -21.2 -3.1 3.41
    endloop
  endfacet
  facet normal -0.707107 -0.707107 -0
    outer loop
      vertex -20 -4.3 3.41
      vertex -21.2 -3.1 2.2
      vertex -20 -4.3 2.2
    endloop
  endfacet
  facet normal 0 0 1
    outer loop
      vertex -20 -1.9 3.41
      vertex -20 -4.3 3.41
      vertex -18.8 -3.1 3.41
    endloop
  endfacet
  facet normal 0 -0 1
    outer loop
      vertex -20 -4.3 3.41
      vertex -20 -1.9 3.41
      vertex -21.2 -3.1 3.41
    endloop
  endfacet
  facet normal 0.707107 0.707107 -0
    outer loop
      vertex -10.8 -3.1 2.2
      vertex -12 -1.9 3.41
      vertex -10.8 -3.1 3.41
    endloop
  endfacet
  facet normal 0.707107 0.707107 0
    outer loop
      vertex -12 -1.9 3.41
      vertex -10.8 -3.1 2.2
      vertex -12 -1.9 2.2
    endloop
  endfacet
  facet normal -0.707107 0.707107 0
    outer loop
      vertex -13.2 -3.1 2.2
      vertex -12 -1.9 3.41
      vertex -12 -1.9 2.2
    endloop
  endfacet
  facet normal -0.707107 0.707107 0
    outer loop
      vertex -12 -1.9 3.41
      vertex -13.2 -3.1 2.2
      vertex -13.2 -3.1 3.41
    endloop
  endfacet
  facet normal 0.707107 -0.707107 0
    outer loop
      vertex -12 -4.3 2.2
      vertex -10.8 -3.1 3.41
      vertex -12 -4.3 3.41
    endloop
  endfacet
  facet normal 0.707107 -0.707107 0
    outer loop
      vertex -10.8 -3.1 3.41
      vertex -12 -4.3 2.2
      vertex -10.8 -3.1 2.2
    endloop
  endfacet
  facet normal -0.707107 -0.707107 0
    outer loop
      vertex -12 -4.3 2.2
      vertex -13.2 -3.1 3.41
      vertex -13.2 -3.1 2.2
    endloop
  endfacet
  facet normal -0.707107 -0.707107 0
    outer loop
      vertex -13.2 -3.1 3.41
      vertex -12 -4.3 2.2
      vertex -12 -4.3 3.41
    endloop
  endfacet
  facet normal 0 0 1
    outer loop
      vertex -12 -1.9 3.41
      vertex -12 -4.3 3.41
      vertex -10.8 -3.1 3.41
    endloop
  endfacet
  facet normal 0 -0 1
    outer loop
      vertex -12 -4.3 3.41
      vertex -12 -1.9 3.41
      vertex -13.2 -3.1 3.41
    endloop
  endfacet
  facet normal 0.707107 0.707107 -0
    outer loop
      vertex -2.8 -3.1 2.2
      vertex -4 -1.9 3.41
      vertex -2.8 -3.1 3.41
    endloop
  endfacet
  facet normal 0.707107 0.707107 0
    outer loop
      vertex -4 -1.9 3.41
      vertex -2.8 -3.1 2.2
      vertex -4 -1.9 2.2
    endloop
  endfacet
  facet normal -0.707107 0.707107 0
    outer loop
      vertex -5.2 -3.1 2.2
      vertex -4 -1.9 3.41
      vertex -4 -1.9 2.2
    endloop
  endfacet
  facet normal -0.707107 0.707107 0
    outer loop
      vertex -4 -1.9 3.41
      vertex -5.2 -3.1 2.2
      vertex -5.2 -3.1 3.41
    endloop
  endfacet
  facet normal 0.707107 -0.707107 0
    outer loop
      vertex -4 -4.3 2.2
      vertex -2.8 -3.1 3.41
      vertex -4 -4.3 3.41
    endloop
  endfacet
  facet normal 0.707107 -0.707107 0
    outer loop
      vertex -2.8 -3.1 3.41
      vertex -4 -4.3 2.2
      vertex -2.8 -3.1 2.2
    endloop
  endfacet
  facet normal -0.707107 -0.707107 0
    outer loop
      vertex -4 -4.3 2.2
      vertex -5.2 -3.1 3.41
      vertex -5.2 -3.1 2.2
    endloop
  endfacet
  facet normal -0.707107 -0.707107 0
    outer loop
      vertex -5.2 -3.1 3.41
      vertex -4 -4.3 2.2
      vertex -4 -4.3 3.41
    endloop
  endfacet
  facet normal 0 0 1
    outer loop
      vertex -4 -1.9 3.41
      vertex -4 -4.3 3.41
      vertex -2.8 -3.1 3.41
    endloop
  endfacet
  facet normal 0 -0 1
    outer loop
      vertex -4 -4.3 3.41
      vertex -4 -1.9 3.41
      vertex -5.2 -3.1 3.41
    endloop
  endfacet
  facet normal -0.707107 0.707107 0
    outer loop
      vertex 4 -1.9 2.2
      vertex 2.8 -3.1 3.41
      vertex 4 -1.9 3.41
    endloop
  endfacet
  facet normal -0.707107 0.707107 0
    outer loop
      vertex 2.8 -3.1 3.41
      vertex 4 -1.9 2.2
      vertex 2.8 -3.1 2.2
    endloop
  endfacet
  facet normal 0.707107 0.707107 0
    outer loop
      vertex 5.2 -3.1 3.41
      vertex 4 -1.9 2.2
      vertex 4 -1.9 3.41
    endloop
  endfacet
  facet normal 0.707107 0.707107 0
    outer loop
      vertex 4 -1.9 2.2
      vertex 5.2 -3.1 3.41
      vertex 5.2 -3.1 2.2
    endloop
  endfacet
  facet normal 0 0 1
    outer loop
      vertex 4 -1.9 3.41
      vertex 4 -4.3 3.41
      vertex 5.2 -3.1 3.41
    endloop
  endfacet
  facet normal 0 -0 1
    outer loop
      vertex 4 -4.3 3.41
      vertex 4 -1.9 3.41
      vertex 2.8 -3.1 3.41
    endloop
  endfacet
  facet normal -0.707107 -0.707107 0
    outer loop
      vertex 2.8 -3.1 2.2
      vertex 4 -4.3 3.41
      vertex 2.8 -3.1 3.41
    endloop
  endfacet
  facet normal -0.707107 -0.707107 -0
    outer loop
      vertex 4 -4.3 3.41
      vertex 2.8 -3.1 2.2
      vertex 4 -4.3 2.2
    endloop
  endfacet
  facet normal 0.707107 -0.707107 0
    outer loop
      vertex 4 -4.3 3.41
      vertex 5.2 -3.1 2.2
      vertex 5.2 -3.1 3.41
    endloop
  endfacet
  facet normal 0.707107 -0.707107 0
    outer loop
      vertex 5.2 -3.1 2.2
      vertex 4 -4.3 3.41
      vertex 4 -4.3 2.2
    endloop
  endfacet
  facet normal -0.707107 0.707107 0
    outer loop
      vertex 12 -1.9 2.2
      vertex 10.8 -3.1 3.41
      vertex 12 -1.9 3.41
    endloop
  endfacet
  facet normal -0.707107 0.707107 0
    outer loop
      vertex 10.8 -3.1 3.41
      vertex 12 -1.9 2.2
      vertex 10.8 -3.1 2.2
    endloop
  endfacet
  facet normal 0.707107 0.707107 0
    outer loop
      vertex 13.2 -3.1 3.41
      vertex 12 -1.9 2.2
      vertex 12 -1.9 3.41
    endloop
  endfacet
  facet normal 0.707107 0.707107 0
    outer loop
      vertex 12 -1.9 2.2
      vertex 13.2 -3.1 3.41
      vertex 13.2 -3.1 2.2
    endloop
  endfacet
  facet normal 0 0 1
    outer loop
      vertex 12 -1.9 3.41
      vertex 12 -4.3 3.41
      vertex 13.2 -3.1 3.41
    endloop
  endfacet
  facet normal 0 -0 1
    outer loop
      vertex 12 -4.3 3.41
      vertex 12 -1.9 3.41
      vertex 10.8 -3.1 3.41
    endloop
  endfacet
  facet normal -0.707107 -0.707107 0
    outer loop
      vertex 10.8 -3.1 2.2
      vertex 12 -4.3 3.41
      vertex 10.8 -3.1 3.41
    endloop
  endfacet
  facet normal -0.707107 -0.707107 -0
    outer loop
      vertex 12 -4.3 3.41
      vertex 10.8 -3.1 2.2
      vertex 12 -4.3 2.2
    endloop
  endfacet
  facet normal 0.707107 -0.707107 0
    outer loop
      vertex 12 -4.3 3.41
      vertex 13.2 -3.1 2.2
      vertex 13.2 -3.1 3.41
    endloop
  endfacet
  facet normal 0.707107 -0.707107 0
    outer loop
      vertex 13.2 -3.1 2.2
      vertex 12 -4.3 3.41
      vertex 12 -4.3 2.2
    endloop
  endfacet
  facet normal -0.707107 0.707107 0
    outer loop
      vertex 20 -1.9 2.2
      vertex 18.8 -3.1 3.41
      vertex 20 -1.9 3.41
    endloop
  endfacet
  facet normal -0.707107 0.707107 0
    outer loop
      vertex 18.8 -3.1 3.41
      vertex 20 -1.9 2.2
      vertex 18.8 -3.1 2.2
    endloop
  endfacet
  facet normal 0.707107 0.707107 -0
    outer loop
      vertex 21.2 -3.1 2.2
      vertex 20 -1.9 3.41
      vertex 21.2 -3.1 3.41
    endloop
  endfacet
  facet normal 0.707107 0.707107 0
    outer loop
      vertex 20 -1.9 3.41
      vertex 21.2 -3.1 2.2
      vertex 20 -1.9 2.2
    endloop
  endfacet
  facet normal 0 0 1
    outer loop
      vertex 20 -1.9 3.41
      vertex 20 -4.3 3.41
      vertex 21.2 -3.1 3.41
    endloop
  endfacet
  facet normal 0 -0 1
    outer loop
      vertex 20 -4.3 3.41
      vertex 20 -1.9 3.41
      vertex 18.8 -3.1 3.41
    endloop
  endfacet
  facet normal -0.707107 -0.707107 0
    outer loop
      vertex 18.8 -3.1 2.2
      vertex 20 -4.3 3.41
      vertex 18.8 -3.1 3.41
    endloop
  endfacet
  facet normal -0.707107 -0.707107 -0
    outer loop
      vertex 20 -4.3 3.41
      vertex 18.8 -3.1 2.2
      vertex 20 -4.3 2.2
    endloop
  endfacet
  facet normal 0.707107 -0.707107 0
    outer loop
      vertex 20 -4.3 2.2
      vertex 21.2 -3.1 3.41
      vertex 20 -4.3 3.41
    endloop
  endfacet
  facet normal 0.707107 -0.707107 0
    outer loop
      vertex 21.2 -3.1 3.41
      vertex 20 -4.3 2.2
      vertex 21.2 -3.1 2.2
    endloop
  endfacet
  facet normal -0.707107 0.707107 0
    outer loop
      vertex 28 -1.9 2.2
      vertex 26.8 -3.1 3.41
      vertex 28 -1.9 3.41
    endloop
  endfacet
  facet normal -0.707107 0.707107 0
    outer loop
      vertex 26.8 -3.1 3.41
      vertex 28 -1.9 2.2
      vertex 26.8 -3.1 2.2
    endloop
  endfacet
  facet normal 0.707107 0.707107 -0
    outer loop
      vertex 29.2 -3.1 2.2
      vertex 28 -1.9 3.41
      vertex 29.2 -3.1 3.41
    endloop
  endfacet
  facet normal 0.707107 0.707107 0
    outer loop
      vertex 28 -1.9 3.41
      vertex 29.2 -3.1 2.2
      vertex 28 -1.9 2.2
    endloop
  endfacet
  facet normal 0 0 1
    outer loop
      vertex 28 -1.9 3.41
      vertex 28 -4.3 3.41
      vertex 29.2 -3.1 3.41
    endloop
  endfacet
  facet normal 0 -0 1
    outer loop
      vertex 28 -4.3 3.41
      vertex 28 -1.9 3.41
      vertex 26.8 -3.1 3.41
    endloop
  endfacet
  facet normal -0.707107 -0.707107 0
    outer loop
      vertex 26.8 -3.1 2.2
      vertex 28 -4.3 3.41
      vertex 26.8 -3.1 3.41
    endloop
  endfacet
  facet normal -0.707107 -0.707107 -0
    outer loop
      vertex 28 -4.3 3.41
      vertex 26.8 -3.1 2.2
      vertex 28 -4.3 2.2
    endloop
  endfacet
  facet normal 0.707107 -0.707107 0
    outer loop
      vertex 28 -4.3 2.2
      vertex 29.2 -3.1 3.41
      vertex 28 -4.3 3.41
    endloop
  endfacet
  facet normal 0.707107 -0.707107 0
    outer loop
      vertex 29.2 -3.1 3.41
      vertex 28 -4.3 2.2
      vertex 29.2 -3.1 2.2
    endloop
  endfacet
  facet normal -0.707107 0.707107 0
    outer loop
      vertex 36 -1.9 2.2
      vertex 34.8 -3.1 3.41
      vertex 36 -1.9 3.41
    endloop
  endfacet
  facet normal -0.707107 0.707107 0
    outer loop
      vertex 34.8 -3.1 3.41
      vertex 36 -1.9 2.2
      vertex 34.8 -3.1 2.2
    endloop
  endfacet
  facet normal 0.707107 0.707107 -0
    outer loop
      vertex 37.2 -3.1 2.2
      vertex 36 -1.9 3.41
      vertex 37.2 -3.1 3.41
    endloop
  endfacet
  facet normal 0.707107 0.707107 0
    outer loop
      vertex 36 -1.9 3.41
      vertex 37.2 -3.1 2.2
      vertex 36 -1.9 2.2
    endloop
  endfacet
  facet normal 0 0 1
    outer loop
      vertex 36 -1.9 3.41
      vertex 36 -4.3 3.41
      vertex 37.2 -3.1 3.41
    endloop
  endfacet
  facet normal 0 -0 1
    outer loop
      vertex 36 -4.3 3.41
      vertex 36 -1.9 3.41
      vertex 34.8 -3.1 3.41
    endloop
  endfacet
  facet normal -0.707107 -0.707107 0
    outer loop
      vertex 34.8 -3.1 2.2
      vertex 36 -4.3 3.41
      vertex 34.8 -3.1 3.41
    endloop
  endfacet
  facet normal -0.707107 -0.707107 -0
    outer loop
      vertex 36 -4.3 3.41
      vertex 34.8 -3.1 2.2
      vertex 36 -4.3 2.2
    endloop
  endfacet
  facet normal 0.707107 -0.707107 0
    outer loop
      vertex 36 -4.3 2.2
      vertex 37.2 -3.1 3.41
      vertex 36 -4.3 3.41
    endloop
  endfacet
  facet normal 0.707107 -0.707107 0
    outer loop
      vertex 37.2 -3.1 3.41
      vertex 36 -4.3 2.2
      vertex 37.2 -3.1 2.2
    endloop
  endfacet
  facet normal -0.707107 0.707107 0
    outer loop
      vertex 44 -1.9 2.2
      vertex 42.8 -3.1 3.41
      vertex 44 -1.9 3.41
    endloop
  endfacet
  facet normal -0.707107 0.707107 0
    outer loop
      vertex 42.8 -3.1 3.41
      vertex 44 -1.9 2.2
      vertex 42.8 -3.1 2.2
    endloop
  endfacet
  facet normal 0.707107 0.707107 -0
    outer loop
      vertex 45.2 -3.1 2.2
      vertex 44 -1.9 3.41
      vertex 45.2 -3.1 3.41
    endloop
  endfacet
  facet normal 0.707107 0.707107 0
    outer loop
      vertex 44 -1.9 3.41
      vertex 45.2 -3.1 2.2
      vertex 44 -1.9 2.2
    endloop
  endfacet
  facet normal 0 0 1
    outer loop
      vertex 44 -1.9 3.41
      vertex 44 -4.3 3.41
      vertex 45.2 -3.1 3.41
    endloop
  endfacet
  facet normal 0 -0 1
    outer loop
      vertex 44 -4.3 3.41
      vertex 44 -1.9 3.41
      vertex 42.8 -3.1 3.41
    endloop
  endfacet
  facet normal -0.707107 -0.707107 0
    outer loop
      vertex 42.8 -3.1 2.2
      vertex 44 -4.3 3.41
      vertex 42.8 -3.1 3.41
    endloop
  endfacet
  facet normal -0.707107 -0.707107 -0
    outer loop
      vertex 44 -4.3 3.41
      vertex 42.8 -3.1 2.2
      vertex 44 -4.3 2.2
    endloop
  endfacet
  facet normal 0.707107 -0.707107 0
    outer loop
      vertex 44 -4.3 2.2
      vertex 45.2 -3.1 3.41
      vertex 44 -4.3 3.41
    endloop
  endfacet
  facet normal 0.707107 -0.707107 0
    outer loop
      vertex 45.2 -3.1 3.41
      vertex 44 -4.3 2.2
      vertex 45.2 -3.1 2.2
    endloop
  endfacet
  facet normal -0.707107 0.707107 0
    outer loop
      vertex 52 -1.9 2.2
      vertex 50.8 -3.1 3.41
      vertex 52 -1.9 3.41
    endloop
  endfacet
  facet normal -0.707107 0.707107 0
    outer loop
      vertex 50.8 -3.1 3.41
      vertex 52 -1.9 2.2
      vertex 50.8 -3.1 2.2
    endloop
  endfacet
  facet normal 0.707107 0.707107 -0
    outer loop
      vertex 53.2 -3.1 2.2
      vertex 52 -1.9 3.41
      vertex 53.2 -3.1 3.41
    endloop
  endfacet
  facet normal 0.707107 0.707107 0
    outer loop
      vertex 52 -1.9 3.41
      vertex 53.2 -3.1 2.2
      vertex 52 -1.9 2.2
    endloop
  endfacet
  facet normal 0 0 1
    outer loop
      vertex 52 -1.9 3.41
      vertex 52 -4.3 3.41
      vertex 53.2 -3.1 3.41
    endloop
  endfacet
  facet normal 0 -0 1
    outer loop
      vertex 52 -4.3 3.41
      vertex 52 -1.9 3.41
      vertex 50.8 -3.1 3.41
    endloop
  endfacet
  facet normal -0.707107 -0.707107 0
    outer loop
      vertex 50.8 -3.1 2.2
      vertex 52 -4.3 3.41
      vertex 50.8 -3.1 3.41
    endloop
  endfacet
  facet normal -0.707107 -0.707107 -0
    outer loop
      vertex 52 -4.3 3.41
      vertex 50.8 -3.1 2.2
      vertex 52 -4.3 2.2
    endloop
  endfacet
  facet normal 0.707107 -0.707107 0
    outer loop
      vertex 52 -4.3 2.2
      vertex 53.2 -3.1 3.41
      vertex 52 -4.3 3.41
    endloop
  endfacet
  facet normal 0.707107 -0.707107 0
    outer loop
      vertex 53.2 -3.1 3.41
      vertex 52 -4.3 2.2
      vertex 53.2 -3.1 2.2
    endloop
  endfacet
  facet normal -0.707107 0.707107 0
    outer loop
      vertex 60 -1.9 2.2
      vertex 58.8 -3.1 3.41
      vertex 60 -1.9 3.41
    endloop
  endfacet
  facet normal -0.707107 0.707107 0
    outer loop
      vertex 58.8 -3.1 3.41
      vertex 60 -1.9 2.2
      vertex 58.8 -3.1 2.2
    endloop
  endfacet
  facet normal 0.707107 0.707107 -0
    outer loop
      vertex 61.2 -3.1 2.2
      vertex 60 -1.9 3.41
      vertex 61.2 -3.1 3.41
    endloop
  endfacet
  facet normal 0.707107 0.707107 0
    outer loop
      vertex 60 -1.9 3.41
      vertex 61.2 -3.1 2.2
      vertex 60 -1.9 2.2
    endloop
  endfacet
  facet normal 0 0 1
    outer loop
      vertex 60 -1.9 3.41
      vertex 60 -4.3 3.41
      vertex 61.2 -3.1 3.41
    endloop
  endfacet
  facet normal 0 -0 1
    outer loop
      vertex 60 -4.3 3.41
      vertex 60 -1.9 3.41
      vertex 58.8 -3.1 3.41
    endloop
  endfacet
  facet normal -0.707107 -0.707107 0
    outer loop
      vertex 58.8 -3.1 2.2
      vertex 60 -4.3 3.41
      vertex 58.8 -3.1 3.41
    endloop
  endfacet
  facet normal -0.707107 -0.707107 -0
    outer loop
      vertex 60 -4.3 3.41
      vertex 58.8 -3.1 2.2
      vertex 60 -4.3 2.2
    endloop
  endfacet
  facet normal 0.707107 -0.707107 0
    outer loop
      vertex 60 -4.3 2.2
      vertex 61.2 -3.1 3.41
      vertex 60 -4.3 3.41
    endloop
  endfacet
  facet normal 0.707107 -0.707107 0
    outer loop
      vertex 61.2 -3.1 3.41
      vertex 60 -4.3 2.2
      vertex 61.2 -3.1 2.2
    endloop
  endfacet
  facet normal -0.707108 0.707106 0
    outer loop
      vertex 66.8 -3.1 2.2
      vertex 68 -1.9 3.41
      vertex 68 -1.9 2.2
    endloop
  endfacet
  facet normal -0.707108 0.707106 0
    outer loop
      vertex 68 -1.9 3.41
      vertex 66.8 -3.1 2.2
      vertex 66.8 -3.1 3.41
    endloop
  endfacet
  facet normal 0.707108 0.707106 0
    outer loop
      vertex 69.2 -3.1 3.41
      vertex 68 -1.9 2.2
      vertex 68 -1.9 3.41
    endloop
  endfacet
  facet normal 0.707108 0.707106 0
    outer loop
      vertex 68 -1.9 2.2
      vertex 69.2 -3.1 3.41
      vertex 69.2 -3.1 2.2
    endloop
  endfacet
  facet normal 0 0 1
    outer loop
      vertex 68 -1.9 3.41
      vertex 68 -4.3 3.41
      vertex 69.2 -3.1 3.41
    endloop
  endfacet
  facet normal 0 -0 1
    outer loop
      vertex 68 -4.3 3.41
      vertex 68 -1.9 3.41
      vertex 66.8 -3.1 3.41
    endloop
  endfacet
  facet normal -0.707108 -0.707106 0
    outer loop
      vertex 68 -4.3 2.2
      vertex 66.8 -3.1 3.41
      vertex 66.8 -3.1 2.2
    endloop
  endfacet
  facet normal -0.707108 -0.707106 0
    outer loop
      vertex 66.8 -3.1 3.41
      vertex 68 -4.3 2.2
      vertex 68 -4.3 3.41
    endloop
  endfacet
  facet normal 0.707108 -0.707106 0
    outer loop
      vertex 68 -4.3 3.41
      vertex 69.2 -3.1 2.2
      vertex 69.2 -3.1 3.41
    endloop
  endfacet
  facet normal 0.707108 -0.707106 0
    outer loop
      vertex 69.2 -3.1 2.2
      vertex 68 -4.3 3.41
      vertex 68 -4.3 2.2
    endloop
  endfacet
  facet normal -0.707108 0.707106 0
    outer loop
      vertex 74.8 -3.1 2.2
      vertex 76 -1.9 3.41
      vertex 76 -1.9 2.2
    endloop
  endfacet
  facet normal -0.707108 0.707106 0
    outer loop
      vertex 76 -1.9 3.41
      vertex 74.8 -3.1 2.2
      vertex 74.8 -3.1 3.41
    endloop
  endfacet
  facet normal 0.707108 0.707106 0
    outer loop
      vertex 77.2 -3.1 3.41
      vertex 76 -1.9 2.2
      vertex 76 -1.9 3.41
    endloop
  endfacet
  facet normal 0.707108 0.707106 0
    outer loop
      vertex 76 -1.9 2.2
      vertex 77.2 -3.1 3.41
      vertex 77.2 -3.1 2.2
    endloop
  endfacet
  facet normal 0 0 1
    outer loop
      vertex 76 -1.9 3.41
      vertex 76 -4.3 3.41
      vertex 77.2 -3.1 3.41
    endloop
  endfacet
  facet normal 0 -0 1
    outer loop
      vertex 76 -4.3 3.41
      vertex 76 -1.9 3.41
      vertex 74.8 -3.1 3.41
    endloop
  endfacet
  facet normal -0.707108 -0.707106 0
    outer loop
      vertex 76 -4.3 2.2
      vertex 74.8 -3.1 3.41
      vertex 74.8 -3.1 2.2
    endloop
  endfacet
  facet normal -0.707108 -0.707106 0
    outer loop
      vertex 74.8 -3.1 3.41
      vertex 76 -4.3 2.2
      vertex 76 -4.3 3.41
    endloop
  endfacet
  facet normal 0.707108 -0.707106 0
    outer loop
      vertex 76 -4.3 3.41
      vertex 77.2 -3.1 2.2
      vertex 77.2 -3.1 3.41
    endloop
  endfacet
  facet normal 0.707108 -0.707106 0
    outer loop
      vertex 77.2 -3.1 2.2
      vertex 76 -4.3 3.41
      vertex 76 -4.3 2.2
    endloop
  endfacet
  facet normal -0.707108 0.707106 0
    outer loop
      vertex 82.8 -3.1 2.2
      vertex 84 -1.9 3.41
      vertex 84 -1.9 2.2
    endloop
  endfacet
  facet normal -0.707108 0.707106 0
    outer loop
      vertex 84 -1.9 3.41
      vertex 82.8 -3.1 2.2
      vertex 82.8 -3.1 3.41
    endloop
  endfacet
  facet normal 0.707108 0.707106 0
    outer loop
      vertex 85.2 -3.1 3.41
      vertex 84 -1.9 2.2
      vertex 84 -1.9 3.41
    endloop
  endfacet
  facet normal 0.707108 0.707106 0
    outer loop
      vertex 84 -1.9 2.2
      vertex 85.2 -3.1 3.41
      vertex 85.2 -3.1 2.2
    endloop
  endfacet
  facet normal 0 0 1
    outer loop
      vertex 84 -1.9 3.41
      vertex 84 -4.3 3.41
      vertex 85.2 -3.1 3.41
    endloop
  endfacet
  facet normal 0 -0 1
    outer loop
      vertex 84 -4.3 3.41
      vertex 84 -1.9 3.41
      vertex 82.8 -3.1 3.41
    endloop
  endfacet
  facet normal -0.707108 -0.707106 0
    outer loop
      vertex 84 -4.3 2.2
      vertex 82.8 -3.1 3.41
      vertex 82.8 -3.1 2.2
    endloop
  endfacet
  facet normal -0.707108 -0.707106 0
    outer loop
      vertex 82.8 -3.1 3.41
      vertex 84 -4.3 2.2
      vertex 84 -4.3 3.41
    endloop
  endfacet
  facet normal 0.707108 -0.707106 0
    outer loop
      vertex 84 -4.3 3.41
      vertex 85.2 -3.1 2.2
      vertex 85.2 -3.1 3.41
    endloop
  endfacet
  facet normal 0.707108 -0.707106 0
    outer loop
      vertex 85.2 -3.1 2.2
      vertex 84 -4.3 3.41
      vertex 84 -4.3 2.2
    endloop
  endfacet
  facet normal -0.707108 0.707106 0
    outer loop
      vertex 90.8 -3.1 2.2
      vertex 92 -1.9 3.41
      vertex 92 -1.9 2.2
    endloop
  endfacet
  facet normal -0.707108 0.707106 0
    outer loop
      vertex 92 -1.9 3.41
      vertex 90.8 -3.1 2.2
      vertex 90.8 -3.1 3.41
    endloop
  endfacet
  facet normal 0.707108 0.707106 0
    outer loop
      vertex 93.2 -3.1 3.41
      vertex 92 -1.9 2.2
      vertex 92 -1.9 3.41
    endloop
  endfacet
  facet normal 0.707108 0.707106 0
    outer loop
      vertex 92 -1.9 2.2
      vertex 93.2 -3.1 3.41
      vertex 93.2 -3.1 2.2
    endloop
  endfacet
  facet normal 0 0 1
    outer loop
      vertex 92 -1.9 3.41
      vertex 92 -4.3 3.41
      vertex 93.2 -3.1 3.41
    endloop
  endfacet
  facet normal 0 -0 1
    outer loop
      vertex 92 -4.3 3.41
      vertex 92 -1.9 3.41
      vertex 90.8 -3.1 3.41
    endloop
  endfacet
  facet normal -0.707108 -0.707106 0
    outer loop
      vertex 92 -4.3 2.2
      vertex 90.8 -3.1 3.41
      vertex 90.8 -3.1 2.2
    endloop
  endfacet
  facet normal -0.707108 -0.707106 0
    outer loop
      vertex 90.8 -3.1 3.41
      vertex 92 -4.3 2.2
      vertex 92 -4.3 3.41
    endloop
  endfacet
  facet normal 0.707108 -0.707106 0
    outer loop
      vertex 92 -4.3 3.41
      vertex 93.2 -3.1 2.2
      vertex 93.2 -3.1 3.41
    endloop
  endfacet
  facet normal 0.707108 -0.707106 0
    outer loop
      vertex 93.2 -3.1 2.2
      vertex 92 -4.3 3.41
      vertex 92 -4.3 2.2
    endloop
  endfacet
  facet normal -1 0 0
    outer loop
      vertex -95.85 -5.08628 0
      vertex -95.85 -1.86372 2.2
      vertex -95.85 -1.86372 0
    endloop
  endfacet
  facet normal -1 -0 0
    outer loop
      vertex -95.85 -1.86372 2.2
      vertex -95.85 -5.08628 0
      vertex -95.85 -5.08628 2.2
    endloop
  endfacet
  facet normal 0 0 1
    outer loop
      vertex 95.1091 -1.625 2.2
      vertex 96 -5.08628 2.2
      vertex 96 -1.86372 2.2
    endloop
  endfacet
  facet normal 0 0 1
    outer loop
      vertex 95.1091 -1.625 2.2
      vertex 95.1091 -5.325 2.2
      vertex 96 -5.08628 2.2
    endloop
  endfacet
  facet normal 0 0 1
    outer loop
      vertex 95.1091 -1.625 2.2
      vertex 93.2 -3.1 2.2
      vertex 95.1091 -5.325 2.2
    endloop
  endfacet
  facet normal 0 0 1
    outer loop
      vertex 95.1091 -1.625 2.2
      vertex 92 -1.9 2.2
      vertex 93.2 -3.1 2.2
    endloop
  endfacet
  facet normal 0 0 1
    outer loop
      vertex 92 -1.9 2.2
      vertex 85.2 -3.1 2.2
      vertex 90.8 -3.1 2.2
    endloop
  endfacet
  facet normal 0 0 1
    outer loop
      vertex 92 -1.9 2.2
      vertex 84 -1.9 2.2
      vertex 85.2 -3.1 2.2
    endloop
  endfacet
  facet normal 0 0 1
    outer loop
      vertex 95.1091 -1.625 2.2
      vertex 84 -1.9 2.2
      vertex 92 -1.9 2.2
    endloop
  endfacet
  facet normal 0 0 1
    outer loop
      vertex 84 -1.9 2.2
      vertex 77.2 -3.1 2.2
      vertex 82.8 -3.1 2.2
    endloop
  endfacet
  facet normal 0 0 1
    outer loop
      vertex 84 -1.9 2.2
      vertex 76 -1.9 2.2
      vertex 77.2 -3.1 2.2
    endloop
  endfacet
  facet normal 0 0 1
    outer loop
      vertex 95.1091 -1.625 2.2
      vertex 76 -1.9 2.2
      vertex 84 -1.9 2.2
    endloop
  endfacet
  facet normal 0 0 1
    outer loop
      vertex 76 -1.9 2.2
      vertex 69.2 -3.1 2.2
      vertex 74.8 -3.1 2.2
    endloop
  endfacet
  facet normal 0 0 1
    outer loop
      vertex 76 -1.9 2.2
      vertex 68 -1.9 2.2
      vertex 69.2 -3.1 2.2
    endloop
  endfacet
  facet normal 0 0 1
    outer loop
      vertex 95.1091 -1.625 2.2
      vertex 68 -1.9 2.2
      vertex 76 -1.9 2.2
    endloop
  endfacet
  facet normal 0 0 1
    outer loop
      vertex 68 -1.9 2.2
      vertex 61.2 -3.1 2.2
      vertex 66.8 -3.1 2.2
    endloop
  endfacet
  facet normal 0 0 1
    outer loop
      vertex 68 -1.9 2.2
      vertex 60 -1.9 2.2
      vertex 61.2 -3.1 2.2
    endloop
  endfacet
  facet normal 0 0 1
    outer loop
      vertex 95.1091 -1.625 2.2
      vertex 60 -1.9 2.2
      vertex 68 -1.9 2.2
    endloop
  endfacet
  facet normal 0 0 1
    outer loop
      vertex 60 -1.9 2.2
      vertex 53.2 -3.1 2.2
      vertex 58.8 -3.1 2.2
    endloop
  endfacet
  facet normal 0 0 1
    outer loop
      vertex 60 -1.9 2.2
      vertex 52 -1.9 2.2
      vertex 53.2 -3.1 2.2
    endloop
  endfacet
  facet normal 0 0 1
    outer loop
      vertex 95.1091 -1.625 2.2
      vertex 52 -1.9 2.2
      vertex 60 -1.9 2.2
    endloop
  endfacet
  facet normal 0 0 1
    outer loop
      vertex 52 -1.9 2.2
      vertex 45.2 -3.1 2.2
      vertex 50.8 -3.1 2.2
    endloop
  endfacet
  facet normal 0 0 1
    outer loop
      vertex 52 -1.9 2.2
      vertex 44 -1.9 2.2
      vertex 45.2 -3.1 2.2
    endloop
  endfacet
  facet normal 0 0 1
    outer loop
      vertex 95.1091 -1.625 2.2
      vertex 44 -1.9 2.2
      vertex 52 -1.9 2.2
    endloop
  endfacet
  facet normal 0 0 1
    outer loop
      vertex 44 -1.9 2.2
      vertex 37.2 -3.1 2.2
      vertex 42.8 -3.1 2.2
    endloop
  endfacet
  facet normal 0 0 1
    outer loop
      vertex 44 -1.9 2.2
      vertex 36 -1.9 2.2
      vertex 37.2 -3.1 2.2
    endloop
  endfacet
  facet normal 0 0 1
    outer loop
      vertex 95.1091 -1.625 2.2
      vertex 36 -1.9 2.2
      vertex 44 -1.9 2.2
    endloop
  endfacet
  facet normal 0 0 1
    outer loop
      vertex 36 -1.9 2.2
      vertex 29.2 -3.1 2.2
      vertex 34.8 -3.1 2.2
    endloop
  endfacet
  facet normal 0 0 1
    outer loop
      vertex 36 -1.9 2.2
      vertex 28 -1.9 2.2
      vertex 29.2 -3.1 2.2
    endloop
  endfacet
  facet normal 0 0 1
    outer loop
      vertex 95.1091 -1.625 2.2
      vertex 28 -1.9 2.2
      vertex 36 -1.9 2.2
    endloop
  endfacet
  facet normal 0 0 1
    outer loop
      vertex 28 -1.9 2.2
      vertex 21.2 -3.1 2.2
      vertex 26.8 -3.1 2.2
    endloop
  endfacet
  facet normal 0 0 1
    outer loop
      vertex 28 -1.9 2.2
      vertex 20 -1.9 2.2
      vertex 21.2 -3.1 2.2
    endloop
  endfacet
  facet normal 0 0 1
    outer loop
      vertex 95.1091 -1.625 2.2
      vertex 20 -1.9 2.2
      vertex 28 -1.9 2.2
    endloop
  endfacet
  facet normal 0 0 1
    outer loop
      vertex 20 -1.9 2.2
      vertex 13.2 -3.1 2.2
      vertex 18.8 -3.1 2.2
    endloop
  endfacet
  facet normal 0 0 1
    outer loop
      vertex 20 -1.9 2.2
      vertex 12 -1.9 2.2
      vertex 13.2 -3.1 2.2
    endloop
  endfacet
  facet normal 0 0 1
    outer loop
      vertex 95.1091 -1.625 2.2
      vertex 12 -1.9 2.2
      vertex 20 -1.9 2.2
    endloop
  endfacet
  facet normal 0 0 1
    outer loop
      vertex 12 -1.9 2.2
      vertex 5.2 -3.1 2.2
      vertex 10.8 -3.1 2.2
    endloop
  endfacet
  facet normal 0 0 1
    outer loop
      vertex 12 -1.9 2.2
      vertex 4 -1.9 2.2
      vertex 5.2 -3.1 2.2
    endloop
  endfacet
  facet normal 0 0 1
    outer loop
      vertex 95.1091 -1.625 2.2
      vertex 4 -1.9 2.2
      vertex 12 -1.9 2.2
    endloop
  endfacet
  facet normal 0 0 1
    outer loop
      vertex 4 -1.9 2.2
      vertex -2.8 -3.1 2.2
      vertex 2.8 -3.1 2.2
    endloop
  endfacet
  facet normal 0 0 1
    outer loop
      vertex 4 -1.9 2.2
      vertex -4 -1.9 2.2
      vertex -2.8 -3.1 2.2
    endloop
  endfacet
  facet normal 0 0 1
    outer loop
      vertex 95.1091 -1.625 2.2
      vertex -4 -1.9 2.2
      vertex 4 -1.9 2.2
    endloop
  endfacet
  facet normal 0 0 1
    outer loop
      vertex -4 -1.9 2.2
      vertex -10.8 -3.1 2.2
      vertex -5.2 -3.1 2.2
    endloop
  endfacet
  facet normal 0 0 1
    outer loop
      vertex -4 -1.9 2.2
      vertex -12 -1.9 2.2
      vertex -10.8 -3.1 2.2
    endloop
  endfacet
  facet normal 0 0 1
    outer loop
      vertex 95.1091 -1.625 2.2
      vertex -12 -1.9 2.2
      vertex -4 -1.9 2.2
    endloop
  endfacet
  facet normal 0 0 1
    outer loop
      vertex -12 -1.9 2.2
      vertex -18.8 -3.1 2.2
      vertex -13.2 -3.1 2.2
    endloop
  endfacet
  facet normal 0 0 1
    outer loop
      vertex -12 -1.9 2.2
      vertex -20 -1.9 2.2
      vertex -18.8 -3.1 2.2
    endloop
  endfacet
  facet normal 0 0 1
    outer loop
      vertex 95.1091 -1.625 2.2
      vertex -20 -1.9 2.2
      vertex -12 -1.9 2.2
    endloop
  endfacet
  facet normal 0 0 1
    outer loop
      vertex -20 -1.9 2.2
      vertex -26.8 -3.1 2.2
      vertex -21.2 -3.1 2.2
    endloop
  endfacet
  facet normal 0 0 1
    outer loop
      vertex -20 -1.9 2.2
      vertex -28 -1.9 2.2
      vertex -26.8 -3.1 2.2
    endloop
  endfacet
  facet normal 0 0 1
    outer loop
      vertex 95.1091 -1.625 2.2
      vertex -28 -1.9 2.2
      vertex -20 -1.9 2.2
    endloop
  endfacet
  facet normal 0 0 1
    outer loop
      vertex -28 -1.9 2.2
      vertex -34.8 -3.1 2.2
      vertex -29.2 -3.1 2.2
    endloop
  endfacet
  facet normal 0 0 1
    outer loop
      vertex -28 -1.9 2.2
      vertex -36 -1.9 2.2
      vertex -34.8 -3.1 2.2
    endloop
  endfacet
  facet normal 0 0 1
    outer loop
      vertex 95.1091 -1.625 2.2
      vertex -36 -1.9 2.2
      vertex -28 -1.9 2.2
    endloop
  endfacet
  facet normal 0 0 1
    outer loop
      vertex -36 -1.9 2.2
      vertex -42.8 -3.1 2.2
      vertex -37.2 -3.1 2.2
    endloop
  endfacet
  facet normal 0 0 1
    outer loop
      vertex -36 -1.9 2.2
      vertex -44 -1.9 2.2
      vertex -42.8 -3.1 2.2
    endloop
  endfacet
  facet normal 0 0 1
    outer loop
      vertex 95.1091 -1.625 2.2
      vertex -44 -1.9 2.2
      vertex -36 -1.9 2.2
    endloop
  endfacet
  facet normal 0 0 1
    outer loop
      vertex -44 -1.9 2.2
      vertex -50.8 -3.1 2.2
      vertex -45.2 -3.1 2.2
    endloop
  endfacet
  facet normal 0 0 1
    outer loop
      vertex -44 -1.9 2.2
      vertex -52 -1.9 2.2
      vertex -50.8 -3.1 2.2
    endloop
  endfacet
  facet normal 0 0 1
    outer loop
      vertex 95.1091 -1.625 2.2
      vertex -52 -1.9 2.2
      vertex -44 -1.9 2.2
    endloop
  endfacet
  facet normal 0 0 1
    outer loop
      vertex -52 -1.9 2.2
      vertex -58.8 -3.1 2.2
      vertex -53.2 -3.1 2.2
    endloop
  endfacet
  facet normal 0 0 1
    outer loop
      vertex -52 -1.9 2.2
      vertex -60 -1.9 2.2
      vertex -58.8 -3.1 2.2
    endloop
  endfacet
  facet normal 0 0 1
    outer loop
      vertex 95.1091 -1.625 2.2
      vertex -60 -1.9 2.2
      vertex -52 -1.9 2.2
    endloop
  endfacet
  facet normal 0 0 1
    outer loop
      vertex -60 -1.9 2.2
      vertex -66.8 -3.1 2.2
      vertex -61.2 -3.1 2.2
    endloop
  endfacet
  facet normal 0 0 1
    outer loop
      vertex -60 -1.9 2.2
      vertex -68 -1.9 2.2
      vertex -66.8 -3.1 2.2
    endloop
  endfacet
  facet normal 0 0 1
    outer loop
      vertex 95.1091 -1.625 2.2
      vertex -68 -1.9 2.2
      vertex -60 -1.9 2.2
    endloop
  endfacet
  facet normal 0 0 1
    outer loop
      vertex -68 -1.9 2.2
      vertex -74.8 -3.1 2.2
      vertex -69.2 -3.1 2.2
    endloop
  endfacet
  facet normal 0 0 1
    outer loop
      vertex -68 -1.9 2.2
      vertex -76 -1.9 2.2
      vertex -74.8 -3.1 2.2
    endloop
  endfacet
  facet normal -0 0 1
    outer loop
      vertex -94.9591 -1.625 2.2
      vertex -68 -1.9 2.2
      vertex 95.1091 -1.625 2.2
    endloop
  endfacet
  facet normal 0 0 1
    outer loop
      vertex -76 -1.9 2.2
      vertex -82.8 -3.1 2.2
      vertex -77.2 -3.1 2.2
    endloop
  endfacet
  facet normal 0 0 1
    outer loop
      vertex -76 -1.9 2.2
      vertex -84 -1.9 2.2
      vertex -82.8 -3.1 2.2
    endloop
  endfacet
  facet normal 0 0 1
    outer loop
      vertex -68 -1.9 2.2
      vertex -94.9591 -1.625 2.2
      vertex -76 -1.9 2.2
    endloop
  endfacet
  facet normal 0 0 1
    outer loop
      vertex -84 -1.9 2.2
      vertex -90.8 -3.1 2.2
      vertex -85.2 -3.1 2.2
    endloop
  endfacet
  facet normal 0 0 1
    outer loop
      vertex -84 -1.9 2.2
      vertex -92 -1.9 2.2
      vertex -90.8 -3.1 2.2
    endloop
  endfacet
  facet normal 0 0 1
    outer loop
      vertex -76 -1.9 2.2
      vertex -94.9591 -1.625 2.2
      vertex -84 -1.9 2.2
    endloop
  endfacet
  facet normal 0 0 1
    outer loop
      vertex -92 -1.9 2.2
      vertex -94.9591 -1.625 2.2
      vertex -93.2 -3.1 2.2
    endloop
  endfacet
  facet normal 0 0 1
    outer loop
      vertex -84 -1.9 2.2
      vertex -94.9591 -1.625 2.2
      vertex -92 -1.9 2.2
    endloop
  endfacet
  facet normal -0 0 1
    outer loop
      vertex 92 -4.3 2.2
      vertex 95.1091 -5.325 2.2
      vertex 93.2 -3.1 2.2
    endloop
  endfacet
  facet normal -0 0 1
    outer loop
      vertex 85.2 -3.1 2.2
      vertex 92 -4.3 2.2
      vertex 90.8 -3.1 2.2
    endloop
  endfacet
  facet normal 0 0 1
    outer loop
      vertex 84 -4.3 2.2
      vertex 92 -4.3 2.2
      vertex 85.2 -3.1 2.2
    endloop
  endfacet
  facet normal 0 0 1
    outer loop
      vertex 92 -4.3 2.2
      vertex 84 -4.3 2.2
      vertex 95.1091 -5.325 2.2
    endloop
  endfacet
  facet normal -0 0 1
    outer loop
      vertex 77.2 -3.1 2.2
      vertex 84 -4.3 2.2
      vertex 82.8 -3.1 2.2
    endloop
  endfacet
  facet normal 0 0 1
    outer loop
      vertex 76 -4.3 2.2
      vertex 84 -4.3 2.2
      vertex 77.2 -3.1 2.2
    endloop
  endfacet
  facet normal -0 0 1
    outer loop
      vertex 76 -4.3 2.2
      vertex 95.1091 -5.325 2.2
      vertex 84 -4.3 2.2
    endloop
  endfacet
  facet normal -0 0 1
    outer loop
      vertex 69.2 -3.1 2.2
      vertex 76 -4.3 2.2
      vertex 74.8 -3.1 2.2
    endloop
  endfacet
  facet normal 0 0 1
    outer loop
      vertex 68 -4.3 2.2
      vertex 76 -4.3 2.2
      vertex 69.2 -3.1 2.2
    endloop
  endfacet
  facet normal -0 0 1
    outer loop
      vertex 68 -4.3 2.2
      vertex 95.1091 -5.325 2.2
      vertex 76 -4.3 2.2
    endloop
  endfacet
  facet normal -0 0 1
    outer loop
      vertex 61.2 -3.1 2.2
      vertex 68 -4.3 2.2
      vertex 66.8 -3.1 2.2
    endloop
  endfacet
  facet normal 0 0 1
    outer loop
      vertex 60 -4.3 2.2
      vertex 68 -4.3 2.2
      vertex 61.2 -3.1 2.2
    endloop
  endfacet
  facet normal -0 0 1
    outer loop
      vertex 60 -4.3 2.2
      vertex 95.1091 -5.325 2.2
      vertex 68 -4.3 2.2
    endloop
  endfacet
  facet normal -0 0 1
    outer loop
      vertex 53.2 -3.1 2.2
      vertex 60 -4.3 2.2
      vertex 58.8 -3.1 2.2
    endloop
  endfacet
  facet normal 0 0 1
    outer loop
      vertex 52 -4.3 2.2
      vertex 60 -4.3 2.2
      vertex 53.2 -3.1 2.2
    endloop
  endfacet
  facet normal -0 0 1
    outer loop
      vertex 52 -4.3 2.2
      vertex 95.1091 -5.325 2.2
      vertex 60 -4.3 2.2
    endloop
  endfacet
  facet normal -0 0 1
    outer loop
      vertex 45.2 -3.1 2.2
      vertex 52 -4.3 2.2
      vertex 50.8 -3.1 2.2
    endloop
  endfacet
  facet normal 0 0 1
    outer loop
      vertex 44 -4.3 2.2
      vertex 52 -4.3 2.2
      vertex 45.2 -3.1 2.2
    endloop
  endfacet
  facet normal -0 0 1
    outer loop
      vertex 44 -4.3 2.2
      vertex 95.1091 -5.325 2.2
      vertex 52 -4.3 2.2
    endloop
  endfacet
  facet normal -0 0 1
    outer loop
      vertex 37.2 -3.1 2.2
      vertex 44 -4.3 2.2
      vertex 42.8 -3.1 2.2
    endloop
  endfacet
  facet normal 0 0 1
    outer loop
      vertex 36 -4.3 2.2
      vertex 44 -4.3 2.2
      vertex 37.2 -3.1 2.2
    endloop
  endfacet
  facet normal -0 0 1
    outer loop
      vertex 36 -4.3 2.2
      vertex 95.1091 -5.325 2.2
      vertex 44 -4.3 2.2
    endloop
  endfacet
  facet normal -0 0 1
    outer loop
      vertex 29.2 -3.1 2.2
      vertex 36 -4.3 2.2
      vertex 34.8 -3.1 2.2
    endloop
  endfacet
  facet normal 0 0 1
    outer loop
      vertex 28 -4.3 2.2
      vertex 36 -4.3 2.2
      vertex 29.2 -3.1 2.2
    endloop
  endfacet
  facet normal -0 0 1
    outer loop
      vertex 28 -4.3 2.2
      vertex 95.1091 -5.325 2.2
      vertex 36 -4.3 2.2
    endloop
  endfacet
  facet normal -0 0 1
    outer loop
      vertex 21.2 -3.1 2.2
      vertex 28 -4.3 2.2
      vertex 26.8 -3.1 2.2
    endloop
  endfacet
  facet normal 0 0 1
    outer loop
      vertex 20 -4.3 2.2
      vertex 28 -4.3 2.2
      vertex 21.2 -3.1 2.2
    endloop
  endfacet
  facet normal -0 0 1
    outer loop
      vertex 20 -4.3 2.2
      vertex 95.1091 -5.325 2.2
      vertex 28 -4.3 2.2
    endloop
  endfacet
  facet normal -0 0 1
    outer loop
      vertex 13.2 -3.1 2.2
      vertex 20 -4.3 2.2
      vertex 18.8 -3.1 2.2
    endloop
  endfacet
  facet normal 0 0 1
    outer loop
      vertex 12 -4.3 2.2
      vertex 20 -4.3 2.2
      vertex 13.2 -3.1 2.2
    endloop
  endfacet
  facet normal -0 0 1
    outer loop
      vertex 12 -4.3 2.2
      vertex 95.1091 -5.325 2.2
      vertex 20 -4.3 2.2
    endloop
  endfacet
  facet normal -0 0 1
    outer loop
      vertex 5.2 -3.1 2.2
      vertex 12 -4.3 2.2
      vertex 10.8 -3.1 2.2
    endloop
  endfacet
  facet normal 0 0 1
    outer loop
      vertex 4 -4.3 2.2
      vertex 12 -4.3 2.2
      vertex 5.2 -3.1 2.2
    endloop
  endfacet
  facet normal -0 0 1
    outer loop
      vertex 4 -4.3 2.2
      vertex 95.1091 -5.325 2.2
      vertex 12 -4.3 2.2
    endloop
  endfacet
  facet normal -0 0 1
    outer loop
      vertex -2.8 -3.1 2.2
      vertex 4 -4.3 2.2
      vertex 2.8 -3.1 2.2
    endloop
  endfacet
  facet normal 0 0 1
    outer loop
      vertex -4 -4.3 2.2
      vertex 4 -4.3 2.2
      vertex -2.8 -3.1 2.2
    endloop
  endfacet
  facet normal -0 0 1
    outer loop
      vertex -4 -4.3 2.2
      vertex 95.1091 -5.325 2.2
      vertex 4 -4.3 2.2
    endloop
  endfacet
  facet normal -0 0 1
    outer loop
      vertex -10.8 -3.1 2.2
      vertex -4 -4.3 2.2
      vertex -5.2 -3.1 2.2
    endloop
  endfacet
  facet normal 0 0 1
    outer loop
      vertex -12 -4.3 2.2
      vertex -4 -4.3 2.2
      vertex -10.8 -3.1 2.2
    endloop
  endfacet
  facet normal -0 0 1
    outer loop
      vertex -12 -4.3 2.2
      vertex 95.1091 -5.325 2.2
      vertex -4 -4.3 2.2
    endloop
  endfacet
  facet normal -0 0 1
    outer loop
      vertex -18.8 -3.1 2.2
      vertex -12 -4.3 2.2
      vertex -13.2 -3.1 2.2
    endloop
  endfacet
  facet normal 0 0 1
    outer loop
      vertex -20 -4.3 2.2
      vertex -12 -4.3 2.2
      vertex -18.8 -3.1 2.2
    endloop
  endfacet
  facet normal -0 0 1
    outer loop
      vertex -20 -4.3 2.2
      vertex 95.1091 -5.325 2.2
      vertex -12 -4.3 2.2
    endloop
  endfacet
  facet normal -0 0 1
    outer loop
      vertex -26.8 -3.1 2.2
      vertex -20 -4.3 2.2
      vertex -21.2 -3.1 2.2
    endloop
  endfacet
  facet normal 0 0 1
    outer loop
      vertex -28 -4.3 2.2
      vertex -20 -4.3 2.2
      vertex -26.8 -3.1 2.2
    endloop
  endfacet
  facet normal -0 0 1
    outer loop
      vertex -28 -4.3 2.2
      vertex 95.1091 -5.325 2.2
      vertex -20 -4.3 2.2
    endloop
  endfacet
  facet normal -0 0 1
    outer loop
      vertex -34.8 -3.1 2.2
      vertex -28 -4.3 2.2
      vertex -29.2 -3.1 2.2
    endloop
  endfacet
  facet normal 0 0 1
    outer loop
      vertex -36 -4.3 2.2
      vertex -28 -4.3 2.2
      vertex -34.8 -3.1 2.2
    endloop
  endfacet
  facet normal -0 0 1
    outer loop
      vertex -36 -4.3 2.2
      vertex 95.1091 -5.325 2.2
      vertex -28 -4.3 2.2
    endloop
  endfacet
  facet normal -0 0 1
    outer loop
      vertex -42.8 -3.1 2.2
      vertex -36 -4.3 2.2
      vertex -37.2 -3.1 2.2
    endloop
  endfacet
  facet normal 0 0 1
    outer loop
      vertex -44 -4.3 2.2
      vertex -36 -4.3 2.2
      vertex -42.8 -3.1 2.2
    endloop
  endfacet
  facet normal 0 0 1
    outer loop
      vertex -94.9591 -5.325 2.2
      vertex -36 -4.3 2.2
      vertex -44 -4.3 2.2
    endloop
  endfacet
  facet normal -0 0 1
    outer loop
      vertex -50.8 -3.1 2.2
      vertex -44 -4.3 2.2
      vertex -45.2 -3.1 2.2
    endloop
  endfacet
  facet normal 0 0 1
    outer loop
      vertex -52 -4.3 2.2
      vertex -44 -4.3 2.2
      vertex -50.8 -3.1 2.2
    endloop
  endfacet
  facet normal 0 0 1
    outer loop
      vertex -94.9591 -5.325 2.2
      vertex -44 -4.3 2.2
      vertex -52 -4.3 2.2
    endloop
  endfacet
  facet normal -0 0 1
    outer loop
      vertex -58.8 -3.1 2.2
      vertex -52 -4.3 2.2
      vertex -53.2 -3.1 2.2
    endloop
  endfacet
  facet normal 0 0 1
    outer loop
      vertex -60 -4.3 2.2
      vertex -52 -4.3 2.2
      vertex -58.8 -3.1 2.2
    endloop
  endfacet
  facet normal 0 0 1
    outer loop
      vertex -94.9591 -5.325 2.2
      vertex -52 -4.3 2.2
      vertex -60 -4.3 2.2
    endloop
  endfacet
  facet normal -0 0 1
    outer loop
      vertex -66.8 -3.1 2.2
      vertex -60 -4.3 2.2
      vertex -61.2 -3.1 2.2
    endloop
  endfacet
  facet normal 0 0 1
    outer loop
      vertex -68 -4.3 2.2
      vertex -60 -4.3 2.2
      vertex -66.8 -3.1 2.2
    endloop
  endfacet
  facet normal 0 0 1
    outer loop
      vertex -94.9591 -5.325 2.2
      vertex -60 -4.3 2.2
      vertex -68 -4.3 2.2
    endloop
  endfacet
  facet normal -0 0 1
    outer loop
      vertex -74.8 -3.1 2.2
      vertex -68 -4.3 2.2
      vertex -69.2 -3.1 2.2
    endloop
  endfacet
  facet normal 0 0 1
    outer loop
      vertex -76 -4.3 2.2
      vertex -68 -4.3 2.2
      vertex -74.8 -3.1 2.2
    endloop
  endfacet
  facet normal 0 0 1
    outer loop
      vertex -94.9591 -5.325 2.2
      vertex -68 -4.3 2.2
      vertex -76 -4.3 2.2
    endloop
  endfacet
  facet normal -0 0 1
    outer loop
      vertex -82.8 -3.1 2.2
      vertex -76 -4.3 2.2
      vertex -77.2 -3.1 2.2
    endloop
  endfacet
  facet normal 0 0 1
    outer loop
      vertex -84 -4.3 2.2
      vertex -76 -4.3 2.2
      vertex -82.8 -3.1 2.2
    endloop
  endfacet
  facet normal 0 0 1
    outer loop
      vertex -94.9591 -5.325 2.2
      vertex -76 -4.3 2.2
      vertex -84 -4.3 2.2
    endloop
  endfacet
  facet normal -0 0 1
    outer loop
      vertex -90.8 -3.1 2.2
      vertex -84 -4.3 2.2
      vertex -85.2 -3.1 2.2
    endloop
  endfacet
  facet normal 0 0 1
    outer loop
      vertex -92 -4.3 2.2
      vertex -84 -4.3 2.2
      vertex -90.8 -3.1 2.2
    endloop
  endfacet
  facet normal 0 0 1
    outer loop
      vertex -94.9591 -5.325 2.2
      vertex -84 -4.3 2.2
      vertex -92 -4.3 2.2
    endloop
  endfacet
  facet normal -0 0 1
    outer loop
      vertex -95.85 -1.86372 2.2
      vertex -93.2 -3.1 2.2
      vertex -94.9591 -1.625 2.2
    endloop
  endfacet
  facet normal 0 0 1
    outer loop
      vertex -36 -4.3 2.2
      vertex -94.9591 -5.325 2.2
      vertex 95.1091 -5.325 2.2
    endloop
  endfacet
  facet normal 0 0 1
    outer loop
      vertex -93.2 -3.1 2.2
      vertex -94.9591 -5.325 2.2
      vertex -92 -4.3 2.2
    endloop
  endfacet
  facet normal 0 0 1
    outer loop
      vertex -95.85 -5.08628 2.2
      vertex -93.2 -3.1 2.2
      vertex -95.85 -1.86372 2.2
    endloop
  endfacet
  facet normal 0 0 1
    outer loop
      vertex -93.2 -3.1 2.2
      vertex -95.85 -5.08628 2.2
      vertex -94.9591 -5.325 2.2
    endloop
  endfacet
  facet normal 1 -0 0
    outer loop
      vertex 96 -5.08628 2.2
      vertex 96 -1.86372 0
      vertex 96 -1.86372 2.2
    endloop
  endfacet
  facet normal 1 0 0
    outer loop
      vertex 96 -1.86372 0
      vertex 96 -5.08628 2.2
      vertex 96 -5.08628 0
    endloop
  endfacet
  facet normal 0 0 -1
    outer loop
      vertex 95.1091 -5.325 0
      vertex 96 -1.86372 0
      vertex 96 -5.08628 0
    endloop
  endfacet
  facet normal 0 0 -1
    outer loop
      vertex 95.1091 -5.325 0
      vertex 95.1091 -1.625 0
      vertex 96 -1.86372 0
    endloop
  endfacet
  facet normal 0 0 -1
    outer loop
      vertex -94.9591 -5.325 0
      vertex 95.1091 -1.625 0
      vertex 95.1091 -5.325 0
    endloop
  endfacet
  facet normal 0 0 -1
    outer loop
      vertex -94.9591 -5.325 0
      vertex -94.9591 -1.625 0
      vertex 95.1091 -1.625 0
    endloop
  endfacet
  facet normal 0 0 -1
    outer loop
      vertex -95.85 -5.08628 0
      vertex -94.9591 -1.625 0
      vertex -94.9591 -5.325 0
    endloop
  endfacet
  facet normal 0 0 -1
    outer loop
      vertex -94.9591 -1.625 0
      vertex -95.85 -5.08628 0
      vertex -95.85 -1.86372 0
    endloop
  endfacet
  facet normal 0 1 -0
    outer loop
      vertex 95.1091 -1.625 0
      vertex -94.9591 -1.625 2.2
      vertex 95.1091 -1.625 2.2
    endloop
  endfacet
  facet normal 0 1 0
    outer loop
      vertex -94.9591 -1.625 2.2
      vertex 95.1091 -1.625 0
      vertex -94.9591 -1.625 0
    endloop
  endfacet
  facet normal 0.258818 0.965926 -0
    outer loop
      vertex 96 -1.86372 0
      vertex 95.1091 -1.625 2.2
      vertex 96 -1.86372 2.2
    endloop
  endfacet
  facet normal 0.258818 0.965926 0
    outer loop
      vertex 95.1091 -1.625 2.2
      vertex 96 -1.86372 0
      vertex 95.1091 -1.625 0
    endloop
  endfacet
  facet normal -0.25882 0.965926 0
    outer loop
      vertex -94.9591 -1.625 0
      vertex -95.85 -1.86372 2.2
      vertex -94.9591 -1.625 2.2
    endloop
  endfacet
  facet normal -0.25882 0.965926 0
    outer loop
      vertex -95.85 -1.86372 2.2
      vertex -94.9591 -1.625 0
      vertex -95.85 -1.86372 0
    endloop
  endfacet
  facet normal 0 -1 0
    outer loop
      vertex -94.9591 -5.325 0
      vertex 95.1091 -5.325 2.2
      vertex -94.9591 -5.325 2.2
    endloop
  endfacet
  facet normal 0 -1 -0
    outer loop
      vertex 95.1091 -5.325 2.2
      vertex -94.9591 -5.325 0
      vertex 95.1091 -5.325 0
    endloop
  endfacet
  facet normal 0.258818 -0.965926 0
    outer loop
      vertex 95.1091 -5.325 0
      vertex 96 -5.08628 2.2
      vertex 95.1091 -5.325 2.2
    endloop
  endfacet
  facet normal 0.258818 -0.965926 0
    outer loop
      vertex 96 -5.08628 2.2
      vertex 95.1091 -5.325 0
      vertex 96 -5.08628 0
    endloop
  endfacet
  facet normal -0.25882 -0.965925 0
    outer loop
      vertex -95.85 -5.08628 0
      vertex -94.9591 -5.325 2.2
      vertex -95.85 -5.08628 2.2
    endloop
  endfacet
  facet normal -0.25882 -0.965925 -0
    outer loop
      vertex -94.9591 -5.325 2.2
      vertex -95.85 -5.08628 0
      vertex -94.9591 -5.325 0
    endloop
  endfacet
endsolid OpenSCAD_Model
