solid OpenSCAD_Model
  facet normal 0.707107 0.707107 -0
    outer loop
      vertex -18.8 -3.1 2.2
      vertex -20 -1.9 3.41
      vertex -18.8 -3.1 3.41
    endloop
  endfacet
  facet normal 0.707107 0.707107 0
    outer loop
      vertex -20 -1.9 3.41
      vertex -18.8 -3.1 2.2
      vertex -20 -1.9 2.2
    endloop
  endfacet
  facet normal -0.707107 0.707107 0
    outer loop
      vertex -20 -1.9 2.2
      vertex -21.2 -3.1 3.41
      vertex -20 -1.9 3.41
    endloop
  endfacet
  facet normal -0.707107 0.707107 0
    outer loop
      vertex -21.2 -3.1 3.41
      vertex -20 -1.9 2.2
      vertex -21.2 -3.1 2.2
    endloop
  endfacet
  facet normal 0.707107 -0.707107 0
    outer loop
      vertex -20 -4.3 2.2
      vertex -18.8 -3.1 3.41
      vertex -20 -4.3 3.41
    endloop
  endfacet
  facet normal 0.707107 -0.707107 0
    outer loop
      vertex -18.8 -3.1 3.41
      vertex -20 -4.3 2.2
      vertex -18.8 -3.1 2.2
    endloop
  endfacet
  facet normal -0.707107 -0.707107 0
    outer loop
      vertex -21.2 -3.1 2.2
      vertex -20 -4.3 3.41
      vertex -21.2 -3.1 3.41
    endloop
  endfacet
  facet normal -0.707107 -0.707107 -0
    outer loop
      vertex -20 -4.3 3.41
      vertex -21.2 -3.1 2.2
      vertex -20 -4.3 2.2
    endloop
  endfacet
  facet normal 0 0 1
    outer loop
      vertex -20 -1.9 3.41
      vertex -20 -4.3 3.41
      vertex -18.8 -3.1 3.41
    endloop
  endfacet
  facet normal 0 -0 1
    outer loop
      vertex -20 -4.3 3.41
      vertex -20 -1.9 3.41
      vertex -21.2 -3.1 3.41
    endloop
  endfacet
  facet normal 0.707107 0.707107 -0
    outer loop
      vertex -10.8 -3.1 2.2
      vertex -12 -1.9 3.41
      vertex -10.8 -3.1 3.41
    endloop
  endfacet
  facet normal 0.707107 0.707107 0
    outer loop
      vertex -12 -1.9 3.41
      vertex -10.8 -3.1 2.2
      vertex -12 -1.9 2.2
    endloop
  endfacet
  facet normal -0.707107 0.707107 0
    outer loop
      vertex -13.2 -3.1 2.2
      vertex -12 -1.9 3.41
      vertex -12 -1.9 2.2
    endloop
  endfacet
  facet normal -0.707107 0.707107 0
    outer loop
      vertex -12 -1.9 3.41
      vertex -13.2 -3.1 2.2
      vertex -13.2 -3.1 3.41
    endloop
  endfacet
  facet normal 0.707107 -0.707107 0
    outer loop
      vertex -12 -4.3 2.2
      vertex -10.8 -3.1 3.41
      vertex -12 -4.3 3.41
    endloop
  endfacet
  facet normal 0.707107 -0.707107 0
    outer loop
      vertex -10.8 -3.1 3.41
      vertex -12 -4.3 2.2
      vertex -10.8 -3.1 2.2
    endloop
  endfacet
  facet normal -0.707107 -0.707107 0
    outer loop
      vertex -12 -4.3 2.2
      vertex -13.2 -3.1 3.41
      vertex -13.2 -3.1 2.2
    endloop
  endfacet
  facet normal -0.707107 -0.707107 0
    outer loop
      vertex -13.2 -3.1 3.41
      vertex -12 -4.3 2.2
      vertex -12 -4.3 3.41
    endloop
  endfacet
  facet normal 0 0 1
    outer loop
      vertex -12 -1.9 3.41
      vertex -12 -4.3 3.41
      vertex -10.8 -3.1 3.41
    endloop
  endfacet
  facet normal 0 -0 1
    outer loop
      vertex -12 -4.3 3.41
      vertex -12 -1.9 3.41
      vertex -13.2 -3.1 3.41
    endloop
  endfacet
  facet normal 0.707107 0.707107 -0
    outer loop
      vertex -2.8 -3.1 2.2
      vertex -4 -1.9 3.41
      vertex -2.8 -3.1 3.41
    endloop
  endfacet
  facet normal 0.707107 0.707107 0
    outer loop
      vertex -4 -1.9 3.41
      vertex -2.8 -3.1 2.2
      vertex -4 -1.9 2.2
    endloop
  endfacet
  facet normal -0.707107 0.707107 0
    outer loop
      vertex -5.2 -3.1 2.2
      vertex -4 -1.9 3.41
      vertex -4 -1.9 2.2
    endloop
  endfacet
  facet normal -0.707107 0.707107 0
    outer loop
      vertex -4 -1.9 3.41
      vertex -5.2 -3.1 2.2
      vertex -5.2 -3.1 3.41
    endloop
  endfacet
  facet normal 0.707107 -0.707107 0
    outer loop
      vertex -4 -4.3 2.2
      vertex -2.8 -3.1 3.41
      vertex -4 -4.3 3.41
    endloop
  endfacet
  facet normal 0.707107 -0.707107 0
    outer loop
      vertex -2.8 -3.1 3.41
      vertex -4 -4.3 2.2
      vertex -2.8 -3.1 2.2
    endloop
  endfacet
  facet normal -0.707107 -0.707107 0
    outer loop
      vertex -4 -4.3 2.2
      vertex -5.2 -3.1 3.41
      vertex -5.2 -3.1 2.2
    endloop
  endfacet
  facet normal -0.707107 -0.707107 0
    outer loop
      vertex -5.2 -3.1 3.41
      vertex -4 -4.3 2.2
      vertex -4 -4.3 3.41
    endloop
  endfacet
  facet normal 0 0 1
    outer loop
      vertex -4 -1.9 3.41
      vertex -4 -4.3 3.41
      vertex -2.8 -3.1 3.41
    endloop
  endfacet
  facet normal 0 -0 1
    outer loop
      vertex -4 -4.3 3.41
      vertex -4 -1.9 3.41
      vertex -5.2 -3.1 3.41
    endloop
  endfacet
  facet normal -0.707107 0.707107 0
    outer loop
      vertex 4 -1.9 2.2
      vertex 2.8 -3.1 3.41
      vertex 4 -1.9 3.41
    endloop
  endfacet
  facet normal -0.707107 0.707107 0
    outer loop
      vertex 2.8 -3.1 3.41
      vertex 4 -1.9 2.2
      vertex 2.8 -3.1 2.2
    endloop
  endfacet
  facet normal 0.707107 0.707107 0
    outer loop
      vertex 5.2 -3.1 3.41
      vertex 4 -1.9 2.2
      vertex 4 -1.9 3.41
    endloop
  endfacet
  facet normal 0.707107 0.707107 0
    outer loop
      vertex 4 -1.9 2.2
      vertex 5.2 -3.1 3.41
      vertex 5.2 -3.1 2.2
    endloop
  endfacet
  facet normal 0 0 1
    outer loop
      vertex 4 -1.9 3.41
      vertex 4 -4.3 3.41
      vertex 5.2 -3.1 3.41
    endloop
  endfacet
  facet normal 0 -0 1
    outer loop
      vertex 4 -4.3 3.41
      vertex 4 -1.9 3.41
      vertex 2.8 -3.1 3.41
    endloop
  endfacet
  facet normal -0.707107 -0.707107 0
    outer loop
      vertex 2.8 -3.1 2.2
      vertex 4 -4.3 3.41
      vertex 2.8 -3.1 3.41
    endloop
  endfacet
  facet normal -0.707107 -0.707107 -0
    outer loop
      vertex 4 -4.3 3.41
      vertex 2.8 -3.1 2.2
      vertex 4 -4.3 2.2
    endloop
  endfacet
  facet normal 0.707107 -0.707107 0
    outer loop
      vertex 4 -4.3 3.41
      vertex 5.2 -3.1 2.2
      vertex 5.2 -3.1 3.41
    endloop
  endfacet
  facet normal 0.707107 -0.707107 0
    outer loop
      vertex 5.2 -3.1 2.2
      vertex 4 -4.3 3.41
      vertex 4 -4.3 2.2
    endloop
  endfacet
  facet normal -0.707107 0.707107 0
    outer loop
      vertex 12 -1.9 2.2
      vertex 10.8 -3.1 3.41
      vertex 12 -1.9 3.41
    endloop
  endfacet
  facet normal -0.707107 0.707107 0
    outer loop
      vertex 10.8 -3.1 3.41
      vertex 12 -1.9 2.2
      vertex 10.8 -3.1 2.2
    endloop
  endfacet
  facet normal 0.707107 0.707107 0
    outer loop
      vertex 13.2 -3.1 3.41
      vertex 12 -1.9 2.2
      vertex 12 -1.9 3.41
    endloop
  endfacet
  facet normal 0.707107 0.707107 0
    outer loop
      vertex 12 -1.9 2.2
      vertex 13.2 -3.1 3.41
      vertex 13.2 -3.1 2.2
    endloop
  endfacet
  facet normal 0 0 1
    outer loop
      vertex 12 -1.9 3.41
      vertex 12 -4.3 3.41
      vertex 13.2 -3.1 3.41
    endloop
  endfacet
  facet normal 0 -0 1
    outer loop
      vertex 12 -4.3 3.41
      vertex 12 -1.9 3.41
      vertex 10.8 -3.1 3.41
    endloop
  endfacet
  facet normal -0.707107 -0.707107 0
    outer loop
      vertex 10.8 -3.1 2.2
      vertex 12 -4.3 3.41
      vertex 10.8 -3.1 3.41
    endloop
  endfacet
  facet normal -0.707107 -0.707107 -0
    outer loop
      vertex 12 -4.3 3.41
      vertex 10.8 -3.1 2.2
      vertex 12 -4.3 2.2
    endloop
  endfacet
  facet normal 0.707107 -0.707107 0
    outer loop
      vertex 12 -4.3 3.41
      vertex 13.2 -3.1 2.2
      vertex 13.2 -3.1 3.41
    endloop
  endfacet
  facet normal 0.707107 -0.707107 0
    outer loop
      vertex 13.2 -3.1 2.2
      vertex 12 -4.3 3.41
      vertex 12 -4.3 2.2
    endloop
  endfacet
  facet normal -0.707107 0.707107 0
    outer loop
      vertex 20 -1.9 2.2
      vertex 18.8 -3.1 3.41
      vertex 20 -1.9 3.41
    endloop
  endfacet
  facet normal -0.707107 0.707107 0
    outer loop
      vertex 18.8 -3.1 3.41
      vertex 20 -1.9 2.2
      vertex 18.8 -3.1 2.2
    endloop
  endfacet
  facet normal 0.707107 0.707107 -0
    outer loop
      vertex 21.2 -3.1 2.2
      vertex 20 -1.9 3.41
      vertex 21.2 -3.1 3.41
    endloop
  endfacet
  facet normal 0.707107 0.707107 0
    outer loop
      vertex 20 -1.9 3.41
      vertex 21.2 -3.1 2.2
      vertex 20 -1.9 2.2
    endloop
  endfacet
  facet normal 0 0 1
    outer loop
      vertex 20 -1.9 3.41
      vertex 20 -4.3 3.41
      vertex 21.2 -3.1 3.41
    endloop
  endfacet
  facet normal 0 -0 1
    outer loop
      vertex 20 -4.3 3.41
      vertex 20 -1.9 3.41
      vertex 18.8 -3.1 3.41
    endloop
  endfacet
  facet normal -0.707107 -0.707107 0
    outer loop
      vertex 18.8 -3.1 2.2
      vertex 20 -4.3 3.41
      vertex 18.8 -3.1 3.41
    endloop
  endfacet
  facet normal -0.707107 -0.707107 -0
    outer loop
      vertex 20 -4.3 3.41
      vertex 18.8 -3.1 2.2
      vertex 20 -4.3 2.2
    endloop
  endfacet
  facet normal 0.707107 -0.707107 0
    outer loop
      vertex 20 -4.3 2.2
      vertex 21.2 -3.1 3.41
      vertex 20 -4.3 3.41
    endloop
  endfacet
  facet normal 0.707107 -0.707107 0
    outer loop
      vertex 21.2 -3.1 3.41
      vertex 20 -4.3 2.2
      vertex 21.2 -3.1 2.2
    endloop
  endfacet
  facet normal -1 0 0
    outer loop
      vertex -23.85 5.925 0
      vertex -23.85 -1.34608 0.94364
      vertex -23.85 5.925 0.952459
    endloop
  endfacet
  facet normal -1 0 0
    outer loop
      vertex -23.85 -5.925 0
      vertex -23.85 -1.34608 0.94364
      vertex -23.85 5.925 0
    endloop
  endfacet
  facet normal -1 0 0
    outer loop
      vertex -23.85 -1.86372 0.94364
      vertex -23.85 -5.08628 0.94364
      vertex -23.85 -1.86372 2.2
    endloop
  endfacet
  facet normal -1 -0 0
    outer loop
      vertex -23.85 -1.34608 0.94364
      vertex -23.85 -5.925 0
      vertex -23.85 -1.86372 0.94364
    endloop
  endfacet
  facet normal -1 -0 0
    outer loop
      vertex -23.85 -1.86372 0.94364
      vertex -23.85 -5.925 0
      vertex -23.85 -5.08628 0.94364
    endloop
  endfacet
  facet normal -1 -0 0
    outer loop
      vertex -23.85 -5.08628 0.94364
      vertex -23.85 -5.925 0
      vertex -23.85 -5.60392 0.94364
    endloop
  endfacet
  facet normal -1 0 0
    outer loop
      vertex -23.85 -5.925 0.952459
      vertex -23.85 -5.60392 0.94364
      vertex -23.85 -5.925 0
    endloop
  endfacet
  facet normal -1 0 0
    outer loop
      vertex -23.85 -5.60392 0.94364
      vertex -23.85 -5.925 0.952459
      vertex -23.85 -5.60392 0.952459
    endloop
  endfacet
  facet normal -1 -0 0
    outer loop
      vertex -23.85 5.925 0.952459
      vertex -23.85 -1.34608 0.94364
      vertex -23.85 -1.34608 0.952459
    endloop
  endfacet
  facet normal -1 -0 0
    outer loop
      vertex -23.85 -1.86372 2.2
      vertex -23.85 -5.08628 0.94364
      vertex -23.85 -5.08628 2.2
    endloop
  endfacet
  facet normal 0 0 1
    outer loop
      vertex 23.1091 -1.625 2.2
      vertex 24 -5.08628 2.2
      vertex 24 -1.86372 2.2
    endloop
  endfacet
  facet normal 0 0 1
    outer loop
      vertex 23.1091 -1.625 2.2
      vertex 23.1091 -5.325 2.2
      vertex 24 -5.08628 2.2
    endloop
  endfacet
  facet normal 0 0 1
    outer loop
      vertex 23.1091 -1.625 2.2
      vertex 21.2 -3.1 2.2
      vertex 23.1091 -5.325 2.2
    endloop
  endfacet
  facet normal 0 0 1
    outer loop
      vertex 23.1091 -1.625 2.2
      vertex 20 -1.9 2.2
      vertex 21.2 -3.1 2.2
    endloop
  endfacet
  facet normal 0 0 1
    outer loop
      vertex 20 -1.9 2.2
      vertex 13.2 -3.1 2.2
      vertex 18.8 -3.1 2.2
    endloop
  endfacet
  facet normal 0 0 1
    outer loop
      vertex 20 -1.9 2.2
      vertex 12 -1.9 2.2
      vertex 13.2 -3.1 2.2
    endloop
  endfacet
  facet normal 0 0 1
    outer loop
      vertex 23.1091 -1.625 2.2
      vertex 12 -1.9 2.2
      vertex 20 -1.9 2.2
    endloop
  endfacet
  facet normal 0 0 1
    outer loop
      vertex 12 -1.9 2.2
      vertex 5.2 -3.1 2.2
      vertex 10.8 -3.1 2.2
    endloop
  endfacet
  facet normal 0 0 1
    outer loop
      vertex 12 -1.9 2.2
      vertex 4 -1.9 2.2
      vertex 5.2 -3.1 2.2
    endloop
  endfacet
  facet normal 0 0 1
    outer loop
      vertex 23.1091 -1.625 2.2
      vertex 4 -1.9 2.2
      vertex 12 -1.9 2.2
    endloop
  endfacet
  facet normal 0 0 1
    outer loop
      vertex 4 -1.9 2.2
      vertex -2.8 -3.1 2.2
      vertex 2.8 -3.1 2.2
    endloop
  endfacet
  facet normal 0 0 1
    outer loop
      vertex 4 -1.9 2.2
      vertex -4 -1.9 2.2
      vertex -2.8 -3.1 2.2
    endloop
  endfacet
  facet normal 0 0 1
    outer loop
      vertex 23.1091 -1.625 2.2
      vertex -4 -1.9 2.2
      vertex 4 -1.9 2.2
    endloop
  endfacet
  facet normal 0 0 1
    outer loop
      vertex -4 -1.9 2.2
      vertex -10.8 -3.1 2.2
      vertex -5.2 -3.1 2.2
    endloop
  endfacet
  facet normal 0 0 1
    outer loop
      vertex -4 -1.9 2.2
      vertex -12 -1.9 2.2
      vertex -10.8 -3.1 2.2
    endloop
  endfacet
  facet normal -0 0 1
    outer loop
      vertex -22.9591 -1.625 2.2
      vertex -4 -1.9 2.2
      vertex 23.1091 -1.625 2.2
    endloop
  endfacet
  facet normal 0 0 1
    outer loop
      vertex -12 -1.9 2.2
      vertex -18.8 -3.1 2.2
      vertex -13.2 -3.1 2.2
    endloop
  endfacet
  facet normal 0 0 1
    outer loop
      vertex -12 -1.9 2.2
      vertex -20 -1.9 2.2
      vertex -18.8 -3.1 2.2
    endloop
  endfacet
  facet normal 0 0 1
    outer loop
      vertex -4 -1.9 2.2
      vertex -22.9591 -1.625 2.2
      vertex -12 -1.9 2.2
    endloop
  endfacet
  facet normal 0 0 1
    outer loop
      vertex -20 -1.9 2.2
      vertex -22.9591 -1.625 2.2
      vertex -21.2 -3.1 2.2
    endloop
  endfacet
  facet normal 0 0 1
    outer loop
      vertex -12 -1.9 2.2
      vertex -22.9591 -1.625 2.2
      vertex -20 -1.9 2.2
    endloop
  endfacet
  facet normal -0 0 1
    outer loop
      vertex 20 -4.3 2.2
      vertex 23.1091 -5.325 2.2
      vertex 21.2 -3.1 2.2
    endloop
  endfacet
  facet normal -0 0 1
    outer loop
      vertex 13.2 -3.1 2.2
      vertex 20 -4.3 2.2
      vertex 18.8 -3.1 2.2
    endloop
  endfacet
  facet normal 0 0 1
    outer loop
      vertex 12 -4.3 2.2
      vertex 20 -4.3 2.2
      vertex 13.2 -3.1 2.2
    endloop
  endfacet
  facet normal 0 0 1
    outer loop
      vertex 20 -4.3 2.2
      vertex 12 -4.3 2.2
      vertex 23.1091 -5.325 2.2
    endloop
  endfacet
  facet normal -0 0 1
    outer loop
      vertex 5.2 -3.1 2.2
      vertex 12 -4.3 2.2
      vertex 10.8 -3.1 2.2
    endloop
  endfacet
  facet normal 0 0 1
    outer loop
      vertex 4 -4.3 2.2
      vertex 12 -4.3 2.2
      vertex 5.2 -3.1 2.2
    endloop
  endfacet
  facet normal -0 0 1
    outer loop
      vertex 4 -4.3 2.2
      vertex 23.1091 -5.325 2.2
      vertex 12 -4.3 2.2
    endloop
  endfacet
  facet normal -0 0 1
    outer loop
      vertex -2.8 -3.1 2.2
      vertex 4 -4.3 2.2
      vertex 2.8 -3.1 2.2
    endloop
  endfacet
  facet normal 0 0 1
    outer loop
      vertex -4 -4.3 2.2
      vertex 4 -4.3 2.2
      vertex -2.8 -3.1 2.2
    endloop
  endfacet
  facet normal -0 0 1
    outer loop
      vertex -4 -4.3 2.2
      vertex 23.1091 -5.325 2.2
      vertex 4 -4.3 2.2
    endloop
  endfacet
  facet normal -0 0 1
    outer loop
      vertex -10.8 -3.1 2.2
      vertex -4 -4.3 2.2
      vertex -5.2 -3.1 2.2
    endloop
  endfacet
  facet normal 0 0 1
    outer loop
      vertex -12 -4.3 2.2
      vertex -4 -4.3 2.2
      vertex -10.8 -3.1 2.2
    endloop
  endfacet
  facet normal 0 0 1
    outer loop
      vertex -22.9591 -5.325 2.2
      vertex -4 -4.3 2.2
      vertex -12 -4.3 2.2
    endloop
  endfacet
  facet normal -0 0 1
    outer loop
      vertex -18.8 -3.1 2.2
      vertex -12 -4.3 2.2
      vertex -13.2 -3.1 2.2
    endloop
  endfacet
  facet normal 0 0 1
    outer loop
      vertex -20 -4.3 2.2
      vertex -12 -4.3 2.2
      vertex -18.8 -3.1 2.2
    endloop
  endfacet
  facet normal 0 0 1
    outer loop
      vertex -22.9591 -5.325 2.2
      vertex -12 -4.3 2.2
      vertex -20 -4.3 2.2
    endloop
  endfacet
  facet normal -0 0 1
    outer loop
      vertex -23.85 -1.86372 2.2
      vertex -21.2 -3.1 2.2
      vertex -22.9591 -1.625 2.2
    endloop
  endfacet
  facet normal 0 0 1
    outer loop
      vertex -4 -4.3 2.2
      vertex -22.9591 -5.325 2.2
      vertex 23.1091 -5.325 2.2
    endloop
  endfacet
  facet normal 0 0 1
    outer loop
      vertex -21.2 -3.1 2.2
      vertex -22.9591 -5.325 2.2
      vertex -20 -4.3 2.2
    endloop
  endfacet
  facet normal 0 0 1
    outer loop
      vertex -23.85 -5.08628 2.2
      vertex -21.2 -3.1 2.2
      vertex -23.85 -1.86372 2.2
    endloop
  endfacet
  facet normal 0 0 1
    outer loop
      vertex -21.2 -3.1 2.2
      vertex -23.85 -5.08628 2.2
      vertex -22.9591 -5.325 2.2
    endloop
  endfacet
  facet normal 1 0 0
    outer loop
      vertex 24 -5.60392 0.952459
      vertex 24 -5.925 0.952459
      vertex 24 -5.60392 0.94364
    endloop
  endfacet
  facet normal 1 0 0
    outer loop
      vertex 24 -1.86372 2.2
      vertex 24 -5.08628 2.2
      vertex 24 -1.86372 0.94364
    endloop
  endfacet
  facet normal 1 0 0
    outer loop
      vertex 24 -1.34608 0.94364
      vertex 24 5.925 0.952459
      vertex 24 -1.34608 0.952459
    endloop
  endfacet
  facet normal 1 0 0
    outer loop
      vertex 24 5.925 0.952459
      vertex 24 -1.34608 0.94364
      vertex 24 5.925 0
    endloop
  endfacet
  facet normal 1 0 0
    outer loop
      vertex 24 -5.925 0
      vertex 24 -1.34608 0.94364
      vertex 24 -1.86372 0.94364
    endloop
  endfacet
  facet normal 1 0 0
    outer loop
      vertex 24 -5.08628 0.94364
      vertex 24 -1.86372 0.94364
      vertex 24 -5.08628 2.2
    endloop
  endfacet
  facet normal 1 0 0
    outer loop
      vertex 24 -5.925 0
      vertex 24 -1.86372 0.94364
      vertex 24 -5.08628 0.94364
    endloop
  endfacet
  facet normal 1 0 0
    outer loop
      vertex 24 -5.925 0
      vertex 24 -5.08628 0.94364
      vertex 24 -5.60392 0.94364
    endloop
  endfacet
  facet normal 1 0 0
    outer loop
      vertex 24 -5.925 0
      vertex 24 -5.60392 0.94364
      vertex 24 -5.925 0.952459
    endloop
  endfacet
  facet normal 1 0 0
    outer loop
      vertex 24 -1.34608 0.94364
      vertex 24 -5.925 0
      vertex 24 5.925 0
    endloop
  endfacet
  facet normal 0 0 -1
    outer loop
      vertex -23.85 -5.925 0
      vertex -17.4485 -5.325 0
      vertex -17.4485 -5.925 0
    endloop
  endfacet
  facet normal -0 0 -1
    outer loop
      vertex -17.4485 -5.325 0
      vertex -23.85 -5.925 0
      vertex -17.4485 -1.025 0
    endloop
  endfacet
  facet normal 0 0 -1
    outer loop
      vertex -23.85 5.925 0
      vertex -17.4485 -1.025 0
      vertex -23.85 -5.925 0
    endloop
  endfacet
  facet normal 0 0 -1
    outer loop
      vertex -17.4485 -1.025 0
      vertex -23.85 5.925 0
      vertex -17.4485 5.925 0
    endloop
  endfacet
  facet normal 0 0 -1
    outer loop
      vertex -17.4485 -5.325 0
      vertex -15.7515 -1.025 0
      vertex -15.7515 -5.325 0
    endloop
  endfacet
  facet normal -0 0 -1
    outer loop
      vertex -15.7515 -1.025 0
      vertex -17.4485 -5.325 0
      vertex -17.4485 -1.025 0
    endloop
  endfacet
  facet normal 0 0 -1
    outer loop
      vertex -15.7515 -5.325 0
      vertex 24 -5.925 0
      vertex -15.7515 -5.925 0
    endloop
  endfacet
  facet normal 0 0 -1
    outer loop
      vertex -15.7515 -1.025 0
      vertex 24 -5.925 0
      vertex -15.7515 -5.325 0
    endloop
  endfacet
  facet normal 0 0 -1
    outer loop
      vertex 24 -5.925 0
      vertex -15.7515 -1.025 0
      vertex 24 5.925 0
    endloop
  endfacet
  facet normal -0 0 -1
    outer loop
      vertex 24 5.925 0
      vertex -15.7515 -1.025 0
      vertex -15.7515 5.925 0
    endloop
  endfacet
  facet normal 0 -1 0
    outer loop
      vertex -23.85 -5.925 0
      vertex -22.9635 -5.925 1.19
      vertex -23.85 -5.925 0.952459
    endloop
  endfacet
  facet normal 0 -1 -0
    outer loop
      vertex -22.9635 -5.925 1.19
      vertex -23.85 -5.925 0
      vertex -17.4485 -5.925 0
    endloop
  endfacet
  facet normal 0 -1 0
    outer loop
      vertex -22.9635 -5.925 1.19
      vertex -17.4485 -5.925 0
      vertex -16.2585 -5.925 1.19
    endloop
  endfacet
  facet normal 0 -1 0
    outer loop
      vertex 24 -5.925 0
      vertex 23.1135 -5.925 1.19
      vertex -14.5615 -5.925 1.19
    endloop
  endfacet
  facet normal 0 -1 0
    outer loop
      vertex 24 -5.925 0
      vertex -14.5615 -5.925 1.19
      vertex -15.7515 -5.925 0
    endloop
  endfacet
  facet normal 0 -1 0
    outer loop
      vertex 23.1135 -5.925 1.19
      vertex 24 -5.925 0
      vertex 24 -5.925 0.952459
    endloop
  endfacet
  facet normal 0 1 -0
    outer loop
      vertex -17.4485 5.925 0
      vertex -22.9635 5.925 1.19
      vertex -16.2585 5.925 1.19
    endloop
  endfacet
  facet normal 0 1 0
    outer loop
      vertex -23.85 5.925 0
      vertex -22.9635 5.925 1.19
      vertex -17.4485 5.925 0
    endloop
  endfacet
  facet normal 0 1 0
    outer loop
      vertex -22.9635 5.925 1.19
      vertex -23.85 5.925 0
      vertex -23.85 5.925 0.952459
    endloop
  endfacet
  facet normal 0 1 -0
    outer loop
      vertex 24 5.925 0
      vertex 23.1135 5.925 1.19
      vertex 24 5.925 0.952459
    endloop
  endfacet
  facet normal 0 1 0
    outer loop
      vertex 23.1135 5.925 1.19
      vertex 24 5.925 0
      vertex -14.5615 5.925 1.19
    endloop
  endfacet
  facet normal 0 1 0
    outer loop
      vertex -14.5615 5.925 1.19
      vertex 24 5.925 0
      vertex -15.7515 5.925 0
    endloop
  endfacet
  facet normal 0.258819 -0 0.965926
    outer loop
      vertex 23.1135 -1.10854 1.19
      vertex 24 5.925 0.952459
      vertex 23.1135 5.925 1.19
    endloop
  endfacet
  facet normal 0.258819 0 0.965926
    outer loop
      vertex 24 5.925 0.952459
      vertex 23.1135 -1.10854 1.19
      vertex 24 -1.34608 0.952459
    endloop
  endfacet
  facet normal 0 1 -0
    outer loop
      vertex 23.1091 -1.625 1.19
      vertex -22.9591 -1.625 2.2
      vertex 23.1091 -1.625 2.2
    endloop
  endfacet
  facet normal 0 1 0
    outer loop
      vertex -22.9591 -1.625 2.2
      vertex 23.1091 -1.625 1.19
      vertex -22.9591 -1.625 1.19
    endloop
  endfacet
  facet normal -0.258819 0 0.965926
    outer loop
      vertex -23.85 5.925 0.952459
      vertex -22.9635 -1.10854 1.19
      vertex -22.9635 5.925 1.19
    endloop
  endfacet
  facet normal -0.258819 0 0.965926
    outer loop
      vertex -22.9635 -1.10854 1.19
      vertex -23.85 5.925 0.952459
      vertex -23.85 -1.34608 0.952459
    endloop
  endfacet
  facet normal -0.25882 -0.965926 -3.75961e-06
    outer loop
      vertex 24 -1.34608 0.94364
      vertex 23.1135 -1.10854 1.19
      vertex 23.0806 -1.09972 1.19
    endloop
  endfacet
  facet normal -0.258819 -0.965926 0
    outer loop
      vertex 23.1135 -1.10854 1.19
      vertex 24 -1.34608 0.94364
      vertex 24 -1.34608 0.952459
    endloop
  endfacet
  facet normal 0.258819 0.965926 0
    outer loop
      vertex 24 -1.86372 2.2
      vertex 23.1091 -1.625 1.19
      vertex 23.1091 -1.625 2.2
    endloop
  endfacet
  facet normal 0.258828 0.965924 3.41644e-05
    outer loop
      vertex 23.1091 -1.625 1.19
      vertex 24 -1.86372 0.94364
      vertex 23.0806 -1.61736 1.19
    endloop
  endfacet
  facet normal 0.258819 0.965926 -0
    outer loop
      vertex 24 -1.86372 0.94364
      vertex 23.1091 -1.625 1.19
      vertex 24 -1.86372 2.2
    endloop
  endfacet
  facet normal 0.258819 -0 0.965926
    outer loop
      vertex 23.0806 -1.61736 1.19
      vertex 24 -1.34608 0.94364
      vertex 23.0806 -1.09972 1.19
    endloop
  endfacet
  facet normal 0.258819 0 0.965926
    outer loop
      vertex 24 -1.34608 0.94364
      vertex 23.0806 -1.61736 1.19
      vertex 24 -1.86372 0.94364
    endloop
  endfacet
  facet normal 0.258819 -0.965926 0
    outer loop
      vertex -23.85 -1.34608 0.94364
      vertex -22.9635 -1.10854 1.19
      vertex -23.85 -1.34608 0.952459
    endloop
  endfacet
  facet normal 0.258809 -0.965928 3.8223e-05
    outer loop
      vertex -22.9635 -1.10854 1.19
      vertex -23.85 -1.34608 0.94364
      vertex -22.9306 -1.09972 1.19
    endloop
  endfacet
  facet normal -0.258811 0.965928 -3.00025e-05
    outer loop
      vertex -22.9306 -1.61736 1.19
      vertex -23.85 -1.86372 0.94364
      vertex -22.9591 -1.625 1.19
    endloop
  endfacet
  facet normal -0.258819 0.965926 0
    outer loop
      vertex -22.9591 -1.625 1.19
      vertex -23.85 -1.86372 2.2
      vertex -22.9591 -1.625 2.2
    endloop
  endfacet
  facet normal -0.258819 0.965926 0
    outer loop
      vertex -23.85 -1.86372 2.2
      vertex -22.9591 -1.625 1.19
      vertex -23.85 -1.86372 0.94364
    endloop
  endfacet
  facet normal -0.258819 0 0.965926
    outer loop
      vertex -23.85 -1.34608 0.94364
      vertex -22.9306 -1.61736 1.19
      vertex -22.9306 -1.09972 1.19
    endloop
  endfacet
  facet normal -0.258819 0 0.965926
    outer loop
      vertex -22.9306 -1.61736 1.19
      vertex -23.85 -1.34608 0.94364
      vertex -23.85 -1.86372 0.94364
    endloop
  endfacet
  facet normal 0 0 1
    outer loop
      vertex -16.2585 5.925 1.19
      vertex -22.9306 -1.09972 1.19
      vertex -16.2585 -1.025 1.19
    endloop
  endfacet
  facet normal -0 0 1
    outer loop
      vertex -22.9635 5.925 1.19
      vertex -22.9306 -1.09972 1.19
      vertex -16.2585 5.925 1.19
    endloop
  endfacet
  facet normal 0 0 1
    outer loop
      vertex -22.9306 -1.09972 1.19
      vertex -22.9635 5.925 1.19
      vertex -22.9635 -1.10854 1.19
    endloop
  endfacet
  facet normal 0 0 1
    outer loop
      vertex 23.1135 5.925 1.19
      vertex 23.0806 -1.09972 1.19
      vertex 23.1135 -1.10854 1.19
    endloop
  endfacet
  facet normal -0 0 1
    outer loop
      vertex -14.5615 -1.025 1.19
      vertex 23.0806 -1.09972 1.19
      vertex -14.5615 5.925 1.19
    endloop
  endfacet
  facet normal -0 0 1
    outer loop
      vertex -14.5615 5.925 1.19
      vertex 23.0806 -1.09972 1.19
      vertex 23.1135 5.925 1.19
    endloop
  endfacet
  facet normal 0 0 1
    outer loop
      vertex 23.0806 -1.09972 1.19
      vertex -14.5615 -1.025 1.19
      vertex 23.0806 -1.61736 1.19
    endloop
  endfacet
  facet normal 0 0 1
    outer loop
      vertex 23.0806 -1.61736 1.19
      vertex -14.5615 -1.025 1.19
      vertex 23.1091 -1.625 1.19
    endloop
  endfacet
  facet normal 0 0 1
    outer loop
      vertex -22.9591 -1.625 1.19
      vertex -14.5615 -1.025 1.19
      vertex -16.2585 -1.025 1.19
    endloop
  endfacet
  facet normal 0 0 1
    outer loop
      vertex -22.9306 -1.61736 1.19
      vertex -16.2585 -1.025 1.19
      vertex -22.9306 -1.09972 1.19
    endloop
  endfacet
  facet normal 0 0 1
    outer loop
      vertex -22.9591 -1.625 1.19
      vertex -16.2585 -1.025 1.19
      vertex -22.9306 -1.61736 1.19
    endloop
  endfacet
  facet normal 0 0 1
    outer loop
      vertex -14.5615 -1.025 1.19
      vertex -22.9591 -1.625 1.19
      vertex 23.1091 -1.625 1.19
    endloop
  endfacet
  facet normal 0 -1 0
    outer loop
      vertex -15.7515 -5.325 0
      vertex -16.2585 -5.325 1.19
      vertex -17.4485 -5.325 0
    endloop
  endfacet
  facet normal 0 -1 0
    outer loop
      vertex -16.2585 -5.325 1.19
      vertex -15.7515 -5.325 0
      vertex -14.5615 -5.325 1.19
    endloop
  endfacet
  facet normal 0 -1 0
    outer loop
      vertex -16.2585 -5.325 1.19
      vertex -22.9591 -5.325 2.2
      vertex -22.9591 -5.325 1.19
    endloop
  endfacet
  facet normal 0 -1 0
    outer loop
      vertex -14.5615 -5.325 1.19
      vertex -22.9591 -5.325 2.2
      vertex -16.2585 -5.325 1.19
    endloop
  endfacet
  facet normal 0 -1 0
    outer loop
      vertex -22.9591 -5.325 2.2
      vertex -14.5615 -5.325 1.19
      vertex 23.1091 -5.325 2.2
    endloop
  endfacet
  facet normal 0 -1 -0
    outer loop
      vertex 23.1091 -5.325 2.2
      vertex -14.5615 -5.325 1.19
      vertex 23.1091 -5.325 1.19
    endloop
  endfacet
  facet normal 0.258819 0 0.965926
    outer loop
      vertex 23.1135 -5.84146 1.19
      vertex 24 -5.925 0.952459
      vertex 24 -5.60392 0.952459
    endloop
  endfacet
  facet normal 0.258819 0 0.965926
    outer loop
      vertex 24 -5.925 0.952459
      vertex 23.1135 -5.84146 1.19
      vertex 23.1135 -5.925 1.19
    endloop
  endfacet
  facet normal -0.258819 0 0.965926
    outer loop
      vertex -23.85 -5.925 0.952459
      vertex -22.9635 -5.84146 1.19
      vertex -23.85 -5.60392 0.952459
    endloop
  endfacet
  facet normal -0.258819 0 0.965926
    outer loop
      vertex -22.9635 -5.84146 1.19
      vertex -23.85 -5.925 0.952459
      vertex -22.9635 -5.925 1.19
    endloop
  endfacet
  facet normal 0.25882 -0.965926 4.94602e-06
    outer loop
      vertex 23.0806 -5.33264 1.19
      vertex 24 -5.08628 0.94364
      vertex 23.1091 -5.325 1.19
    endloop
  endfacet
  facet normal 0.258819 -0.965926 0
    outer loop
      vertex 23.1091 -5.325 1.19
      vertex 24 -5.08628 2.2
      vertex 23.1091 -5.325 2.2
    endloop
  endfacet
  facet normal 0.258819 -0.965926 0
    outer loop
      vertex 24 -5.08628 2.2
      vertex 23.1091 -5.325 1.19
      vertex 24 -5.08628 0.94364
    endloop
  endfacet
  facet normal -0.258819 0.965926 0
    outer loop
      vertex 24 -5.60392 0.94364
      vertex 23.1135 -5.84146 1.19
      vertex 24 -5.60392 0.952459
    endloop
  endfacet
  facet normal -0.25882 0.965926 -2.82483e-06
    outer loop
      vertex 23.1135 -5.84146 1.19
      vertex 24 -5.60392 0.94364
      vertex 23.0806 -5.85028 1.19
    endloop
  endfacet
  facet normal 0.258819 0 0.965926
    outer loop
      vertex 23.0806 -5.33264 1.19
      vertex 24 -5.60392 0.94364
      vertex 24 -5.08628 0.94364
    endloop
  endfacet
  facet normal 0.258819 0 0.965926
    outer loop
      vertex 24 -5.60392 0.94364
      vertex 23.0806 -5.33264 1.19
      vertex 23.0806 -5.85028 1.19
    endloop
  endfacet
  facet normal -0.258819 -0.965926 0
    outer loop
      vertex -23.85 -5.08628 2.2
      vertex -22.9591 -5.325 1.19
      vertex -22.9591 -5.325 2.2
    endloop
  endfacet
  facet normal -0.258804 -0.96593 -5.96865e-05
    outer loop
      vertex -22.9591 -5.325 1.19
      vertex -23.85 -5.08628 0.94364
      vertex -22.9306 -5.33264 1.19
    endloop
  endfacet
  facet normal -0.258819 -0.965926 0
    outer loop
      vertex -23.85 -5.08628 0.94364
      vertex -22.9591 -5.325 1.19
      vertex -23.85 -5.08628 2.2
    endloop
  endfacet
  facet normal 0.258806 0.965929 5.1279e-05
    outer loop
      vertex -23.85 -5.60392 0.94364
      vertex -22.9635 -5.84146 1.19
      vertex -22.9306 -5.85028 1.19
    endloop
  endfacet
  facet normal 0.258819 0.965926 0
    outer loop
      vertex -22.9635 -5.84146 1.19
      vertex -23.85 -5.60392 0.94364
      vertex -23.85 -5.60392 0.952459
    endloop
  endfacet
  facet normal -0.258819 0 0.965926
    outer loop
      vertex -23.85 -5.60392 0.94364
      vertex -22.9306 -5.33264 1.19
      vertex -23.85 -5.08628 0.94364
    endloop
  endfacet
  facet normal -0.258819 0 0.965926
    outer loop
      vertex -22.9306 -5.33264 1.19
      vertex -23.85 -5.60392 0.94364
      vertex -22.9306 -5.85028 1.19
    endloop
  endfacet
  facet normal 0 0 1
    outer loop
      vertex -22.9306 -5.85028 1.19
      vertex -16.2585 -5.325 1.19
      vertex -22.9306 -5.33264 1.19
    endloop
  endfacet
  facet normal 0 -0 1
    outer loop
      vertex -22.9306 -5.33264 1.19
      vertex -16.2585 -5.325 1.19
      vertex -22.9591 -5.325 1.19
    endloop
  endfacet
  facet normal 0 0 1
    outer loop
      vertex -16.2585 -5.325 1.19
      vertex -22.9306 -5.85028 1.19
      vertex -16.2585 -5.925 1.19
    endloop
  endfacet
  facet normal 0 0 1
    outer loop
      vertex -22.9306 -5.85028 1.19
      vertex -22.9635 -5.925 1.19
      vertex -16.2585 -5.925 1.19
    endloop
  endfacet
  facet normal 0 0 1
    outer loop
      vertex -22.9635 -5.925 1.19
      vertex -22.9306 -5.85028 1.19
      vertex -22.9635 -5.84146 1.19
    endloop
  endfacet
  facet normal 0 0 1
    outer loop
      vertex 23.0806 -5.33264 1.19
      vertex -14.5615 -5.325 1.19
      vertex 23.0806 -5.85028 1.19
    endloop
  endfacet
  facet normal -0 0 1
    outer loop
      vertex -14.5615 -5.325 1.19
      vertex 23.0806 -5.33264 1.19
      vertex 23.1091 -5.325 1.19
    endloop
  endfacet
  facet normal -0 0 1
    outer loop
      vertex 23.0806 -5.85028 1.19
      vertex 23.1135 -5.925 1.19
      vertex 23.1135 -5.84146 1.19
    endloop
  endfacet
  facet normal 0 0 1
    outer loop
      vertex -14.5615 -5.925 1.19
      vertex 23.0806 -5.85028 1.19
      vertex -14.5615 -5.325 1.19
    endloop
  endfacet
  facet normal 0 0 1
    outer loop
      vertex 23.0806 -5.85028 1.19
      vertex -14.5615 -5.925 1.19
      vertex 23.1135 -5.925 1.19
    endloop
  endfacet
  facet normal 0.707107 0 -0.707107
    outer loop
      vertex -16.2585 -1.025 1.19
      vertex -17.4485 5.925 0
      vertex -16.2585 5.925 1.19
    endloop
  endfacet
  facet normal 0.707107 0 -0.707107
    outer loop
      vertex -17.4485 5.925 0
      vertex -16.2585 -1.025 1.19
      vertex -17.4485 -1.025 0
    endloop
  endfacet
  facet normal -0.707107 0 0.707107
    outer loop
      vertex -15.7515 5.925 0
      vertex -14.5615 -1.025 1.19
      vertex -14.5615 5.925 1.19
    endloop
  endfacet
  facet normal -0.707107 0 0.707107
    outer loop
      vertex -14.5615 -1.025 1.19
      vertex -15.7515 5.925 0
      vertex -15.7515 -1.025 0
    endloop
  endfacet
  facet normal 0 1 -0
    outer loop
      vertex -15.7515 -1.025 0
      vertex -16.2585 -1.025 1.19
      vertex -14.5615 -1.025 1.19
    endloop
  endfacet
  facet normal 0 1 0
    outer loop
      vertex -16.2585 -1.025 1.19
      vertex -15.7515 -1.025 0
      vertex -17.4485 -1.025 0
    endloop
  endfacet
  facet normal 0.707107 0 -0.707107
    outer loop
      vertex -16.2585 -5.925 1.19
      vertex -17.4485 -5.325 0
      vertex -16.2585 -5.325 1.19
    endloop
  endfacet
  facet normal 0.707107 0 -0.707107
    outer loop
      vertex -17.4485 -5.325 0
      vertex -16.2585 -5.925 1.19
      vertex -17.4485 -5.925 0
    endloop
  endfacet
  facet normal -0.707107 0 0.707107
    outer loop
      vertex -15.7515 -5.325 0
      vertex -14.5615 -5.925 1.19
      vertex -14.5615 -5.325 1.19
    endloop
  endfacet
  facet normal -0.707107 0 0.707107
    outer loop
      vertex -14.5615 -5.925 1.19
      vertex -15.7515 -5.325 0
      vertex -15.7515 -5.925 0
    endloop
  endfacet
endsolid OpenSCAD_Model
