solid OpenSCAD_Model
  facet normal -0.707107 0.707107 0
    outer loop
      vertex -21.2 -3.125 2.2
      vertex -20 -1.925 3.41
      vertex -20 -1.925 2.2
    endloop
  endfacet
  facet normal -0.707107 0.707107 0
    outer loop
      vertex -20 -1.925 3.41
      vertex -21.2 -3.125 2.2
      vertex -21.2 -3.125 3.41
    endloop
  endfacet
  facet normal 0.707107 0.707107 0
    outer loop
      vertex -18.8 -3.125 3.41
      vertex -20 -1.925 2.2
      vertex -20 -1.925 3.41
    endloop
  endfacet
  facet normal 0.707107 0.707107 0
    outer loop
      vertex -20 -1.925 2.2
      vertex -18.8 -3.125 3.41
      vertex -18.8 -3.125 2.2
    endloop
  endfacet
  facet normal 0 0 1
    outer loop
      vertex -20 -1.925 3.41
      vertex -20 -4.325 3.41
      vertex -18.8 -3.125 3.41
    endloop
  endfacet
  facet normal 0 -0 1
    outer loop
      vertex -20 -4.325 3.41
      vertex -20 -1.925 3.41
      vertex -21.2 -3.125 3.41
    endloop
  endfacet
  facet normal 0.707107 -0.707107 0
    outer loop
      vertex -20 -4.325 2.2
      vertex -18.8 -3.125 3.41
      vertex -20 -4.325 3.41
    endloop
  endfacet
  facet normal 0.707107 -0.707107 0
    outer loop
      vertex -18.8 -3.125 3.41
      vertex -20 -4.325 2.2
      vertex -18.8 -3.125 2.2
    endloop
  endfacet
  facet normal -0.707107 -0.707107 0
    outer loop
      vertex -21.2 -3.125 2.2
      vertex -20 -4.325 3.41
      vertex -21.2 -3.125 3.41
    endloop
  endfacet
  facet normal -0.707107 -0.707107 -0
    outer loop
      vertex -20 -4.325 3.41
      vertex -21.2 -3.125 2.2
      vertex -20 -4.325 2.2
    endloop
  endfacet
  facet normal -0.707107 0.707107 0
    outer loop
      vertex -13.2 -3.125 2.2
      vertex -12 -1.925 3.41
      vertex -12 -1.925 2.2
    endloop
  endfacet
  facet normal -0.707107 0.707107 0
    outer loop
      vertex -12 -1.925 3.41
      vertex -13.2 -3.125 2.2
      vertex -13.2 -3.125 3.41
    endloop
  endfacet
  facet normal 0.707107 0.707107 0
    outer loop
      vertex -10.8 -3.125 3.41
      vertex -12 -1.925 2.2
      vertex -12 -1.925 3.41
    endloop
  endfacet
  facet normal 0.707107 0.707107 0
    outer loop
      vertex -12 -1.925 2.2
      vertex -10.8 -3.125 3.41
      vertex -10.8 -3.125 2.2
    endloop
  endfacet
  facet normal 0 0 1
    outer loop
      vertex -12 -1.925 3.41
      vertex -12 -4.325 3.41
      vertex -10.8 -3.125 3.41
    endloop
  endfacet
  facet normal 0 -0 1
    outer loop
      vertex -12 -4.325 3.41
      vertex -12 -1.925 3.41
      vertex -13.2 -3.125 3.41
    endloop
  endfacet
  facet normal 0.707107 -0.707107 0
    outer loop
      vertex -12 -4.325 2.2
      vertex -10.8 -3.125 3.41
      vertex -12 -4.325 3.41
    endloop
  endfacet
  facet normal 0.707107 -0.707107 0
    outer loop
      vertex -10.8 -3.125 3.41
      vertex -12 -4.325 2.2
      vertex -10.8 -3.125 2.2
    endloop
  endfacet
  facet normal -0.707107 -0.707107 0
    outer loop
      vertex -12 -4.325 2.2
      vertex -13.2 -3.125 3.41
      vertex -13.2 -3.125 2.2
    endloop
  endfacet
  facet normal -0.707107 -0.707107 0
    outer loop
      vertex -13.2 -3.125 3.41
      vertex -12 -4.325 2.2
      vertex -12 -4.325 3.41
    endloop
  endfacet
  facet normal -0.707107 0.707107 0
    outer loop
      vertex -5.2 -3.125 2.2
      vertex -4 -1.925 3.41
      vertex -4 -1.925 2.2
    endloop
  endfacet
  facet normal -0.707107 0.707107 0
    outer loop
      vertex -4 -1.925 3.41
      vertex -5.2 -3.125 2.2
      vertex -5.2 -3.125 3.41
    endloop
  endfacet
  facet normal 0.707107 0.707107 0
    outer loop
      vertex -2.8 -3.125 3.41
      vertex -4 -1.925 2.2
      vertex -4 -1.925 3.41
    endloop
  endfacet
  facet normal 0.707107 0.707107 0
    outer loop
      vertex -4 -1.925 2.2
      vertex -2.8 -3.125 3.41
      vertex -2.8 -3.125 2.2
    endloop
  endfacet
  facet normal 0 0 1
    outer loop
      vertex -4 -1.925 3.41
      vertex -4 -4.325 3.41
      vertex -2.8 -3.125 3.41
    endloop
  endfacet
  facet normal 0 -0 1
    outer loop
      vertex -4 -4.325 3.41
      vertex -4 -1.925 3.41
      vertex -5.2 -3.125 3.41
    endloop
  endfacet
  facet normal 0.707107 -0.707107 0
    outer loop
      vertex -4 -4.325 2.2
      vertex -2.8 -3.125 3.41
      vertex -4 -4.325 3.41
    endloop
  endfacet
  facet normal 0.707107 -0.707107 0
    outer loop
      vertex -2.8 -3.125 3.41
      vertex -4 -4.325 2.2
      vertex -2.8 -3.125 2.2
    endloop
  endfacet
  facet normal -0.707107 -0.707107 0
    outer loop
      vertex -4 -4.325 2.2
      vertex -5.2 -3.125 3.41
      vertex -5.2 -3.125 2.2
    endloop
  endfacet
  facet normal -0.707107 -0.707107 0
    outer loop
      vertex -5.2 -3.125 3.41
      vertex -4 -4.325 2.2
      vertex -4 -4.325 3.41
    endloop
  endfacet
  facet normal -0.707107 0.707107 0
    outer loop
      vertex 2.8 -3.125 2.2
      vertex 4 -1.925 3.41
      vertex 4 -1.925 2.2
    endloop
  endfacet
  facet normal -0.707107 0.707107 0
    outer loop
      vertex 4 -1.925 3.41
      vertex 2.8 -3.125 2.2
      vertex 2.8 -3.125 3.41
    endloop
  endfacet
  facet normal 0.707107 0.707107 0
    outer loop
      vertex 5.2 -3.125 3.41
      vertex 4 -1.925 2.2
      vertex 4 -1.925 3.41
    endloop
  endfacet
  facet normal 0.707107 0.707107 0
    outer loop
      vertex 4 -1.925 2.2
      vertex 5.2 -3.125 3.41
      vertex 5.2 -3.125 2.2
    endloop
  endfacet
  facet normal 0 0 1
    outer loop
      vertex 4 -1.925 3.41
      vertex 4 -4.325 3.41
      vertex 5.2 -3.125 3.41
    endloop
  endfacet
  facet normal 0 -0 1
    outer loop
      vertex 4 -4.325 3.41
      vertex 4 -1.925 3.41
      vertex 2.8 -3.125 3.41
    endloop
  endfacet
  facet normal -0.707107 -0.707107 0
    outer loop
      vertex 2.8 -3.125 2.2
      vertex 4 -4.325 3.41
      vertex 2.8 -3.125 3.41
    endloop
  endfacet
  facet normal -0.707107 -0.707107 -0
    outer loop
      vertex 4 -4.325 3.41
      vertex 2.8 -3.125 2.2
      vertex 4 -4.325 2.2
    endloop
  endfacet
  facet normal 0.707107 -0.707107 0
    outer loop
      vertex 4 -4.325 3.41
      vertex 5.2 -3.125 2.2
      vertex 5.2 -3.125 3.41
    endloop
  endfacet
  facet normal 0.707107 -0.707107 0
    outer loop
      vertex 5.2 -3.125 2.2
      vertex 4 -4.325 3.41
      vertex 4 -4.325 2.2
    endloop
  endfacet
  facet normal -0.707107 0.707107 0
    outer loop
      vertex 10.8 -3.125 2.2
      vertex 12 -1.925 3.41
      vertex 12 -1.925 2.2
    endloop
  endfacet
  facet normal -0.707107 0.707107 0
    outer loop
      vertex 12 -1.925 3.41
      vertex 10.8 -3.125 2.2
      vertex 10.8 -3.125 3.41
    endloop
  endfacet
  facet normal 0.707107 0.707107 0
    outer loop
      vertex 13.2 -3.125 3.41
      vertex 12 -1.925 2.2
      vertex 12 -1.925 3.41
    endloop
  endfacet
  facet normal 0.707107 0.707107 0
    outer loop
      vertex 12 -1.925 2.2
      vertex 13.2 -3.125 3.41
      vertex 13.2 -3.125 2.2
    endloop
  endfacet
  facet normal 0 0 1
    outer loop
      vertex 12 -1.925 3.41
      vertex 12 -4.325 3.41
      vertex 13.2 -3.125 3.41
    endloop
  endfacet
  facet normal 0 -0 1
    outer loop
      vertex 12 -4.325 3.41
      vertex 12 -1.925 3.41
      vertex 10.8 -3.125 3.41
    endloop
  endfacet
  facet normal 0.707107 -0.707107 0
    outer loop
      vertex 12 -4.325 3.41
      vertex 13.2 -3.125 2.2
      vertex 13.2 -3.125 3.41
    endloop
  endfacet
  facet normal 0.707107 -0.707107 0
    outer loop
      vertex 13.2 -3.125 2.2
      vertex 12 -4.325 3.41
      vertex 12 -4.325 2.2
    endloop
  endfacet
  facet normal -0.707107 -0.707107 0
    outer loop
      vertex 10.8 -3.125 2.2
      vertex 12 -4.325 3.41
      vertex 10.8 -3.125 3.41
    endloop
  endfacet
  facet normal -0.707107 -0.707107 -0
    outer loop
      vertex 12 -4.325 3.41
      vertex 10.8 -3.125 2.2
      vertex 12 -4.325 2.2
    endloop
  endfacet
  facet normal -0.707107 0.707107 0
    outer loop
      vertex 18.8 -3.125 2.2
      vertex 20 -1.925 3.41
      vertex 20 -1.925 2.2
    endloop
  endfacet
  facet normal -0.707107 0.707107 0
    outer loop
      vertex 20 -1.925 3.41
      vertex 18.8 -3.125 2.2
      vertex 18.8 -3.125 3.41
    endloop
  endfacet
  facet normal 0.707107 0.707107 0
    outer loop
      vertex 21.2 -3.125 3.41
      vertex 20 -1.925 2.2
      vertex 20 -1.925 3.41
    endloop
  endfacet
  facet normal 0.707107 0.707107 0
    outer loop
      vertex 20 -1.925 2.2
      vertex 21.2 -3.125 3.41
      vertex 21.2 -3.125 2.2
    endloop
  endfacet
  facet normal 0 0 1
    outer loop
      vertex 20 -1.925 3.41
      vertex 20 -4.325 3.41
      vertex 21.2 -3.125 3.41
    endloop
  endfacet
  facet normal 0 -0 1
    outer loop
      vertex 20 -4.325 3.41
      vertex 20 -1.925 3.41
      vertex 18.8 -3.125 3.41
    endloop
  endfacet
  facet normal 0.707107 -0.707107 0
    outer loop
      vertex 20 -4.325 2.2
      vertex 21.2 -3.125 3.41
      vertex 20 -4.325 3.41
    endloop
  endfacet
  facet normal 0.707107 -0.707107 0
    outer loop
      vertex 21.2 -3.125 3.41
      vertex 20 -4.325 2.2
      vertex 21.2 -3.125 2.2
    endloop
  endfacet
  facet normal -0.707107 -0.707107 0
    outer loop
      vertex 18.8 -3.125 2.2
      vertex 20 -4.325 3.41
      vertex 18.8 -3.125 3.41
    endloop
  endfacet
  facet normal -0.707107 -0.707107 -0
    outer loop
      vertex 20 -4.325 3.41
      vertex 18.8 -3.125 2.2
      vertex 20 -4.325 2.2
    endloop
  endfacet
  facet normal 0 0 1
    outer loop
      vertex 24 -1.575 2.2
      vertex 21.2 -3.125 2.2
      vertex 24 -5.325 2.2
    endloop
  endfacet
  facet normal 0 0 1
    outer loop
      vertex 24 -1.575 2.2
      vertex 20 -1.925 2.2
      vertex 21.2 -3.125 2.2
    endloop
  endfacet
  facet normal 0 0 1
    outer loop
      vertex 20 -1.925 2.2
      vertex 13.2 -3.125 2.2
      vertex 18.8 -3.125 2.2
    endloop
  endfacet
  facet normal 0 0 1
    outer loop
      vertex 20 -1.925 2.2
      vertex 12 -1.925 2.2
      vertex 13.2 -3.125 2.2
    endloop
  endfacet
  facet normal 0 0 1
    outer loop
      vertex 24 -1.575 2.2
      vertex 12 -1.925 2.2
      vertex 20 -1.925 2.2
    endloop
  endfacet
  facet normal 0 0 1
    outer loop
      vertex 12 -1.925 2.2
      vertex 5.2 -3.125 2.2
      vertex 10.8 -3.125 2.2
    endloop
  endfacet
  facet normal 0 0 1
    outer loop
      vertex 12 -1.925 2.2
      vertex 4 -1.925 2.2
      vertex 5.2 -3.125 2.2
    endloop
  endfacet
  facet normal 0 0 1
    outer loop
      vertex 24 -1.575 2.2
      vertex 4 -1.925 2.2
      vertex 12 -1.925 2.2
    endloop
  endfacet
  facet normal 0 0 1
    outer loop
      vertex 4 -1.925 2.2
      vertex -2.8 -3.125 2.2
      vertex 2.8 -3.125 2.2
    endloop
  endfacet
  facet normal 0 0 1
    outer loop
      vertex 4 -1.925 2.2
      vertex -4 -1.925 2.2
      vertex -2.8 -3.125 2.2
    endloop
  endfacet
  facet normal 0 0 1
    outer loop
      vertex 24 -1.575 2.2
      vertex -4 -1.925 2.2
      vertex 4 -1.925 2.2
    endloop
  endfacet
  facet normal 0 0 1
    outer loop
      vertex -4 -1.925 2.2
      vertex -10.8 -3.125 2.2
      vertex -5.2 -3.125 2.2
    endloop
  endfacet
  facet normal 0 0 1
    outer loop
      vertex -4 -1.925 2.2
      vertex -12 -1.925 2.2
      vertex -10.8 -3.125 2.2
    endloop
  endfacet
  facet normal -0 0 1
    outer loop
      vertex -23.85 -1.575 2.2
      vertex -4 -1.925 2.2
      vertex 24 -1.575 2.2
    endloop
  endfacet
  facet normal 0 0 1
    outer loop
      vertex -12 -1.925 2.2
      vertex -18.8 -3.125 2.2
      vertex -13.2 -3.125 2.2
    endloop
  endfacet
  facet normal 0 0 1
    outer loop
      vertex -12 -1.925 2.2
      vertex -20 -1.925 2.2
      vertex -18.8 -3.125 2.2
    endloop
  endfacet
  facet normal 0 0 1
    outer loop
      vertex -4 -1.925 2.2
      vertex -23.85 -1.575 2.2
      vertex -12 -1.925 2.2
    endloop
  endfacet
  facet normal 0 0 1
    outer loop
      vertex -20 -1.925 2.2
      vertex -23.85 -1.575 2.2
      vertex -21.2 -3.125 2.2
    endloop
  endfacet
  facet normal 0 0 1
    outer loop
      vertex -12 -1.925 2.2
      vertex -23.85 -1.575 2.2
      vertex -20 -1.925 2.2
    endloop
  endfacet
  facet normal -0 0 1
    outer loop
      vertex 20 -4.325 2.2
      vertex 24 -5.325 2.2
      vertex 21.2 -3.125 2.2
    endloop
  endfacet
  facet normal -0 0 1
    outer loop
      vertex 13.2 -3.125 2.2
      vertex 20 -4.325 2.2
      vertex 18.8 -3.125 2.2
    endloop
  endfacet
  facet normal 0 0 1
    outer loop
      vertex 12 -4.325 2.2
      vertex 20 -4.325 2.2
      vertex 13.2 -3.125 2.2
    endloop
  endfacet
  facet normal 0 0 1
    outer loop
      vertex 20 -4.325 2.2
      vertex 12 -4.325 2.2
      vertex 24 -5.325 2.2
    endloop
  endfacet
  facet normal -0 0 1
    outer loop
      vertex 5.2 -3.125 2.2
      vertex 12 -4.325 2.2
      vertex 10.8 -3.125 2.2
    endloop
  endfacet
  facet normal 0 0 1
    outer loop
      vertex 4 -4.325 2.2
      vertex 12 -4.325 2.2
      vertex 5.2 -3.125 2.2
    endloop
  endfacet
  facet normal -0 0 1
    outer loop
      vertex 4 -4.325 2.2
      vertex 24 -5.325 2.2
      vertex 12 -4.325 2.2
    endloop
  endfacet
  facet normal -0 0 1
    outer loop
      vertex -2.8 -3.125 2.2
      vertex 4 -4.325 2.2
      vertex 2.8 -3.125 2.2
    endloop
  endfacet
  facet normal 0 0 1
    outer loop
      vertex -4 -4.325 2.2
      vertex 4 -4.325 2.2
      vertex -2.8 -3.125 2.2
    endloop
  endfacet
  facet normal -0 0 1
    outer loop
      vertex -4 -4.325 2.2
      vertex 24 -5.325 2.2
      vertex 4 -4.325 2.2
    endloop
  endfacet
  facet normal -0 0 1
    outer loop
      vertex -10.8 -3.125 2.2
      vertex -4 -4.325 2.2
      vertex -5.2 -3.125 2.2
    endloop
  endfacet
  facet normal 0 0 1
    outer loop
      vertex -12 -4.325 2.2
      vertex -4 -4.325 2.2
      vertex -10.8 -3.125 2.2
    endloop
  endfacet
  facet normal 0 0 1
    outer loop
      vertex -23.85 -5.325 2.2
      vertex -4 -4.325 2.2
      vertex -12 -4.325 2.2
    endloop
  endfacet
  facet normal -0 0 1
    outer loop
      vertex -18.8 -3.125 2.2
      vertex -12 -4.325 2.2
      vertex -13.2 -3.125 2.2
    endloop
  endfacet
  facet normal 0 0 1
    outer loop
      vertex -20 -4.325 2.2
      vertex -12 -4.325 2.2
      vertex -18.8 -3.125 2.2
    endloop
  endfacet
  facet normal 0 0 1
    outer loop
      vertex -23.85 -5.325 2.2
      vertex -12 -4.325 2.2
      vertex -20 -4.325 2.2
    endloop
  endfacet
  facet normal 0 0 1
    outer loop
      vertex -23.85 -5.325 2.2
      vertex -21.2 -3.125 2.2
      vertex -23.85 -1.575 2.2
    endloop
  endfacet
  facet normal 0 0 1
    outer loop
      vertex -4 -4.325 2.2
      vertex -23.85 -5.325 2.2
      vertex 24 -5.325 2.2
    endloop
  endfacet
  facet normal 0 0 1
    outer loop
      vertex -21.2 -3.125 2.2
      vertex -23.85 -5.325 2.2
      vertex -20 -4.325 2.2
    endloop
  endfacet
  facet normal 1 0 0
    outer loop
      vertex 24 -1.575 2.2
      vertex 24 -5.325 2.2
      vertex 24 -1.575 1.19
    endloop
  endfacet
  facet normal 1 -0 0
    outer loop
      vertex 24 -1.575 1.19
      vertex 24 5.925 5.72205e-07
      vertex 24 5.925 1.19
    endloop
  endfacet
  facet normal 1 0 0
    outer loop
      vertex 24 -5.325 1.19
      vertex 24 -1.575 1.19
      vertex 24 -5.325 2.2
    endloop
  endfacet
  facet normal 1 0 0
    outer loop
      vertex 24 -5.925 5.72205e-07
      vertex 24 -1.575 1.19
      vertex 24 -5.325 1.19
    endloop
  endfacet
  facet normal 1 0 0
    outer loop
      vertex 24 -5.925 5.72205e-07
      vertex 24 -5.325 1.19
      vertex 24 -5.925 1.19
    endloop
  endfacet
  facet normal 1 0 0
    outer loop
      vertex 24 -1.575 1.19
      vertex 24 -5.925 5.72205e-07
      vertex 24 5.925 5.72205e-07
    endloop
  endfacet
  facet normal 0 0 -1
    outer loop
      vertex 24 -5.925 5.72205e-07
      vertex 20.6 -2.175 5.72205e-07
      vertex 24 5.925 5.72205e-07
    endloop
  endfacet
  facet normal 0 0 -1
    outer loop
      vertex 24 -5.925 5.72205e-07
      vertex 11.4 -2.175 5.72205e-07
      vertex 20.6 -2.175 5.72205e-07
    endloop
  endfacet
  facet normal 0 0 -1
    outer loop
      vertex 11.4 -2.175 5.72205e-07
      vertex 10.6 -0.624999 5.72205e-07
      vertex 11.4 5.925 5.72205e-07
    endloop
  endfacet
  facet normal 0 0 -1
    outer loop
      vertex 11.4 -2.175 5.72205e-07
      vertex 5.4 -0.624999 5.72205e-07
      vertex 10.6 -0.624999 5.72205e-07
    endloop
  endfacet
  facet normal 0 0 -1
    outer loop
      vertex -23.85 -5.925 5.72205e-07
      vertex 11.4 -2.175 5.72205e-07
      vertex 24 -5.925 5.72205e-07
    endloop
  endfacet
  facet normal -0 0 -1
    outer loop
      vertex 11.4 -2.175 5.72205e-07
      vertex -23.85 -5.925 5.72205e-07
      vertex 5.4 -0.624999 5.72205e-07
    endloop
  endfacet
  facet normal 0 0 -1
    outer loop
      vertex -23.85 5.925 5.72205e-07
      vertex 5.4 -0.624999 5.72205e-07
      vertex -23.85 -5.925 5.72205e-07
    endloop
  endfacet
  facet normal 0 0 -1
    outer loop
      vertex 5.4 -0.624999 5.72205e-07
      vertex -23.85 5.925 5.72205e-07
      vertex 5.4 5.925 5.72205e-07
    endloop
  endfacet
  facet normal -0 0 -1
    outer loop
      vertex 24 5.925 5.72205e-07
      vertex 20.6 -2.175 5.72205e-07
      vertex 20.6 5.925 5.72205e-07
    endloop
  endfacet
  facet normal -0 0 -1
    outer loop
      vertex 11.4 5.925 5.72205e-07
      vertex 10.6 -0.624999 5.72205e-07
      vertex 10.6 5.925 5.72205e-07
    endloop
  endfacet
  facet normal 0 -1 0
    outer loop
      vertex -23.85 -5.925 5.72205e-07
      vertex 24 -5.925 1.19
      vertex -23.85 -5.925 1.19
    endloop
  endfacet
  facet normal 0 -1 -0
    outer loop
      vertex 24 -5.925 1.19
      vertex -23.85 -5.925 5.72205e-07
      vertex 24 -5.925 5.72205e-07
    endloop
  endfacet
  facet normal 0 1 0
    outer loop
      vertex 24 5.925 1.19
      vertex 20.6 5.925 0.0100004
      vertex 20.0197 5.925 1.19
    endloop
  endfacet
  facet normal 0 1 -0
    outer loop
      vertex 24 5.925 5.72205e-07
      vertex 20.6 5.925 0.0100004
      vertex 24 5.925 1.19
    endloop
  endfacet
  facet normal 0 1 0
    outer loop
      vertex 20.6 5.925 0.0100004
      vertex 24 5.925 5.72205e-07
      vertex 20.6 5.925 5.72205e-07
    endloop
  endfacet
  facet normal 0 1 -0
    outer loop
      vertex 5.4 5.925 0.0100004
      vertex -23.85 5.925 1.19
      vertex 5.98033 5.925 1.19
    endloop
  endfacet
  facet normal 0 1 0
    outer loop
      vertex -23.85 5.925 5.72205e-07
      vertex 5.4 5.925 0.0100004
      vertex 5.4 5.925 5.72205e-07
    endloop
  endfacet
  facet normal 0 1 0
    outer loop
      vertex 5.4 5.925 0.0100004
      vertex -23.85 5.925 5.72205e-07
      vertex -23.85 5.925 1.19
    endloop
  endfacet
  facet normal 0 1 -0
    outer loop
      vertex 11.4 5.925 0.0100004
      vertex 10.0197 5.925 1.19
      vertex 11.9803 5.925 1.19
    endloop
  endfacet
  facet normal 0 1 0
    outer loop
      vertex 11.4 5.925 0.0100004
      vertex 10.6 5.925 0.0100004
      vertex 10.0197 5.925 1.19
    endloop
  endfacet
  facet normal 0 1 -0
    outer loop
      vertex 11.4 5.925 5.72205e-07
      vertex 10.6 5.925 0.0100004
      vertex 11.4 5.925 0.0100004
    endloop
  endfacet
  facet normal 0 1 0
    outer loop
      vertex 10.6 5.925 0.0100004
      vertex 11.4 5.925 5.72205e-07
      vertex 10.6 5.925 5.72205e-07
    endloop
  endfacet
  facet normal 0 0 1
    outer loop
      vertex 5.98033 5.925 1.19
      vertex -23.85 5.925 1.19
      vertex 5.98033 -0.0446721 1.19
    endloop
  endfacet
  facet normal 0 0 1
    outer loop
      vertex 10.0197 -0.0446721 1.19
      vertex 11.9803 5.925 1.19
      vertex 10.0197 5.925 1.19
    endloop
  endfacet
  facet normal 0 0 1
    outer loop
      vertex 11.9803 5.925 1.19
      vertex 10.0197 -0.0446721 1.19
      vertex 11.9803 -1.575 1.19
    endloop
  endfacet
  facet normal -0 0 1
    outer loop
      vertex 5.98033 -0.0446721 1.19
      vertex 11.9803 -1.575 1.19
      vertex 10.0197 -0.0446721 1.19
    endloop
  endfacet
  facet normal 0 0 1
    outer loop
      vertex -23.85 -1.575 1.19
      vertex 5.98033 -0.0446721 1.19
      vertex -23.85 5.925 1.19
    endloop
  endfacet
  facet normal 0 0 1
    outer loop
      vertex 5.98033 -0.0446721 1.19
      vertex -23.85 -1.575 1.19
      vertex 11.9803 -1.575 1.19
    endloop
  endfacet
  facet normal -0 0 1
    outer loop
      vertex 20.0197 5.925 1.19
      vertex 24 -1.575 1.19
      vertex 24 5.925 1.19
    endloop
  endfacet
  facet normal 0 0 1
    outer loop
      vertex 24 -1.575 1.19
      vertex 20.0197 5.925 1.19
      vertex 20.0197 -1.575 1.19
    endloop
  endfacet
  facet normal 0 1 0
    outer loop
      vertex 12 -1.575 1.23
      vertex 24 -1.575 2.2
      vertex 20 -1.575 1.23
    endloop
  endfacet
  facet normal 0 1 0
    outer loop
      vertex 20.0197 -1.575 1.19
      vertex 24 -1.575 2.2
      vertex 24 -1.575 1.19
    endloop
  endfacet
  facet normal 0 1 0
    outer loop
      vertex 24 -1.575 2.2
      vertex 20.0197 -1.575 1.19
      vertex 20 -1.575 1.23
    endloop
  endfacet
  facet normal 0 1 0
    outer loop
      vertex 24 -1.575 2.2
      vertex 12 -1.575 1.23
      vertex -23.85 -1.575 2.2
    endloop
  endfacet
  facet normal 0 1 -0
    outer loop
      vertex 11.9803 -1.575 1.19
      vertex -23.85 -1.575 2.2
      vertex 12 -1.575 1.23
    endloop
  endfacet
  facet normal 0 1 0
    outer loop
      vertex -23.85 -1.575 2.2
      vertex 11.9803 -1.575 1.19
      vertex -23.85 -1.575 1.19
    endloop
  endfacet
  facet normal -0 0 1
    outer loop
      vertex -23.85 -5.325 1.19
      vertex 24 -5.925 1.19
      vertex 24 -5.325 1.19
    endloop
  endfacet
  facet normal 0 0 1
    outer loop
      vertex 24 -5.925 1.19
      vertex -23.85 -5.325 1.19
      vertex -23.85 -5.925 1.19
    endloop
  endfacet
  facet normal 0 -1 0
    outer loop
      vertex -23.85 -5.325 1.19
      vertex 24 -5.325 2.2
      vertex -23.85 -5.325 2.2
    endloop
  endfacet
  facet normal 0 -1 -0
    outer loop
      vertex 24 -5.325 2.2
      vertex -23.85 -5.325 1.19
      vertex 24 -5.325 1.19
    endloop
  endfacet
  facet normal -1 0 0
    outer loop
      vertex 10.6 -0.624999 5.72205e-07
      vertex 10.6 5.925 0.0100004
      vertex 10.6 5.925 5.72205e-07
    endloop
  endfacet
  facet normal -1 -0 0
    outer loop
      vertex 10.6 5.925 0.0100004
      vertex 10.6 -0.624999 5.72205e-07
      vertex 10.6 -0.624999 0.0100004
    endloop
  endfacet
  facet normal -0.89735 0 -0.441319
    outer loop
      vertex 10.6 5.925 0.0100004
      vertex 10.0197 -0.0446721 1.19
      vertex 10.0197 5.925 1.19
    endloop
  endfacet
  facet normal -0.89735 0 -0.441319
    outer loop
      vertex 10.0197 -0.0446721 1.19
      vertex 10.6 5.925 0.0100004
      vertex 10.6 -0.624999 0.0100004
    endloop
  endfacet
  facet normal 1 -0 0
    outer loop
      vertex 5.4 -0.624999 0.0100004
      vertex 5.4 5.925 5.72205e-07
      vertex 5.4 5.925 0.0100004
    endloop
  endfacet
  facet normal 1 0 0
    outer loop
      vertex 5.4 5.925 5.72205e-07
      vertex 5.4 -0.624999 0.0100004
      vertex 5.4 -0.624999 5.72205e-07
    endloop
  endfacet
  facet normal 0.89735 0 -0.44132
    outer loop
      vertex 5.98033 -0.0446721 1.19
      vertex 5.4 5.925 0.0100004
      vertex 5.98033 5.925 1.19
    endloop
  endfacet
  facet normal 0.89735 0 -0.44132
    outer loop
      vertex 5.4 5.925 0.0100004
      vertex 5.98033 -0.0446721 1.19
      vertex 5.4 -0.624999 0.0100004
    endloop
  endfacet
  facet normal 0 1 -0
    outer loop
      vertex 10.6 -0.624999 5.72205e-07
      vertex 5.4 -0.624999 0.0100004
      vertex 10.6 -0.624999 0.0100004
    endloop
  endfacet
  facet normal 0 1 0
    outer loop
      vertex 5.4 -0.624999 0.0100004
      vertex 10.6 -0.624999 5.72205e-07
      vertex 5.4 -0.624999 5.72205e-07
    endloop
  endfacet
  facet normal 0 0.89735 -0.441319
    outer loop
      vertex 10.6 -0.624999 0.0100004
      vertex 5.98033 -0.0446721 1.19
      vertex 10.0197 -0.0446721 1.19
    endloop
  endfacet
  facet normal 0 0.89735 -0.441319
    outer loop
      vertex 5.98033 -0.0446721 1.19
      vertex 10.6 -0.624999 0.0100004
      vertex 5.4 -0.624999 0.0100004
    endloop
  endfacet
  facet normal -1 0 0
    outer loop
      vertex 20.6 -2.175 5.72205e-07
      vertex 20.6 5.925 0.0100004
      vertex 20.6 5.925 5.72205e-07
    endloop
  endfacet
  facet normal -1 -0 0
    outer loop
      vertex 20.6 5.925 0.0100004
      vertex 20.6 -2.175 5.72205e-07
      vertex 20.6 -2.175 0.0100004
    endloop
  endfacet
  facet normal -0.897351 0 -0.441318
    outer loop
      vertex 20.6 5.925 0.0100004
      vertex 20.0197 -1.575 1.19
      vertex 20.0197 5.925 1.19
    endloop
  endfacet
  facet normal -0.897347 1.53501e-05 -0.441325
    outer loop
      vertex 20.0197 -1.575 1.19
      vertex 20.6 -2.175 0.0100004
      vertex 20 -1.575 1.23
    endloop
  endfacet
  facet normal -0.897351 0 -0.441318
    outer loop
      vertex 20.6 -2.175 0.0100004
      vertex 20.0197 -1.575 1.19
      vertex 20.6 5.925 0.0100004
    endloop
  endfacet
  facet normal 1 -0 0
    outer loop
      vertex 11.4 -2.175 0.0100004
      vertex 11.4 5.925 5.72205e-07
      vertex 11.4 5.925 0.0100004
    endloop
  endfacet
  facet normal 1 0 0
    outer loop
      vertex 11.4 5.925 5.72205e-07
      vertex 11.4 -2.175 0.0100004
      vertex 11.4 -2.175 5.72205e-07
    endloop
  endfacet
  facet normal 0.897347 1.24975e-05 -0.441325
    outer loop
      vertex 12 -1.575 1.23
      vertex 11.4 -2.175 0.0100004
      vertex 11.9803 -1.575 1.19
    endloop
  endfacet
  facet normal 0.89735 0 -0.44132
    outer loop
      vertex 11.9803 -1.575 1.19
      vertex 11.4 5.925 0.0100004
      vertex 11.9803 5.925 1.19
    endloop
  endfacet
  facet normal 0.89735 0 -0.44132
    outer loop
      vertex 11.4 5.925 0.0100004
      vertex 11.9803 -1.575 1.19
      vertex 11.4 -2.175 0.0100004
    endloop
  endfacet
  facet normal 0 1 -0
    outer loop
      vertex 20.6 -2.175 5.72205e-07
      vertex 11.4 -2.175 0.0100004
      vertex 20.6 -2.175 0.0100004
    endloop
  endfacet
  facet normal 0 1 0
    outer loop
      vertex 11.4 -2.175 0.0100004
      vertex 20.6 -2.175 5.72205e-07
      vertex 11.4 -2.175 5.72205e-07
    endloop
  endfacet
  facet normal 0 0.89735 -0.44132
    outer loop
      vertex 20.6 -2.175 0.0100004
      vertex 12 -1.575 1.23
      vertex 20 -1.575 1.23
    endloop
  endfacet
  facet normal 0 0.89735 -0.44132
    outer loop
      vertex 12 -1.575 1.23
      vertex 20.6 -2.175 0.0100004
      vertex 11.4 -2.175 0.0100004
    endloop
  endfacet
  facet normal -1 0 0
    outer loop
      vertex -23.85 5.925 5.72205e-07
      vertex -23.85 -1.575 1.19
      vertex -23.85 5.925 1.19
    endloop
  endfacet
  facet normal -1 0 0
    outer loop
      vertex -23.85 -1.575 1.19
      vertex -23.85 -5.325 1.19
      vertex -23.85 -1.575 2.2
    endloop
  endfacet
  facet normal -1 0 0
    outer loop
      vertex -23.85 -5.925 5.72205e-07
      vertex -23.85 -1.575 1.19
      vertex -23.85 5.925 5.72205e-07
    endloop
  endfacet
  facet normal -1 -0 0
    outer loop
      vertex -23.85 -1.575 1.19
      vertex -23.85 -5.925 5.72205e-07
      vertex -23.85 -5.325 1.19
    endloop
  endfacet
  facet normal -1 -0 0
    outer loop
      vertex -23.85 -5.325 1.19
      vertex -23.85 -5.925 5.72205e-07
      vertex -23.85 -5.925 1.19
    endloop
  endfacet
  facet normal -1 -0 0
    outer loop
      vertex -23.85 -1.575 2.2
      vertex -23.85 -5.325 1.19
      vertex -23.85 -5.325 2.2
    endloop
  endfacet
endsolid OpenSCAD_Model
